<?xml version="1.0" encoding="utf-8"?>
<!-- Generator: Adobe Illustrator 24.2.1, SVG Export Plug-In . SVG Version: 6.00 Build 0)  -->
<svg version="1.1" id="Layer_1" xmlns="http://www.w3.org/2000/svg" xmlns:xlink="http://www.w3.org/1999/xlink" x="0px" y="0px"
	 viewBox="0 0 595.28 841.89" style="enable-background:new 0 0 595.28 841.89;" xml:space="preserve">
<style type="text/css">
	.st0{fill:#FFFFFF;}
	.st1{fill:#F6DE39;stroke:#000000;stroke-width:1.8733;stroke-miterlimit:10;}
	.st2{fill:#F16E23;stroke:#000000;stroke-width:1.4071;stroke-miterlimit:10;}
	.st3{fill:#FFFFFF;stroke:#000000;stroke-width:1.8733;stroke-miterlimit:10;}
	.st4{fill:#ED1C24;stroke:#000000;stroke-width:1.8733;stroke-miterlimit:10;}
	.st5{fill:#F16E23;stroke:#000000;stroke-width:1.8733;stroke-miterlimit:10;}
	.st6{fill:none;stroke:#000000;stroke-width:1.8733;stroke-miterlimit:10;}
	.st7{fill:#F6DE39;stroke:#000000;stroke-width:1.4071;stroke-miterlimit:10;}
</style>
<g>
	<g>
		<path class="st0" d="M543.83,735.29H52.98c-6.6,0-12-5.4-12-12V54.94c0-6.6,5.4-12,12-12h490.85c6.6,0,12,5.4,12,12v668.35
			C555.83,729.89,550.43,735.29,543.83,735.29z"/>
		<g>
			<path d="M549.4,732.71c-6.2,0-12.39,0-18.59,0c-16.41,0-32.82,0-49.23,0c-23.62,0-47.24,0-70.86,0c-27.52,0-55.04,0-82.56,0
				c-28.4,0-56.8,0-85.2,0c-26.27,0-52.53,0-78.8,0c-20.8,0-41.6,0-62.41,0c-12.37,0-24.74,0-37.12,0c-1.99,0-4.02,0.1-6.01,0
				c-7.04-0.36-10.93-6.35-10.96-12.85c-0.03-7.07,0-14.15,0-21.23c0-14.79,0-29.58,0-44.37c0-20.7,0-41.4,0-62.11
				c0-25.09,0-50.18,0-75.28c0-27.6,0-55.2,0-82.8c0-28.53,0-57.05,0-85.58c0-27.88,0-55.77,0-83.65c0-25.34,0-50.67,0-76.01
				c0-21.3,0-42.61,0-63.91c0-15.42,0-30.84,0-46.26c0-7.95,0-15.91,0-23.86c0-0.63-0.02-1.25,0-1.88c0-0.09,0-0.18,0-0.27
				c0.07-2,0.49-3.89,1.52-5.64c0.64-1.08,1.51-1.84,2.29-2.79c1.61-1.97,3.56,2.5-4.06,1.29c1.64,0.26,3.53,0,5.19,0
				c11.86,0,23.71,0,35.57,0c20.56,0,41.12,0,61.68,0c25.98,0,51.96,0,77.94,0c28.36,0,56.72,0,85.09,0c27.74,0,55.48,0,83.22,0
				c23.78,0,47.56,0,71.34,0c16.87,0,33.75,0,50.62,0c6.68,0,13.47-0.34,20.15,0c11.92,0.61,10.92,12.3,10.92,20.63
				c0,11.29,0,22.58,0,33.86c0,18.03,0,36.06,0,54.08c0,23.22,0,46.45,0,69.67c0,26.55,0,53.1,0,79.65c0,28.29,0,56.57,0,84.86
				c0,28.46,0,56.92,0,85.38c0,26.72,0,53.45,0,80.17c0,23.51,0,47.02,0,70.54c0,18.43,0,36.86,0,55.29c0,11.78,0,23.55,0,35.33
				c0,2.81,0,5.62,0,8.43c0,0.61,0.01,1.23,0,1.84c0,0.1,0,0.2,0,0.29c-0.04,1.39-0.22,2.75-0.73,4.06
				c-0.42,1.09-1.05,2.13-1.78,3.04c-0.28,0.34-0.68,0.65-0.93,1C544.1,735.91,541.29,733.02,549.4,732.71
				c-3.16,0.12-6.47,1.35-9.31,2.68c-0.73,0.34-4.72,2.6-1.83,2.49c10.46-0.41,24.18-5.76,24.26-17.83c0.02-2.4,0-4.8,0-7.19
				c0-11.13,0-22.26,0-33.38c0-18.03,0-36.05,0-54.08c0-23.34,0-46.68,0-70.02c0-26.85,0-53.71,0-80.56c0-28.52,0-57.04,0-85.55
				c0-28.68,0-57.36,0-86.03c0-26.99,0-53.98,0-80.97c0-23.48,0-46.96,0-70.44c0-18.43,0-36.85,0-55.28c0-11.53,0-23.07,0-34.6
				c0-2.63,0-5.27,0-7.9c0-7.7-5.16-13.49-13.13-13.7c-6.38-0.17-12.78,0-19.16,0c-16.8,0-33.6,0-50.39,0c-23.88,0-47.76,0-71.64,0
				c-27.94,0-55.89,0-83.83,0c-28.59,0-57.18,0-85.77,0c-26.25,0-52.5,0-78.76,0c-20.58,0-41.16,0-61.74,0c-11.66,0-23.32,0-34.98,0
				c-11.92,0-28.77,3.57-28.84,17.95c-0.04,7.1,0,14.19,0,21.29c0,14.93,0,29.87,0,44.8c0,21.02,0,42.05,0,63.07
				c0,25.27,0,50.54,0,75.81c0,27.99,0,55.97,0,83.96c0,28.87,0,57.74,0,86.61c0,27.91,0,55.82,0,83.74c0,25.45,0,50.89,0,76.34
				c0,21.13,0,42.25,0,63.38c0,15.03,0,30.05,0,45.08c0,7.31-0.03,14.63,0,21.94c0.03,7.68,5.26,13.35,13.14,13.56
				c1.8,0.05,3.62,0,5.42,0c12.11,0,24.23,0,36.34,0c20.89,0,41.79,0,62.68,0c26.43,0,52.85,0,79.28,0c28.62,0,57.25,0,85.87,0
				c27.84,0,55.67,0,83.51,0c23.72,0,47.43,0,71.15,0c16.33,0,32.65,0,48.98,0c5.87,0,11.73,0,17.6,0c3.12,0,6.53-1.37,9.31-2.68
				C548.35,734.83,552.26,732.71,549.4,732.71z"/>
		</g>
	</g>
	<g>
		<polygon class="st1" points="306.34,508.94 299.82,561.95 264.48,568.3 264.48,573.86 298.18,569.89 316.72,589.74 325.31,585.77 
			308.87,573.86 330.94,581.8 335.99,577.04 312.98,569.89 339.51,571.48 339.51,564.33 308.87,560.36 316.26,511.03 		"/>
		<path class="st2" d="M151.89,330.82c0,0-29.59,184.24,170.15,150.88c0,0,173.44-23.03,155.36-146.91l58.36-20.65l-58.36-36.53
			c0,0,15.62-56.38-3.29-51.62c0,0-11.51-1.59-12.33,21.44c0,0,4.93-35.74-6.58-31.76c0,0-14.8-7.15-13.97,24.62
			c0,0,6.58-36.53-8.22-31.76c0,0-13.15-3.97-13.15,28.59c0,0-36.99,2.38-38.63,39.71l-160.29,5.56c0,0-7.4-81-33.7-61.15
			s-1.64,46.06-1.64,46.06s-35.35-68.29-52.61-42.88s25.48,56.38,25.48,56.38s-58.36-64.32-69.05-44.47s33.7,55.59,33.7,55.59
			s-58.4,18.26-35.36,36.53S151.89,330.82,151.89,330.82z"/>
		<ellipse class="st3" cx="441.82" cy="289.29" rx="22.43" ry="21.67"/>
		<path class="st4" d="M441.82,341.94c0,0-35.11,37.32-7.98,42.88c27.13,5.56,25.48-30.97,25.48-30.97s-12.59,47.53,9.74,42.03
			c22.32-5.5,9.58-38.99,9.58-38.99s6.16,40.64,18.49,29.52c12.33-11.12-18.89-44.47-18.89-44.47H441.82z"/>
		<path class="st5" d="M255.5,484.59c0,0-23.05,20.94-14.83,28.09c8.22,7.15,14.83-4.76,14.83-4.76s-4.97,10.92,5.72,7.05
			c10.69-3.87,4.93-8.64,4.93-8.64s-0.82,15.76,10.69,9.47s6.58-14.86,6.58-14.86l-4.11-15.19"/>
		<path class="st5" d="M308.4,480.18c0,0-23.05,20.94-14.83,28.09c8.22,7.15,14.83-4.76,14.83-4.76s-4.97,10.92,5.72,7.05
			c10.69-3.87,4.93-8.64,4.93-8.64s-0.82,15.76,10.69,9.47c11.51-6.29,6.58-14.86,6.58-14.86l-4.11-15.19"/>
		<path class="st6" d="M369.72,362.58c0,0,3.65,68.29-60.65,65.91c-64.3-2.38-84.85-1.53-88.96-32.93c0,0-41.92,9.9-37.81-15.52
			c4.11-25.41,35.35-10.92,35.35-10.92s-45.21-6.55-27.13-27.19s38.63,9.53,38.63,9.53s-26.3-20.65-13.15-29.38
			c13.15-8.74,32.88,14.29,32.88,14.29"/>
		<polygon class="st1" points="251.29,512.87 244.78,565.88 209.43,572.23 209.43,577.79 243.13,573.82 261.68,593.67 270.26,589.7 
			253.82,577.79 275.89,585.73 280.95,580.97 257.93,573.82 284.46,575.41 284.46,568.26 253.82,564.29 261.22,514.96 		"/>
		<g>
			<g>
				<path d="M455.24,292.52c-1.23-1.27-3.28-1.58-4.95-1.24c-2.33,0.47-4.54,1.9-5.5,4.15c-1.69,4,1.51,7.91,5.47,8.48
					c4.22,0.6,9.29-2.06,10.8-6.12c0.79-2.14,0.2-4.42-1.76-5.66c-1.82-1.15-3.89-1.22-5.93-0.68c-3.75,1-7.66,5.28-6.32,9.39
					c0.34,1.04,1.04,1.67,2.15,1.82c4.23,0.55,8.93,0.21,11.54-3.68c1.14-1.7,1.58-3.83,0.66-5.73c-0.69-1.43-2.17-2.42-3.66-2.87
					c-3.71-1.13-8.41-0.98-10.98,2.34c-1.27,1.64-1.41,3.66-1.64,5.64c-0.22,1.96-0.45,3.93-0.67,5.89
					c-0.14,1.24,0.9,2.55,2.19,2.56c4.67,0.06,9.66-0.99,12.96-4.57c2.83-3.07,4.52-8.09,1.72-11.75
					c-3.01-3.94-8.46-4.29-12.25-1.25c-3.22,2.59-3.9,6.83-4.64,10.64c-0.44,2.25-1.63,5.3,0.12,7.22c1.6,1.76,4.45,1.49,6.48,0.7
					c1.85-0.72,3.66-1.8,5.34-2.86c1.72-1.09,3.39-2.33,4.74-3.86c2.59-2.91,4.19-6.76,2.97-10.66c-1.17-3.72-4.22-6.18-8.21-5.96
					c-5.11,0.28-9.43,4.76-11.79,8.97c-2.4,4.3-3.46,9.04-2.9,13.95c0.2,1.73,2.52,2.13,3.85,1.62c1.64-0.63,2.92-2.05,2.71-3.88
					c-0.15-1.27-0.14-2.4,0.07-3.97c0.05-0.34,0.1-0.68,0.17-1.02c0.02-0.13,0.22-0.98,0.11-0.54c0.2-0.77,0.44-1.52,0.73-2.26
					c0.13-0.32,0.26-0.64,0.41-0.96c0.07-0.14,0.47-0.95,0.21-0.46c0.37-0.7,0.8-1.38,1.26-2.03c0.2-0.28,0.41-0.56,0.63-0.84
					c0.06-0.08,0.46-0.56,0.19-0.24c-0.25,0.29,0.08-0.08,0.11-0.11c0.55-0.59,1.12-1.16,1.76-1.66c-0.55,0.44,0.17-0.09,0.38-0.22
					c0.09-0.06,0.65-0.39,0.24-0.16c-0.36,0.21,0.05-0.02,0.12-0.05c0.19-0.07,0.37-0.13,0.56-0.2c-0.13,0.05-0.64,0.08,0.01,0
					c0.15-0.02,0.3-0.03,0.45-0.04c0.36-0.04-0.31-0.09,0.14,0.03c0.1,0.02,0.23,0.05,0.32,0.05c0.37,0.02-0.41-0.24-0.14-0.02
					c0.16,0.13,0.48,0.2,0.67,0.29c-0.51-0.24-0.1-0.05,0.13,0.14c0.18,0.15,0.73,0.82,0.32,0.25c0.29,0.41,0.57,0.8,0.8,1.26
					c0.06,0.13,0.12,0.26,0.18,0.4c-0.02-0.05-0.13-0.47-0.08-0.18c0.05,0.32,0.19,0.64,0.25,0.96c0.05,0.25,0.05,0.52,0.11,0.77
					c0.07,0.3,0-0.14,0-0.19c0,0.15,0,0.3,0,0.45c-0.01,0.26-0.03,0.52-0.07,0.77c-0.02,0.15-0.06,0.29-0.07,0.44
					c-0.04,0.37,0.23-0.64-0.01-0.01c-0.09,0.24-0.18,0.48-0.28,0.72c-0.12,0.28,0.07-0.1,0.08-0.13c-0.09,0.16-0.19,0.33-0.29,0.49
					c-0.17,0.28-0.36,0.55-0.56,0.81c-0.06,0.08-0.45,0.54-0.16,0.21c0.31-0.35-0.29,0.29-0.29,0.29c-0.47,0.48-0.98,0.91-1.5,1.33
					c0.57-0.46-0.08,0.05-0.31,0.21c-0.36,0.25-0.73,0.49-1.11,0.72c-0.59,0.36-1.19,0.71-1.79,1.04c-0.3,0.17-0.6,0.33-0.91,0.49
					c-0.13,0.07-0.26,0.14-0.39,0.21c-0.04,0.02-0.89,0.44-0.3,0.17c0.55-0.25-0.32,0.1-0.46,0.15c-0.66,0.24,0.17-0.05,0.16-0.03
					c-0.02,0.04-0.48,0.04-0.46,0.05c-0.01-0.01,0.64,0.02,0.28-0.02c-0.35-0.04,0.32,0.11,0.42,0.17c0.16,0.11,0.27,0.22,0.37,0.39
					c-0.14-0.26-0.15-0.22-0.03,0.13c0.05,0.35,0.08,0.39,0.09,0.13c0.16-0.3,0.15-0.89,0.22-1.24c0.1-0.49,0.19-0.98,0.29-1.47
					c0.18-0.92,0.36-1.84,0.54-2.76c0.07-0.35,0.13-0.7,0.21-1.04c0.03-0.14,0.29-1.12,0.1-0.48c0.18-0.62,0.35-1.23,0.59-1.83
					c0.11-0.27,0.23-0.54,0.36-0.8c-0.35,0.71,0.15-0.17,0.25-0.32c0.32-0.5-0.46,0.45,0.13-0.14c0.02-0.02,0.25-0.25,0.27-0.24
					c0.04,0.02-0.67,0.41-0.05,0.09c0.44-0.22-0.62,0.3-0.17,0.08c0.06-0.03,0.29-0.13,0.36-0.12c-0.13,0.03-0.25,0.06-0.38,0.1
					c0.08-0.01,0.16-0.02,0.24-0.03c0.05,0.01,0.5,0.02,0.07-0.01c-0.43-0.03,0.43,0.08,0.56,0.1c-0.58-0.1-0.18-0.05-0.04,0.01
					c0.19,0.09,0.39,0.16,0.57,0.25c0.3,0.13-0.05-0.05-0.09-0.07c0.18,0.11,0.35,0.23,0.51,0.36c0.15,0.12,0.83,0.85,0.49,0.41
					c0.2,0.26,0.36,0.55,0.54,0.83c0.07,0.11,0.19,0.49,0.02-0.01c0.05,0.17,0.1,0.33,0.14,0.5c0.04,0.18,0.06,0.36,0.1,0.54
					c0.09,0.49,0.03-0.08,0.01,0.21c-0.01,0.14-0.01,0.27-0.03,0.41c0-0.01-0.12,0.77-0.05,0.43c0.07-0.35-0.07,0.2-0.09,0.28
					c-0.07,0.22-0.16,0.43-0.25,0.65c-0.02,0.04-0.23,0.45-0.06,0.13c0.2-0.36-0.19,0.29-0.24,0.36c-0.11,0.16-0.23,0.3-0.33,0.46
					c0.16-0.25,0.28-0.29,0.02-0.03c-0.13,0.13-0.27,0.27-0.41,0.4c-0.08,0.07-0.71,0.53-0.29,0.26c0.38-0.25-0.06,0.02-0.11,0.06
					c-0.22,0.13-0.43,0.26-0.65,0.38c-0.1,0.05-0.68,0.31-0.25,0.13c0.46-0.19-0.42,0.15-0.41,0.15c-0.38,0.14-0.77,0.25-1.16,0.36
					c0.13-0.04,0.62-0.11-0.04,0c-0.2,0.04-0.4,0.07-0.61,0.1c-0.46,0.07-0.92,0.12-1.38,0.15c-0.15,0.01-0.31,0.02-0.46,0.03
					c-0.03,0-1.01,0-0.4,0.01c0.73,0.85,1.46,1.71,2.19,2.56c0.3-2.65,0.61-5.29,0.91-7.94c0.09-0.77-0.19,0.34,0.08-0.37
					c0.22-0.6-0.07,0.12-0.22,0.27c-0.12,0.09-0.24,0.18-0.35,0.26c0.28-0.16,0.29-0.17,0.02-0.03c-0.27,0.13-0.26,0.13,0.05,0.02
					c-0.12,0.03-0.23,0.05-0.35,0.08c0.27-0.04,0.53-0.07,0.81-0.09c0.84-0.07-0.58-0.07,0.26,0.01c0.48,0.04,0.95,0.08,1.42,0.17
					c0.26,0.05,0.54,0.14,0.13,0.01c0.25,0.08,0.49,0.15,0.73,0.25c0.08,0.03,0.65,0.36,0.34,0.15c-0.43-0.28,0.55,0.5,0.18,0.13
					c-0.26-0.27,0.13,0.21,0.18,0.29c-0.25-0.38,0-0.03,0.03,0.24c-0.01-0.09-0.02-0.18-0.03-0.26c-0.05,0.34-0.04,0.32,0.04-0.05
					c-0.03,0.08-0.06,0.15-0.09,0.23c0.19-0.32,0.22-0.38,0.1-0.18c-0.27,0.34-0.29,0.3,0.02,0.04c-0.13,0.11-0.82,0.68-0.07,0.09
					c-0.08,0.04-0.15,0.09-0.23,0.13c0.49-0.21,0.51-0.23,0.07-0.06c-0.11,0.03-0.21,0.06-0.32,0.1c0.27-0.06,0.28-0.07,0.05-0.03
					c-0.27,0-0.56,0.07-0.83,0.08c0.46-0.02-0.52-0.02-0.52-0.02c-0.68-0.04-1.36-0.13-2.03-0.22c0.72,0.61,1.44,1.21,2.15,1.82
					c-0.06-0.18-0.17-1.07-0.16-0.34c0-0.22,0.03-0.43,0.05-0.64c-0.06,0.71-0.01,0.16,0.06-0.07c0.15-0.32,0.12-0.27-0.09,0.15
					c0.08-0.13,0.16-0.25,0.25-0.37c0.34-0.54-0.52,0.42,0.02-0.01c0.11-0.11,0.22-0.21,0.34-0.3c-0.42,0.31-0.51,0.38-0.29,0.23
					c0.1-0.06,0.19-0.12,0.29-0.18c0.35-0.18,0.27-0.15-0.23,0.1c0.1-0.04,0.21-0.08,0.32-0.12c0.25-0.08,0.14-0.06-0.32,0.05
					c0.03-0.16,1.03,0.04,0.47-0.08c-0.65-0.14,0.9,0.37-0.08-0.02c0.15,0.06,0.67,0.12,0.25,0.05c0.25,0.24,0.31,0.26,0.19,0.06
					c0.14,0.26,0.18,0.29,0.09,0.1c-0.07-0.19-0.06-0.15,0,0.12c-0.01-0.34-0.03-0.35-0.06-0.02c0.08-0.31,0.08-0.36,0-0.15
					c-0.09,0.21-0.06,0.16,0.09-0.14c-0.09,0.16-0.2,0.31-0.31,0.45c0.25-0.28,0.29-0.34,0.12-0.16c-0.75,0.57,0.45-0.16-0.24,0.21
					c-0.28,0.15-0.76,0.41-0.18,0.16c-0.36,0.16-0.73,0.3-1.11,0.39c0.58-0.14-0.04-0.03-0.29-0.01c0.63-0.06-0.16-0.03-0.32-0.04
					c-0.35-0.06-0.38-0.07-0.09,0c-0.16-0.05-0.32-0.12-0.47-0.19c0.43,0.18-0.05-0.03-0.22-0.16c-0.14-0.12-0.53-0.55-0.23-0.16
					c-0.21-0.26-0.38-0.55-0.52-0.85c0.2,0.44,0.04-0.03-0.01-0.24c0.13,0.55,0.01,0,0.03-0.22c-0.1,0.35-0.09,0.38,0.01,0.09
					c-0.24,0.42-0.26,0.48-0.06,0.19c-0.33,0.37-0.4,0.46-0.21,0.29c0.21-0.18,0.1-0.1-0.32,0.24c0.34-0.19,0.25-0.15-0.27,0.11
					c0.28-0.09,0.27-0.1-0.02-0.03c-0.29,0.06-0.29,0.06-0.01,0.01c0.35-0.03,0.28-0.03-0.19-0.02c0.66,0.05-0.56-0.24,0.05-0.01
					c0.29,0.14,0.25,0.11-0.11-0.07c0.11,0.09,0.21,0.18,0.31,0.29c1.2,1.23,3.66,0.45,4.7-0.6
					C456.07,295.48,456.5,293.82,455.24,292.52L455.24,292.52z"/>
			</g>
		</g>
		<path class="st4" d="M419.86,237.11c0,0-4.11-30.97,13.15-28.59s8.22,31.76,8.22,31.76s0.82-30.18,13.97-24.62
			s6.58,31.76,6.58,31.76s4.93-24.59,12.33-21.44c7.4,3.15,16.44,7.94,3.29,51.62L419.86,237.11z"/>
		<polygon class="st4" points="477.4,334.79 477.4,310.97 477.4,277.61 		"/>
		<polygon class="st7" points="477.4,334.79 477.4,277.61 535.77,314.14 		"/>
	</g>
</g>
</svg>
