<?xml version="1.0" encoding="utf-8"?>
<!-- Generator: Adobe Illustrator 24.2.1, SVG Export Plug-In . SVG Version: 6.00 Build 0)  -->
<svg version="1.1" id="Layer_1" xmlns="http://www.w3.org/2000/svg" xmlns:xlink="http://www.w3.org/1999/xlink" x="0px" y="0px"
	 viewBox="0 0 595.28 841.89" style="enable-background:new 0 0 595.28 841.89;" xml:space="preserve">
<style type="text/css">
	.st0{fill:#FFFFFF;}
	.st1{fill:#F6DE39;stroke:#000000;stroke-width:1.8215;stroke-miterlimit:10;}
	.st2{fill:#F0E6F1;stroke:#000000;stroke-width:1.3683;stroke-miterlimit:10;}
	.st3{fill:#FFFFFF;stroke:#000000;stroke-width:1.8215;stroke-miterlimit:10;}
	.st4{fill:#ED1C24;stroke:#000000;stroke-width:1.8215;stroke-miterlimit:10;}
	.st5{fill:#F0E6F1;stroke:#000000;stroke-width:1.8215;stroke-miterlimit:10;}
	.st6{fill:none;stroke:#000000;stroke-width:1.8215;stroke-miterlimit:10;}
	.st7{fill:#F6DE39;stroke:#000000;stroke-width:1.3683;stroke-miterlimit:10;}
</style>
<g>
	<g>
		<path class="st0" d="M526.62,735.29H61.77c-6.6,0-12-5.4-12-12V64.49c0-6.6,5.4-12,12-12h464.85c6.6,0,12,5.4,12,12v658.8
			C538.62,729.89,533.22,735.29,526.62,735.29z"/>
		<g>
			<path d="M532.01,732.79c-6.1,0-12.19,0-18.29,0c-16.27,0-32.53,0-48.8,0c-23.13,0-46.25,0-69.38,0c-26.87,0-53.75,0-80.62,0
				c-27.46,0-54.91,0-82.37,0c-24.97,0-49.94,0-74.91,0c-19.1,0-38.21,0-57.31,0c-10.19,0-20.37,0-30.56,0
				c-5.98,0-11.66-2.36-13.22-8.96c-0.44-1.88-0.32-3.91-0.32-5.83c0-8.31,0-16.62,0-24.92c0-15.34,0-30.67,0-46.01
				c0-20.88,0-41.76,0-62.65c0-24.68,0-49.35,0-74.03c0-26.97,0-53.94,0-80.91c0-27.69,0-55.37,0-83.06c0-26.93,0-53.87,0-80.8
				c0-24.38,0-48.76,0-73.14c0-20.36,0-40.72,0-61.08c0-14.77,0-29.53,0-44.3c0-7.6,0-15.19,0-22.79c0-0.6-0.02-1.2,0-1.8
				c0-0.08,0-0.16,0-0.24c0.07-2.17,0.58-4.17,1.76-6.02c0.59-0.92,1.4-1.6,2.07-2.43c1.53-1.9,3.19,2.38-3.69,1.16
				c1.58,0.28,3.48,0,5.08,0c11.77,0,23.54,0,35.3,0c20.18,0,40.36,0,60.54,0c25.46,0,50.91,0,76.37,0c27.68,0,55.36,0,83.05,0
				c26.51,0,53.02,0,79.52,0c22.28,0,44.56,0,66.85,0c14.89,0,29.79,0,44.68,0c9.04,0,23.25-2.28,24.34,10.77
				c0.38,4.6,0.04,9.36,0.04,13.97c0,12.2,0,24.39,0,36.59c0,18.37,0,36.74,0,55.11c0,23,0,46,0,69c0,26.06,0,52.11,0,78.17
				c0,27.65,0,55.3,0,82.95c0,27.44,0,54.87,0,82.31c0,25.76,0,51.51,0,77.27c0,22.5,0,45,0,67.5c0,17.67,0,35.34,0,53.01
				c0,11.26,0,22.52,0,33.78c0,2.68,0,5.36,0,8.04c0,0.58,0.01,1.16,0,1.73c0,0.1,0,0.2,0,0.29c-0.05,1.4-0.22,2.76-0.74,4.07
				c-0.43,1.08-1.05,2.14-1.78,3.04c-0.29,0.36-0.6,0.69-0.94,1.01C526.43,735.72,527.24,732.98,532.01,732.79
				c-3.06,0.12-6.26,1.3-9.01,2.59c-0.71,0.33-4.56,2.52-1.77,2.41c10.32-0.4,23.77-5.71,23.87-17.6c0.02-2.28,0-4.55,0-6.83
				c0-10.57,0-21.14,0-31.71c0-17.33,0-34.66,0-51.99c0-22.33,0-44.65,0-66.98c0-25.77,0-51.53,0-77.3c0-27.71,0-55.41,0-83.12
				c0-27.91,0-55.82,0-83.73c0-26.38,0-52.76,0-79.14c0-23.35,0-46.69,0-70.04c0-18.76,0-37.52,0-56.29c0-12.41,0-24.81,0-37.22
				c0-4.51,0.14-9.05,0-13.56c-0.23-7.32-6.11-12.13-13.16-12.3c-0.62-0.01-1.24,0-1.85,0c-3.52,0-7.03,0-10.55,0
				c-14.75,0-29.5,0-44.26,0c-22.44,0-44.89,0-67.33,0c-26.81,0-53.63,0-80.44,0c-27.79,0-55.59,0-83.38,0c-25.63,0-51.26,0-76.9,0
				c-20.3,0-40.59,0-60.89,0c-11.54,0-23.09,0-34.63,0c-11.75,0-28.33,3.52-28.41,17.72c-0.04,6.76,0,13.52,0,20.28
				c0,14.29,0,28.58,0,42.87c0,20.08,0,40.17,0,60.25c0,24.41,0,48.82,0,73.23c0,26.92,0,53.84,0,80.76c0,27.9,0,55.81,0,83.71
				c0,27.38,0,54.76,0,82.14c0,25.11,0,50.22,0,75.33c0,21.13,0,42.26,0,63.39c0,15.64,0,31.28,0,46.92c0,8.55,0,17.11,0,25.66
				c0,1.67-0.12,3.44,0.14,5.1c1.21,7.73,8.23,10.45,15.08,10.45c9.98,0,19.96,0,29.94,0c19.11,0,38.21,0,57.32,0
				c25.01,0,50.02,0,75.03,0c27.78,0,55.57,0,83.35,0c27.19,0,54.37,0,81.56,0c23.23,0,46.45,0,69.68,0c16.14,0,32.27,0,48.41,0
				c5.81,0,11.63,0,17.44,0c3.01,0,6.32-1.33,9.01-2.59C531,734.84,534.78,732.79,532.01,732.79z"/>
		</g>
	</g>
	<g>
		<polygon class="st1" points="289.07,507.83 282.94,561.11 249.69,567.5 249.69,573.09 281.39,569.1 298.84,589.05 306.91,585.06 
			291.44,573.09 312.21,581.07 316.96,576.28 295.31,569.1 320.27,570.69 320.27,563.51 291.44,559.52 298.4,509.93 		"/>
		<path class="st2" d="M143.79,328.78c0,0-27.83,185.2,160.05,151.67c0,0,163.14-23.15,146.13-147.68l54.9-20.75l-54.9-36.72
			c0,0,14.69-56.68-3.09-51.89c0,0-10.82-1.6-11.6,21.55c0,0,4.64-35.92-6.19-31.93c0,0-13.92-7.18-13.14,24.75
			c0,0,6.19-36.72-7.73-31.93c0,0-12.37-3.99-12.37,28.74c0,0-34.79,2.39-36.34,39.91l-150.77,5.59c0,0-6.96-81.42-31.7-61.47
			s-1.55,46.3-1.55,46.3s-33.25-68.65-49.48-43.11s23.97,56.68,23.97,56.68s-54.9-64.66-64.95-44.7s31.7,55.88,31.7,55.88
			s-54.93,18.36-33.26,36.72C105.13,344.74,143.79,328.78,143.79,328.78z"/>
		<ellipse class="st3" cx="416.5" cy="287.03" rx="21.1" ry="21.79"/>
		<path class="st4" d="M416.5,339.95c0,0-33.02,37.52-7.51,43.11s23.97-31.13,23.97-31.13s-11.84,47.78,9.16,42.25
			c21-5.53,9.01-39.2,9.01-39.2s5.8,40.85,17.4,29.68c11.6-11.18-17.77-44.7-17.77-44.7H416.5z"/>
		<path class="st5" d="M241.25,483.34c0,0-21.68,21.05-13.95,28.23c7.73,7.18,13.95-4.79,13.95-4.79s-4.67,10.98,5.38,7.09
			c10.05-3.89,4.64-8.68,4.64-8.68s-0.77,15.84,10.05,9.52c10.82-6.32,6.19-14.94,6.19-14.94l-3.87-15.27"/>
		<path class="st5" d="M291.01,478.92c0,0-21.68,21.05-13.95,28.23c7.73,7.18,13.95-4.79,13.95-4.79s-4.67,10.98,5.38,7.09
			s4.64-8.68,4.64-8.68s-0.77,15.84,10.05,9.52c10.82-6.32,6.19-14.94,6.19-14.94l-3.87-15.27"/>
		<path class="st6" d="M348.69,360.71c0,0,3.43,68.65-57.05,66.26c-60.48-2.39-79.81-1.54-83.67-33.1c0,0-39.43,9.95-35.57-15.6
			c3.87-25.54,33.25-10.98,33.25-10.98s-42.53-6.58-25.52-27.34c17.01-20.75,36.34,9.58,36.34,9.58S191.73,328.78,204.1,320
			s30.93,14.37,30.93,14.37"/>
		<polygon class="st1" points="237.29,511.77 231.16,565.06 197.92,571.45 197.92,577.04 229.62,573.05 247.06,593 255.13,589.01 
			239.67,577.04 260.43,585.02 265.18,580.23 243.53,573.05 268.49,574.64 268.49,567.46 239.67,563.47 246.63,513.87 		"/>
		<g>
			<g>
				<path d="M429.21,290.36c-1.35-1.48-3.66-1.58-5.46-1.07c-1.95,0.56-3.76,2.01-4.54,3.91c-1.58,3.87,1.31,7.88,5.24,8.43
					c4.08,0.58,9.02-2.19,10.29-6.19c0.66-2.07,0.18-4.24-1.71-5.48c-1.72-1.13-3.79-1.25-5.73-0.66c-3.68,1.12-7.2,5.27-5.97,9.29
					c0.31,1.02,1.03,1.62,2.1,1.77c2.12,0.29,4.27,0.44,6.34-0.19c1.9-0.58,3.64-1.85,4.7-3.55c1.08-1.73,1.48-3.93,0.46-5.79
					c-0.75-1.38-2.18-2.28-3.66-2.71c-3.55-1.05-8.07-0.75-10.35,2.58c-1.1,1.61-1.21,3.55-1.41,5.42
					c-0.21,1.97-0.42,3.95-0.63,5.92c-0.13,1.2,0.86,2.48,2.13,2.49c4.89,0.07,9.73-1.3,12.89-5.25c2.47-3.07,3.47-7.94,0.85-11.24
					c-2.97-3.73-8.18-3.98-11.71-0.83c-3.04,2.71-3.57,7.04-4.26,10.81c-0.41,2.25-1.53,5.3,0.43,7.11
					c1.57,1.45,4.14,1.14,5.96,0.41c1.8-0.72,3.54-1.83,5.13-2.91c1.81-1.24,3.43-2.6,4.83-4.29c2.3-2.79,3.44-6.55,2.41-10.1
					c-1.08-3.7-4.02-6.23-7.99-5.94c-5.22,0.38-9.14,5.32-11.36,9.61c-2.12,4.09-2.89,8.72-2.4,13.29c0.18,1.68,2.46,2.07,3.74,1.58
					c1.6-0.61,2.83-1.99,2.64-3.77c-0.26-2.47,0.11-5.39,0.96-7.75c0.24-0.66,0.51-1.31,0.81-1.94c0.09-0.18,0.17-0.36,0.27-0.54
					c-0.03,0.06-0.2,0.37-0.02,0.06c0.2-0.35,0.4-0.69,0.62-1.02c0.38-0.59,0.81-1.13,1.23-1.69c0.22-0.3-0.04,0.04-0.08,0.08
					c0.13-0.15,0.26-0.3,0.4-0.44c0.28-0.3,0.58-0.59,0.88-0.86c0.15-0.14,0.31-0.27,0.47-0.4c-0.06,0.05-0.45,0.28-0.11,0.1
					c0.31-0.17,0.59-0.39,0.92-0.54c-0.08,0.04-0.5,0.16-0.14,0.09c0.09-0.02,0.69-0.19,0.29-0.11c-0.37,0.07,0.12,0,0.16-0.01
					c0.9-0.06-0.21,0.06,0.19,0c0.1-0.02,0.22,0.04,0.32,0.05c-0.52-0.02-0.34-0.12-0.13-0.02c0.1,0.05,0.77,0.37,0.43,0.17
					c-0.31-0.18,0.25,0.2,0.36,0.29c0.19,0.16,0.58,0.69,0.25,0.22c0.3,0.42,0.54,0.84,0.78,1.3c0.22,0.41-0.08-0.37,0.1,0.28
					c0.08,0.3,0.16,0.59,0.22,0.89c0.05,0.27,0.08,0.53,0.11,0.8c0.01,0.05,0.01,0.43,0.01,0.1c-0.01-0.36-0.01,0.13-0.01,0.22
					c-0.02,0.27-0.03,0.54-0.07,0.81c-0.01,0.1-0.06,0.24-0.05,0.34c0.02,0.31,0.17-0.45,0,0.04c-0.09,0.25-0.17,0.5-0.27,0.75
					c-0.05,0.12-0.11,0.24-0.17,0.37c0.06-0.12,0.29-0.47-0.03,0.04c-0.17,0.28-0.35,0.56-0.55,0.83c-0.08,0.11-0.17,0.23-0.25,0.34
					c-0.37,0.5,0.2-0.17-0.08,0.1c-0.48,0.46-0.93,0.94-1.44,1.37c-0.15,0.12-0.94,0.7-0.29,0.24c-0.32,0.22-0.63,0.45-0.95,0.66
					c-1.15,0.77-2.39,1.39-3.57,2.13c-0.31,0.2,0.31-0.17,0.33-0.15c0,0-0.47,0.17-0.43,0.16c-0.58,0.24,0.55-0.12-0.04,0.01
					c-0.51,0.11,0.05,0.01,0.18,0.02c-0.25-0.01-0.36-0.17,0.18,0.06c0.18,0.08,0.29,0.19,0.42,0.33c0.12,0.17,0.14,0.19,0.06,0.05
					c-0.14-0.25-0.1-0.1,0.1,0.46c0.13-0.04,0.38-2.26,0.43-2.52c0.16-0.86,0.31-1.73,0.47-2.59c0.13-0.71,0.25-1.42,0.4-2.13
					c0.04-0.17,0.07-0.34,0.11-0.52c-0.01,0.05-0.11,0.42-0.02,0.09c0.11-0.38,0.21-0.76,0.35-1.14c0.09-0.25,0.18-0.49,0.28-0.73
					c0.07-0.16,0.14-0.31,0.21-0.47c-0.02,0.05-0.29,0.42-0.08,0.16c0.17-0.21,0.34-0.48,0.48-0.71c-0.48,0.8,0.03-0.22,0.28-0.21
					c-0.04,0-0.62,0.38-0.13,0.14c0,0-0.64,0.28-0.27,0.12c0.12-0.05,0.61-0.15,0.16-0.08c-0.45,0.07-0.02,0.01,0.05,0.01
					c0.59,0.01-0.02,0.01-0.1,0c0.03,0.01,0.35,0.02,0.36,0.04c0.04,0.01,0.08,0.01,0.12,0.02c-0.31-0.09-0.36-0.1-0.15-0.03
					c0.14,0.07,0.31,0.12,0.45,0.17c0.07,0.03,0.53,0.27,0.23,0.1c-0.3-0.17,0.31,0.23,0.31,0.23c0.13,0.1,0.76,0.71,0.43,0.33
					c0.22,0.25,0.41,0.54,0.57,0.83c0.06,0.11,0.12,0.22,0.17,0.34c0.12,0.25-0.05-0.32,0.04,0.16c0.03,0.14,0.19,1.07,0.16,0.68
					c0.02,0.38-0.04,0.75-0.07,1.13c-0.01,0.08-0.11,0.55,0,0.1c-0.05,0.18-0.11,0.37-0.17,0.54c-0.07,0.2-0.49,1.05-0.22,0.59
					c-0.19,0.33-0.41,0.65-0.64,0.96c-0.38,0.51-0.09,0.09,0,0c-0.14,0.13-0.27,0.27-0.41,0.4c-0.14,0.13-0.28,0.25-0.43,0.37
					c0.28-0.21,0.23-0.17-0.03-0.01c-0.18,0.1-0.36,0.21-0.53,0.31c-0.55,0.34,0.22-0.04-0.15,0.08c-0.39,0.13-0.77,0.29-1.17,0.41
					c-0.15,0.04-0.3,0.09-0.45,0.12c0.46-0.11-0.01-0.01-0.23,0.03c-0.41,0.07-0.82,0.12-1.24,0.15c-0.16,0.01-0.31,0.02-0.47,0.03
					c-0.01,0-0.98,0.01-0.44,0.02c0.71,0.83,1.42,1.66,2.13,2.49c0.28-2.61,0.51-5.23,0.84-7.83c0.03-0.24,0.05-0.49,0.12-0.72
					c-0.12,0.42,0.37-0.3-0.03,0.13c-0.09,0.1-0.81,0.64-0.49,0.46c0.37-0.21-0.68,0.24-0.06,0.04c-0.73,0.24-0.07,0.02,0.15,0
					c0.09-0.01,0.79-0.02,0.37-0.03c-0.43-0.01,0.28,0.03,0.36,0.03c0.25,0.02,0.5,0.05,0.75,0.09c0.07,0.01,0.75,0.14,0.39,0.06
					c-0.36-0.08,0.3,0.1,0.37,0.12c0.23,0.09,0.48,0.18,0.69,0.31c-0.34-0.2-0.09-0.03,0.08,0.12c0.23,0.2-0.32-0.2,0.08,0.09
					c0.13,0.25,0.16,0.29,0.09,0.12c-0.06-0.18-0.05-0.13,0.02,0.15c0.05-0.4,0-0.05-0.02,0.16c-0.03,0.34,0.08-0.41-0.06,0.13
					c0.13-0.5,0.01-0.04-0.16,0.19c0.39-0.54-0.16,0.14,0.17-0.18c0.23-0.16,0.21-0.15-0.07,0.03c0.12-0.05,0.24-0.1,0.36-0.15
					c-0.06,0.04-0.95,0.27-0.45,0.18c-0.61,0.12-0.88,0.11-1.21,0.08c-0.68-0.06-1.36-0.13-2.03-0.23c0.7,0.59,1.4,1.18,2.1,1.77
					c-0.03-0.08-0.19-0.9-0.15-0.53c0.04,0.37,0.05-0.42,0.06-0.52c-0.04,0.46-0.04,0.23,0.07-0.11c0.2-0.62-0.36,0.45,0.04-0.08
					c0.08-0.13,0.17-0.25,0.26-0.37c-0.3,0.33-0.36,0.41-0.19,0.23c0.08-0.08,0.16-0.16,0.24-0.24c0.29-0.24,0.23-0.2-0.2,0.13
					c0.01,0.01,0.58-0.36,0.58-0.34c-0.46,0.21-0.57,0.26-0.32,0.17c0.1-0.04,0.21-0.07,0.31-0.1c-0.49,0.1-0.56,0.12-0.2,0.06
					c0.07-0.01,0.14-0.01,0.21-0.02c-0.45-0.01-0.51,0-0.17,0.02c0.26,0.05,0.28,0.05,0.05,0c-0.59-0.19,0.75,0.29,0.07,0.03
					c0.08,0.06,0.16,0.12,0.23,0.18c-0.12-0.17-0.1-0.14,0.06,0.11c-0.11-0.29-0.12-0.28-0.05,0.02c-0.01-0.08-0.02-0.16-0.02-0.24
					c-0.05,0.33-0.04,0.33,0.02,0c-0.12,0.28-0.13,0.32-0.02,0.12c0.11-0.31-0.29,0.43-0.38,0.55c0.35-0.44,0.04-0.11-0.18,0.09
					c0.58-0.51-0.11,0.03-0.24,0.11c-0.36,0.19-0.35,0.19,0.03,0c-0.09,0.03-0.18,0.07-0.27,0.1c-0.37,0.11-0.37,0.12,0,0.04
					c-0.14,0.03-0.28,0.05-0.43,0.07c-0.14,0.02-0.28,0.03-0.43,0.04c0.33-0.01,0.32-0.02-0.05-0.04c-0.69-0.26,0.22,0.28-0.34-0.11
					c-0.51-0.36,0.17,0.26-0.25-0.15c-0.14-0.11-0.26-0.22-0.38-0.34c0.15,0.19,0.17,0.21,0.05,0.05c-0.18-0.24-0.34-0.5-0.46-0.77
					c0.19,0.43,0-0.16-0.04-0.3c-0.04-0.29-0.04-0.33-0.02-0.14c0.01,0.19,0.03,0.15,0.04-0.14c-0.09,0.31-0.09,0.32,0.01,0.03
					c-0.06,0.11-0.12,0.22-0.18,0.33c0.21-0.29,0.16-0.24-0.16,0.15c0.28-0.25,0.21-0.2-0.22,0.15c0.53-0.37-0.72,0.21-0.05,0.03
					c-0.46,0.09-0.57,0.12-0.32,0.08c0.23-0.03,0.14-0.03-0.29-0.02c0.64,0.06-0.5-0.21,0.06-0.01c-0.32-0.22-0.35-0.24-0.1-0.06
					c0.11,0.09,0.21,0.19,0.3,0.3c0.47,0.51,1.55,0.62,2.17,0.55c0.83-0.09,1.81-0.53,2.4-1.13
					C430.05,293.2,430.39,291.66,429.21,290.36L429.21,290.36z"/>
			</g>
		</g>
		<path class="st4" d="M395.85,234.58c0,0-3.87-31.13,12.37-28.74c16.24,2.39,7.73,31.93,7.73,31.93s0.77-30.33,13.14-24.75
			c12.37,5.59,6.19,31.93,6.19,31.93s4.64-24.72,11.6-21.55c6.96,3.17,15.46,7.98,3.09,51.89L395.85,234.58z"/>
		<polygon class="st4" points="449.98,332.77 449.98,308.82 449.98,275.29 		"/>
		<polygon class="st7" points="449.98,332.77 449.98,275.29 504.87,312.01 		"/>
	</g>
</g>
</svg>
