<?xml version="1.0" encoding="utf-8"?>
<!-- Generator: Adobe Illustrator 24.2.1, SVG Export Plug-In . SVG Version: 6.00 Build 0)  -->
<svg version="1.1" id="Layer_1" xmlns="http://www.w3.org/2000/svg" xmlns:xlink="http://www.w3.org/1999/xlink" x="0px" y="0px"
	 viewBox="0 0 595.28 841.89" style="enable-background:new 0 0 595.28 841.89;" xml:space="preserve">
<style type="text/css">
	.st0{fill:#FFFFFF;}
	.st1{fill:#835958;stroke:#000000;stroke-width:1.2328;stroke-miterlimit:10;}
	.st2{fill:none;stroke:#000000;stroke-width:1.2328;stroke-miterlimit:10;}
	.st3{fill:#FEEA17;stroke:#000000;stroke-width:1.2328;stroke-miterlimit:10;}
	.st4{fill:#D0DD27;stroke:#000000;stroke-width:1.2328;stroke-miterlimit:10;}
	.st5{fill:#F0EA4F;stroke:#000000;stroke-width:1.2328;stroke-miterlimit:10;}
	.st6{fill:#E9E730;}
</style>
<g>
	<g>
		<path class="st0" d="M527.7,757.87H56.66c-6.6,0-12-5.4-12-12V74.99c0-6.6,5.4-12,12-12H527.7c6.6,0,12,5.4,12,12v670.88
			C539.7,752.47,534.3,757.87,527.7,757.87z"/>
		<g>
			<path d="M533.17,755.33c-6.24,0-12.47,0-18.71,0c-16.54,0-33.08,0-49.62,0c-23.59,0-47.18,0-70.78,0c-27.39,0-54.78,0-82.17,0
				c-27.83,0-55.65,0-83.48,0c-25.25,0-50.5,0-75.75,0c-19.3,0-38.61,0-57.91,0c-10.11,0-20.21,0-30.32,0
				c-6.95,0-12.94-4.05-13.19-11.7c-0.04-1.15,0-2.31,0-3.47c0-8.64,0-17.29,0-25.93c0-15.75,0-31.51,0-47.26
				c0-21.26,0-42.52,0-63.78c0-25.17,0-50.33,0-75.5c0-27.47,0-54.94,0-82.41c0-28.17,0-56.35,0-84.52c0-27.17,0-54.33,0-81.5
				c0-24.79,0-49.57,0-74.36c0-20.69,0-41.38,0-62.07c0-14.99,0-29.98,0-44.98c0-7.68,0-15.36,0-23.03c0-0.61-0.02-1.22,0-1.83
				c0-0.08,0-0.16,0-0.24c0.07-2.17,0.58-4.17,1.76-6.02c0.58-0.92,1.39-1.59,2.06-2.43c1.57-1.94,3.33,2.47-3.85,1.22
				c1.63,0.28,3.55,0,5.19,0c11.96,0,23.93,0,35.89,0c20.59,0,41.18,0,61.76,0c25.96,0,51.92,0,77.88,0c28.08,0,56.16,0,84.24,0
				c26.95,0,53.89,0,80.84,0c22.48,0,44.96,0,67.45,0c14.96,0,29.92,0,44.88,0c9.37,0,23.31-2.09,23.79,11.71c0.16,4.66,0,9.34,0,14
				c0,12.48,0,24.96,0,37.44c0,18.8,0,37.59,0,56.39c0,23.48,0,46.95,0,70.43c0,26.56,0,53.11,0,79.67c0,28.03,0,56.07,0,84.1
				c0,27.91,0,55.82,0,83.73c0,26.18,0,52.36,0,78.55c0,22.77,0,45.54,0,68.31c0,17.95,0,35.9,0,53.84c0,11.42,0,22.85,0,34.27
				c0,2.69,0,5.39,0,8.08c0,0.59,0.02,1.18,0,1.76c0,0.1,0,0.2,0,0.3c-0.05,1.4-0.23,2.75-0.74,4.06c-0.42,1.08-1.05,2.14-1.78,3.04
				c-0.28,0.34-0.69,0.65-0.94,1.01C528.11,758.42,525.46,755.63,533.17,755.33c-3.11,0.12-6.35,1.32-9.14,2.63
				c-0.72,0.34-4.63,2.56-1.8,2.45c10.34-0.4,23.95-5.71,24.05-17.66c0.02-2.3,0-4.59,0-6.89c0-10.72,0-21.44,0-32.16
				c0-17.52,0-35.04,0-52.55c0-22.68,0-45.35,0-68.03c0-26.19,0-52.38,0-78.58c0-28.07,0-56.13,0-84.2c0-28.41,0-56.83,0-85.24
				c0-26.88,0-53.77,0-80.65c0-23.83,0-47.66,0-71.48c0-19.13,0-38.26,0-57.39c0-12.79,0-25.58,0-38.38c0-4.8,0.15-9.63,0-14.43
				c-0.27-8.35-7.23-12.31-14.74-12.31c-3.43,0-6.86,0-10.28,0c-14.81,0-29.62,0-44.44,0c-22.64,0-45.29,0-67.93,0
				c-27.14,0-54.29,0-81.43,0c-28.31,0-56.62,0-84.92,0c-26.14,0-52.28,0-78.42,0c-20.71,0-41.41,0-62.12,0
				c-11.76,0-23.52,0-35.28,0c-11.82,0-28.54,3.53-28.62,17.8c-0.04,6.87,0,13.75,0,20.63c0,14.46,0,28.92,0,43.38
				c0,20.41,0,40.81,0,61.22c0,24.71,0,49.42,0,74.13c0,27.37,0,54.75,0,82.12c0,28.39,0,56.79,0,85.18c0,27.77,0,55.55,0,83.32
				c0,25.51,0,51.02,0,76.53c0,21.61,0,43.22,0,64.82c0,16.06,0,32.13,0,48.19c0,8.88,0,17.75,0,26.63c0,1.23-0.04,2.46,0,3.69
				c0.29,8.48,7.38,12.3,14.93,12.3c9.83,0,19.66,0,29.48,0c19.27,0,38.54,0,57.82,0c25.38,0,50.77,0,76.15,0
				c28.16,0,56.32,0,84.48,0c27.71,0,55.42,0,83.13,0c23.69,0,47.39,0,71.08,0c16.46,0,32.92,0,49.37,0c5.9,0,11.8,0,17.7,0
				c3.06,0,6.41-1.35,9.14-2.63C532.14,757.42,535.98,755.33,533.17,755.33z"/>
		</g>
	</g>
	<g>
		<path class="st1" d="M128.36,378.47c0,0-47.95,203.64,165.97,198.38c209.21-5.14,176.31-144.7,171.96-194.22
			c0,0-103.67,60.45-175.07,55.31C291.22,437.94,161.04,436.06,128.36,378.47z"/>
		<path class="st1" d="M466.29,382.63c-35.39-34.09-115.16-38.59-115.16-38.59c-20.67-4.25-100.26-2.57-100.26-2.57
			c-34.77-0.32-122.51,37.01-118.57,37.01"/>
		<path class="st1" d="M190.65,275.23c0.84-0.26,39.73-32.8,90.02-28.3s80.08,27.01,80.08,27.01s101.59,60.4,105.54,104.53
			c0,0,4.35,40.81-3.1,43.39c0,0-8.69,12.86-21.11,0.64l-2.77-25.64c2.15-14.24-32.72-61.32-85.39-98.48
			c-42.84-30.23-57.01-24.03-72.01-25.72c0,0-36.01-7.72-85.05,27.65c0,0-59.6,49.52-45.94,107.4l-1.64,25.72
			c0,0-20.94,13.12-22.58-10.29c-1.64-23.41,1.86-68.81,1.86-68.81l8.69-23.15C152.78,302.88,180.1,278.44,190.65,275.23z"/>
		<path class="st1" d="M150.45,451.44c0,0,6.46,78.45,32.75,95.83l27.94,13.51c0,0-20.35-29.62-24.83-64.52
			c-0.19-1.45-0.34-2.91-0.47-4.38c-0.68-7.78-0.52-15.78,0.87-23.71l31.56,10.29c0,0,7.77,72.03,20.81,90.04l30.42,3.86
			c0,0-14.38-86.67-11.17-86.87c3.2-0.2,38.93-1.75,38.93-1.75s12.62,84.21,6.39,88.62l34.14-3.86c0,0,13.04-69.46,0-86.18
			l36.63-4.6c0,0,11.8,39.33,0,84.35l32.28-12.86c0,0,17.03-48.88,1.37-83.61l33.52-12.05c0,0,8.2,45.49,0,68"/>
		<path class="st2" d="M128.56,469.75c0,0,20.88,19.85,25.97,11.06l7.58,31.09c0,0-14.08,6.29-18.75-2.87"/>
		<path class="st2" d="M221.43,502.29c0.62,0.64-34.35,0.44-35.59-10.41s0.47,4.38,0.47,4.38l6.21,26.11c0,0,26.63,16.86,33.45,5.93
			c6.83-10.93-3.04-2.89-3.04-2.89L221.43,502.29z"/>
		<path class="st2" d="M263.29,509.98c0,0,32.07,4.01,34.55,0c2.48-4.01,5.9,25.7,5.9,25.7s-25.56,14.14-36.73,0L263.29,509.98z"/>
		<path class="st2" d="M347.1,509.98c0,0,21.77,10.52,31.99-4.07v28.35c0,0-22.68,13.35-34.47,0L347.1,509.98z"/>
		<path class="st2" d="M414.55,495.25c0,0,21.64,4.32,30.48-9.77l-1.05,26.42c0,0-7.3,21.99-29.43,13.89V495.25z"/>
		<path class="st1" d="M150.45,382.63c0,0,65.66-28.94,94.84-27.65c0,0,73.26-3.86,87.53-2.78c0,0,77.86,2.83,96.97,26.28"/>
		<path class="st3" d="M194.75,272.28c0,0-3.93,19.65,12.13,21.27c0,0,26.3-14.16,35.25-16.58c0,0,36.68-7.53,39.79-4.31
			c3.1,3.22,26.49-1.87,46.52,10.05l25.49,15.68c0,0,18.61-3.34,15.51-19.03c0,0-37.94-25.08-47.21-23.92c0,0-43.42-13.21-49-8.92
			c0,0-41.21,1.64-41.4,6.82C231.82,253.32,189.54,269.98,194.75,272.28z"/>
		<path class="st4" d="M128.56,367.32c0,0,9.49,17.66,21.74,7.81l-1.01,58.31c0,0-20.83,9.25-21.9-5.65L128.56,367.32z"/>
		<path class="st5" d="M421.7,361.89c0,0,24.41,0.71,27.36-17.25c0,0,21.57,24.49,17.23,37.99l0.58,30.99c0,0-3.06,21.75-24.79,8.89
			l-2.77-25.64C439.31,396.87,428.64,363.01,421.7,361.89z"/>
		<path class="st1" d="M150.45,382.63v19.17c0,0,74.09,43.59,146.46,36.4s115.42-27.1,142.4-41.33l-5.07-14.24l-27.6-18.13"/>
		<path class="st2" d="M126.27,437.1c0,0,83,57.43,163.09,47.14c0,0,134.75-6.82,178.19-47.14"/>
		<g>
			<g>
				<path class="st6" d="M174.05,402.38c15.7-6.03,30.8-13.53,45.07-22.45c3.36-2.1,0.27-7.43-3.11-5.32
					c-13.8,8.63-28.4,15.99-43.59,21.83c-1.55,0.6-2.62,2.07-2.15,3.79C170.67,401.71,172.49,402.98,174.05,402.38L174.05,402.38z"
					/>
			</g>
		</g>
		<g>
			<g>
				<path class="st6" d="M189.44,382.99c2.79,0.44,5.16,3,7.3,4.68c2.58,2.03,5.17,4.05,7.74,6.09c4.99,3.96,9.88,8.07,14.23,12.74
					c2.71,2.91,7.06-1.46,4.36-4.36c-4.56-4.89-9.71-9.16-14.95-13.31c-2.73-2.16-5.47-4.3-8.2-6.45c-2.64-2.08-5.39-4.8-8.84-5.34
					c-1.64-0.26-3.32,0.42-3.79,2.15C186.88,380.67,187.78,382.74,189.44,382.99L189.44,382.99z"/>
			</g>
		</g>
		<g>
			<g>
				<path class="st6" d="M238.22,412c17.8-6.97,32.12-19.75,47.92-30.12c4.46-2.93,9.06-5.66,13.87-7.99
					c1.5-0.73,1.9-2.86,1.11-4.22c-0.89-1.53-2.71-1.83-4.22-1.11c-16.83,8.16-30.68,21.04-46.64,30.61
					c-4.38,2.62-8.92,5.02-13.67,6.88c-1.55,0.61-2.63,2.07-2.15,3.79C234.83,411.33,236.66,412.61,238.22,412L238.22,412z"/>
			</g>
		</g>
		<g>
			<g>
				<path class="st6" d="M257.25,369.24c18.38,6.23,37.62,9.83,57.01,10.73c1.66,0.08,3.08-1.47,3.08-3.08c0-1.73-1.41-3-3.08-3.08
					c-18.86-0.88-37.49-4.46-55.37-10.51c-1.58-0.53-3.37,0.61-3.79,2.15C254.63,367.14,255.67,368.71,257.25,369.24L257.25,369.24z
					"/>
			</g>
		</g>
		<g>
			<g>
				<path class="st6" d="M349.22,360.13c-16.77,11.79-31.7,26.03-44.25,42.24c-3.64,4.71-7.1,9.56-10.34,14.55
					c-0.91,1.4-0.28,3.4,1.11,4.22c1.5,0.87,3.31,0.3,4.22-1.11c10.8-16.68,24.06-31.72,39.28-44.51c4.22-3.55,8.59-6.9,13.1-10.07
					c1.36-0.96,2-2.69,1.11-4.22C352.65,359.89,350.59,359.17,349.22,360.13L349.22,360.13z"/>
			</g>
		</g>
		<g>
			<g>
				<path class="st6" d="M288.78,404.93c7.07,0.87,13.72,4.43,19.88,8.08c6.7,3.96,13.21,8.19,20.46,11.11
					c1.54,0.62,3.39-0.68,3.79-2.15c0.48-1.76-0.6-3.17-2.15-3.79c-7.05-2.84-13.45-7.27-20.01-11.1c-6.86-4-14.01-7.34-21.96-8.32
					c-1.65-0.2-3.08,1.56-3.08,3.08C285.7,403.69,287.12,404.73,288.78,404.93L288.78,404.93z"/>
			</g>
		</g>
		<g>
			<g>
				<path class="st6" d="M403.76,387.24c-21.72-0.34-43.44,0.18-65.12,1.58c-6.12,0.39-12.24,0.86-18.35,1.39
					c-1.66,0.14-3.08,1.31-3.08,3.08c0,1.56,1.41,3.23,3.08,3.08c21.64-1.88,43.35-2.91,65.07-3.06c6.13-0.04,12.27-0.01,18.4,0.08
					C407.73,393.47,407.73,387.3,403.76,387.24L403.76,387.24z"/>
			</g>
		</g>
		<g>
			<g>
				<path class="st6" d="M374.89,403.42c-1.78-1.8-2.86-4.12-3.95-6.38c-1.37-2.84-2.73-5.67-4.1-8.51
					c-2.73-5.67-5.47-11.35-8.2-17.02c-0.72-1.5-2.86-1.9-4.22-1.11c-1.53,0.9-1.83,2.71-1.11,4.22c2.81,5.82,5.61,11.64,8.42,17.47
					c1.36,2.81,2.71,5.63,4.07,8.44c1.27,2.62,2.67,5.16,4.73,7.25C373.33,410.6,377.69,406.24,374.89,403.42L374.89,403.42z"/>
			</g>
		</g>
		<g>
			<g>
				<path class="st6" d="M379.13,362.96c-16.54,13.26-32.79,26.87-48.75,40.82c-4.51,3.94-9,7.92-13.46,11.91
					c-1.24,1.11-1.13,3.23,0,4.36c1.23,1.23,3.11,1.11,4.36,0c15.8-14.14,31.89-27.96,48.28-41.42c4.62-3.8,9.27-7.57,13.94-11.31
					c1.3-1.04,1.09-3.27,0-4.36C382.21,361.67,380.44,361.91,379.13,362.96L379.13,362.96z"/>
			</g>
		</g>
		<g>
			<g>
				<path class="st6" d="M255.49,387.2c10.02,11.54,20.04,23.09,30.05,34.63c1.09,1.26,3.24,1.12,4.36,0c1.25-1.25,1.09-3.1,0-4.36
					c-10.02-11.54-20.04-23.09-30.05-34.63c-1.09-1.26-3.24-1.12-4.36,0C254.25,384.09,254.4,385.94,255.49,387.2L255.49,387.2z"/>
			</g>
		</g>
		<g>
			<g>
				<path class="st6" d="M225.73,373.03c11.38,16.34,21.81,33.34,31.24,50.87c1.88,3.49,7.2,0.39,5.32-3.11
					c-9.43-17.54-19.86-34.53-31.24-50.87c-0.95-1.36-2.7-1.99-4.22-1.11C225.48,369.61,224.77,371.66,225.73,373.03L225.73,373.03z
					"/>
			</g>
		</g>
		<g>
			<g>
				<path class="st6" d="M204.03,410.74c18.12-8.6,36.69-16.24,55.63-22.85c5.39-1.88,10.8-3.68,16.25-5.4
					c3.77-1.19,2.16-7.14-1.64-5.94c-19.55,6.18-38.74,13.42-57.52,21.65c-5.31,2.33-10.59,4.74-15.83,7.23
					c-1.5,0.71-1.89,2.87-1.11,4.22C200.71,411.18,202.52,411.46,204.03,410.74L204.03,410.74z"/>
			</g>
		</g>
		<g>
			<g>
				<path class="st6" d="M229,423.69c25.43-3.06,50.6-8.08,75.22-15.12c6.9-1.97,13.76-4.11,20.57-6.39
					c1.58-0.53,2.61-2.12,2.15-3.79c-0.42-1.54-2.21-2.68-3.79-2.15c-23.88,8-48.39,14.13-73.23,18.28
					c-6.95,1.16-13.93,2.17-20.92,3.01c-1.65,0.2-3.08,1.27-3.08,3.08C225.92,422.12,227.34,423.89,229,423.69L229,423.69z"/>
			</g>
		</g>
		<g>
			<g>
				<path class="st6" d="M169.94,383.34c3.06-0.82,6.18,1.52,8.62,3.09c2.92,1.88,5.77,3.87,8.54,5.96
					c5.53,4.18,10.68,8.87,15.49,13.86c2.76,2.86,7.11-1.5,4.36-4.36c-5.38-5.59-11.23-10.71-17.45-15.35
					c-3.02-2.25-6.12-4.41-9.33-6.38c-3.58-2.2-7.63-3.9-11.87-2.76C164.48,378.42,166.1,384.37,169.94,383.34L169.94,383.34z"/>
			</g>
		</g>
		<g>
			<g>
				<path class="st6" d="M202.97,373.95c24.65,0,49.31,0,73.96,0c7,0,13.99,0,20.99,0c3.97,0,3.97-6.16,0-6.16
					c-24.65,0-49.31,0-73.96,0c-7,0-13.99,0-20.99,0C199,367.79,198.99,373.95,202.97,373.95L202.97,373.95z"/>
			</g>
		</g>
		<g>
			<g>
				<path class="st6" d="M276.15,363.37c17.74-0.38,35.49-0.19,53.22,0.58c1.66,0.07,3.08-1.47,3.08-3.08
					c0-1.73-1.41-3.01-3.08-3.08c-17.73-0.77-35.48-0.97-53.22-0.58C272.19,357.29,272.17,363.45,276.15,363.37L276.15,363.37z"/>
			</g>
		</g>
		<g>
			<g>
				<path class="st6" d="M196.24,411.89c3.78,2.66,7.55,5.34,11.35,7.97c3.55,2.46,7.29,4.74,11.51,5.84
					c1.61,0.42,3.35-0.53,3.79-2.15c0.44-1.59-0.54-3.37-2.15-3.79c-3.81-0.99-7.1-3.17-10.36-5.44c-3.69-2.57-7.35-5.17-11.03-7.75
					c-1.36-0.96-3.43-0.25-4.22,1.11C194.24,409.22,194.88,410.93,196.24,411.89L196.24,411.89z"/>
			</g>
		</g>
		<g>
			<g>
				<path class="st6" d="M264.06,434.58c17.41,0.48,34.83,0.5,52.24,0.02c4.97-0.14,9.95-0.31,14.92-0.53
					c1.66-0.07,3.08-1.37,3.08-3.08c0-1.61-1.41-3.15-3.08-3.08c-17.4,0.75-34.82,1.02-52.23,0.81c-4.98-0.06-9.95-0.16-14.92-0.3
					C260.09,428.3,260.09,434.46,264.06,434.58L264.06,434.58z"/>
			</g>
		</g>
		<g>
			<g>
				<path class="st6" d="M294.1,385.18c2.41,3.81,6.16,6.21,9.64,8.94c3.75,2.94,7.4,6.01,10.97,9.16
					c7.11,6.27,13.92,12.87,20.73,19.46c2.85,2.76,7.22-1.59,4.36-4.36c-6.7-6.48-13.4-12.97-20.38-19.15
					c-3.45-3.05-6.97-6.03-10.59-8.89c-3.16-2.5-7.21-4.8-9.41-8.27c-0.89-1.41-2.74-1.97-4.22-1.11
					C293.81,381.79,293.21,383.77,294.1,385.18L294.1,385.18z"/>
			</g>
		</g>
		<g>
			<g>
				<path class="st6" d="M328.39,367.77c9.27,17.24,18.55,34.48,27.82,51.72c1.88,3.49,7.2,0.39,5.32-3.11
					c-9.27-17.24-18.55-34.48-27.82-51.72C331.83,361.16,326.5,364.27,328.39,367.77L328.39,367.77z"/>
			</g>
		</g>
		<g>
			<g>
				<path class="st6" d="M349.49,426.82c9.14-1.7,18.27-3.39,27.41-5.09c4.57-0.85,9.14-1.7,13.7-2.54
					c4.27-0.79,8.42-1.66,12.39-3.46c1.52-0.69,1.88-2.89,1.11-4.22c-0.91-1.56-2.7-1.8-4.22-1.11c-3.73,1.69-7.91,2.28-11.9,3.02
					c-4.4,0.82-8.81,1.64-13.21,2.45c-8.97,1.67-17.94,3.33-26.92,5c-1.64,0.3-2.57,2.28-2.15,3.79
					C346.17,426.38,347.85,427.12,349.49,426.82L349.49,426.82z"/>
			</g>
		</g>
		<g>
			<g>
				<path class="st6" d="M390.44,375.78c3.05-0.28,5.64,1.26,8.08,2.91c2.36,1.6,4.53,3.44,6.53,5.48c4.1,4.16,7.3,9.08,9.6,14.44
					c0.66,1.53,2.91,1.87,4.22,1.11c1.58-0.92,1.77-2.68,1.11-4.22c-2.61-6.06-6.42-11.63-11.13-16.25
					c-2.35-2.31-4.95-4.4-7.71-6.21c-3.15-2.07-6.84-3.78-10.7-3.43c-1.66,0.15-3.08,1.31-3.08,3.08
					C387.36,374.25,388.78,375.93,390.44,375.78L390.44,375.78z"/>
			</g>
		</g>
		<g>
			<g>
				<path class="st6" d="M411.62,381.62c-8.73-0.94-16.85,3.66-24.37,7.45c-7.81,3.94-15.57,7.98-23.1,12.44
					c-3.41,2.02-0.31,7.35,3.11,5.32c7.25-4.3,14.72-8.21,22.24-12.01c6.83-3.45,14.16-7.89,22.11-7.04
					c1.66,0.18,3.08-1.54,3.08-3.08C414.7,382.88,413.28,381.8,411.62,381.62L411.62,381.62z"/>
			</g>
		</g>
	</g>
</g>
</svg>
