<?xml version="1.0" encoding="utf-8"?>
<!-- Generator: Adobe Illustrator 24.2.1, SVG Export Plug-In . SVG Version: 6.00 Build 0)  -->
<svg version="1.1" id="Layer_1" xmlns="http://www.w3.org/2000/svg" xmlns:xlink="http://www.w3.org/1999/xlink" x="0px" y="0px"
	 viewBox="0 0 595.28 841.89" style="enable-background:new 0 0 595.28 841.89;" xml:space="preserve">
<style type="text/css">
	.st0{fill:#FFFFFF;}
	.st1{fill:#F9ED32;stroke:#000000;stroke-width:1.7907;stroke-miterlimit:10;}
	.st2{stroke:#000000;stroke-width:1.3451;stroke-miterlimit:10;}
	.st3{fill:#FFFFFF;stroke:#000000;stroke-width:1.7907;stroke-miterlimit:10;}
	.st4{fill:#ED1C24;stroke:#000000;stroke-width:1.7907;stroke-miterlimit:10;}
	.st5{stroke:#000000;stroke-width:1.7907;stroke-miterlimit:10;}
	.st6{fill:none;stroke:#000000;stroke-width:1.7907;stroke-miterlimit:10;}
	.st7{fill:#F9ED32;stroke:#000000;stroke-width:1.3451;stroke-miterlimit:10;}
</style>
<g>
	<g>
		<path class="st0" d="M538.45,723.46H49.76c-6.6,0-12-5.4-12-12V49.95c0-6.6,5.4-12,12-12h488.7c6.6,0,12,5.4,12,12v661.51
			C550.45,718.06,545.05,723.46,538.45,723.46z"/>
		<g>
			<path d="M543.98,720.9c-6.1,0-12.21,0-18.31,0c-16.26,0-32.51,0-48.77,0c-23.33,0-46.66,0-69.99,0c-27.32,0-54.65,0-81.97,0
				c-28.24,0-56.48,0-84.72,0c-26.08,0-52.15,0-78.23,0c-20.76,0-41.53,0-62.29,0c-12.58,0-25.16,0-37.73,0c-2.16,0-4.35,0.1-6.51,0
				c-6.92-0.31-11.02-6.1-11.07-12.59c-0.05-6.78,0-13.57,0-20.35c0-14.46,0-28.93,0-43.39c0-20.46,0-40.92,0-61.39
				c0-24.78,0-49.56,0-74.33c0-27.41,0-54.82,0-82.24c0-28.36,0-56.73,0-85.09c0-27.53,0-55.06,0-82.58c0-25.33,0-50.66,0-75.99
				c0-21.06,0-42.11,0-63.17c0-15.38,0-30.76,0-46.15c0-7.93,0-15.86,0-23.8c0-0.62-0.02-1.24,0-1.86c0-0.09,0-0.18,0-0.27
				c0.07-2.01,0.49-3.9,1.52-5.64c0.64-1.08,1.51-1.84,2.29-2.79c1.59-1.95,3.5,2.45-3.98,1.26c1.61,0.26,3.48,0,5.11,0
				c11.75,0,23.49,0,35.24,0c20.31,0,40.61,0,60.92,0c25.78,0,51.57,0,77.35,0c28.18,0,56.37,0,84.55,0c27.5,0,55.01,0,82.51,0
				c23.66,0,47.32,0,70.98,0c16.94,0,33.88,0,50.81,0c7,0,14.1-0.35,21.1,0c11.73,0.58,11.01,11.7,11.01,19.95
				c0,10.97,0,21.94,0,32.92c0,17.78,0,35.56,0,53.34c0,22.91,0,45.82,0,68.72c0,26.35,0,52.71,0,79.06c0,28.12,0,56.23,0,84.35
				c0,28.09,0,56.17,0,84.26c0,26.61,0,53.21,0,79.82c0,23.33,0,46.66,0,69.99c0,18.37,0,36.74,0,55.12c0,11.73,0,23.46,0,35.2
				c0,2.79,0,5.57,0,8.36c0,0.6,0.01,1.21,0,1.81c0,0.1,0,0.21,0,0.31c-0.04,1.39-0.22,2.75-0.73,4.06
				c-0.43,1.09-1.04,2.14-1.78,3.04c-0.29,0.36-0.6,0.69-0.93,1C538.03,724,538.9,721.09,543.98,720.9
				c-3.14,0.12-6.42,1.34-9.24,2.66c-0.72,0.34-4.68,2.58-1.82,2.47c10.44-0.41,24.09-5.76,24.18-17.78c0.02-2.4,0-4.81,0-7.21
				c0-11,0-22,0-33c0-18.03,0-36.06,0-54.09c0-23.16,0-46.32,0-69.48c0-26.63,0-53.25,0-79.88c0-28.37,0-56.74,0-85.11
				c0-28.39,0-56.78,0-85.17c0-26.79,0-53.58,0-80.37c0-23.16,0-46.32,0-69.49c0-18.17,0-36.35,0-54.52c0-11.21,0-22.43,0-33.64
				c0-2.48,0.01-4.97,0-7.45c-0.04-7.66-5.34-13.24-13.15-13.44c-6.66-0.17-13.34,0-20,0c-16.83,0-33.67,0-50.5,0
				c-23.95,0-47.9,0-71.85,0c-27.6,0-55.2,0-82.8,0c-28.52,0-57.04,0-85.55,0c-25.94,0-51.88,0-77.82,0c-20.32,0-40.65,0-60.97,0
				c-11.55,0-23.1,0-34.66,0c-11.87,0-28.61,3.59-28.69,17.9c-0.04,7.08,0,14.16,0,21.23c0,14.83,0,29.65,0,44.48
				c0,20.95,0,41.89,0,62.84c0,25.17,0,50.34,0,75.51c0,27.74,0,55.49,0,83.23c0,28.6,0,57.19,0,85.79c0,27.72,0,55.45,0,83.17
				c0,25.13,0,50.26,0,75.39c0,20.81,0,41.62,0,62.44c0,14.82,0,29.63,0,44.45c0,6.97-0.04,13.95,0,20.92
				c0.05,7.65,5.48,13.1,13.18,13.29c1.98,0.05,3.96,0,5.94,0c12.33,0,24.65,0,36.98,0c20.86,0,41.72,0,62.58,0
				c26.24,0,52.48,0,78.71,0c28.46,0,56.92,0,85.39,0c27.64,0,55.27,0,82.91,0c23.43,0,46.85,0,70.28,0c16.17,0,32.35,0,48.52,0
				c5.78,0,11.56,0,17.33,0c3.09,0,6.48-1.37,9.24-2.66C542.94,723,546.83,720.9,543.98,720.9z"/>
		</g>
	</g>
	<g>
		<polygon class="st1" points="283.3,507.53 277.18,559.05 243.94,565.23 243.94,570.63 275.63,566.77 293.07,586.06 301.14,582.21 
			285.68,570.63 306.43,578.35 311.18,573.72 289.54,566.77 314.49,568.31 314.49,561.37 285.68,557.51 292.63,509.56 		"/>
		<path class="st2" d="M138.08,334.43c0,0-27.82,179.05,159.99,146.63c0,0,163.08-22.38,146.08-142.77l54.88-20.07l-54.88-35.5
			c0,0,14.68-54.79-3.09-50.16c0,0-10.82-1.54-11.59,20.84c0,0,4.64-34.73-6.18-30.87c0,0-13.91-6.95-13.14,23.92
			c0,0,6.18-35.5-7.73-30.87c0,0-12.37-3.86-12.37,27.78c0,0-34.78,2.32-36.33,38.59L203,287.36c0,0-6.96-78.72-31.69-59.42
			s-1.55,44.76-1.55,44.76s-33.23-66.37-49.46-41.67s23.96,54.79,23.96,54.79s-54.88-62.51-64.92-43.22s31.69,54.02,31.69,54.02
			s-54.91,17.75-33.25,35.5S138.08,334.43,138.08,334.43z"/>
		<ellipse class="st3" cx="410.69" cy="294.08" rx="21.09" ry="21.06"/>
		<path class="st4" d="M410.69,345.24c0,0-33.01,36.27-7.5,41.67c25.51,5.4,23.96-30.1,23.96-30.1s-11.84,46.19,9.15,40.85
			c20.99-5.35,9.01-37.9,9.01-37.9s5.8,39.49,17.39,28.69c11.59-10.8-17.76-43.22-17.76-43.22H410.69z"/>
		<path class="st5" d="M235.5,483.87c0,0-21.67,20.35-13.94,27.3c7.73,6.95,13.94-4.63,13.94-4.63s-4.67,10.61,5.38,6.85
			c10.05-3.76,4.64-8.39,4.64-8.39s-0.77,15.31,10.05,9.2c10.82-6.11,6.18-14.44,6.18-14.44l-3.86-14.76"/>
		<path class="st5" d="M285.24,479.59c0,0-21.67,20.35-13.94,27.3c7.73,6.95,13.94-4.63,13.94-4.63s-4.67,10.61,5.38,6.85
			s4.64-8.39,4.64-8.39s-0.77,15.31,10.05,9.2c10.82-6.11,6.18-14.44,6.18-14.44l-3.86-14.76"/>
		<path class="st6" d="M342.9,365.3c0,0,3.43,66.37-57.03,64.06c-60.45-2.32-79.78-1.48-83.64-32c0,0-39.42,9.62-35.55-15.08
			c3.86-24.7,33.23-10.62,33.23-10.62s-42.51-6.36-25.51-26.43s36.33,9.26,36.33,9.26s-24.73-20.07-12.37-28.55
			c12.37-8.49,30.92,13.89,30.92,13.89"/>
		<polygon class="st1" points="231.55,511.35 225.42,562.87 192.18,569.04 192.18,574.45 223.87,570.59 241.31,589.88 
			249.38,586.02 233.92,574.45 254.67,582.16 259.43,577.53 237.78,570.59 262.73,572.13 262.73,565.19 233.92,561.33 
			240.88,513.38 		"/>
		<g>
			<g>
				<path d="M423.35,297.25c-1.35-1.44-3.53-1.5-5.31-1.06c-1.98,0.49-3.68,1.92-4.55,3.76c-1.8,3.8,1.4,7.75,5.17,8.29
					c3.99,0.56,9.11-2.12,10.25-6.15c0.63-2.19-0.03-4.23-2.04-5.4c-1.66-0.96-3.61-0.99-5.42-0.45c-3.57,1.07-7.12,5.11-5.88,9.03
					c0.32,1,1.01,1.6,2.06,1.74c2.03,0.27,4.05,0.4,6.05-0.12c1.96-0.51,3.73-1.73,4.86-3.42c0.94-1.39,1.44-3.23,0.88-4.86
					c-0.59-1.74-2.03-2.9-3.75-3.45c-3.49-1.11-7.98-0.88-10.36,2.26c-1.21,1.59-1.34,3.54-1.55,5.46
					c-0.21,1.91-0.42,3.81-0.63,5.72c-0.13,1.18,0.85,2.43,2.09,2.45c4.44,0.06,9.14-0.99,12.24-4.42
					c2.72-3.02,4.28-7.91,1.55-11.45c-2.75-3.56-7.64-4.05-11.19-1.37c-3.42,2.59-4.04,6.97-4.78,10.91
					c-0.41,2.2-1.51,5.13,0.42,6.9c1.55,1.42,4.11,1.11,5.91,0.4c1.75-0.69,3.46-1.74,5.03-2.77c1.81-1.18,3.45-2.53,4.85-4.17
					c2.27-2.68,3.46-6.29,2.47-9.76c-1.04-3.62-3.94-6.07-7.8-5.87c-4.91,0.25-8.99,4.72-11.17,8.77c-2.24,4.17-3.22,8.72-2.7,13.44
					c0.18,1.65,2.41,2.03,3.68,1.55c1.57-0.6,2.79-1.96,2.59-3.71c-0.03-0.23-0.08-0.81-0.08-0.81c0,0-0.01-0.59-0.01-0.81
					c0.01-0.78,0.06-1.56,0.17-2.33c0.05-0.34,0.1-0.67,0.16-1.01c0.02-0.11,0.22-0.99,0.11-0.56c0.18-0.71,0.41-1.41,0.67-2.09
					c0.26-0.68,0.55-1.36,0.89-2c-0.23,0.43,0.12-0.19,0.2-0.32c0.22-0.38,0.46-0.75,0.71-1.11c0.19-0.28,0.4-0.56,0.6-0.82
					c0.12-0.15,0.24-0.3,0.37-0.46c-0.04,0.04-0.33,0.36-0.07,0.09c0.51-0.53,1-1.05,1.56-1.52c0.51-0.43,0.09-0.05-0.02,0.01
					c0.12-0.08,0.24-0.16,0.36-0.24c0.16-0.1,0.34-0.19,0.5-0.29c0.33-0.21-0.12,0.06-0.17,0.08c0.17-0.05,0.36-0.13,0.53-0.19
					c0.22-0.08,0.49-0.01-0.01,0c0.13,0,0.28-0.03,0.42-0.04c0.31-0.04-0.29-0.11,0.13,0.03c0.5,0.17-0.49-0.24,0.18,0.04
					c0.24,0.1,0.66,0.33,0.2,0.03c0.2,0.13,0.39,0.26,0.56,0.41c0.1,0.08,0.19,0.2,0.3,0.27c0.26,0.17-0.23-0.35-0.06-0.08
					c0.29,0.45,0.57,0.86,0.81,1.34c0.21,0.41-0.09-0.39,0.08,0.25c0.08,0.28,0.15,0.56,0.2,0.85c0.05,0.25,0.07,0.51,0.1,0.76
					c-0.06-0.54,0,0.06-0.01,0.28c-0.01,0.26-0.03,0.51-0.07,0.77c-0.02,0.14-0.06,0.29-0.08,0.43c0.03-0.21,0.13-0.42,0.01-0.09
					c-0.1,0.27-0.19,0.54-0.31,0.81c-0.02,0.04-0.23,0.43-0.06,0.14c0.18-0.32-0.11,0.17-0.15,0.24c-0.17,0.27-0.35,0.53-0.54,0.78
					c-0.08,0.11-0.17,0.21-0.25,0.32c-0.23,0.3,0.37-0.35-0.08,0.07c-0.47,0.44-0.92,0.88-1.41,1.29c-0.12,0.1-0.53,0.39,0.06-0.03
					c-0.11,0.08-0.22,0.16-0.34,0.24c-0.34,0.24-0.69,0.48-1.04,0.7c-1.13,0.72-2.32,1.34-3.49,2c-0.32,0.18,0.31-0.17,0.31-0.15
					c0.01,0.01-0.38,0.13-0.43,0.15c-0.49,0.2,0.18-0.06,0.16-0.02c-0.01,0.03-0.29,0.04-0.33,0.04c-0.43,0.01,0.58,0.04,0.17-0.01
					c-0.32-0.03,0.25,0.07,0.26,0.07c0.23,0.1,0.38,0.25,0.51,0.46c-0.29-0.46,0.12,0.36,0.04,0.39c0.15-0.05,0.41-2.35,0.46-2.62
					c0.17-0.9,0.34-1.79,0.51-2.69c0.12-0.65,0.24-1.3,0.39-1.95c-0.12,0.55,0.07-0.26,0.11-0.39c0.11-0.37,0.23-0.73,0.36-1.09
					c0.11-0.27,0.23-0.54,0.35-0.8c0.14-0.32-0.06,0.13-0.08,0.16c0.09-0.13,0.17-0.28,0.26-0.41c0.07-0.1,0.15-0.19,0.21-0.29
					c0.22-0.39-0.37,0.45-0.08,0.11c0.02-0.02,0.24-0.25,0.26-0.24c-0.38,0.27-0.46,0.33-0.25,0.19c0.07-0.05,0.13-0.09,0.2-0.13
					c0.44-0.18-0.59,0.25-0.16,0.07c0.05-0.02,0.28-0.13,0.34-0.11c-0.12,0.03-0.25,0.06-0.37,0.09c0.08-0.01,0.15-0.02,0.23-0.03
					c0.04,0.01,0.48,0.02,0.06-0.01c-0.42-0.04,0.4,0.08,0.52,0.1c-0.58-0.12-0.17-0.04-0.05,0.02c0.17,0.09,0.36,0.15,0.54,0.24
					c0.28,0.14-0.06-0.04-0.1-0.07c0.17,0.11,0.33,0.23,0.48,0.35c0.09,0.08,0.18,0.15,0.27,0.23c0.01,0.01,0.46,0.52,0.26,0.26
					c-0.21-0.26,0.09,0.14,0.13,0.21c0.1,0.17,0.2,0.35,0.3,0.51c0.02,0.04,0.17,0.4,0.06,0.11c-0.12-0.33,0.08,0.32,0.09,0.38
					c0.04,0.16,0.09,1.04,0.1,0.61c-0.01,0.36-0.05,0.7-0.1,1.05c0.07-0.47,0.02-0.06-0.01,0.05c-0.06,0.17-0.11,0.34-0.18,0.51
					c-0.07,0.17-0.14,0.33-0.21,0.49c0.18-0.4,0.05-0.09-0.09,0.13c-0.07,0.11-0.15,0.23-0.23,0.34c-0.01,0.01-0.52,0.64-0.23,0.32
					c0.28-0.31-0.12,0.11-0.19,0.17c-0.13,0.13-0.28,0.24-0.4,0.36c-0.34,0.34,0.48-0.28,0.04-0.03c-0.21,0.12-0.41,0.27-0.63,0.4
					c-0.13,0.07-0.26,0.14-0.39,0.21c-0.33,0.2,0.48-0.15-0.13,0.05c-0.38,0.12-0.75,0.26-1.13,0.38c-0.11,0.03-0.6,0.14-0.05,0.02
					c-0.2,0.04-0.39,0.08-0.59,0.11c-0.45,0.07-0.89,0.12-1.34,0.16c-0.15,0.01-0.3,0.02-0.45,0.03c-0.02,0-0.96,0.01-0.4,0.01
					c0.7,0.82,1.4,1.63,2.09,2.45c0.28-2.57,0.58-5.14,0.86-7.72c0.08-0.79-0.17,0.37,0.07-0.37c0.14-0.43,0.07-0.12-0.11,0.1
					c-0.15,0.19-0.73,0.51-0.25,0.26c-0.84,0.44,0.32,0.06-0.49,0.18c0.21-0.03,0.42-0.06,0.63-0.08c0.13-0.01,0.26-0.02,0.38-0.02
					c-0.32,0-0.37,0-0.15,0.01c0.46,0.06,0.92,0.07,1.38,0.15c0.07,0.01,0.73,0.19,0.39,0.08c-0.34-0.11,0.3,0.12,0.36,0.14
					c0.17,0.07,0.64,0.37,0.26,0.1c0.08,0.06,0.6,0.55,0.23,0.11c0.05,0.06,0.36,0.6,0.23,0.3c-0.13-0.29,0.05,0.27,0.06,0.36
					c-0.05-0.52-0.22,0.26,0.01-0.28c-0.03,0.08-0.05,0.15-0.08,0.23c-0.14,0.31-0.13,0.29,0.03-0.06c-0.46,0.41,0.32-0.23,0,0.03
					c-0.35,0.28-0.3,0.25,0.04,0.01c-0.64,0.45,0.76-0.25-0.14,0.08c-0.1,0.03-0.2,0.06-0.3,0.09c0.27-0.06,0.29-0.07,0.06-0.03
					c-0.26,0.01-0.52,0.06-0.78,0.08c0.48-0.03-0.38-0.01-0.48-0.02c-0.64-0.04-1.28-0.13-1.91-0.21c0.69,0.58,1.37,1.16,2.06,1.74
					c-0.05-0.17-0.16-1.03-0.15-0.34c0-0.21,0.05-0.42,0.05-0.62c0.01,0.51-0.04,0.24,0.05-0.08c0.16-0.55-0.34,0.49,0.08-0.14
					c0.46-0.67-0.41,0.3,0.07-0.11c0.05-0.05,0.11-0.1,0.16-0.15c0.28-0.24,0.22-0.2-0.21,0.13c-0.01-0.01,0.55-0.31,0.56-0.34
					c-0.49,0.22-0.57,0.26-0.22,0.12c0.13-0.05,0.27-0.09,0.41-0.13c-0.14,0.03-0.27,0.07-0.41,0.1c0.14-0.02,0.28-0.04,0.42-0.04
					c-0.41-0.01-0.5,0-0.27,0.02c0.1,0.01,0.21,0.02,0.31,0.04c-0.86-0.12,0.22,0.16,0,0.03c-0.17-0.11-0.12-0.06,0.15,0.12
					c-0.11-0.18-0.09-0.15,0.07,0.1c-0.03-0.07-0.06-0.14-0.09-0.22c0.05,0.31,0.06,0.31,0.02-0.01c-0.05,0.32-0.04,0.32,0.02-0.01
					c-0.03,0.08-0.06,0.16-0.09,0.24c0.18-0.32,0.18-0.32,0-0.02c-0.22,0.3-0.2,0.29,0.06-0.02c-0.14,0.15-0.75,0.63-0.09,0.16
					c-0.24,0.17-0.49,0.31-0.74,0.47c0.65-0.41-0.23,0.05-0.39,0.13c-0.22,0.07-0.18,0.06,0.12-0.01c-0.19,0.04-0.38,0.06-0.57,0.08
					c-0.72,0.08,0.37,0.11-0.35-0.03c-0.62-0.12,0.13,0.13-0.35-0.1c-0.29-0.14-0.3-0.14-0.05,0c-0.14-0.09-0.28-0.2-0.4-0.31
					c-0.41-0.26,0.07,0.22-0.22-0.21c-0.14-0.21-0.27-0.42-0.38-0.65c0.23,0.47-0.04-0.25-0.06-0.4c-0.03-0.2-0.02-0.16,0.01,0.1
					c0.05-0.32,0.03-0.32-0.04,0c0.1-0.25,0.1-0.26-0.02-0.02c-0.13,0.23-0.12,0.23,0.03,0c-0.34,0.38-0.38,0.44-0.13,0.2
					c-0.13,0.1-0.26,0.2-0.39,0.3c0.32-0.18,0.23-0.15-0.27,0.1c0.13-0.05,0.26-0.09,0.39-0.13c-0.14,0.04-0.28,0.07-0.42,0.11
					c0.33-0.03,0.27-0.03-0.19-0.02c0.69,0.05-0.63-0.09,0.04-0.01c0.27,0.13,0.24,0.11-0.11-0.06c0.11,0.08,0.2,0.18,0.29,0.28
					c1.12,1.2,3.51,0.42,4.49-0.57C424.16,300.06,424.53,298.51,423.35,297.25L423.35,297.25z"/>
			</g>
		</g>
		<path class="st4" d="M390.04,243.37c0,0-3.86-30.1,12.37-27.78c16.23,2.32,7.73,30.87,7.73,30.87s0.77-29.33,13.14-23.92
			c12.37,5.4,6.18,30.87,6.18,30.87s4.63-23.9,11.59-20.84c6.96,3.06,15.46,7.72,3.09,50.16L390.04,243.37z"/>
		<polygon class="st4" points="444.15,338.29 444.15,315.14 444.15,282.72 		"/>
		<polygon class="st7" points="444.15,338.29 444.15,282.72 499.02,318.23 		"/>
	</g>
</g>
</svg>
