<?xml version="1.0" encoding="utf-8"?>
<!-- Generator: Adobe Illustrator 24.2.1, SVG Export Plug-In . SVG Version: 6.00 Build 0)  -->
<svg version="1.1" id="Layer_1" xmlns="http://www.w3.org/2000/svg" xmlns:xlink="http://www.w3.org/1999/xlink" x="0px" y="0px"
	 viewBox="0 0 595.28 841.89" style="enable-background:new 0 0 595.28 841.89;" xml:space="preserve">
<style type="text/css">
	.st0{fill:#FFFFFF;}
	.st1{fill:#FEE3CD;}
	.st2{fill:#F9ED32;}
</style>
<g>
	<g>
		<path class="st0" d="M515.87,728.84H64.6c-6.6,0-12-5.4-12-12V109.42c0-6.6,5.4-12,12-12h451.27c6.6,0,12,5.4,12,12v607.42
			C527.87,723.44,522.47,728.84,515.87,728.84z"/>
		<g>
			<path d="M517.45,727.04c-5.61,0-11.21,0-16.82,0c-14.94,0-29.87,0-44.81,0c-21.45,0-42.9,0-64.34,0c-25.14,0-50.28,0-75.42,0
				c-26.01,0-52.02,0-78.03,0c-24.06,0-48.13,0-72.19,0c-19.3,0-38.59,0-57.89,0c-11.71,0-23.42,0-35.13,0c-2.12,0-4.28,0.12-6.39,0
				c-6.32-0.35-9.97-6.07-10.01-11.92c-0.05-6.11,0-12.23,0-18.34c0-13.24,0-26.48,0-39.71c0-18.8,0-37.61,0-56.41
				c0-22.81,0-45.62,0-68.42c0-25.25,0-50.5,0-75.75c0-26.14,0-52.27,0-78.41c0-25.46,0-50.92,0-76.38c0-23.22,0-46.44,0-69.66
				c0-19.42,0-38.85,0-58.27c0-14.06,0-28.13,0-42.19c0-7.15,0-14.29,0-21.44c0-4.41,1.41-10.54,6.61-10.91c1.55-0.11,3.14,0,4.69,0
				c10.79,0,21.58,0,32.37,0c18.66,0,37.32,0,55.99,0c23.71,0,47.42,0,71.14,0c25.94,0,51.89,0,77.83,0c25.35,0,50.71,0,76.06,0
				c21.95,0,43.89,0,65.84,0c15.72,0,31.44,0,47.15,0c6.63,0,13.39-0.39,20.01,0c10.48,0.62,9.95,11.01,9.95,18.46c0,10,0,20,0,30
				c0,16.32,0,32.63,0,48.95c0,21.07,0,42.14,0,63.22c0,24.27,0,48.54,0,72.81c0,25.9,0,51.81,0,77.71c0,25.98,0,51.96,0,77.94
				c0,24.49,0,48.99,0,73.48c0,21.45,0,42.9,0,64.35c0,16.84,0,33.68,0,50.53c0,10.68,0,21.35,0,32.03c0,2.48,0,4.96,0,7.45
				C524.06,720.46,522.65,726.85,517.45,727.04c-1.42,0.05-4.29,0.53-5.07,1.93c-0.78,1.41,0.67,1.71,1.91,1.67
				c9.2-0.33,17.32-6.06,17.39-15.7c0.02-2.22,0-4.45,0-6.67c0-10.22,0-20.44,0-30.66c0-16.6,0-33.2,0-49.81
				c0-21.48,0-42.95,0-64.43c0-24.58,0-49.16,0-73.73c0-26.16,0-52.31,0-78.47c0-26.24,0-52.48,0-78.72c0-24.51,0-49.02,0-73.53
				c0-21.29,0-42.58,0-63.87c0-16.52,0-33.04,0-49.57c0-10.02,0-20.04,0-30.06c0-2.1,0.02-4.19,0-6.29
				c-0.07-8.15-6.37-13.38-14.29-13.51c-6.34-0.1-12.69,0-19.02,0c-15.62,0-31.25,0-46.87,0c-22.02,0-44.04,0-66.07,0
				c-25.64,0-51.27,0-76.91,0c-26.15,0-52.3,0-78.45,0c-23.87,0-47.74,0-71.61,0c-18.77,0-37.53,0-56.3,0c-10.61,0-21.22,0-31.84,0
				c-2.11,0-4.27-0.1-6.37,0.17c-8.5,1.1-15.12,6.88-15.17,15.65c-0.03,6.58,0,13.17,0,19.75c0,13.73,0,27.45,0,41.18
				c0,19.28,0,38.56,0,57.84c0,23.33,0,46.66,0,69.99c0,25.6,0,51.19,0,76.79c0,26.35,0,52.69,0,79.04c0,25.6,0,51.2,0,76.79
				c0,23.04,0,46.08,0,69.12c0,18.99,0,37.98,0,56.97c0,13.38,0,26.77,0,40.15c0,6.06-0.06,12.13,0,18.19
				c0.08,8.15,6.5,13.27,14.34,13.39c1.9,0.03,3.81,0,5.72,0c11.53,0,23.07,0,34.6,0c19.3,0,38.6,0,57.9,0c24.2,0,48.4,0,72.6,0
				c26.32,0,52.64,0,78.96,0c25.33,0,50.66,0,75.99,0c21.56,0,43.11,0,64.67,0c14.94,0,29.87,0,44.81,0c5.31,0,10.61,0,15.92,0
				c1.4,0,4.31-0.56,5.07-1.93C520.16,727.27,518.68,727.04,517.45,727.04z"/>
		</g>
	</g>
	<g>
		<path class="st1" d="M471.96,348.69c-13.4-10.94-29.71-18.59-46.96-22.02c-9.91,24.75-19.83,49.51-29.74,74.26
			c-26.26-34.45-55.8-66.62-88.14-95.98c-7.07,31.45-16.66,62.37-28.65,92.42c-23.17-21.69-47.58-42.18-73.08-61.34
			c-2.88-2.16-6.56-4.43-9.93-3.06c-2.82,1.14-3.97,4.29-4.83,7.1c-7.92,26.07-15.83,52.14-23.75,78.21
			c-16.01-24.71-48.77-51.77-48.56-79.76c0.19-24.54,24.79-58.79,39.63-77.61c31.86-40.42,79.78-69.51,133.89-69.51
			c101.74,0,184.22,99.39,184.22,221.99c0,122.6-82.48,221.99-184.22,221.99S107.61,536,107.61,413.4c0-21.3,2.49-41.9,7.14-61.4"/>
		<g>
			<path d="M475.52,347.3c-13.97-11.32-30.53-18.87-48.12-22.43c-1.73-0.35-5.45,0.53-6.19,2.38
				c-9.91,24.75-19.83,49.51-29.74,74.26c2.45-0.66,4.9-1.31,7.35-1.97c-20.52-26.89-42.93-52.31-67.04-76.03
				c-6.9-6.79-13.94-13.44-21.11-19.95c-1.43-1.3-6.9-0.02-7.35,1.97c-7.11,31.51-16.7,62.42-28.65,92.42
				c2.45-0.66,4.9-1.31,7.35-1.97c-19.77-18.49-40.37-36.08-61.75-52.68c-2.43-1.89-4.87-3.76-7.32-5.62
				c-2.65-2.01-5.25-4.25-8.27-5.7c-5.15-2.47-12.49-1.16-15.74,3.78c-1.31,2-1.94,4.31-2.63,6.58c-1.11,3.64-2.21,7.29-3.32,10.93
				c-2.04,6.73-4.09,13.46-6.13,20.18c-4.6,15.14-9.19,30.28-13.79,45.41c2.53-0.53,5.06-1.07,7.59-1.6
				c-12.98-19.91-31.59-35.97-42.47-57.28c-4.82-9.44-7.26-19.52-5.28-30.06c2.05-10.92,6.95-21.24,12.33-30.88
				c5.7-10.21,12.32-19.91,19.3-29.28c6.7-8.99,13.75-17.7,21.63-25.69c16.75-16.98,36.77-31.02,58.92-39.99
				c21.46-8.69,44.71-12.32,67.79-10.31c19.48,1.7,38.46,7.22,55.96,15.91c17.89,8.88,34.09,21.07,48.08,35.28
				c14.71,14.94,27.01,32.16,36.77,50.7c10.34,19.65,17.86,40.76,22.57,62.45c5.01,23.11,6.84,46.9,5.6,70.51
				c-1.22,23.21-5.53,46.29-12.91,68.33c-6.87,20.53-16.43,40.23-28.7,58.08c-11.55,16.79-25.45,32.03-41.54,44.56
				c-15.14,11.79-32.24,21.27-50.58,27.05c-18.5,5.83-38.04,8.02-57.37,6.34c-19.57-1.7-38.64-7.28-56.21-16.03
				c-17.79-8.87-33.9-21.01-47.83-35.16c-14.71-14.94-27.01-32.16-36.77-50.7c-10.34-19.65-17.86-40.76-22.57-62.45
				c-5.33-24.58-7.11-49.98-5.32-75.07c1.01-14.21,3.18-28.31,6.45-42.17c0.53-2.23-7.04-1.07-7.57,1.16
				c-6.55,27.68-8.6,56.4-6.2,84.74c1.98,23.33,7.05,46.42,15.27,68.35c7.69,20.52,18.16,40.03,31.28,57.6
				c12.42,16.62,27.28,31.47,44.27,43.41c16.45,11.56,34.88,20.39,54.37,25.42c19.92,5.14,40.7,6.38,61.09,3.75
				c20.29-2.62,40.06-9.15,58.06-18.84c18.11-9.74,34.43-22.65,48.46-37.65c14.67-15.69,26.82-33.71,36.35-52.95
				c10.15-20.5,17.3-42.45,21.47-64.93c4.42-23.8,5.55-48.24,3.47-72.34c-2.01-23.32-7.1-46.39-15.35-68.31
				c-7.75-20.6-18.3-40.17-31.52-57.77c-12.46-16.58-27.36-31.38-44.38-43.26c-16.41-11.46-34.77-20.2-54.17-25.17
				c-21.51-5.52-44.1-6.54-66.01-2.87c-24.82,4.16-48.41,14.1-69.19,28.23c-19.8,13.47-36.23,30.65-50.5,49.77
				c-7.07,9.47-13.74,19.28-19.56,29.57c-5.59,9.89-10.72,20.52-12.83,31.76c-4.39,23.39,11.91,43.36,25.82,60.27
				c7.5,9.12,15.41,18.03,21.88,27.94c1.24,1.9,6.97,0.45,7.59-1.6c7.58-24.95,15.15-49.9,22.73-74.85
				c0.72-2.38,1.27-5.11,2.55-7.28c0.19-0.32,0.52-0.66,0.7-0.99c0.13-0.14,0.26-0.28,0.39-0.43c0.52-0.38,0.15-0.3-1.09,0.23
				c-0.01-0.18,3.67,1.5,4.07,1.75c5.18,3.31,9.97,7.45,14.8,11.23c9.8,7.65,19.43,15.5,28.9,23.55
				c10.62,9.03,21.01,18.32,31.19,27.84c1.56,1.46,6.61-0.11,7.35-1.97c11.95-30.01,21.54-60.92,28.65-92.42
				c-2.45,0.66-4.9,1.31-7.35,1.97c25.07,22.79,48.56,47.3,70.18,73.39c6.14,7.41,12.12,14.94,17.96,22.59
				c1.3,1.7,6.69-0.32,7.35-1.97c9.91-24.75,19.83-49.51,29.74-74.26c-2.06,0.79-4.13,1.59-6.19,2.38
				c16.74,3.39,32.54,10.86,45.8,21.61C470.21,351.55,477.14,348.61,475.52,347.3L475.52,347.3z"/>
		</g>
	</g>
	<g>
		<g>
			<path class="st2" d="M120.91,629.05c15.55,2.57,31.15,1.75,46.8,0.64c13.77-0.97,27.6-1.95,41.36-0.33
				c0.27,0.03,0.54,0.07,0.82,0.1c1.48,0.18-1.6-0.23-0.12-0.02c0.81,0.12,1.62,0.24,2.43,0.37c1.61,0.26,3.21,0.57,4.8,0.92
				c3.02,0.66,6,1.47,8.93,2.47c0.76,0.26,1.51,0.53,2.25,0.81c0.37,0.14,0.74,0.29,1.11,0.43c0.47,0.19,1.48,0.85-0.1-0.05
				c1.36,0.78,2.91,1.31,4.31,2.04c2.71,1.42,5.27,3.06,7.74,4.86c1.16,0.84-1.14-0.94,0.06,0.05c0.35,0.29,0.71,0.57,1.06,0.86
				c0.58,0.48,1.16,0.98,1.73,1.47c1.43,1.24,2.83,2.51,4.27,3.74c2.97,2.57,6.07,5.01,9.44,7.03c6.34,3.8,13.38,6.36,20.33,8.82
				c16.42,5.81,32.86,11.59,49.28,17.39c3.25,1.15,7.34-1.3,8.09-4.59c0.84-3.68-1.12-6.86-4.59-8.09
				c-14.75-5.2-29.5-10.41-44.25-15.61c-3.36-1.19-6.74-2.35-10.08-3.6c-0.84-0.31-1.67-0.63-2.51-0.96
				c-0.42-0.16-0.83-0.33-1.24-0.5c-0.36-0.15-1.69-0.84-0.08-0.02c-1.59-0.79-3.25-1.44-4.83-2.25c-1.44-0.74-2.86-1.53-4.23-2.38
				c-0.75-0.47-1.49-0.95-2.21-1.46c-0.24-0.17-0.49-0.35-0.73-0.52c-0.24-0.18-0.49-0.36-0.73-0.54c0.73,0.57,0.81,0.63,0.26,0.19
				c-2.81-2.31-5.48-4.77-8.26-7.11c-5.53-4.64-11.46-8.21-18.11-10.98c-5.84-2.43-11.97-4.06-18.2-5.09
				c-13.83-2.28-27.72-1.97-41.65-1.04c-8.43,0.57-16.86,1.27-25.31,1.5c-4.2,0.12-8.4,0.12-12.6-0.08
				c-2.09-0.1-4.18-0.24-6.27-0.45c-1.11-0.11-2.28-0.15-3.37-0.38c1.78,0.38,0.19,0.02-0.17-0.03c-0.64-0.09-1.28-0.2-1.92-0.3
				c-1.8-0.3-3.44-0.29-5.07,0.66c-1.36,0.8-2.66,2.36-3.02,3.93C115.6,624.13,117.28,628.45,120.91,629.05L120.91,629.05z"/>
		</g>
	</g>
	<g>
		<g>
			<path class="st2" d="M324.28,654.63c17.92,1.7,35.95,2.04,53.93,1.07c17.91-0.96,35.78-3.26,53.35-6.85
				c10.01-2.05,19.93-4.49,29.73-7.36c0.75-0.22,3.74-0.98,3.5-2.19c-0.23-1.13-3.64-0.29-4.12-0.15
				c-16.71,4.9-33.25,8.43-50.58,10.81c-16.96,2.33-34.13,3.36-51.24,3.16c-9.89-0.12-19.77-0.65-29.62-1.59
				c-1.74-0.17-3.93,0.5-5.39,1.44c-0.33,0.21-1.02,0.64-0.89,1.13C323.07,654.59,323.93,654.59,324.28,654.63L324.28,654.63z"/>
		</g>
	</g>
	<g>
		<g>
			<path class="st2" d="M402.02,616.91c7.67-0.47,16.2,0.26,24.04,2.07c8.05,1.86,15.79,4.83,23.01,8.85
				c3.99,2.23,7.83,4.77,11.39,7.63c1.43,1.14,3.48,0.92,5.08,0.22c0.82-0.36,3.39-2.16,1.97-3.31
				c-14.02-11.26-31.15-18-49.01-19.82c-5.17-0.53-10.36-0.57-15.54-0.26c-1.47,0.09-4,1.05-4.29,2.73
				C398.34,616.84,400.88,616.98,402.02,616.91L402.02,616.91z"/>
		</g>
	</g>
	<g>
		<g>
			<path class="st2" d="M434.34,598.03c4.21-8.27,9.6-15.74,16.12-22.53c1.7-1.77,2.86-2.89,4.6-4.46c1.77-1.6,3.59-3.13,5.47-4.6
				c1.88-1.47,3.81-2.88,5.79-4.22c0.96-0.65,1.94-1.28,2.93-1.91c0.06-0.04,0.61-0.38,0.15-0.1c0.22-0.14,0.44-0.27,0.66-0.4
				c0.56-0.33,1.11-0.66,1.68-0.99c4.74-2.73,9.69-5.07,14.79-7.02c1.49-0.57,2.83-2.57,1.77-4.05c-1.19-1.66-3.6-1.24-5.19-0.64
				c-18.62,7.1-35.34,19.61-47.22,35.63c-3.34,4.5-6.31,9.3-8.86,14.29c-0.87,1.71,0.8,3.12,2.36,3.34
				C431.27,600.66,433.45,599.77,434.34,598.03L434.34,598.03z"/>
		</g>
	</g>
	<g>
		<g>
			<path class="st2" d="M451.96,585.31c0.64-0.38,1.3-0.74,1.97-1.06c0.39-0.18,0.78-0.34,1.17-0.51c-0.9,0.38,0,0.01,0.21-0.07
				c0.71-0.24,1.43-0.43,2.15-0.6c0.19-0.04,1.57-0.29,0.53-0.13c0.32-0.05,0.63-0.09,0.95-0.13c0.75-0.09,1.49-0.14,2.24-0.16
				c0.43-0.01,0.86-0.01,1.29,0c-0.84-0.01,0.12,0.01,0.3,0.02c0.75,0.05,1.5,0.14,2.25,0.26c0.43,0.07,0.85,0.14,1.27,0.23
				c0.12,0.02,1.15,0.26,0.81,0.18c-0.34-0.09,0.68,0.2,0.8,0.23c0.36,0.11,0.72,0.23,1.07,0.36c0.71,0.25,1.4,0.53,2.08,0.84
				c0.34,0.15,0.67,0.32,1.01,0.49c0.35,0.18,0.38,0.2,0.1,0.04c0.14,0.08,0.28,0.16,0.41,0.24c0.64,0.38,1.26,0.77,1.87,1.2
				c0.6,0.43,1.18,0.88,1.73,1.36c0.63,0.54,0.93,0.84,1.23,1.18c1,1.15,1.89,2.34,2.65,3.67c0.95,1.68,3.77,1.43,5.21,0.71
				c1.6-0.8,2.7-2.47,1.74-4.17c-7.27-12.8-26.28-16.42-38.54-9.06c-1.39,0.83-2.9,2.5-1.74,4.17
				C447.8,586.12,450.49,586.19,451.96,585.31L451.96,585.31z"/>
		</g>
	</g>
	<g>
		<g>
			<path class="st2" d="M381,635.71c1.16-0.46,2.34-0.78,3.56-1.04c1.34-0.28-1.67,0.13-0.32,0.03c0.24-0.02,0.48-0.04,0.72-0.06
				c0.71-0.05,1.43-0.05,2.15-0.01c0.61,0.03,2.57,0.46,0.39-0.02c0.59,0.13,1.18,0.21,1.77,0.35c1.18,0.29,2.31,0.85,3.48,1.12
				c-1.68-0.4-0.77-0.33-0.21-0.07c0.23,0.11,0.45,0.21,0.67,0.33c0.56,0.28,1.12,0.58,1.66,0.89c1.22,0.7,2.38,1.5,3.52,2.33
				c0.89,0.64-0.35-0.23-0.41-0.32c0.19,0.27,0.65,0.53,0.9,0.74c0.5,0.42,0.99,0.85,1.46,1.3c1,0.93,1.96,1.91,2.88,2.93
				c0.39,0.44,0.77,0.88,1.14,1.33c0.24,0.29,0.46,0.64,0.73,0.9c-1.06-1.04-0.61-0.81-0.33-0.41c0.81,1.13,1.6,2.26,2.33,3.45
				c1.36,2.22,2.59,4.51,3.8,6.82c2.42,4.62,4.7,9.32,7.46,13.75c3.59,5.75,7.92,10.76,13.46,14.71c2.81,2.01,7.44,0.59,9-2.36
				c1.79-3.39,0.64-6.86-2.36-9c-0.3-0.22-0.61-0.49-0.93-0.68c1.31,0.77,0.8,0.63,0.43,0.32c-0.53-0.45-1.06-0.89-1.57-1.36
				c-1.01-0.93-1.96-1.92-2.86-2.95c-0.41-0.47-0.8-0.95-1.19-1.43c-0.57-0.69,1.01,1.36,0.23,0.3c-0.22-0.3-0.45-0.6-0.66-0.9
				c-0.77-1.07-1.49-2.16-2.19-3.28c-2.87-4.59-5.21-9.47-7.73-14.25c-5.36-10.19-12.64-20.02-23.5-24.8
				c-6.61-2.91-14.08-4.03-20.98-1.33c-1.65,0.64-3.01,1.44-3.93,3.02c-0.82,1.41-1.17,3.49-0.66,5.07
				C373.91,634.22,377.57,637.05,381,635.71L381,635.71z"/>
		</g>
	</g>
	<g>
		<g>
			<path class="st2" d="M170.63,592.72c-17.39,0-34.77,0-52.16,0c-4.97,0-9.94,0-14.9,0c-1.77,0-4.07,0.5-4.99,2.21
				c-0.84,1.55,0.72,2.75,2.2,2.75c17.39,0,34.77,0,52.16,0c4.97,0,9.94,0,14.9,0c1.77,0,4.07-0.5,4.99-2.21
				C173.67,593.92,172.11,592.72,170.63,592.72L170.63,592.72z"/>
		</g>
	</g>
	<g>
		<g>
			<path class="st2" d="M115.39,560.05c2.22,17.3,1.75,34.88-1.4,52.04c-0.89,4.85-1.99,9.65-3.29,14.4
				c-0.46,1.67,2.32,1.83,3.3,1.69c1.49-0.21,3.86-0.93,4.32-2.62c4.68-17.12,6.67-34.89,5.95-52.62c-0.2-4.99-0.63-9.97-1.27-14.93
				c-0.21-1.6-3.36-1.21-4.33-0.93C117.4,557.46,115.18,558.37,115.39,560.05L115.39,560.05z"/>
		</g>
	</g>
	<g>
		<g>
			<path class="st2" d="M153.48,610.18c1.2,17.23,1.14,34.55-0.25,51.76c-0.4,4.92-0.9,9.83-1.5,14.73
				c-0.19,1.56,2.19,1.46,3.2,1.29c1.09-0.18,4.2-0.88,4.38-2.4c2.13-17.37,2.98-34.91,2.52-52.4c-0.13-5.01-0.38-10.02-0.73-15.03
				C160.96,606.08,153.3,607.56,153.48,610.18L153.48,610.18z"/>
		</g>
	</g>
	<g>
		<g>
			<path class="st2" d="M102.2,660.81c28.37-1.5,56.81-1.59,85.19-0.25c14.18,0.67,28.35,1.7,42.49,3.09
				c3.43,0.34,6.86,0.69,10.29,1.08c1.39,0.16,2.77,0.32,4.16,0.49c0.69,0.09,1.39,0.17,2.08,0.26c0.42,0.05,0.83,0.11,1.25,0.16
				c1.5,0.2-1.58-0.22-0.08-0.01c5.96,0.84,11.9,1.83,17.78,3.17c6.46,1.48,12.79,3.41,18.93,5.89c1.36,0.55-1.41-0.62-0.06-0.03
				c0.37,0.17,0.75,0.33,1.12,0.49c0.74,0.33,1.48,0.68,2.22,1.03c1.53,0.74,3.03,1.52,4.51,2.35c2.9,1.63,5.69,3.46,8.35,5.46
				c1.27,0.96,3.61,1.06,5.07,0.66c1.53-0.42,3.18-1.6,3.93-3.02c0.81-1.53,1.21-3.37,0.66-5.07c-0.56-1.73-1.58-2.84-3.02-3.93
				c-20.18-15.2-46.36-18.91-70.78-21.49c-28.41-3.01-56.97-4.57-85.54-4.69c-16.19-0.07-32.37,0.33-48.54,1.19
				c-3.43,0.18-6.74,2.89-6.58,6.58C95.78,657.64,98.52,661.01,102.2,660.81L102.2,660.81z"/>
		</g>
	</g>
	<g>
		<g>
			<path class="st2" d="M236.3,688.17c25.74,0,51.48,0,77.22,0c7.31,0,14.61,0,21.92,0c3.44,0,6.73-3.02,6.58-6.58
				c-0.16-3.56-2.89-6.58-6.58-6.58c-25.74,0-51.48,0-77.22,0c-7.31,0-14.61,0-21.92,0c-3.44,0-6.73,3.02-6.58,6.58
				C229.88,685.15,232.61,688.17,236.3,688.17L236.3,688.17z"/>
		</g>
	</g>
	<g>
		<g>
			<path class="st2" d="M340.55,669.46c25.64-10.27,50.12-23.26,72.76-39.1c6.63-4.64,13.09-9.51,19.4-14.57
				c1.23-0.99,1.93-3.15,1.93-4.65c0-1.61-0.72-3.54-1.93-4.65c-1.25-1.15-2.9-2-4.65-1.93c-1.85,0.08-3.21,0.78-4.65,1.93
				c-1.27,1.01-2.54,2.02-3.82,3.02c-0.28,0.22-1.47,1.2-0.07,0.06c-0.34,0.28-0.7,0.54-1.05,0.81c-0.7,0.54-1.41,1.07-2.12,1.61
				c-2.6,1.95-5.22,3.87-7.87,5.75c-5.43,3.85-10.97,7.55-16.61,11.08c-11.32,7.09-23.05,13.54-35.11,19.3
				c-3.36,1.61-6.74,3.16-10.15,4.66c-0.95,0.42-1.91,0.84-2.87,1.25c-0.27,0.12-0.55,0.23-0.82,0.35
				c-0.27,0.12-0.55,0.23-0.82,0.35c0.88-0.37,1-0.42,0.33-0.14c-1.79,0.74-3.58,1.48-5.38,2.2c-1.65,0.66-3,1.43-3.93,3.02
				c-0.82,1.41-1.17,3.49-0.66,5.07C333.46,667.95,337.13,670.83,340.55,669.46L340.55,669.46z"/>
		</g>
	</g>
	<g>
		<g>
			<path class="st2" d="M456.54,592.17c0.34,0.12,0.68,0.28,1.02,0.39c-0.3-0.13-0.6-0.25-0.9-0.38c0.22,0.1,0.44,0.2,0.66,0.3
				c0.54,0.26,1.08,0.54,1.6,0.84c0.62,0.36,1.23,0.74,1.83,1.15c0.25,0.17,0.49,0.35,0.73,0.52c0.65,0.46-1.2-0.98-0.34-0.25
				c1,0.85,1.96,1.74,2.84,2.72c0.24,0.26,0.47,0.53,0.7,0.81c0.4,0.48,0.64,1.23-0.15-0.21c0.3,0.56,0.77,1.07,1.11,1.61
				c0.7,1.1,1.29,2.25,1.84,3.42c0.34,0.73-0.58-1.48-0.19-0.43c0.12,0.33,0.25,0.66,0.36,0.99c0.21,0.61,0.39,1.22,0.55,1.85
				c0.16,0.62,0.28,1.25,0.4,1.88c0.22,1.18-0.15-1.65-0.04-0.37c0.02,0.29,0.06,0.58,0.08,0.87c0.09,1.34,0.06,2.68-0.08,4.01
				c-0.17,1.57,0.85,3.58,1.93,4.65c1.14,1.14,3.01,2,4.65,1.93c3.87-0.17,6.19-2.9,6.58-6.58c0.7-6.6-1.28-13.64-4.9-19.16
				c-4.06-6.19-9.81-10.71-16.76-13.25c-3.24-1.18-7.34,1.32-8.09,4.59C451.1,587.79,453.07,590.91,456.54,592.17L456.54,592.17z"/>
		</g>
	</g>
	<g>
		<g>
			<path class="st2" d="M140.07,563.55c-14.58,0-29.16,0-43.74,0c-3.44,0-6.73,3.02-6.58,6.58c0.16,3.56,2.89,6.58,6.58,6.58
				c14.58,0,29.16,0,43.74,0c3.44,0,6.73-3.02,6.58-6.58C146.49,566.56,143.76,563.55,140.07,563.55L140.07,563.55z"/>
		</g>
	</g>
	<g>
		<g>
			<path class="st2" d="M194.72,622.34c-18.43,9.35-36.86,18.7-55.3,28.05c-3.07,1.56-4.2,6.13-2.36,9c2.02,3.14,5.71,4.03,9,2.36
				c18.43-9.35,36.86-18.7,55.3-28.05c3.07-1.56,4.2-6.13,2.36-9C201.7,621.56,198.01,620.68,194.72,622.34L194.72,622.34z"/>
		</g>
	</g>
	<g>
		<g>
			<path class="st2" d="M380.66,678.41c17.49,0,34.99,0,52.48,0c1.75,0,4.06-0.51,5-2.18c0.87-1.54-0.75-2.61-2.16-2.61
				c-17.49,0-34.99,0-52.48,0c-1.75,0-4.06,0.51-5,2.18C377.63,677.34,379.24,678.41,380.66,678.41L380.66,678.41z"/>
		</g>
	</g>
	<g>
		<g>
			<path class="st2" d="M462.63,550.7c0.64-1.21,1.32-2.39,2.07-3.54c0.34-0.52,0.69-1.04,1.05-1.54c0.18-0.25,0.36-0.51,0.55-0.76
				c0.62-0.83,0.1-0.07-0.23,0.29c1.82-2.01,3.51-4.06,5.55-5.88c0.47-0.42,0.95-0.83,1.44-1.23c0.24-0.2,0.52-0.37,0.74-0.59
				c-1.18,1.22-0.58,0.44-0.13,0.11c1.07-0.79,2.17-1.54,3.31-2.23c1.14-0.7,2.3-1.35,3.49-1.96c0.57-0.29,1.14-0.56,1.72-0.83
				c0.42-0.19,1.63-0.55-0.17,0.05c0.36-0.12,0.71-0.29,1.07-0.43c1.65-0.65,3-1.44,3.93-3.02c0.82-1.41,1.17-3.49,0.66-5.07
				c-1-3.1-4.66-5.94-8.09-4.59c-11.95,4.69-22.27,13.13-28.32,24.58c-1.61,3.04-0.87,7.29,2.36,9
				C456.67,554.66,460.91,553.95,462.63,550.7L462.63,550.7z"/>
		</g>
	</g>
</g>
</svg>
