<?xml version="1.0" encoding="utf-8"?>
<!-- Generator: Adobe Illustrator 24.2.1, SVG Export Plug-In . SVG Version: 6.00 Build 0)  -->
<svg version="1.1" id="Layer_1" xmlns="http://www.w3.org/2000/svg" xmlns:xlink="http://www.w3.org/1999/xlink" x="0px" y="0px"
	 viewBox="0 0 595.28 841.89" style="enable-background:new 0 0 595.28 841.89;" xml:space="preserve">
<style type="text/css">
	.st0{fill:#CB6D28;}
	.st1{fill:#F9ED32;}
</style>
<g>
	<g>
		<path class="st0" d="M524.74,736.37H50.53c-6.6,0-12-5.4-12-12V80.9c0-6.6,5.4-12,12-12h474.21c6.6,0,12,5.4,12,12v643.47
			C536.74,730.97,531.34,736.37,524.74,736.37z"/>
		<g>
			<path d="M523.68,730.72c-5.92,0-11.84,0-17.76,0c-15.85,0-31.69,0-47.54,0c-22.65,0-45.3,0-67.95,0c-26.63,0-53.25,0-79.88,0
				c-27.39,0-54.78,0-82.17,0c-25.27,0-50.54,0-75.82,0c-20.17,0-40.34,0-60.5,0c-12.11,0-24.21,0-36.32,0c-2.04,0-4.11,0.09-6.14,0
				c-0.04,0-0.08,0-0.13,0c0.39,0.02,1.25,0.32,0.4-0.06c-0.72-0.32-1.42-0.32-2.13-0.82c-1.29-0.91-2.02-2.31-2.36-3.82
				c-0.11-0.48-0.25-2.03-0.19-0.81c-0.02-0.41,0-0.83,0-1.24c0.01-6.99,0-13.99,0-20.98c0-14.41,0-28.81,0-43.22
				c0-20.08,0-40.15,0-60.23c0-24.17,0-48.34,0-72.52c0-26.65,0-53.29,0-79.94c0-27.61,0-55.23,0-82.84c0-26.73,0-53.46,0-80.2
				c0-24.43,0-48.87,0-73.3c0-20.31,0-40.62,0-60.94c0-14.68,0-29.35,0-44.03c0-7.42,0-14.84,0-22.26c0-4.31,1.17-8.81,6.39-8.98
				c1.66-0.05,3.33,0,4.99,0c11.41,0,22.83,0,34.24,0c19.71,0,39.42,0,59.12,0c25.12,0,50.25,0,75.37,0c27.34,0,54.69,0,82.03,0
				c26.67,0,53.34,0,80.01,0c23.01,0,46.02,0,69.03,0c16.41,0,32.83,0,49.24,0c6.67,0,13.4-0.28,20.07,0c0.03,0,0.06,0,0.09,0
				c-1.78-0.09,0.33,0.13,0.91,0.39c0.62,0.28,1.1,0.66,1.57,1.15c0.64,0.67,1.18,1.55,1.46,2.43c0.12,0.37,0.37,2.37,0.33,1.79
				c-0.04-0.5-0.01-0.35,0-0.23c0.02,0.45,0,0.9,0,1.35c0,2.58,0,5.15,0,7.73c0,11.02,0,22.03,0,33.05c0,17.51,0,35.03,0,52.54
				c0,22.39,0,44.78,0,67.18c0,25.76,0,51.52,0,77.28c0,27.29,0,54.59,0,81.88c0,27.42,0,54.83,0,82.25c0,25.69,0,51.38,0,77.07
				c0,22.46,0,44.92,0,67.37c0,17.61,0,35.21,0,52.82c0,11.16,0,22.32,0,33.49C530.06,719.73,531.71,730.4,523.68,730.72
				c-3.16,0.12-6.17,3.03-5.57,6.29c0.65,3.57,4.46,5.13,7.69,5.01c9.9-0.38,17.57-8.19,17.62-18.01c0.01-2.49,0-4.98,0-7.47
				c0-11.04,0-22.08,0-33.13c0-17.63,0-35.26,0-52.89c0-22.69,0-45.37,0-68.06c0-26,0-52.01,0-78.01c0-27.53,0-55.07,0-82.6
				c0-27.61,0-55.21,0-82.82c0-25.89,0-51.79,0-77.68c0-22.42,0-44.84,0-67.27c0-17.46,0-34.91,0-52.37c0-10.71,0-21.42,0-32.13
				c0-2.3,0.01-4.59,0-6.89c-0.06-11.4-8.31-19.34-19.75-19.43c-6.33-0.05-12.67,0-19,0c-16.31,0-32.62,0-48.93,0
				c-23.09,0-46.18,0-69.27,0c-26.97,0-53.93,0-80.9,0c-27.56,0-55.13,0-82.69,0c-25.29,0-50.59,0-75.88,0c-19.82,0-39.64,0-59.45,0
				c-11.22,0-22.45,0-33.67,0c-2.22,0-4.51-0.14-6.71,0.23c-9.01,1.53-15.32,8.86-15.32,17.92c0,7.18,0,14.36,0,21.55
				c0,14.68,0,29.36,0,44.04c0,20.49,0,40.97,0,61.46c0,24.51,0,49.02,0,73.53c0,27.06,0,54.11,0,81.17c0,27.83,0,55.67,0,83.5
				c0,26.83,0,53.65,0,80.48c0,24.36,0,48.72,0,73.08c0,20.11,0,40.21,0,60.32c0,14.13,0,28.26,0,42.39c0,6.59-0.04,13.18,0,19.78
				c0.07,11.38,8.41,19.23,19.77,19.32c1.84,0.01,3.67,0,5.51,0c11.82,0,23.64,0,35.46,0c20.23,0,40.46,0,60.7,0
				c25.52,0,51.05,0,76.57,0c27.61,0,55.21,0,82.82,0c26.83,0,53.65,0,80.48,0c22.84,0,45.69,0,68.53,0c15.72,0,31.44,0,47.16,0
				c5.65,0,11.29,0,16.94,0c3.17,0,6.16-3.11,5.57-6.29C530.7,732.06,526.92,730.72,523.68,730.72z"/>
		</g>
	</g>
	<g>
		<g>
			<path class="st1" d="M90.39,112.74c-8.03,12.76-14.69,26.32-20.12,40.38c-5.23,13.54-9.18,27.57-11.82,41.84
				c-2.73,14.78-4.2,29.82-4.21,44.86c-0.02,15.03,1.42,30.06,4.16,44.83c2.65,14.27,6.65,28.28,12.01,41.77
				c0.84,2.12,1.73,4.22,2.61,6.32c0.61,1.44,2.6,2.7,4.02,3.09c1.61,0.44,3.76,0.24,5.19-0.68c1.44-0.93,2.7-2.31,3.09-4.02
				c0.43-1.89,0.07-3.42-0.68-5.19c-0.02-0.05,0.57,1.36,0.28,0.67c-0.08-0.19-0.16-0.38-0.24-0.56c-0.18-0.44-0.36-0.88-0.54-1.32
				c-0.33-0.82-0.66-1.64-0.99-2.46c-0.67-1.71-1.32-3.42-1.95-5.14c-1.23-3.38-2.38-6.79-3.45-10.22
				c-2.13-6.86-3.93-13.82-5.4-20.85c-0.72-3.45-1.36-6.91-1.92-10.39c-0.29-1.81-0.55-3.62-0.81-5.43
				c-0.11-0.76,0.11,0.85,0.1,0.78c-0.02-0.2-0.05-0.4-0.08-0.6c-0.06-0.47-0.12-0.94-0.18-1.41c-0.11-0.87-0.21-1.75-0.31-2.62
				c-0.8-7.14-1.27-14.31-1.42-21.49c-0.15-7.18,0.03-14.37,0.54-21.53c0.25-3.58,0.59-7.16,1-10.73c0.09-0.81,0.19-1.62,0.29-2.42
				c0.06-0.47,0.12-0.94,0.18-1.41c0.1-0.76-0.12,0.85-0.1,0.78c0.04-0.27,0.07-0.54,0.11-0.81c0.25-1.81,0.53-3.62,0.83-5.43
				c2.31-14.12,5.9-28.03,10.74-41.5c1.22-3.38,2.51-6.74,3.89-10.06c0.16-0.38,0.31-0.75,0.47-1.13c0.29-0.69-0.3,0.72-0.28,0.67
				c0.11-0.25,0.21-0.5,0.32-0.75c0.35-0.81,0.7-1.62,1.06-2.43c0.74-1.68,1.51-3.34,2.29-5c3.08-6.52,6.47-12.89,10.16-19.08
				c0.91-1.52,1.84-3.03,2.78-4.53c1.88-2.99,0.73-7.55-2.42-9.21C96.29,108.58,92.4,109.56,90.39,112.74L90.39,112.74z"/>
		</g>
	</g>
	<g>
		<g>
			<path class="st1" d="M118.75,204.47c1.5,16.56-1.58,33.01-2.41,49.51c-0.71,14.08,0.75,28.25,6.43,41.25
				c3,6.86,7.54,13.23,13.27,18.06c1.39,1.17,2.88,1.97,4.76,1.97c1.65,0,3.62-0.73,4.76-1.97c2.29-2.5,2.88-7.1,0-9.52
				c-1.15-0.96-2.24-1.98-3.28-3.06c-0.51-0.53-1.01-1.08-1.49-1.64c-0.24-0.28-0.48-0.56-0.71-0.85c-1.15-1.41,0.61,0.86-0.08-0.09
				c-1.81-2.48-3.41-5.09-4.75-7.86c-0.32-0.66-0.58-1.36-0.92-2.02c1.05,2.02-0.09-0.25-0.3-0.8c-0.57-1.51-1.09-3.05-1.54-4.61
				c-0.88-3.02-1.55-6.11-2.03-9.22c-0.06-0.38-0.11-0.75-0.17-1.13c-0.21-1.41,0.2,1.7,0.04,0.28c-0.09-0.76-0.18-1.51-0.25-2.27
				c-0.16-1.64-0.28-3.28-0.35-4.92c-0.15-3.23-0.13-6.46,0-9.69c0.31-8.12,1.24-16.2,1.97-24.29c0.81-9.03,1.35-18.11,0.53-27.16
				c-0.17-1.82-0.64-3.43-1.97-4.76c-1.17-1.17-3.08-2.05-4.76-1.97C122.11,197.88,118.41,200.71,118.75,204.47L118.75,204.47z"/>
		</g>
	</g>
	<g>
		<g>
			<path class="st1" d="M71.47,197.55c26.29,17.32,52.57,34.64,78.86,51.96c26.15,17.23,52.29,34.45,78.44,51.68
				c14.74,9.71,29.48,19.43,44.23,29.14c2.95,1.94,7.58,0.68,9.21-2.42c1.78-3.37,0.73-7.14-2.42-9.21
				c-26.29-17.32-52.57-34.64-78.86-51.96c-26.15-17.23-52.29-34.45-78.44-51.68c-14.74-9.71-29.48-19.43-44.23-29.14
				c-2.95-1.94-7.58-0.68-9.21,2.42C67.28,191.71,68.33,195.47,71.47,197.55L71.47,197.55z"/>
		</g>
	</g>
	<g>
		<g>
			<path class="st1" d="M87.52,348.27c14.96-9.49,29.71-19.31,44.24-29.45c14.58-10.18,28.94-20.68,43.05-31.49
				c14.37-11.01,28.52-22.31,42.39-33.95c12.74-10.68,25.21-21.68,38.3-31.93c0.34-0.27,0.69-0.54,1.03-0.81
				c0.23-0.18,0.46-0.36,0.69-0.54c0.01-0.01-1.09,0.84-0.5,0.39c0.87-0.66,1.73-1.33,2.6-1.98c1.62-1.23,3.26-2.44,4.91-3.63
				c3.35-2.43,6.74-4.79,10.2-7.07c6.84-4.5,13.93-8.66,21.27-12.28c1.83-0.9,3.68-1.77,5.54-2.61c1.44-0.65,2.69-2.56,3.09-4.02
				c0.44-1.61,0.24-3.76-0.68-5.19c-2.15-3.33-5.76-3.97-9.21-2.42c-14.98,6.74-28.82,15.71-41.91,25.59
				c-13.55,10.23-26.39,21.34-39.33,32.31c-13.42,11.37-27.07,22.47-40.98,33.25c-0.43,0.34-0.86,0.68-1.3,1.01
				c0.01-0.01,1.03-0.79,0.43-0.33c-0.25,0.19-0.5,0.38-0.74,0.57c-0.93,0.72-1.86,1.43-2.79,2.15c-1.74,1.33-3.48,2.66-5.23,3.98
				c-3.5,2.65-7.01,5.28-10.53,7.88c-7.18,5.31-14.42,10.55-21.71,15.7c-14.47,10.22-29.17,20.12-44.08,29.69
				c-1.85,1.19-3.7,2.37-5.55,3.54c-2.97,1.89-4.44,6.08-2.42,9.21C80.22,348.83,84.34,350.29,87.52,348.27L87.52,348.27z"/>
		</g>
	</g>
	<g>
		<g>
			<path class="st1" d="M204.76,94.91c0.03,16.14,0.46,32.28,1.29,48.39c0.83,16.12,2.06,32.22,3.69,48.27
				c1.68,16.58,3.79,33.12,6.28,49.59c2.42,15.97,5.23,31.87,8.44,47.7c3.21,15.83,6.8,31.59,10.79,47.24c0.5,1.96,1,3.91,1.51,5.87
				c0.89,3.41,4.85,5.81,8.28,4.7c3.51-1.14,5.66-4.63,4.7-8.28c-8.16-31.26-14.78-62.91-19.82-94.82
				c-0.63-3.99-1.23-7.98-1.81-11.97c-0.28-1.92-0.55-3.84-0.82-5.75c-0.13-0.96-0.27-1.92-0.4-2.88c-0.05-0.36-0.29-2.03-0.02-0.13
				c-0.09-0.64-0.17-1.28-0.26-1.92c-1.04-7.84-1.98-15.7-2.82-23.56c-1.72-16.05-3.05-32.14-3.98-48.25
				c-1.04-18.05-1.57-36.12-1.6-54.19c-0.01-3.52-3.09-6.9-6.73-6.73C207.85,88.34,204.76,91.13,204.76,94.91L204.76,94.91z"/>
		</g>
	</g>
	<g>
		<g>
			<path class="st1" d="M149.74,126.45c6.43,22.87,12.34,45.89,17.7,69.04c5.36,23.14,10.18,46.4,14.46,69.76
				c4.28,23.36,8.01,46.81,11.2,70.34c0.05,0.34,0.09,0.69,0.14,1.03c-0.02-0.15-0.12-0.87-0.01-0.07c0.09,0.69,0.18,1.38,0.27,2.07
				c0.2,1.49,0.39,2.99,0.59,4.48c0.39,2.99,0.76,5.97,1.13,8.96c0.72,5.86,1.41,11.73,2.07,17.6c1.32,11.85,2.51,23.72,3.55,35.6
				c2.07,23.53,3.59,47.1,4.57,70.7c0.12,3.01,0.24,6.02,0.35,9.02c0.12,3.52,3.01,6.9,6.73,6.73c3.54-0.16,6.87-2.96,6.73-6.73
				c-0.85-23.83-2.24-47.65-4.2-71.42c-1.95-23.66-4.45-47.27-7.5-70.81c-3.11-24.03-6.75-47.99-10.97-71.85
				c-4.16-23.5-8.86-46.91-14.11-70.19c-5.23-23.18-10.99-46.23-17.29-69.14c-0.8-2.91-1.61-5.81-2.42-8.71
				c-0.95-3.39-4.81-5.83-8.28-4.7C150.98,119.28,148.72,122.81,149.74,126.45L149.74,126.45z"/>
		</g>
	</g>
	<g>
		<g>
			<path class="st1" d="M88.16,430.35c4.23-4.84,8.77-9.39,13.57-13.67c2.43-2.17,4.93-4.27,7.47-6.31
				c0.58-0.47,1.17-0.93,1.76-1.39c0.99-0.78,0.16-0.13-0.03,0.02c0.3-0.23,0.59-0.45,0.89-0.68c1.34-1.02,2.69-2.02,4.05-3.01
				c10.53-7.63,21.68-14.36,33.02-20.7c22.61-12.64,45.78-24.28,68.77-36.19c22.92-11.87,45.8-23.83,68.26-36.55
				c22.28-12.61,44.15-25.96,65.11-40.68c21.19-14.88,41.49-31.11,60.08-49.15c2.26-2.2,4.5-4.42,6.71-6.67
				c2.47-2.51,2.69-7.05,0-9.52c-2.67-2.45-6.88-2.68-9.52,0c-8.96,9.1-18.34,17.77-28.08,26.03c-4.86,4.12-9.81,8.14-14.83,12.07
				c-0.58,0.46-1.17,0.91-1.75,1.36c-0.87,0.68,1.25-0.96-0.17,0.13c-0.29,0.22-0.59,0.45-0.88,0.67c-1.32,1.01-2.65,2.02-3.98,3.01
				c-2.51,1.89-5.05,3.75-7.59,5.6c-20.79,15.05-42.59,28.68-64.82,41.48c-22.36,12.88-45.18,24.93-68.07,36.82
				c-22.89,11.89-45.91,23.55-68.58,35.85c-23.01,12.49-45.86,26.29-64.42,44.99c-2.23,2.25-4.39,4.57-6.48,6.96
				c-2.32,2.65-2.8,6.95,0,9.52C81.18,432.68,85.69,433.18,88.16,430.35L88.16,430.35z"/>
		</g>
	</g>
	<g>
		<g>
			<path class="st1" d="M238.11,220.75c1.65-0.4,3.31-0.76,4.99-1.05c0.53-0.09,1.8-0.55,2.27-0.36c-0.07-0.03-1.7,0.2-0.42,0.06
				c0.61-0.07,1.22-0.14,1.82-0.2c3.19-0.31,6.4-0.43,9.61-0.37c3.22,0.06,6.44,0.29,9.63,0.66c0.38,0.04,1.03,0.01,1.38,0.17
				c-0.97-0.44-1.08-0.15-0.41-0.05c0.84,0.12,1.68,0.25,2.52,0.38c1.69,0.27,3.37,0.58,5.04,0.92
				c13.17,2.67,25.88,7.14,38.48,11.73c26.53,9.66,53.04,19.35,79.56,29.03c14.99,5.47,29.98,10.94,44.96,16.41
				c3.31,1.21,7.52-1.35,8.28-4.7c0.87-3.8-1.15-6.99-4.7-8.28c-26.85-9.8-53.71-19.6-80.56-29.39c-13.43-4.9-26.85-9.8-40.28-14.7
				c-12.73-4.64-25.5-9.32-38.73-12.33c-15.46-3.51-31.5-4.69-47.02-0.89c-3.42,0.84-5.8,4.89-4.7,8.28
				C230.98,219.6,234.44,221.65,238.11,220.75L238.11,220.75z"/>
		</g>
	</g>
	<g>
		<g>
			<path class="st1" d="M336.42,69c1.09,20.08,2.45,40.15,4.1,60.19c1.65,20.04,3.58,40.06,5.79,60.05
				c2.25,20.39,4.81,40.75,7.63,61.07c2.76,19.93,5.81,39.81,9.13,59.65c3.32,19.84,6.92,39.64,10.8,59.39
				c0.48,2.46,0.97,4.91,1.46,7.37c0.69,3.46,4.99,5.77,8.28,4.7c3.68-1.19,5.44-4.57,4.7-8.28c-3.92-19.63-7.58-39.32-10.95-59.05
				c-3.38-19.73-6.48-39.51-9.3-59.33c-0.71-4.95-1.39-9.91-2.07-14.87c-0.08-0.6-0.16-1.19-0.24-1.79c0.16,1.2-0.02-0.13-0.08-0.59
				c-0.17-1.29-0.34-2.58-0.51-3.87c-0.33-2.48-0.65-4.96-0.97-7.44c-1.28-10.02-2.5-20.06-3.64-30.1
				c-2.26-19.88-4.25-39.8-5.95-59.74c-1.71-19.94-3.13-39.9-4.28-59.87c-0.14-2.5-0.28-4.99-0.42-7.49
				c-0.19-3.51-2.96-6.9-6.73-6.73C339.67,62.43,336.21,65.24,336.42,69L336.42,69z"/>
		</g>
	</g>
	<g>
		<g>
			<path class="st1" d="M460.67,118.25c-20.07,13.34-40.14,26.69-60.22,40.03c-19.17,12.75-38.35,25.5-57.96,37.56
				c-19.12,11.76-38.67,22.75-58.84,32.61c-18.05,8.82-36.4,17.07-54.06,26.66c-17.7,9.61-34.81,20.72-49.45,34.65
				c-1.79,1.7-3.54,3.45-5.25,5.24c-2.44,2.55-2.72,7.02,0,9.52c2.64,2.42,6.92,2.72,9.52,0c3.41-3.57,6.99-6.97,10.71-10.2
				c1.86-1.61,3.75-3.18,5.67-4.72c0.48-0.38,0.96-0.76,1.45-1.14c0.28-0.22,1.02-0.72-0.27,0.21c0.19-0.13,0.37-0.28,0.55-0.42
				c1.04-0.79,2.09-1.58,3.14-2.35c7.98-5.85,16.39-11.1,24.99-15.98c17.41-9.86,35.63-18.18,53.64-26.85
				c19.85-9.56,39.2-19.99,58.07-31.37c19.64-11.84,38.79-24.45,57.89-37.13c19.9-13.21,39.78-26.44,59.67-39.66
				c2.51-1.67,5.02-3.34,7.53-5c2.93-1.95,4.46-6.03,2.42-9.21C467.99,117.74,463.8,116.16,460.67,118.25L460.67,118.25z"/>
		</g>
	</g>
	<g>
		<g>
			<path class="st1" d="M174.13,113.2c29.99,0,59.99,0,89.98,0c29.83,0,59.65,0,89.48,0c16.83,0,33.66,0,50.49,0
				c3.52,0,6.9-3.1,6.73-6.73c-0.16-3.65-2.96-6.73-6.73-6.73c-29.99,0-59.99,0-89.98,0c-29.83,0-59.65,0-89.48,0
				c-16.83,0-33.66,0-50.49,0c-3.52,0-6.9,3.1-6.73,6.73C167.57,110.11,170.36,113.2,174.13,113.2L174.13,113.2z"/>
		</g>
	</g>
	<g>
		<g>
			<path class="st1" d="M249.38,91.1c4.23,17.41,10.13,34.34,17.4,50.71c7.11,15.99,15.66,31.34,25.52,45.81
				c5.81,8.52,12.06,16.74,18.69,24.64c2.27,2.71,7.21,2.52,9.52,0c2.64-2.88,2.42-6.63,0-9.52c-1.38-1.65-2.75-3.31-4.09-4.98
				c-0.67-0.84-1.34-1.68-2-2.53c-0.31-0.39-0.62-0.79-0.93-1.19c-0.61-0.79,0.32,0.21,0.26,0.34c0.04-0.1-0.59-0.77-0.65-0.85
				c-2.61-3.41-5.14-6.89-7.59-10.41c-4.94-7.1-9.56-14.43-13.85-21.94c-4.28-7.5-8.23-15.19-11.84-23.05
				c-0.89-1.95-1.76-3.9-2.61-5.86c-0.2-0.46-0.39-0.92-0.59-1.38c-0.46-1.06,0.14,0.3,0.18,0.43c-0.09-0.26-0.22-0.53-0.33-0.79
				c-0.41-0.99-0.82-1.98-1.22-2.97c-1.63-4.03-3.17-8.1-4.62-12.2c-3.22-9.13-5.98-18.43-8.26-27.84c-0.83-3.42-4.9-5.8-8.28-4.7
				C250.52,83.97,248.49,87.43,249.38,91.1L249.38,91.1z"/>
		</g>
	</g>
	<g>
		<g>
			<path class="st1" d="M463.8,82.43c-18.89,10.96-37.36,22.66-55.33,35.08c-18.23,12.59-35.95,25.93-53.13,39.91
				c-9.51,7.74-18.85,15.7-28,23.86c-2.64,2.35-2.57,7.16,0,9.52c2.82,2.58,6.71,2.51,9.52,0c8.08-7.19,16.29-14.23,24.64-21.11
				c4.18-3.44,8.39-6.83,12.64-10.19c2.15-1.7,4.32-3.39,6.49-5.07c0.72-0.56-1,0.77-0.28,0.21c0.24-0.19,0.48-0.37,0.72-0.56
				c0.54-0.42,1.09-0.84,1.63-1.25c1.09-0.83,2.18-1.67,3.28-2.5c17.27-13.09,35.06-25.5,53.31-37.19
				c10.29-6.59,20.73-12.96,31.31-19.09c3.05-1.77,4.38-6.16,2.42-9.21C471.03,81.78,467.06,80.54,463.8,82.43L463.8,82.43z"/>
		</g>
	</g>
	<g>
		<g>
			<path class="st1" d="M380.29,95.62c10.43,14.2,20.85,28.41,31.28,42.61c10.43,14.2,20.85,28.41,31.28,42.61
				c5.9,8.04,11.8,16.08,17.7,24.12c1.07,1.46,2.22,2.6,4.02,3.09c1.61,0.44,3.76,0.24,5.19-0.68c2.8-1.81,4.64-6.18,2.42-9.21
				c-10.43-14.2-20.85-28.41-31.28-42.61c-10.43-14.2-20.85-28.41-31.28-42.61c-5.9-8.04-11.8-16.08-17.7-24.12
				c-1.07-1.46-2.22-2.6-4.02-3.09c-1.61-0.44-3.76-0.24-5.19,0.68C379.9,88.21,378.06,92.58,380.29,95.62L380.29,95.62z"/>
		</g>
	</g>
	<g>
		<g>
			<path class="st1" d="M495.49,135.35c-0.09,1.5-0.22,3.01-0.39,4.51c-0.05,0.46-0.4,2.77-0.08,0.81
				c-0.14,0.86-0.25,1.73-0.39,2.59c-0.48,2.98-1.08,5.94-1.76,8.87c-1.39,5.98-3.11,11.87-4.88,17.74
				c-3.65,12.14-7.34,24.27-11.01,36.41c-7.39,24.43-14.78,48.86-22.17,73.3c-4.14,13.69-8.28,27.38-12.42,41.06
				c-1.02,3.37,1.22,7.49,4.7,8.28c3.63,0.83,7.19-1.09,8.28-4.7c7.41-24.51,14.83-49.02,22.24-73.53
				c7.41-24.51,14.83-49.02,22.24-73.53c4.14-13.68,8.19-27.44,9.09-41.79c0.22-3.52-3.25-6.89-6.73-6.73
				C498.38,128.79,495.73,131.58,495.49,135.35L495.49,135.35z"/>
		</g>
	</g>
	<g>
		<g>
			<path class="st1" d="M412.01,229.05c0.78-0.3,1.58-0.56,2.4-0.73c1.48-0.31-1.25,0.06-0.13-0.01c0.43-0.03,0.86-0.06,1.29-0.06
				c0.43,0,0.85,0.03,1.28,0.05c1.19,0.07-1.5-0.29-0.33-0.05c0.85,0.18,1.7,0.37,2.52,0.65c0.27,0.09,1.71,0.68,0.62,0.19
				c-1.05-0.47,0.19,0.09,0.43,0.21c0.83,0.4,1.64,0.84,2.43,1.32c0.75,0.46,1.48,0.94,2.19,1.45c0.33,0.24,0.65,0.5,0.99,0.73
				c-1.6-1.12-0.12-0.07,0.25,0.24c6.26,5.25,11.31,11.93,16.61,18.1c11.71,13.63,23.43,27.27,35.14,40.9
				c6.62,7.7,13.23,15.4,19.85,23.1c2.3,2.68,7.19,2.54,9.52,0c2.62-2.85,2.46-6.66,0-9.52c-12.04-14.01-24.08-28.02-36.12-42.03
				c-6.07-7.07-12.15-14.14-18.22-21.21c-5.47-6.37-10.67-13.28-17.1-18.72c-7.41-6.26-17.39-11.42-27.2-7.6
				c-1.69,0.66-3.08,1.48-4.02,3.09c-0.84,1.44-1.2,3.57-0.68,5.19C404.76,227.53,408.5,230.42,412.01,229.05L412.01,229.05z"/>
		</g>
	</g>
	<g>
		<g>
			<path class="st1" d="M522.58,256.51c-9.54,15.27-19.67,30.18-30.36,44.67c-2.68,3.64-5.4,7.26-8.16,10.84
				c-0.3,0.39-0.6,0.78-0.91,1.18c-0.7,0.9,0.19-0.25,0.27-0.36c-0.17,0.22-0.35,0.45-0.52,0.67c-0.74,0.95-1.48,1.9-2.22,2.84
				c-1.35,1.73-2.71,3.44-4.08,5.16c-5.65,7.08-11.44,14.04-17.36,20.9c-11.8,13.67-24.13,26.89-36.93,39.63
				c-12.82,12.76-26.13,25.03-39.89,36.78c-6.86,5.86-13.83,11.59-20.9,17.18c-1.78,1.41-3.57,2.81-5.37,4.21
				c-1.31,1.02,0.79-0.6-0.16,0.12c-0.45,0.35-0.9,0.69-1.35,1.04c-0.96,0.74-1.92,1.47-2.88,2.2c-3.57,2.71-7.16,5.38-10.78,8.02
				c-1.84,1.34-3.68,2.67-5.53,4c-1.46,1.05-2.6,2.24-3.09,4.02c-0.44,1.61-0.24,3.76,0.68,5.19c1.83,2.83,6.15,4.61,9.21,2.42
				c15.2-10.88,30-22.33,44.33-34.33c13.93-11.66,27.41-23.85,40.4-36.54c13.03-12.72,25.57-25.93,37.6-39.6
				c12.24-13.93,23.92-28.34,35.08-43.15c10.88-14.45,21.2-29.31,30.92-44.55c1.21-1.9,2.42-3.81,3.62-5.73
				c1.87-2.99,0.73-7.55-2.42-9.21C528.49,252.35,524.58,253.31,522.58,256.51L522.58,256.51z"/>
		</g>
	</g>
	<g>
		<g>
			<path class="st1" d="M321.59,346.75c2.48,0.26,4.95,0.55,7.43,0.87c0.36,0.05,0.73,0.1,1.09,0.14c0.92,0.12-1.4-0.19-0.48-0.07
				c0.58,0.08,1.16,0.16,1.74,0.24c1.31,0.19,2.61,0.38,3.91,0.58c5,0.77,9.97,1.66,14.93,2.67c9.83,1.99,19.57,4.45,29.17,7.35
				c9.59,2.89,19.05,6.23,28.34,10c1.08,0.44,2.16,0.89,3.24,1.34c1.1,0.46-0.28-0.16-0.4-0.17c0.31,0.03,0.72,0.3,1.01,0.43
				c0.6,0.26,1.21,0.52,1.81,0.78c2.28,0.99,4.55,2.01,6.8,3.05c4.57,2.11,9.1,4.33,13.57,6.66c10.03,5.22,19.77,10.97,29.19,17.23
				c2.94,1.95,7.58,0.67,9.21-2.42c1.79-3.38,0.72-7.13-2.42-9.21c-17.29-11.48-35.66-21.13-54.79-29.16
				c-18.76-7.87-38.25-13.99-58.15-18.22c-11.62-2.48-23.39-4.29-35.21-5.54c-1.61-0.17-3.66,0.87-4.76,1.97
				c-1.17,1.17-2.05,3.08-1.97,4.76C315.03,343.98,317.82,346.35,321.59,346.75L321.59,346.75z"/>
		</g>
	</g>
	<g>
		<g>
			<path class="st1" d="M413.35,302.99c0.78,31.62,3.68,63.15,8.52,94.4c4.75,30.67,11.47,61.04,20.12,90.85
				c4.87,16.82,10.36,33.45,16.44,49.87c0.62,1.68,1.5,3.09,3.09,4.02c1.44,0.84,3.57,1.2,5.19,0.68c3.23-1.04,6.01-4.75,4.7-8.28
				c-10.79-29.13-19.7-58.95-26.66-89.22c-3.46-15.05-6.44-30.2-8.93-45.44c-0.64-3.89-1.24-7.78-1.81-11.67
				c-0.27-1.87-0.54-3.74-0.8-5.61c-0.11-0.78-0.21-1.56-0.32-2.34c-0.22-1.64,0.21,1.56-0.01-0.08c-0.08-0.62-0.17-1.25-0.25-1.87
				c-1-7.65-1.87-15.32-2.62-23c-1.7-17.39-2.76-34.84-3.19-52.31c-0.09-3.52-3.03-6.9-6.73-6.73
				C416.51,296.41,413.26,299.21,413.35,302.99L413.35,302.99z"/>
		</g>
	</g>
	<g>
		<g>
			<path class="st1" d="M498.48,409.76c-18.85,17.3-37.5,34.81-55.94,52.55c-18.31,17.61-36.42,35.44-54.32,53.47
				c-10.14,10.22-20.22,20.51-30.23,30.86c-2.45,2.53-2.71,7.03,0,9.52c2.65,2.43,6.91,2.7,9.52,0
				c17.77-18.38,35.75-36.55,53.95-54.51c18.09-17.85,36.38-35.5,54.88-52.92c10.49-9.88,21.05-19.7,31.66-29.44
				c2.6-2.39,2.6-7.13,0-9.52C505.22,407.2,501.25,407.21,498.48,409.76L498.48,409.76z"/>
		</g>
	</g>
	<g>
		<g>
			<path class="st1" d="M482.47,372.29c-0.01,37.3,0.27,74.6,0.84,111.9c0.56,37.11,1.41,74.21,2.55,111.3
				c0.64,20.93,1.37,41.85,2.19,62.77c0.14,3.51,3,6.9,6.73,6.73c3.53-0.16,6.88-2.96,6.73-6.73c-1.46-37.27-2.64-74.56-3.52-111.85
				c-0.88-37.1-1.48-74.21-1.79-111.32c-0.18-20.93-0.26-41.87-0.26-62.8c0-3.52-3.1-6.9-6.73-6.73
				C485.56,365.72,482.47,368.52,482.47,372.29L482.47,372.29z"/>
		</g>
	</g>
	<g>
		<g>
			<path class="st1" d="M516.03,560.86c-14.34,0.83-28.59,3.62-42.12,8.44c-13.41,4.78-26.22,11.28-37.79,19.58
				c-6.68,4.79-13.01,10.06-18.82,15.87c-2.49,2.49-2.68,7.06,0,9.52c2.69,2.47,6.86,2.66,9.52,0c2.39-2.39,4.86-4.69,7.42-6.9
				c1.23-1.06,2.47-2.1,3.74-3.12c0.63-0.51,1.31-0.98,1.91-1.51c-1.44,1.28-0.42,0.33-0.07,0.06c0.43-0.33,0.86-0.65,1.3-0.97
				c5.45-4.04,11.18-7.68,17.14-10.92c2.99-1.62,6.03-3.14,9.12-4.55c0.62-0.28,1.24-0.56,1.86-0.83c0.37-0.16,0.75-0.32,1.12-0.49
				c1.36-0.59-1.47,0.61-0.1,0.04c1.64-0.67,3.28-1.33,4.93-1.95c6.38-2.39,12.92-4.34,19.56-5.82c3.73-0.83,7.48-1.49,11.26-2.05
				c1.48-0.22-1.66,0.21-0.17,0.02c0.54-0.07,1.08-0.14,1.62-0.2c0.95-0.11,1.9-0.21,2.85-0.31c1.9-0.19,3.81-0.33,5.71-0.44
				c3.51-0.2,6.9-2.95,6.73-6.73C522.61,564.12,519.8,560.64,516.03,560.86L516.03,560.86z"/>
		</g>
	</g>
	<g>
		<g>
			<path class="st1" d="M115.28,86.29c-1.97,34.18-3.53,68.38-4.68,102.59c-1.15,34.21-1.9,68.44-2.23,102.67
				c-0.19,19.21-0.25,38.42-0.18,57.63c0.01,3.52,3.09,6.9,6.73,6.73c3.64-0.16,6.75-2.96,6.73-6.73
				c-0.12-34.23,0.16-68.46,0.86-102.69c0.69-34.22,1.8-68.44,3.31-102.64c0.85-19.19,1.83-38.38,2.93-57.56
				c0.2-3.52-3.24-6.89-6.73-6.73C118.2,79.73,115.5,82.52,115.28,86.29L115.28,86.29z"/>
		</g>
	</g>
	<g>
		<g>
			<path class="st1" d="M65.14,166.94c35.44,2.41,70.96,3.45,106.48,3.12c35.34-0.33,70.66-2.03,105.86-5.08
				c19.73-1.71,39.43-3.85,59.07-6.41c1.86-0.24,3.38-0.59,4.76-1.97c1.17-1.17,2.05-3.08,1.97-4.76c-0.08-1.74-0.65-3.55-1.97-4.76
				c-1.22-1.12-3.04-2.2-4.76-1.97c-35.21,4.59-70.6,7.82-106.07,9.68c-35.29,1.84-70.65,2.33-105.98,1.46
				c-19.8-0.49-39.6-1.41-59.36-2.76c-3.52-0.24-6.89,3.27-6.73,6.73C58.58,164.06,61.37,166.68,65.14,166.94L65.14,166.94z"/>
		</g>
	</g>
	<g>
		<g>
			<path class="st1" d="M258.53,92.49c-8.83,15.32-17.95,30.47-27.37,45.43c-9.43,14.97-19.15,29.75-29.16,44.34
				c-10.02,14.6-20.32,29-30.91,43.19c-2.65,3.55-5.31,7.09-7.99,10.61c-1.29,1.7-2.59,3.4-3.9,5.1c-0.37,0.48-0.74,0.97-1.12,1.45
				c-0.14,0.18-0.28,0.36-0.42,0.54c-0.46,0.59,0.35-0.45,0.35-0.46c-0.75,0.96-1.5,1.93-2.25,2.9
				c-5.39,6.94-10.85,13.82-16.37,20.65c-11.15,13.79-22.57,27.35-34.26,40.69c-1.46,1.67-2.93,3.33-4.4,4.99
				c-2.33,2.64-2.79,6.96,0,9.52c2.55,2.34,7.03,2.82,9.52,0c11.8-13.34,23.34-26.91,34.61-40.7
				c11.48-14.05,22.67-28.33,33.59-42.82c10.71-14.2,21.13-28.61,31.27-43.22c10.09-14.54,19.89-29.27,29.39-44.2
				c9.54-14.98,18.78-30.14,27.72-45.49c1.11-1.91,2.22-3.82,3.32-5.74c1.76-3.05,0.81-7.51-2.42-9.21
				C264.53,88.38,260.41,89.23,258.53,92.49L258.53,92.49z"/>
		</g>
	</g>
	<g>
		<g>
			<path class="st1" d="M50.2,340.91c3.06,0.1,6.11,0.3,9.15,0.62c0.71,0.07,1.41,0.15,2.12,0.24c0.38,0.05,0.77,0.11,1.15,0.14
				c-2.14-0.21-0.73-0.1-0.26-0.03c1.52,0.22,3.04,0.46,4.56,0.73c5.77,1.03,11.47,2.44,17.08,4.16c5.63,1.73,11.06,3.9,16.55,6.02
				c-2.13-0.82,0.38,0.16,0.87,0.38c0.59,0.26,1.18,0.51,1.76,0.78c1.41,0.63,2.82,1.27,4.22,1.93c2.7,1.26,5.37,2.58,8.02,3.94
				c21.81,11.16,42.11,24.98,62.96,37.78c11.7,7.19,23.61,14.08,36,20.01c1.66,0.79,3.36,1.18,5.19,0.68
				c1.56-0.43,3.25-1.64,4.02-3.09c1.59-3,0.98-7.59-2.42-9.21c-22.4-10.7-43.1-24.51-64.12-37.63
				c-20.88-13.03-42.38-25.59-65.84-33.4c-13.22-4.4-27.06-7.05-41.01-7.5c-3.52-0.11-6.89,3.18-6.73,6.73
				C43.63,337.93,46.42,340.79,50.2,340.91L50.2,340.91z"/>
		</g>
	</g>
	<g>
		<g>
			<path class="st1" d="M153.51,332.18c9.95,0.19,19.88,0.92,29.75,2.19c0.29,0.04,0.58,0.08,0.87,0.11
				c-0.14-0.02-1.66-0.23-0.49-0.06c0.58,0.08,1.16,0.16,1.74,0.24c1.3,0.19,2.6,0.38,3.9,0.59c2.38,0.38,4.76,0.79,7.13,1.22
				c4.89,0.91,9.75,1.94,14.58,3.11c9.59,2.32,19.05,5.14,28.33,8.46c4.68,1.67,9.26,3.55,13.87,5.39c-0.14-0.05-1.47-0.63-0.4-0.17
				c0.27,0.12,0.54,0.23,0.8,0.34c0.54,0.23,1.07,0.46,1.61,0.7c1.2,0.53,2.4,1.06,3.6,1.6c2.26,1.02,4.5,2.08,6.73,3.17
				c9.95,4.85,19.59,10.31,28.87,16.35c2.96,1.92,7.57,0.69,9.21-2.42c1.77-3.36,0.74-7.16-2.42-9.21
				c-17.11-11.13-35.48-20.24-54.59-27.39c-18.75-7.01-38.27-11.99-58.09-14.8c-11.61-1.65-23.29-2.68-35.02-2.9
				c-3.52-0.07-6.89,3.14-6.73,6.73C146.94,329.15,149.74,332.1,153.51,332.18L153.51,332.18z"/>
		</g>
	</g>
	<g>
		<g>
			<path class="st1" d="M301.84,226.32c-6.85,35.26-13.7,70.53-20.55,105.79c-6.85,35.26-13.7,70.53-20.55,105.79
				c-3.86,19.85-7.71,39.7-11.57,59.54c-0.67,3.45,0.97,7.43,4.7,8.28c3.33,0.76,7.56-1.01,8.28-4.7
				c6.85-35.26,13.7-70.53,20.55-105.79s13.7-70.53,20.55-105.79c3.86-19.85,7.71-39.7,11.57-59.54c0.67-3.45-0.97-7.43-4.7-8.28
				C306.79,220.86,302.55,222.62,301.84,226.32L301.84,226.32z"/>
		</g>
	</g>
	<g>
		<g>
			<path class="st1" d="M423.74,219.57c-7.9,15.53-16.67,30.63-26.24,45.19c-4.83,7.35-9.86,14.57-15.09,21.64
				c-1.28,1.73-2.57,3.45-3.87,5.16c-0.65,0.86-1.3,1.71-1.96,2.56c-0.53,0.69,0.85-1.09,0.31-0.41c-0.16,0.21-0.33,0.42-0.49,0.64
				c-0.37,0.48-0.74,0.95-1.12,1.43c-2.69,3.44-5.43,6.84-8.22,10.21c-11.16,13.48-23.04,26.37-35.58,38.58
				c-12.61,12.28-25.89,23.88-39.75,34.74c-0.37,0.29-0.74,0.58-1.12,0.87c-0.18,0.14-1.68,1.31-0.76,0.59
				c0.92-0.72-0.59,0.45-0.76,0.59c-0.48,0.37-0.97,0.74-1.45,1.11c-1.72,1.31-3.45,2.6-5.19,3.89c-3.59,2.65-7.21,5.25-10.87,7.81
				c-7.21,5.03-14.56,9.86-22.03,14.49c-1.84,1.14-3.69,2.27-5.55,3.38c-3.02,1.81-4.4,6.13-2.42,9.21
				c1.96,3.03,5.98,4.36,9.21,2.42c15.18-9.13,29.87-19.08,43.96-29.81c14.42-10.98,28.28-22.66,41.44-35.13
				c12.81-12.13,24.95-24.96,36.38-38.41c11.68-13.75,22.63-28.13,32.75-43.06c9.86-14.54,18.91-29.63,27.08-45.17
				c1-1.9,1.98-3.8,2.95-5.71c1.6-3.14,0.93-7.45-2.42-9.21C429.88,215.53,425.45,216.22,423.74,219.57L423.74,219.57z"/>
		</g>
	</g>
	<g>
		<g>
			<path class="st1" d="M126.93,372.33c8.07-0.03,16.14,0.4,24.17,1.25c2,0.21,4,0.45,5.99,0.71c0.19,0.02,1,0.13,0.03,0
				c-1.03-0.14,0,0,0.26,0.04c0.46,0.06,0.92,0.13,1.38,0.2c1,0.14,1.99,0.29,2.98,0.45c3.98,0.62,7.94,1.33,11.89,2.12
				c15.96,3.2,31.64,7.7,47.08,12.85c15.44,5.15,30.65,10.95,45.82,16.85c16.07,6.25,32.12,12.53,48.18,18.8
				c16.13,6.29,32.25,12.59,48.38,18.88c2.02,0.79,4.03,1.57,6.05,2.36c1.53,0.6,3.83,0.12,5.19-0.68c1.4-0.82,2.73-2.42,3.09-4.02
				c0.88-3.87-1.18-6.91-4.7-8.28c-16.2-6.32-32.41-12.65-48.61-18.97c-16.18-6.32-32.37-12.64-48.55-18.95
				c-15.3-5.97-30.61-11.9-46.14-17.24c-15.41-5.29-31.04-10-46.96-13.48c-16.23-3.55-32.82-5.87-49.45-6.28
				c-2.02-0.05-4.05-0.07-6.07-0.06c-3.52,0.01-6.9,3.09-6.73,6.73C120.36,369.23,123.15,372.34,126.93,372.33L126.93,372.33z"/>
		</g>
	</g>
	<g>
		<g>
			<path class="st1" d="M393.88,266.2c-11.15,28.2-22.31,56.41-33.46,84.61c-11.15,28.2-22.31,56.41-33.46,84.61
				c-6.25,15.81-12.5,31.61-18.75,47.42c-0.6,1.52-0.11,3.83,0.68,5.19c0.82,1.4,2.42,2.73,4.02,3.09c1.72,0.39,3.66,0.31,5.19-0.68
				c1.56-1.01,2.41-2.3,3.09-4.02c11.15-28.2,22.31-56.41,33.46-84.61s22.31-56.41,33.46-84.61c6.25-15.81,12.5-31.61,18.75-47.42
				c0.6-1.52,0.11-3.83-0.68-5.19c-0.82-1.4-2.42-2.73-4.02-3.09c-1.72-0.39-3.66-0.31-5.19,0.68
				C395.41,263.18,394.56,264.48,393.88,266.2L393.88,266.2z"/>
		</g>
	</g>
	<g>
		<g>
			<path class="st1" d="M81.06,369.13c6.62,9.56,12.49,19.63,17.55,30.1c1.28,2.65,2.5,5.32,3.68,8.01c0.26,0.6,0.75,1.38,0.87,2.02
				c-0.02-0.13-0.62-1.48-0.17-0.39c0.14,0.34,0.28,0.68,0.42,1.02c0.59,1.43,1.16,2.86,1.71,4.3c2.06,5.34,3.92,10.75,5.57,16.23
				c1.9,6.32,3.51,12.72,4.84,19.18c0.71,3.46,4.98,5.77,8.28,4.7c3.66-1.18,5.46-4.58,4.7-8.28c-4.82-23.41-13.44-46.1-25.25-66.87
				c-3.28-5.76-6.81-11.37-10.58-16.82c-2-2.89-5.99-4.49-9.21-2.42C80.6,361.77,78.91,366.03,81.06,369.13L81.06,369.13z"/>
		</g>
	</g>
	<g>
		<g>
			<path class="st1" d="M47.57,496.1c15.63-7.81,31.17-15.77,46.64-23.89c15.46-8.12,30.84-16.39,46.13-24.82
				c15.29-8.42,30.49-17,45.6-25.74c15.11-8.73,30.13-17.61,45.06-26.64c14.92-9.03,29.76-18.21,44.49-27.54
				c1.82-1.15,3.63-2.3,5.45-3.46c2.97-1.89,4.44-6.08,2.42-9.21c-1.91-2.97-6.03-4.44-9.21-2.42
				c-14.71,9.37-29.52,18.59-44.42,27.65c-14.91,9.07-29.9,17.99-44.99,26.76c-15.09,8.77-30.27,17.39-45.54,25.85
				c-15.27,8.47-30.63,16.78-46.07,24.93c-15.44,8.16-30.97,16.16-46.58,24c-1.92,0.97-3.85,1.93-5.78,2.89
				c-3.16,1.58-4.3,6.29-2.42,9.21C40.44,496.91,44.2,497.78,47.57,496.1L47.57,496.1z"/>
		</g>
	</g>
	<g>
		<g>
			<path class="st1" d="M155.61,366.51c0,23.29,0,46.57,0,69.86s0,46.57,0,69.86c0,13.14,0,26.28,0,39.42c0,3.52,3.1,6.9,6.73,6.73
				c3.65-0.16,6.73-2.96,6.73-6.73c0-23.29,0-46.57,0-69.86s0-46.57,0-69.86c0-13.14,0-26.28,0-39.42c0-3.52-3.1-6.9-6.73-6.73
				C158.69,359.95,155.61,362.74,155.61,366.51L155.61,366.51z"/>
		</g>
	</g>
	<g>
		<g>
			<path class="st1" d="M59.16,532.17c31.11,0.74,62.25-0.03,93.28-2.34c31.29-2.32,62.49-6.19,93.41-11.53
				c17.23-2.98,34.38-6.44,51.43-10.37c3.44-0.79,5.79-4.92,4.7-8.28c-1.16-3.59-4.6-5.55-8.28-4.7
				c-15.15,3.49-30.38,6.61-45.68,9.36c-7.49,1.34-15,2.6-22.53,3.76c-3.84,0.59-7.69,1.16-11.54,1.71
				c-1.92,0.27-3.85,0.54-5.78,0.8c-0.36,0.05-2.03,0.3-0.14,0.02c-0.32,0.05-0.64,0.09-0.96,0.13c-1.12,0.15-2.25,0.3-3.37,0.44
				c-30.7,3.96-61.58,6.42-92.52,7.37c-17.33,0.53-34.68,0.59-52.02,0.17c-3.52-0.08-6.89,3.16-6.73,6.73
				C52.6,529.15,55.39,532.08,59.16,532.17L59.16,532.17z"/>
		</g>
	</g>
	<g>
		<g>
			<path class="st1" d="M220.98,467.61c0.94,14.07,0.93,28.19-0.03,42.26c-0.23,3.41-0.52,6.82-0.86,10.22
				c-0.17,1.7-0.36,3.4-0.55,5.1c-0.1,0.85-0.2,1.7-0.31,2.55c-0.05,0.42-0.11,0.85-0.16,1.27c-0.06,0.46-0.41,2.47-0.04,0.33
				c-1.2,6.88-2.1,13.79-3.5,20.65c-2.78,13.7-6.45,27.22-10.97,40.44c-2.26,6.62-4.74,13.17-7.42,19.63
				c-0.16,0.39-0.37,0.79-0.5,1.19c0.56-1.79,0.19-0.45,0.01-0.03c-0.34,0.79-0.68,1.58-1.02,2.36c-0.74,1.7-1.5,3.4-2.27,5.09
				c-1.43,3.12-2.9,6.22-4.42,9.29c-7.06,14.24-15.18,27.94-24.28,40.96c-2.02,2.9-0.62,7.61,2.42,9.21
				c3.44,1.82,7.05,0.67,9.21-2.42c16.56-23.7,29.79-49.65,39.56-76.85c9.71-27.01,15.77-55.28,18.18-83.87
				c1.33-15.75,1.47-31.6,0.42-47.37c-0.23-3.51-2.93-6.9-6.73-6.73C224.26,461.03,220.73,463.85,220.98,467.61L220.98,467.61z"/>
		</g>
	</g>
	<g>
		<g>
			<path class="st1" d="M90.69,587.3c24.56,8.69,49.41,16.58,74.49,23.63c25.02,7.03,50.28,13.24,75.71,18.61
				c14.33,3.03,28.71,5.78,43.14,8.27c1.83,0.32,3.53,0.29,5.19-0.68c1.4-0.82,2.73-2.42,3.09-4.02c0.74-3.27-0.99-7.64-4.7-8.28
				c-25.7-4.44-51.26-9.72-76.61-15.85c-25.26-6.1-50.32-13.04-75.12-20.8c-13.96-4.37-27.83-8.99-41.62-13.87
				c-3.32-1.18-7.51,1.33-8.28,4.7C85.13,582.78,87.13,586.04,90.69,587.3L90.69,587.3z"/>
		</g>
	</g>
	<g>
		<g>
			<path class="st1" d="M90.43,704.57c7.06-14.03,14.36-27.94,21.89-41.72c7.54-13.79,15.31-27.45,23.31-40.97
				c8.01-13.53,16.24-26.93,24.7-40.18c8.47-13.26,17.16-26.38,26.07-39.34c8.92-12.97,18.05-25.8,27.41-38.46
				c1.15-1.56,2.31-3.12,3.47-4.67c0.98-1.31,1.09-3.69,0.68-5.19c-0.43-1.56-1.64-3.25-3.09-4.02c-1.56-0.83-3.46-1.24-5.19-0.68
				c-1.77,0.57-2.92,1.61-4.02,3.09c-9.4,12.63-18.6,25.41-27.57,38.35c-8.97,12.93-17.71,26.01-26.24,39.24
				c-8.52,13.22-16.81,26.58-24.87,40.08c-8.06,13.49-15.89,27.12-23.48,40.88c-7.59,13.75-14.95,27.63-22.07,41.63
				c-0.88,1.72-1.75,3.45-2.62,5.18c-1.58,3.14-0.94,7.44,2.42,9.21C84.28,708.6,88.74,707.93,90.43,704.57L90.43,704.57z"/>
		</g>
	</g>
	<g>
		<g>
			<path class="st1" d="M58.35,561c15.48,17.24,31,34.46,47.4,50.83c16.54,16.51,34.02,32.11,52.96,45.84
				c10.5,7.62,21.46,14.59,32.89,20.72c3.1,1.67,7.47,0.88,9.21-2.42c1.65-3.13,0.9-7.43-2.42-9.21
				c-10.18-5.46-19.99-11.59-29.42-18.24c-2.32-1.64-4.62-3.31-6.9-5.01c-1.03-0.76-2.05-1.53-3.06-2.31
				c-0.34-0.26-0.68-0.52-1.02-0.78c-0.39-0.3-0.62-0.77,0.35,0.27c-0.55-0.59-1.38-1.07-2.02-1.57
				c-4.47-3.52-8.86-7.14-13.18-10.85c-17.4-14.96-33.55-31.32-49.17-48.1c-8.81-9.47-17.46-19.08-26.11-28.7
				c-2.36-2.63-7.15-2.58-9.52,0C55.78,554.28,55.84,558.19,58.35,561L58.35,561z"/>
		</g>
	</g>
	<g>
		<g>
			<path class="st1" d="M220.15,698.87c6.46-15.07,12.62-30.26,18.41-45.6c5.64-14.93,10.94-29.99,15.91-45.16
				c4.96-15.16,9.59-30.43,13.87-45.8c4.28-15.36,8.21-30.82,11.8-46.35c3.59-15.53,6.82-31.14,9.71-46.82
				c0.36-1.93,0.7-3.86,1.05-5.79c0.32-1.82,0.28-3.54-0.68-5.19c-0.82-1.4-2.42-2.73-4.02-3.09c-3.29-0.75-7.62,0.99-8.28,4.7
				c-2.79,15.61-5.92,31.16-9.39,46.64c-3.48,15.48-7.31,30.88-11.47,46.19c-4.17,15.32-8.68,30.54-13.52,45.65
				c-4.87,15.2-10.08,30.29-15.63,45.25c-2.76,7.45-5.6,14.87-8.53,22.25c-1.45,3.66-2.92,7.31-4.41,10.95
				c-0.74,1.82-1.49,3.64-2.25,5.46c-0.39,0.94-0.79,1.89-1.18,2.83c-0.18,0.44-0.36,0.87-0.55,1.31c-0.09,0.22-0.18,0.44-0.27,0.65
				c-0.36,0.86,0.49-1.16,0.13-0.3c-0.77,1.81-1.54,3.62-2.31,5.43c-0.74,1.73-1.2,3.29-0.68,5.19c0.43,1.56,1.64,3.25,3.09,4.02
				c1.56,0.83,3.46,1.24,5.19,0.68C217.68,701.46,219.48,700.44,220.15,698.87L220.15,698.87z"/>
		</g>
	</g>
	<g>
		<g>
			<path class="st1" d="M224.03,521.92c3.43,0.08,6.86,0.29,10.28,0.62c1.66,0.16,3.32,0.36,4.98,0.57
				c0.75,0.09-0.93-0.12-0.84-0.11c0.19,0.01,0.38,0.05,0.57,0.08c0.44,0.06,0.89,0.13,1.33,0.19c0.82,0.12,1.65,0.25,2.47,0.39
				c6.63,1.1,13.18,2.63,19.64,4.48c6.56,1.88,13.02,4.08,19.4,6.51c3.15,1.2,6.28,2.45,9.4,3.75c0.36,0.15,0.72,0.3,1.08,0.45
				c1.06,0.44-1.39-0.59,0.01,0c0.78,0.33,1.56,0.66,2.34,1c1.62,0.7,3.23,1.41,4.84,2.12c12.62,5.61,25.01,11.73,37.48,17.65
				c12.85,6.1,25.82,12.01,39.13,17.02c12.81,4.82,25.99,8.75,39.52,10.96c2.14,0.35,4.28,0.64,6.42,0.93
				c1.58,0.21,3.69-0.91,4.76-1.97c1.17-1.17,2.05-3.08,1.97-4.76c-0.08-1.74-0.65-3.55-1.97-4.76c-1.41-1.29-2.88-1.72-4.76-1.97
				c-0.09-0.01,1.57,0.22,0.82,0.11c-0.19-0.03-0.39-0.05-0.58-0.08c-0.45-0.06-0.9-0.13-1.35-0.2c-0.84-0.13-1.67-0.26-2.5-0.4
				c-1.73-0.29-3.45-0.61-5.17-0.95c-3.3-0.66-6.59-1.42-9.85-2.27c-6.6-1.71-13.1-3.76-19.51-6.06c-3.25-1.16-6.48-2.39-9.69-3.67
				c-1.58-0.63-3.15-1.27-4.72-1.92c-0.42-0.18-0.85-0.35-1.27-0.53c-0.18-0.08-0.36-0.15-0.54-0.23c-0.68-0.29,0.77,0.32,0.7,0.3
				c-0.84-0.36-1.69-0.72-2.53-1.08c-6.34-2.73-12.61-5.62-18.86-8.56c-12.5-5.89-24.89-12.02-37.48-17.72
				c-12.8-5.8-25.83-11.22-39.27-15.37c-13.37-4.13-27.21-6.92-41.2-7.75c-1.69-0.1-3.37-0.17-5.06-0.21
				c-3.52-0.08-6.89,3.16-6.73,6.73C217.47,518.91,220.26,521.83,224.03,521.92L224.03,521.92z"/>
		</g>
	</g>
	<g>
		<g>
			<path class="st1" d="M384.44,412.61c-0.25,3.53-0.67,7.02-1.07,10.54c-0.01,0.07,0.21-1.54,0.11-0.78
				c-0.03,0.2-0.06,0.4-0.08,0.6c-0.07,0.47-0.13,0.94-0.2,1.41c-0.13,0.87-0.26,1.74-0.4,2.61c-0.28,1.73-0.59,3.46-0.91,5.19
				c-1.32,6.97-3,13.88-4.95,20.7c-3.92,13.71-8.91,27.09-14.27,40.3c-1.35,3.31-2.72,6.62-4.1,9.92c-0.16,0.38-0.32,0.76-0.48,1.14
				c-0.08,0.19-0.16,0.38-0.24,0.57c-0.29,0.69,0.3-0.7,0.28-0.66c-0.38,0.89-0.75,1.78-1.13,2.67c-0.7,1.65-1.4,3.3-2.11,4.95
				c-2.99,7-6,14-8.95,21.02c-5.56,13.21-10.9,26.53-15.37,40.15c-4.42,13.48-7.97,27.28-9.93,41.34c-0.31,2.21-0.6,4.43-0.85,6.65
				c-0.18,1.6,0.88,3.67,1.97,4.76c1.17,1.17,3.08,2.05,4.76,1.97c1.74-0.08,3.55-0.65,4.76-1.97c1.28-1.4,1.76-2.89,1.97-4.76
				c0.1-0.88,0.2-1.76,0.32-2.64c0.03-0.27,0.22-1.68,0.07-0.52c-0.16,1.16,0.06-0.43,0.1-0.72c0.25-1.75,0.53-3.49,0.82-5.23
				c0.6-3.48,1.28-6.94,2.05-10.38c1.55-6.96,3.44-13.84,5.57-20.64c4.27-13.67,9.49-27.02,14.98-40.23
				c0.69-1.65,1.38-3.31,2.08-4.96c0.48-1.14-0.52,1.23-0.04,0.08c0.16-0.38,0.32-0.76,0.48-1.14c0.38-0.89,0.75-1.78,1.13-2.67
				c1.4-3.3,2.82-6.6,4.23-9.9c2.99-7,5.98-14,8.88-21.03c5.45-13.19,10.58-26.54,14.73-40.21c4.24-13.99,7.33-28.29,8.81-42.84
				c0.18-1.76,0.33-3.52,0.46-5.28c0.25-3.52-3.28-6.89-6.73-6.73C387.31,406.05,384.72,408.84,384.44,412.61L384.44,412.61z"/>
		</g>
	</g>
	<g>
		<g>
			<path class="st1" d="M247.84,594.75c26.24,0.17,52.47,1.36,78.62,3.58c12.99,1.1,25.96,2.46,38.89,4.07
				c3.23,0.4,6.47,0.81,9.7,1.25c-1.99-0.27,0.64,0.09,1.12,0.15c0.81,0.11,1.61,0.22,2.42,0.33c1.61,0.23,3.23,0.45,4.84,0.69
				c6.53,0.94,13.05,1.95,19.56,3.02c14.54,2.4,29.04,5.12,43.46,8.15c3.44,0.72,7.44-1.01,8.28-4.7c0.77-3.38-1.02-7.51-4.7-8.28
				c-26.26-5.52-52.73-9.95-79.34-13.4c-26.02-3.37-52.17-5.73-78.37-7.06c-14.81-0.75-29.64-1.17-44.47-1.27
				c-3.52-0.02-6.89,3.11-6.73,6.73C241.27,591.68,244.07,594.72,247.84,594.75L247.84,594.75z"/>
		</g>
	</g>
	<g>
		<g>
			<path class="st1" d="M442.18,530.53c-11.27,18.87-22.54,37.74-33.82,56.61c-11.32,18.94-22.63,37.88-33.95,56.82
				c-6.36,10.65-12.72,21.3-19.09,31.95c-1.81,3.03-0.78,7.52,2.42,9.21c3.25,1.72,7.28,0.82,9.21-2.42
				c11.27-18.87,22.54-37.74,33.82-56.61c11.32-18.94,22.63-37.88,33.95-56.82c6.36-10.65,12.72-21.3,19.09-31.95
				c1.81-3.03,0.78-7.52-2.42-9.21C448.14,526.4,444.11,527.3,442.18,530.53L442.18,530.53z"/>
		</g>
	</g>
	<g>
		<g>
			<path class="st1" d="M219.4,663.32c1.22-0.27,2.44-0.52,3.68-0.71c0.16-0.03,0.72-0.18,0.92-0.14c-0.94-0.19-1.11,0.14-0.4,0.06
				c0.77-0.08,1.54-0.17,2.31-0.23c2.55-0.2,5.11-0.24,7.66-0.15c1.24,0.04,2.48,0.12,3.72,0.22c1.2,0.1,2.82,0.01,3.96,0.42
				c-1.24-0.45-0.94-0.13-0.39-0.05c0.31,0.05,0.62,0.09,0.93,0.14c0.62,0.09,1.24,0.2,1.86,0.3c1.32,0.23,2.64,0.47,3.95,0.74
				c10.44,2.14,20.6,5.48,30.79,8.59c21.14,6.46,42.28,12.91,63.41,19.37c11.92,3.64,23.84,7.28,35.76,10.92
				c3.37,1.03,7.49-1.22,8.28-4.7c0.83-3.64-1.1-7.18-4.7-8.28c-21.46-6.55-42.91-13.1-64.37-19.66c-10.65-3.25-21.3-6.5-31.95-9.76
				c-10.3-3.15-20.58-6.55-31.1-8.91c-12.48-2.8-25.32-3.98-37.9-1.15c-3.44,0.77-5.78,4.94-4.7,8.28
				C212.28,662.23,215.71,664.15,219.4,663.32L219.4,663.32z"/>
		</g>
	</g>
	<g>
		<g>
			<path class="st1" d="M290.36,729.12c13.45-16.13,27.23-31.98,41.35-47.52c14.03-15.44,28.38-30.59,43.04-45.42
				c8.34-8.43,16.78-16.77,25.31-25c2.54-2.45,2.65-7.09,0-9.52c-2.73-2.5-6.81-2.61-9.52,0c-15.13,14.6-29.96,29.51-44.47,44.74
				c-14.38,15.1-28.44,30.5-42.18,46.2c-7.8,8.91-15.48,17.92-23.07,27.01c-1.17,1.4-1.97,2.87-1.97,4.76
				c0,1.65,0.73,3.62,1.97,4.76C283.32,731.4,287.95,732.01,290.36,729.12L290.36,729.12z"/>
		</g>
	</g>
	<g>
		<g>
			<path class="st1" d="M353.63,635.02c18.13,8.4,36.58,16.13,55.29,23.16c18.33,6.88,36.92,13.08,55.72,18.57
				c10.58,3.09,21.22,5.95,31.91,8.6c3.41,0.84,7.46-1.09,8.28-4.7c0.79-3.48-1.04-7.38-4.7-8.28
				c-18.94-4.68-37.71-10.06-56.25-16.14c-18.38-6.02-36.53-12.73-54.41-20.1c-1.31-0.54-2.61-1.08-3.92-1.63
				c-0.58-0.24-1.16-0.49-1.74-0.73c1.7,0.7-0.32-0.14-0.78-0.33c-2.53-1.08-5.05-2.17-7.57-3.27c-5.04-2.21-10.05-4.47-15.04-6.78
				c-1.68-0.78-3.34-1.19-5.19-0.68c-1.56,0.43-3.25,1.64-4.02,3.09C349.65,628.78,350.22,633.44,353.63,635.02L353.63,635.02z"/>
		</g>
	</g>
	<g>
		<g>
			<path class="st1" d="M419.79,723.09c11.62-17.83,23.24-35.67,34.85-53.5c11.62-17.83,23.24-35.67,34.85-53.5
				c6.54-10.03,13.07-20.06,19.61-30.1c1.93-2.96,0.69-7.57-2.42-9.21c-3.36-1.77-7.16-0.74-9.21,2.42
				c-11.62,17.83-23.24,35.67-34.85,53.5s-23.24,35.67-34.85,53.5c-6.54,10.03-13.07,20.06-19.61,30.1
				c-1.93,2.96-0.69,7.57,2.42,9.21C413.94,727.28,417.73,726.24,419.79,723.09L419.79,723.09z"/>
		</g>
	</g>
	<g>
		<g>
			<path class="st1" d="M453.52,644.37c11.24,5.8,22.47,11.61,33.71,17.41c10.85,5.6,21.77,11.08,32.43,17.03
				c5.9,3.29,11.69,6.76,17.3,10.53c2.93,1.97,7.59,0.66,9.21-2.42c1.79-3.4,0.71-7.11-2.42-9.21
				c-9.92-6.67-20.44-12.37-31.03-17.88c-11.1-5.78-22.23-11.49-33.34-17.23c-6.36-3.28-12.71-6.57-19.07-9.85
				c-3.13-1.61-7.45-0.91-9.21,2.42C449.47,638.25,450.18,642.65,453.52,644.37L453.52,644.37z"/>
		</g>
	</g>
	<g>
		<g>
			<path class="st1" d="M475.64,740.22c13.66-14.48,26.48-29.71,38.51-45.55c11.71-15.41,22.59-31.45,32.58-48.03
				c5.62-9.32,10.94-18.82,15.99-28.47c1.63-3.12,0.9-7.46-2.42-9.21c-3.1-1.64-7.47-0.92-9.21,2.42
				c-8.92,17.07-18.75,33.66-29.45,49.68c-5.36,8.02-10.93,15.9-16.7,23.62c-1.42,1.9-2.86,3.79-4.31,5.68
				c-0.18,0.23-0.36,0.48-0.54,0.71c1.04-1.27,0.46-0.59,0.24-0.31c-0.36,0.47-0.73,0.94-1.09,1.41c-0.78,0.99-1.56,1.99-2.34,2.98
				c-3,3.78-6.05,7.53-9.14,11.23c-6.96,8.33-14.18,16.44-21.63,24.33c-2.42,2.56-2.73,7.01,0,9.52
				C468.74,742.63,473.06,742.95,475.64,740.22L475.64,740.22z"/>
		</g>
	</g>
	<g>
		<g>
			<path class="st1" d="M414.54,727.39c-2.91-1.18-5.81-2.37-8.71-3.58c-0.64-0.27-1.27-0.53-1.91-0.8
				c-0.42-0.18-0.85-0.35-1.27-0.53c1.52,0.65,0.67,0.28,0.34,0.14c-1.55-0.66-3.1-1.32-4.65-1.98c-5.62-2.42-11.22-4.9-16.8-7.44
				c-11.28-5.14-22.45-10.52-33.5-16.13c-22.08-11.21-43.67-23.37-64.71-36.42c-11.8-7.32-23.43-14.94-34.87-22.82
				c-2.91-2-7.6-0.64-9.21,2.42c-1.81,3.43-0.69,7.07,2.42,9.21c20.5,14.12,41.6,27.37,63.23,39.68
				c21.6,12.29,43.73,23.66,66.3,34.06c13.11,6.04,26.37,11.76,39.76,17.17c1.51,0.61,3.85,0.11,5.19-0.68
				c1.4-0.82,2.73-2.42,3.09-4.02c0.39-1.72,0.31-3.66-0.68-5.19C417.55,728.92,416.26,728.09,414.54,727.39L414.54,727.39z"/>
		</g>
	</g>
	<g>
		<g>
			<path class="st1" d="M184.28,723.56c-16.27-22.45-35.52-42.42-55.52-61.55c-19.78-18.92-40.23-37.15-59.27-56.84
				c-5.34-5.52-10.56-11.16-15.61-16.95c-2.48-2.84-4.91-5.71-7.29-8.63c-1.24-1.51-2.46-3.03-3.67-4.57
				c-0.26-0.33-0.52-0.66-0.78-0.99c-0.27-0.35-1.36-1.97-0.23-0.29c-0.54-0.8-1.19-1.56-1.78-2.33c-1.1-1.46-2.19-2.59-4.02-3.09
				c-1.61-0.44-3.76-0.24-5.19,0.68c-2.77,1.78-4.69,6.21-2.42,9.21c16.75,22.15,36.23,41.89,56.35,60.97
				c19.85,18.82,40.24,37.1,59.04,57c5.27,5.57,10.41,11.27,15.36,17.13c2.43,2.87,4.81,5.79,7.14,8.74
				c0.26,0.33,0.52,0.66,0.77,0.99c0.27,0.34,1.38,1.96,0.23,0.29c0.55,0.8,1.19,1.55,1.78,2.33c1.18,1.56,2.34,3.13,3.48,4.71
				c1.06,1.46,2.23,2.6,4.02,3.09c1.61,0.44,3.76,0.24,5.19-0.68C184.68,730.95,186.49,726.61,184.28,723.56L184.28,723.56z"/>
		</g>
	</g>
	<g>
		<g>
			<path class="st1" d="M58.73,701.59c0.17-1.34-0.16,1.03,0.04-0.31c0.09-0.61,0.18-1.22,0.27-1.84c0.18-1.13,0.37-2.27,0.58-3.4
				c0.43-2.35,0.92-4.68,1.46-7c1.04-4.48,2.26-8.92,3.59-13.33c2.72-9.04,5.84-17.96,8.86-26.9c6.23-18.44,12.46-36.88,18.69-55.31
				c6.23-18.44,12.46-36.88,18.69-55.31s12.46-36.88,18.69-55.31c2.96-8.77,5.86-17.57,9.04-26.27c0.77-2.11,1.56-4.2,2.37-6.29
				c0.41-1.04,0.82-2.09,1.24-3.13c0.19-0.48,0.39-0.96,0.58-1.44c0.1-0.24,0.2-0.48,0.3-0.72c0.06-0.15,0.52-1.21,0.16-0.39
				c-0.34,0.79,0.01-0.01,0.06-0.15c0.14-0.32,0.27-0.63,0.41-0.95c0.2-0.47,0.41-0.95,0.62-1.42c0.49-1.1,0.98-2.2,1.49-3.29
				c0.94-2.03,1.92-4.04,2.94-6.04c1.02-2,2.09-3.97,3.2-5.92c1.74-3.06,0.82-7.5-2.42-9.21c-3.2-1.69-7.35-0.85-9.21,2.42
				c-9.27,16.29-15.29,34.15-21.27,51.83c-6.26,18.53-12.52,37.05-18.77,55.58c-6.29,18.61-12.58,37.23-18.86,55.84
				c-6.26,18.53-12.52,37.05-18.77,55.58c-6.06,17.93-12.95,35.89-16.23,54.6c-0.47,2.68-0.84,5.38-1.18,8.08
				c-0.2,1.59,0.9,3.68,1.97,4.76c1.17,1.17,3.08,2.05,4.76,1.97c1.74-0.08,3.55-0.65,4.76-1.97
				C58.05,704.95,58.49,703.47,58.73,701.59L58.73,701.59z"/>
		</g>
	</g>
	<g>
		<g>
			<path class="st1" d="M50.67,470.88c16.05,25.32,32.09,50.63,48.14,75.95c15.96,25.17,31.91,50.35,47.87,75.52
				c9,14.2,18.01,28.41,27.01,42.61c1.88,2.97,6.08,4.43,9.21,2.42c2.97-1.92,4.43-6.03,2.42-9.21
				c-16.05-25.32-32.09-50.63-48.14-75.95c-15.96-25.17-31.91-50.35-47.87-75.52c-9-14.2-18.01-28.41-27.01-42.61
				c-1.88-2.97-6.08-4.43-9.21-2.42C50.11,463.59,48.65,467.7,50.67,470.88L50.67,470.88z"/>
		</g>
	</g>
	<g>
		<g>
			<path class="st1" d="M119.66,715.68c7.84-10.37,15.71-20.71,23.62-31.03c3.93-5.12,8-10.15,11.82-15.36
				c-0.9,1.22-0.36,0.46-0.15,0.2c0.3-0.39,0.6-0.78,0.9-1.16c0.45-0.58,0.9-1.16,1.35-1.75c1.05-1.36,2.1-2.72,3.16-4.07
				c1.95-2.52,3.91-5.04,5.87-7.56c15.92-20.46,31.99-40.81,48.2-61.04c9.1-11.36,18.25-22.69,27.45-33.98
				c1.16-1.43,1.97-2.85,1.97-4.76c0-1.65-0.73-3.62-1.97-4.76c-2.46-2.26-7.15-2.92-9.52,0c-16.42,20.17-32.71,40.46-48.84,60.86
				c-16.44,20.78-32.72,41.68-48.87,62.7c-8.92,11.61-17.79,23.25-26.61,34.92c-0.98,1.3-1.09,3.7-0.68,5.19
				c0.43,1.56,1.64,3.25,3.09,4.02c1.56,0.83,3.46,1.24,5.19,0.68C117.41,718.2,118.54,717.16,119.66,715.68L119.66,715.68z"/>
		</g>
	</g>
	<g>
		<g>
			<path class="st1" d="M53.26,403.54c2.39,1.79,4.77,3.6,7.13,5.42c0.24,0.18,0.48,0.36,0.71,0.55c-1.32-1.06-0.46-0.35-0.12-0.09
				c0.53,0.41,1.06,0.82,1.59,1.24c1.24,0.96,2.47,1.93,3.7,2.9c4.63,3.66,9.21,7.37,13.74,11.14c8.95,7.43,17.72,15.09,26.3,22.94
				c17.24,15.79,33.72,32.43,49.34,49.82c8.74,9.74,17.22,19.72,25.42,29.92c1.01,1.26,3.22,1.97,4.76,1.97
				c1.65,0,3.62-0.73,4.76-1.97c1.18-1.28,2.05-2.97,1.97-4.76c-0.08-1.89-0.79-3.29-1.97-4.76c-14.73-18.32-30.35-35.92-46.8-52.71
				c-16.38-16.72-33.58-32.63-51.5-47.68c-10.5-8.81-21.26-17.32-32.23-25.55c-1.3-0.98-3.69-1.09-5.19-0.68
				c-1.56,0.43-3.25,1.64-4.02,3.09c-0.83,1.56-1.24,3.46-0.68,5.19C50.74,401.29,51.78,402.43,53.26,403.54L53.26,403.54z"/>
		</g>
	</g>
	<g>
		<g>
			<path class="st1" d="M54.79,287.13c20.39-15.83,40.78-31.65,61.17-47.48c20.26-15.72,40.52-31.45,60.78-47.17
				c11.45-8.88,22.89-17.77,34.34-26.65c1.26-0.98,1.97-3.25,1.97-4.76c0-1.65-0.73-3.62-1.97-4.76c-1.28-1.18-2.97-2.05-4.76-1.97
				c-1.91,0.09-3.27,0.81-4.76,1.97c-20.39,15.83-40.78,31.65-61.17,47.48c-20.26,15.72-40.52,31.45-60.78,47.17
				c-11.45,8.88-22.89,17.77-34.34,26.65c-1.26,0.98-1.97,3.25-1.97,4.76c0,1.65,0.73,3.62,1.97,4.76c1.28,1.18,2.97,2.05,4.76,1.97
				C51.94,289.02,53.3,288.29,54.79,287.13L54.79,287.13z"/>
		</g>
	</g>
	<g>
		<g>
			<path class="st1" d="M58.66,89.82c17.31,18.41,34.63,36.82,51.94,55.23c17.26,18.35,34.51,36.7,51.77,55.05
				c9.74,10.36,19.48,20.71,29.22,31.07c2.42,2.57,7.11,2.62,9.52,0c2.53-2.76,2.58-6.78,0-9.52
				c-17.31-18.41-34.63-36.82-51.94-55.23c-17.26-18.35-34.51-36.7-51.77-55.05c-9.74-10.36-19.48-20.71-29.22-31.07
				c-2.42-2.57-7.11-2.62-9.52,0C56.13,83.05,56.08,87.07,58.66,89.82L58.66,89.82z"/>
		</g>
	</g>
	<g>
		<g>
			<path class="st1" d="M101.87,139.68c14.83-12.42,29.65-24.85,44.48-37.27c2.71-2.27,2.52-7.21,0-9.52
				c-2.88-2.65-6.63-2.42-9.52,0c-14.83,12.42-29.65,24.85-44.48,37.27c-2.71,2.27-2.52,7.21,0,9.52
				C95.23,142.33,98.98,142.11,101.87,139.68L101.87,139.68z"/>
		</g>
	</g>
	<g>
		<g>
			<path class="st1" d="M121.31,141.82c4.12-7.51,8.71-14.75,13.77-21.65c0.64-0.87,1.28-1.74,1.94-2.6
				c0.16-0.21,1.19-1.55,0.52-0.69c-0.59,0.75-0.11,0.15,0,0c0.22-0.28,0.44-0.57,0.67-0.85c1.34-1.7,2.7-3.38,4.1-5.03
				c2.74-3.26,5.59-6.42,8.54-9.5c3.4-3.55,6.94-6.96,10.59-10.25c2.63-2.36,2.58-7.15,0-9.52c-2.8-2.57-6.72-2.52-9.52,0
				c-13.29,11.95-24.98,25.71-34.72,40.71c-2.66,4.1-5.17,8.3-7.52,12.59c-1.69,3.09-0.86,7.48,2.42,9.21
				C115.26,145.9,119.51,145.11,121.31,141.82L121.31,141.82z"/>
		</g>
	</g>
	<g>
		<g>
			<path class="st1" d="M441.76,86.56c19.16,12.02,38.33,24.04,57.49,36.06c5.4,3.39,10.81,6.78,16.21,10.17
				c2.99,1.87,7.55,0.73,9.21-2.42c1.75-3.31,0.77-7.21-2.42-9.21c-19.16-12.02-38.33-24.04-57.49-36.06
				c-5.4-3.39-10.81-6.78-16.21-10.17c-2.99-1.87-7.55-0.73-9.21,2.42C437.6,80.66,438.57,84.56,441.76,86.56L441.76,86.56z"/>
		</g>
	</g>
	<g>
		<g>
			<path class="st1" d="M513.55,52.86c-6.1,30.27-13.61,60.25-22.52,89.82c-8.92,29.59-19.22,58.77-30.86,87.4
				c-1.59,3.91-3.19,7.81-4.84,11.69c0.73-1.71,0.09-0.21-0.05,0.12c-0.24,0.58-0.49,1.15-0.73,1.73c-0.43,1.01-0.86,2.01-1.29,3.02
				c-0.86,2.01-1.74,4.02-2.61,6.02c-3.51,8.02-7.13,15.99-10.85,23.91c-0.79,1.67-1.19,3.35-0.68,5.19
				c0.43,1.56,1.64,3.25,3.09,4.02c2.99,1.58,7.61,0.99,9.21-2.42c13.4-28.52,25.48-57.66,36.16-87.31
				c10.47-29.07,19.57-58.62,27.27-88.54c4.35-16.91,8.25-33.94,11.7-51.06c0.69-3.44-0.99-7.44-4.7-8.28
				C518.48,47.39,514.29,49.16,513.55,52.86L513.55,52.86z"/>
		</g>
	</g>
	<g>
		<g>
			<path class="st1" d="M412.43,141.25c18.3,9.09,36.19,19,53.59,29.73c17.24,10.62,33.99,22.03,50.19,34.18
				c2.29,1.72,4.58,3.46,6.85,5.21c0.93,0.71-0.16-0.12-0.29-0.22c0.36,0.28,0.72,0.55,1.07,0.83c0.54,0.42,1.07,0.83,1.61,1.25
				c1.13,0.88,2.26,1.77,3.38,2.66c4.49,3.56,8.94,7.18,13.34,10.86c1.4,1.17,2.87,1.97,4.76,1.97c1.65,0,3.62-0.73,4.76-1.97
				c2.29-2.49,2.89-7.11,0-9.52c-16.02-13.38-32.65-26.05-49.83-37.91c-16.86-11.64-34.26-22.51-52.12-32.55
				c-10.03-5.64-20.21-11.02-30.52-16.14c-3.15-1.56-7.43-0.95-9.21,2.42C408.41,135.09,409.06,139.58,412.43,141.25L412.43,141.25z
				"/>
		</g>
	</g>
	<g>
		<g>
			<path class="st1" d="M412.88,227.05c25.17,12.27,50.34,24.53,75.52,36.8c7.1,3.46,14.19,6.92,21.29,10.37
				c3.16,1.54,7.43,0.96,9.21-2.42c1.6-3.02,0.96-7.56-2.42-9.21c-25.17-12.27-50.34-24.53-75.52-36.8
				c-7.1-3.46-14.19-6.92-21.29-10.37c-3.16-1.54-7.43-0.96-9.21,2.42C408.86,220.87,409.5,225.41,412.88,227.05L412.88,227.05z"/>
		</g>
	</g>
	<g>
		<g>
			<path class="st1" d="M490.1,239.15c-11.85,18.46-23.71,36.92-35.56,55.37c-11.85,18.46-23.71,36.92-35.56,55.37
				c-6.64,10.35-13.29,20.7-19.93,31.04c-1.91,2.97-0.71,7.56,2.42,9.21c3.34,1.76,7.18,0.75,9.21-2.42
				c11.85-18.46,23.71-36.92,35.56-55.37c11.85-18.46,23.71-36.92,35.56-55.37c6.64-10.35,13.29-20.7,19.93-31.04
				c1.91-2.97,0.71-7.56-2.42-9.21C495.97,234.97,492.14,235.98,490.1,239.15L490.1,239.15z"/>
		</g>
	</g>
	<g>
		<g>
			<path class="st1" d="M348.68,370.91c17.97,12.94,35.93,25.88,53.9,38.83c17.83,12.84,35.66,25.69,53.5,38.53
				c10.13,7.3,20.26,14.6,30.4,21.89c1.34,0.96,3.66,1.1,5.19,0.68c1.56-0.43,3.25-1.64,4.02-3.09c1.84-3.48,0.64-7.01-2.42-9.21
				c-17.97-12.94-35.93-25.88-53.9-38.83c-17.83-12.84-35.66-25.69-53.5-38.53c-10.13-7.3-20.26-14.6-30.4-21.89
				c-1.34-0.96-3.66-1.1-5.19-0.68c-1.56,0.43-3.25,1.64-4.02,3.09C344.42,365.19,345.61,368.71,348.68,370.91L348.68,370.91z"/>
		</g>
	</g>
	<g>
		<g>
			<path class="st1" d="M292.07,520.87c29.08-1.29,58.22-1.03,87.27,0.81c8.25,0.52,16.49,1.17,24.73,1.94
				c3.52,0.33,6.88-3.33,6.73-6.73c-0.18-3.93-2.97-6.38-6.73-6.73c-28.98-2.72-58.1-3.89-87.2-3.48
				c-8.27,0.12-16.53,0.36-24.79,0.73c-3.51,0.16-6.9,2.99-6.73,6.73C285.49,517.65,288.3,521.04,292.07,520.87L292.07,520.87z"/>
		</g>
	</g>
	<g>
		<g>
			<path class="st1" d="M433.64,348.67c-7.3,15.11-14.83,30.1-22.59,44.98c-7.73,14.81-15.68,29.51-23.85,44.08
				c-8.22,14.65-16.65,29.17-25.31,43.56c-8.66,14.4-17.55,28.66-26.64,42.79c-9.06,14.07-18.34,28-27.82,41.79
				c-1.2,1.74-2.4,3.48-3.6,5.21c-2.01,2.9-0.63,7.6,2.42,9.21c3.43,1.81,7.06,0.68,9.21-2.42c9.58-13.82,18.95-27.78,28.11-41.88
				c9.11-14.03,18-28.2,26.68-42.5c8.71-14.36,17.21-28.85,25.48-43.47c8.27-14.61,16.31-29.35,24.13-44.2
				c7.78-14.78,15.33-29.68,22.65-44.69c0.92-1.89,1.84-3.79,2.76-5.68c1.53-3.17,0.97-7.42-2.42-9.21
				C439.84,344.66,435.28,345.29,433.64,348.67L433.64,348.67z"/>
		</g>
	</g>
	<g>
		<g>
			<path class="st1" d="M249.7,561.39c14.91,17.72,29.82,35.44,44.73,53.15c14.91,17.72,29.82,35.44,44.73,53.15
				c8.37,9.94,16.73,19.89,25.1,29.83c2.28,2.71,7.21,2.52,9.52,0c2.64-2.88,2.43-6.64,0-9.52c-14.91-17.72-29.82-35.44-44.73-53.15
				c-14.91-17.72-29.82-35.44-44.73-53.15c-8.37-9.94-16.73-19.89-25.1-29.83c-2.28-2.71-7.21-2.52-9.52,0
				C247.06,554.75,247.27,558.5,249.7,561.39L249.7,561.39z"/>
		</g>
	</g>
	<g>
		<g>
			<path class="st1" d="M224.4,680.55c13.5,8.11,27.01,16.22,40.51,24.33c3.02,1.82,7.53,0.77,9.21-2.42
				c1.72-3.26,0.81-7.27-2.42-9.21c-13.5-8.11-27.01-16.22-40.51-24.33c-3.02-1.82-7.53-0.77-9.21,2.42
				C220.26,674.6,221.17,678.61,224.4,680.55L224.4,680.55z"/>
		</g>
	</g>
	<g>
		<g>
			<path class="st1" d="M503.47,317.39c0,20.21,0,40.42,0,60.62c0,5.8,0,11.59,0,17.39c0,3.52,3.1,6.9,6.73,6.73
				c3.65-0.16,6.73-2.96,6.73-6.73c0-20.21,0-40.42,0-60.62c0-5.8,0-11.59,0-17.39c0-3.52-3.1-6.9-6.73-6.73
				C506.56,310.82,503.47,313.62,503.47,317.39L503.47,317.39z"/>
		</g>
	</g>
	<g>
		<g>
			<path class="st1" d="M471.88,378.82c3.99-0.07,7.98,0.11,11.95,0.55c0.55,0.06,1.21,0.25,1.76,0.21
				c-0.98-0.13-1.21-0.16-0.69-0.09c0.22,0.03,0.44,0.06,0.66,0.1c1.02,0.15,2.04,0.33,3.06,0.52c1.96,0.36,3.91,0.79,5.84,1.28
				c3.86,0.98,7.66,2.2,11.36,3.67c0.35,0.14,1.19,0.3,1.43,0.58c-0.86-0.37-1.06-0.45-0.59-0.25c0.2,0.09,0.41,0.18,0.61,0.26
				c0.94,0.41,1.88,0.85,2.81,1.29c1.86,0.89,3.68,1.85,5.47,2.87c3.07,1.73,7.5,0.83,9.21-2.42c1.69-3.19,0.86-7.36-2.42-9.21
				c-15.3-8.66-32.89-13.15-50.47-12.84c-3.52,0.06-6.9,3.05-6.73,6.73C465.31,375.69,468.1,378.89,471.88,378.82L471.88,378.82z"/>
		</g>
	</g>
	<g>
		<g>
			<path class="st1" d="M520.16,433.97c-10.32,11.6-20.96,22.91-31.91,33.91c-11.02,11.07-22.34,21.83-33.96,32.27
				c-6.54,5.87-13.17,11.64-19.89,17.31c-2.7,2.28-2.52,7.2,0,9.52c2.88,2.64,6.64,2.43,9.52,0c11.89-10.03,23.5-20.38,34.81-31.05
				c11.36-10.71,22.41-21.74,33.15-33.07c6.03-6.36,11.96-12.82,17.79-19.38c2.34-2.63,2.79-6.96,0-9.52
				C527.12,431.62,522.66,431.16,520.16,433.97L520.16,433.97z"/>
		</g>
	</g>
	<g>
		<g>
			<path class="st1" d="M405.9,427.86c1.12-0.18-0.6,0.06-0.66,0.08c0.22-0.06,0.52-0.06,0.75-0.08c0.49-0.04,0.99-0.07,1.48-0.08
				c0.97-0.02,1.94,0.04,2.91,0.12c0.51,0.04,1.04,0.32-0.72-0.11c0.23,0.06,0.48,0.08,0.71,0.12c0.41,0.07,0.82,0.16,1.23,0.25
				c1,0.23,1.98,0.52,2.94,0.86c0.39,0.14,1.03,0.26,1.36,0.52c0.08,0.06-1.43-0.64-0.77-0.32c0.22,0.11,0.45,0.2,0.67,0.31
				c0.95,0.45,1.87,0.94,2.78,1.47c0.81,0.48,1.61,0.98,2.38,1.51c0.37,0.25,0.73,0.51,1.09,0.77c0.21,0.15,0.41,0.3,0.62,0.45
				c1.14,0.83-1.24-1-0.14-0.11c6.65,5.39,11.99,12.01,17.27,18.69c6.49,8.22,12.94,16.47,19.35,24.75c0.35,0.45,0.7,0.91,1.05,1.36
				c0.58,0.75-0.73-0.94-0.15-0.2c0.2,0.26,0.4,0.52,0.6,0.78c0.8,1.04,1.6,2.07,2.4,3.11c1.6,2.07,3.19,4.15,4.78,6.23
				c3.18,4.16,6.36,8.32,9.52,12.49c7.07,9.32,14.08,18.68,21.04,28.08c1.08,1.46,2.21,2.59,4.02,3.09
				c1.61,0.44,3.76,0.24,5.19-0.68c2.79-1.8,4.66-6.19,2.42-9.21c-12.76-17.22-25.69-34.31-38.79-51.27
				c-6.8-8.81-13.65-17.59-20.54-26.32c-5.55-7.04-11.06-14.23-18.04-19.94c-4.35-3.56-8.9-6.47-14.18-8.43
				c-5.21-1.93-10.69-2.16-16.13-1.29c-1.56,0.25-3.26,1.79-4.02,3.09c-0.84,1.44-1.2,3.57-0.68,5.19
				C398.84,426.94,402.16,428.46,405.9,427.86L405.9,427.86z"/>
		</g>
	</g>
	<g>
		<g>
			<path class="st1" d="M67.17,337.62c0,19.95,0,39.91,0,59.86c0,19.87,0,39.74,0,59.61c0,11.22,0,22.45,0,33.67
				c0,3.52,3.1,6.9,6.73,6.73c3.65-0.16,6.73-2.96,6.73-6.73c0-19.95,0-39.91,0-59.86c0-19.87,0-39.74,0-59.61
				c0-11.22,0-22.45,0-33.67c0-3.52-3.1-6.9-6.73-6.73C70.26,331.05,67.17,333.85,67.17,337.62L67.17,337.62z"/>
		</g>
	</g>
	<g>
		<g>
			<path class="st1" d="M271.54,236.98c11.14,19.61,22.58,39.05,34.32,58.3c11.75,19.26,23.81,38.34,36.16,57.23
				c6.95,10.62,13.99,21.18,21.13,31.68c1.98,2.91,6.01,4.48,9.21,2.42c2.89-1.87,4.53-6.1,2.42-9.21
				c-12.69-18.67-25.08-37.54-37.18-56.6c-12.09-19.05-23.88-38.29-35.36-57.7c-6.45-10.91-12.81-21.89-19.07-32.91
				c-1.74-3.06-6.18-4.37-9.21-2.42C270.86,229.76,269.68,233.7,271.54,236.98L271.54,236.98z"/>
		</g>
	</g>
	<g>
		<g>
			<path class="st1" d="M439.59,129.1c-14.45,24.89-29.71,49.3-45.76,73.19c-16.07,23.92-32.91,47.31-50.51,70.12
				c-0.21,0.27-1.19,1.56-0.08,0.11c-0.38,0.49-0.76,0.98-1.14,1.47c-0.57,0.73-1.14,1.47-1.71,2.2c-1.24,1.59-2.48,3.18-3.73,4.76
				c-2.49,3.17-5,6.33-7.52,9.47c-5.14,6.41-10.34,12.78-15.6,19.1c-1.17,1.41-1.97,2.87-1.97,4.76c0,1.65,0.73,3.62,1.97,4.76
				c2.49,2.28,7.12,2.89,9.52,0c18.81-22.6,36.88-45.82,54.17-69.61c17.03-23.41,33.29-47.39,48.74-71.87
				c8.67-13.73,17.08-27.63,25.23-41.68c1.77-3.05,0.81-7.51-2.42-9.21C445.58,124.98,441.48,125.85,439.59,129.1L439.59,129.1z"/>
		</g>
	</g>
	<g>
		<g>
			<path class="st1" d="M218.37,413.3c0.83,0.02,1.66,0.06,2.5,0.13c0.48,0.04,0.96,0.08,1.44,0.13c0.21,0.02,0.41,0.05,0.61,0.07
				c0.94,0.11-0.3-0.02-0.57-0.08c1.73,0.39,3.49,0.61,5.22,1.05c1.72,0.44,3.41,0.96,5.08,1.55c0.77,0.27,1.54,0.56,2.3,0.87
				c0.38,0.15,0.76,0.32,1.14,0.47c-0.11-0.04-1.51-0.66-0.47-0.19c0.25,0.11,0.5,0.22,0.75,0.34c6.57,2.97,12.68,6.85,18.55,11.01
				c6.15,4.35,12.08,9.03,18.1,13.56c6.38,4.8,12.81,9.52,19.29,14.18c13.09,9.41,26.4,18.53,39.89,27.36
				c13.44,8.79,27.07,17.29,40.89,25.48c13.82,8.2,27.82,16.1,41.99,23.69c1.78,0.95,3.56,1.9,5.35,2.85
				c3.11,1.65,7.46,0.89,9.21-2.42c1.64-3.11,0.91-7.45-2.42-9.21c-14.35-7.59-28.53-15.49-42.53-23.7
				c-13.99-8.2-27.8-16.72-41.41-25.53c-13.54-8.76-26.88-17.82-40.02-27.17c-12.89-9.17-25.37-18.87-38.11-28.23
				c-12.43-9.13-25.9-17.15-41.43-19.21c-1.78-0.24-3.57-0.39-5.37-0.44c-3.52-0.1-6.89,3.17-6.73,6.73
				C211.8,410.3,214.59,413.19,218.37,413.3L218.37,413.3z"/>
		</g>
	</g>
	<g>
		<g>
			<path class="st1" d="M433.73,388.02c-6.6,27.62-14.73,54.87-24.34,81.6c-2.38,6.61-4.85,13.2-7.41,19.74
				c-1.28,3.27-2.58,6.54-3.91,9.8c-0.63,1.56-1.27,3.11-1.91,4.67c-0.35,0.85-0.7,1.69-1.06,2.54c-0.15,0.35-0.3,0.71-0.44,1.06
				c-0.68,1.62,0.42-0.97-0.12,0.29c-5.56,13.1-11.45,26.05-17.7,38.82c-7,14.3-14.45,28.38-22.32,42.22
				c-1.74,3.06-0.83,7.5,2.42,9.21c3.19,1.69,7.35,0.86,9.21-2.42c14.07-24.75,26.78-50.26,38.04-76.4
				c11.42-26.5,21.46-53.57,29.9-81.17c4.69-15.32,8.9-30.8,12.63-46.38c0.82-3.42-1.07-7.46-4.7-8.28
				C438.55,382.53,434.6,384.35,433.73,388.02L433.73,388.02z"/>
		</g>
	</g>
	<g>
		<g>
			<path class="st1" d="M59.16,705.54c32.29,0,64.57,0,96.86,0c32.12,0,64.24,0,96.36,0c18.14,0,36.28,0,54.42,0
				c3.52,0,6.9-3.1,6.73-6.73c-0.16-3.65-2.96-6.73-6.73-6.73c-32.29,0-64.57,0-96.86,0c-32.12,0-64.24,0-96.36,0
				c-18.14,0-36.28,0-54.42,0c-3.52,0-6.9,3.1-6.73,6.73C52.59,702.45,55.39,705.54,59.16,705.54L59.16,705.54z"/>
		</g>
	</g>
	<g>
		<g>
			<path class="st1" d="M228.38,736.36c-0.45-28.61-0.9-57.23-1.36-85.84c-0.45-28.53-0.9-57.06-1.35-85.59
				c-0.25-16.05-0.51-32.11-0.76-48.16c-0.06-3.52-3.06-6.9-6.73-6.73c-3.6,0.16-6.79,2.96-6.73,6.73
				c0.45,28.61,0.9,57.23,1.36,85.84c0.45,28.53,0.9,57.06,1.35,85.59c0.25,16.05,0.51,32.11,0.76,48.16
				c0.06,3.52,3.06,6.9,6.73,6.73C225.25,742.93,228.44,740.13,228.38,736.36L228.38,736.36z"/>
		</g>
	</g>
	<g>
		<g>
			<path class="st1" d="M470.3,711.3c-4-19-8.43-37.92-13.3-56.72c-4.87-18.81-10.17-37.51-15.89-56.07
				c-3.25-10.53-6.63-21.01-10.15-31.45c-1.12-3.33-4.69-5.87-8.28-4.7c-3.31,1.07-5.91,4.71-4.7,8.28
				c6.2,18.42,11.99,36.98,17.35,55.66c5.35,18.67,10.28,37.47,14.77,56.37c2.55,10.71,4.95,21.44,7.22,32.21
				c0.73,3.45,4.97,5.77,8.28,4.7C469.24,718.41,471.08,715,470.3,711.3L470.3,711.3z"/>
		</g>
	</g>
	<g>
		<g>
			<path class="st1" d="M399.02,721.92c0-17.24,0-34.48,0-51.72c0-17.32,0-34.64,0-51.97c0-9.74,0-19.49,0-29.23
				c0-3.52-3.1-6.9-6.73-6.73c-3.65,0.16-6.73,2.96-6.73,6.73c0,17.24,0,34.48,0,51.72c0,17.32,0,34.64,0,51.97
				c0,9.74,0,19.49,0,29.23c0,3.52,3.1,6.9,6.73,6.73C395.93,728.49,399.02,725.69,399.02,721.92L399.02,721.92z"/>
		</g>
	</g>
	<g>
		<g>
			<path class="st1" d="M323.33,73.74c0.16,0.75,0.32,1.49,0.45,2.24c0.08,0.46,0.32,3.01,0.17,0.9c0.11,1.5,0.32,2.99,0.38,4.49
				c0.14,3,0.03,6-0.26,8.98c-0.04,0.44-0.43,3.02-0.08,0.9c-0.12,0.74-0.22,1.49-0.34,2.24c-0.25,1.5-0.55,2.99-0.88,4.47
				c-0.67,3-1.5,5.96-2.44,8.88c-0.95,2.96-2.01,5.88-3.15,8.78c-0.29,0.73-0.58,1.45-0.87,2.17c-0.12,0.29-0.24,0.58-0.36,0.87
				c-0.04,0.1-0.63,1.54-0.2,0.49c0.42-1.05-0.17,0.39-0.21,0.49c-0.12,0.29-0.25,0.57-0.37,0.86c-0.37,0.86-0.75,1.72-1.13,2.57
				c-2.6,5.84-5.36,11.61-8.09,17.4c-11.27,23.94-22.54,47.88-33.81,71.82c-6.38,13.55-12.76,27.1-19.14,40.66
				c-0.79,1.67-1.19,3.35-0.68,5.19c0.43,1.56,1.64,3.25,3.09,4.02c2.99,1.58,7.61,0.99,9.21-2.42
				c11.48-24.39,22.97-48.79,34.45-73.18c5.74-12.2,11.48-24.39,17.23-36.59c5.65-12,11.61-23.94,15.98-36.48
				c4.85-13.92,7.23-28.79,4.03-43.35c-0.76-3.44-4.95-5.78-8.28-4.7C324.41,66.63,322.52,70.05,323.33,73.74L323.33,73.74z"/>
		</g>
	</g>
</g>
</svg>
