<?xml version="1.0" encoding="utf-8"?>
<!-- Generator: Adobe Illustrator 24.2.1, SVG Export Plug-In . SVG Version: 6.00 Build 0)  -->
<svg version="1.1" id="Layer_1" xmlns="http://www.w3.org/2000/svg" xmlns:xlink="http://www.w3.org/1999/xlink" x="0px" y="0px"
	 viewBox="0 0 595.28 841.89" style="enable-background:new 0 0 595.28 841.89;" xml:space="preserve">
<style type="text/css">
	.st0{fill:#FFFFFF;}
	.st1{fill:#FEE3CD;stroke:#000000;stroke-width:3.3231;stroke-miterlimit:10;}
	.st2{fill:#F9ED32;}
</style>
<g>
	<g>
		<path class="st0" d="M515.87,703.03H66.75c-6.6,0-12-5.4-12-12V90.06c0-6.6,5.4-12,12-12h449.12c6.6,0,12,5.4,12,12v600.97
			C527.87,697.63,522.47,703.03,515.87,703.03z"/>
		<g>
			<path d="M512.66,697.59c-5.57,0-11.14,0-16.72,0c-14.77,0-29.55,0-44.32,0c-21.3,0-42.61,0-63.91,0c-24.89,0-49.77,0-74.66,0
				c-25.88,0-51.75,0-77.63,0c-23.88,0-47.77,0-71.65,0c-19.23,0-38.45,0-57.68,0c-11.83,0-23.66,0-35.49,0c-2.23,0-4.47,0.05-6.7,0
				c-0.12,0-0.23,0-0.35,0c-1.55-0.05-3.04-0.25-4.45-0.94c-1.38-0.68-1.58-1.38-0.5,0.18c1.56,2.22,0.47,1.23,0.43,0.47
				c-0.03-0.61-0.16-1.21-0.19-1.82c-0.02-0.42-0.01-0.83-0.02-1.25c-0.04-6.2,0-12.41,0-18.61c0-13.22,0-26.45,0-39.67
				c0-18.78,0-37.56,0-56.35c0-22.74,0-45.48,0-68.22c0-25.03,0-50.06,0-75.09c0-25.86,0-51.72,0-77.58c0-25.24,0-50.49,0-75.73
				c0-22.96,0-45.93,0-68.89c0-19.05,0-38.1,0-57.16c0-13.7,0-27.39,0-41.09c0-6.81,0-13.61,0-20.42c0-6.31,4.54-11.74,11.13-11.93
				c1.54-0.05,3.09,0,4.63,0c10.71,0,21.42,0,32.12,0c18.45,0,36.91,0,55.36,0c23.56,0,47.11,0,70.67,0c25.69,0,51.38,0,77.08,0
				c25.24,0,50.49,0,75.73,0c21.82,0,43.63,0,65.45,0c15.77,0,31.55,0,47.32,0c6.82,0,13.66-0.15,20.48,0c0.09,0,0.18,0,0.28,0
				c1.11,0.03,2.25,0.12,3.31,0.47c0.69,0.22,1.61,1.07,2.26,1.14c0.9,0.1-0.54-1.05-0.98-1.47c-0.96-0.92-0.08-0.46-0.04,0.43
				c0.03,0.66,0.14,1.31,0.16,1.97c0.01,0.31,0,0.62,0,0.93c0.01,2.21,0,4.41,0,6.62c0,10.03,0,20.07,0,30.1
				c0,16.33,0,32.66,0,48.98c0,20.94,0,41.89,0,62.83c0,24.07,0,48.14,0,72.2c0,25.75,0,51.51,0,77.26c0,25.78,0,51.57,0,77.35
				c0,24.16,0,48.32,0,72.48c0,21.1,0,42.2,0,63.29c0,16.55,0,33.09,0,49.64c0,10.34,0,20.68,0,31.02
				C523.79,686.86,524.32,697.18,512.66,697.59c-2.45,0.09,3.03,11,6.41,10.88c8.37-0.3,12.86-6.79,12.87-14.59
				c0-2.36,0-4.73,0-7.09c0-10.45,0-20.9,0-31.35c0-16.74,0-33.49,0-50.23c0-21.44,0-42.87,0-64.31c0-24.53,0-49.06,0-73.59
				c0-25.92,0-51.83,0-77.75c0-25.92,0-51.83,0-77.75c0-24.22,0-48.43,0-72.65c0-20.91,0-41.83,0-62.74c0-15.96,0-31.92,0-47.87
				c0-9.54,0-19.07,0-28.61c0-1.83,0.04-3.66,0-5.49c-0.2-9.75-9.12-21.55-19.4-21.83c-6.5-0.18-13.03,0-19.53,0
				c-15.68,0-31.37,0-47.05,0c-21.99,0-43.98,0-65.97,0c-25.43,0-50.86,0-76.28,0c-25.9,0-51.79,0-77.69,0c-23.71,0-47.42,0-71.14,0
				c-18.56,0-37.11,0-55.67,0c-10.53,0-21.06,0-31.59,0c-2.04,0-4.17-0.14-6.19,0.19c-7.45,1.24-10.77,7.6-10.77,14.53
				c0,6.83,0,13.66,0,20.48c0,13.9,0,27.79,0,41.69c0,19.36,0,38.73,0,58.09c0,23.23,0,46.46,0,69.69c0,25.5,0,51,0,76.5
				c0,26.17,0,52.33,0,78.5c0,25.14,0,50.27,0,75.41c0,22.71,0,45.42,0,68.13c0,18.58,0,37.17,0,55.75c0,12.85,0,25.71,0,38.56
				c0,5.52-0.12,11.06,0,16.58c0.21,9.74,9.2,21.5,19.45,21.75c2.02,0.05,4.04,0,6.05,0c11.6,0,23.2,0,34.8,0
				c19.3,0,38.59,0,57.89,0c24.12,0,48.24,0,72.37,0c26.08,0,52.16,0,78.24,0c25.17,0,50.34,0,75.51,0c21.39,0,42.78,0,64.17,0
				c14.7,0,29.4,0,44.1,0c5.28,0,10.55,0,15.83,0c2.26,0-0.2-4.41-0.63-5.14C517.49,701.71,514.99,697.59,512.66,697.59z"/>
		</g>
	</g>
	<ellipse class="st1" cx="292.9" cy="390.82" rx="183.39" ry="219.72"/>
	<g>
		<g>
			<path class="st2" d="M122.76,604.28c15.6,2.57,31.24,1.72,46.93,0.61c13.64-0.96,27.35-1.9,40.98-0.28
				c0.4,0.05,0.82,0.15,1.23,0.15c-0.12,0-1.64-0.23-0.51-0.07c0.81,0.12,1.62,0.24,2.43,0.37c1.61,0.27,3.21,0.57,4.81,0.92
				c3.02,0.66,6.01,1.48,8.93,2.49c0.76,0.26,1.51,0.53,2.26,0.82c0.37,0.14,0.74,0.29,1.11,0.44c0.56,0.23,1.27,0.87-0.09-0.04
				c0.52,0.35,1.24,0.55,1.81,0.82c0.84,0.39,1.67,0.81,2.49,1.24c1.29,0.68,2.55,1.4,3.79,2.18c0.56,0.35,1.12,0.71,1.67,1.09
				c0.33,0.22,0.66,0.45,0.98,0.68c0.28,0.2,1.16,0.64,1.29,0.95c-0.2-0.16-0.4-0.31-0.6-0.47c0.24,0.19,0.47,0.37,0.71,0.56
				c0.35,0.28,0.7,0.57,1.05,0.86c0.58,0.48,1.15,0.97,1.72,1.46c1.36,1.18,2.71,2.38,4.08,3.56c3.02,2.58,6.17,5.03,9.6,7.04
				c6.22,3.64,13.08,6.12,19.85,8.51c16.35,5.75,32.71,11.47,49.06,17.21c3.23,1.13,7.28-1.28,8.03-4.56
				c0.83-3.65-1.1-6.82-4.56-8.03c-14.68-5.15-29.37-10.3-44.05-15.45c-3.35-1.17-6.71-2.33-10.03-3.57
				c-1.44-0.54-3.25-0.98-4.55-1.78c1.44,0.89,0.34,0.15-0.07-0.04c-0.41-0.18-0.81-0.36-1.21-0.54c-0.8-0.37-1.6-0.75-2.39-1.14
				c-1.44-0.72-2.86-1.49-4.23-2.33c-0.75-0.45-1.49-0.93-2.21-1.42c-0.37-0.25-0.73-0.51-1.09-0.77c-0.24-0.18-0.49-0.36-0.73-0.54
				c0.66,0.52,0.81,0.63,0.43,0.33c-2.75-2.22-5.35-4.61-8.06-6.88c-5.53-4.66-11.44-8.26-18.09-11.04
				c-5.84-2.45-11.97-4.09-18.21-5.12c-13.69-2.27-27.44-2-41.24-1.08c-8.46,0.56-16.92,1.27-25.39,1.51
				c-4.21,0.12-8.43,0.12-12.64-0.07c-2.1-0.1-4.2-0.24-6.29-0.44c-1.11-0.11-2.29-0.14-3.38-0.38c1.75,0.38,0.17,0.02-0.19-0.03
				c-0.64-0.09-1.28-0.2-1.92-0.3c-1.78-0.29-3.41-0.29-5.03,0.66c-1.35,0.79-2.65,2.34-3,3.9
				C117.48,599.4,119.16,603.69,122.76,604.28L122.76,604.28z"/>
		</g>
	</g>
	<g>
		<g>
			<path class="st2" d="M327.66,634.57c17.55,1.66,35.21,2.03,52.81,1.09c18-0.96,35.96-3.25,53.63-6.82
				c9.73-1.97,19.38-4.35,28.91-7.13c3.28-0.95,5.66-4.64,4.56-8.03c-1.08-3.32-4.52-5.58-8.03-4.56
				c-16.81,4.9-33.97,8.53-51.32,10.92c-1.28,0.18,1.14-0.15-0.14,0.02c-0.55,0.07-1.1,0.14-1.64,0.21c-1.1,0.14-2.19,0.27-3.29,0.4
				c-2.2,0.26-4.4,0.49-6.6,0.71c-4.33,0.43-8.66,0.77-13,1.04c-8.76,0.54-17.53,0.77-26.31,0.66c-9.88-0.11-19.75-0.64-29.59-1.57
				c-3.41-0.32-6.67,3.23-6.53,6.53C321.31,631.86,324.01,634.23,327.66,634.57L327.66,634.57z"/>
		</g>
	</g>
	<g>
		<g>
			<path class="st2" d="M403.05,596.49c4.17-0.25,8.36-0.22,12.52,0.11c1.04,0.08,2.08,0.18,3.12,0.3c0.48,0.06,0.97,0.13,1.45,0.18
				c-2.07-0.22,0.09,0.02,0.54,0.09c2.06,0.32,4.11,0.71,6.14,1.18c4.06,0.92,8.05,2.12,11.95,3.58c0.97,0.36,1.92,0.79,2.89,1.14
				c0.03,0.01-1.27-0.55-0.6-0.25c0.25,0.11,0.51,0.22,0.76,0.33c0.51,0.22,1.01,0.45,1.51,0.68c1.94,0.9,3.84,1.86,5.71,2.9
				c1.98,1.1,3.92,2.27,5.81,3.52c0.97,0.64,1.93,1.3,2.87,1.99c0.44,0.32,0.88,0.65,1.32,0.97c0.9,0.67-0.28-0.18-0.34-0.27
				c0.21,0.29,0.69,0.54,0.96,0.76c1.4,1.12,2.75,1.91,4.62,1.91c1.6,0,3.51-0.71,4.62-1.91c2.17-2.37,2.85-6.96,0-9.23
				c-14.72-11.75-32.31-18.76-51.03-20.72c-4.92-0.52-9.87-0.62-14.81-0.32c-3.4,0.21-6.69,2.85-6.53,6.53
				C396.68,593.33,399.4,596.71,403.05,596.49L403.05,596.49z"/>
		</g>
	</g>
	<g>
		<g>
			<path class="st2" d="M436.76,576.37c2.13-4.17,4.57-8.17,7.3-11.98c0.3-0.41,0.59-0.82,0.9-1.23c0.14-0.19,1.34-1.75,0.64-0.86
				c-0.7,0.9,0.48-0.6,0.67-0.84c0.4-0.5,0.8-0.99,1.21-1.48c1.51-1.81,3.09-3.57,4.73-5.27c3.26-3.37,6.75-6.49,10.43-9.4
				c0.85-0.67-0.32,0.25-0.4,0.31c0.21-0.15,0.41-0.31,0.62-0.47c0.51-0.39,1.03-0.77,1.55-1.15c0.94-0.68,1.89-1.35,2.86-2
				c1.98-1.34,4.02-2.61,6.09-3.8c2.3-1.33,4.66-2.57,7.06-3.72c1.17-0.56,2.36-1.09,3.55-1.61c1.25-0.55-1.15,0.47-0.3,0.13
				c0.36-0.15,0.72-0.3,1.09-0.44c0.67-0.27,1.33-0.53,2.01-0.78c1.63-0.62,2.99-1.45,3.9-3c0.82-1.4,1.17-3.46,0.66-5.03
				c-1.01-3.11-4.61-5.85-8.03-4.56c-19.58,7.42-36.54,20.03-49.14,36.76c-3.27,4.35-6.17,8.97-8.65,13.82
				c-1.55,3.04-0.89,7.22,2.34,8.93C430.81,580.29,435.09,579.62,436.76,576.37L436.76,576.37z"/>
		</g>
	</g>
	<g>
		<g>
			<path class="st2" d="M453.86,564.2c0.65-0.39,1.31-0.72,1.98-1.06c1-0.51-1.67,0.64-0.08,0.04c0.3-0.11,0.6-0.22,0.91-0.32
				c0.71-0.23,1.43-0.43,2.16-0.59c0.42-0.09,0.84-0.16,1.26-0.24c1.13-0.22-1.69,0.17-0.46,0.06c1.51-0.14,3.01-0.2,4.52-0.1
				c0.38,0.02,0.75,0.07,1.13,0.1c1.51,0.13-1.5-0.26-0.29-0.04c0.75,0.14,1.49,0.27,2.22,0.46c0.73,0.18,1.46,0.4,2.17,0.64
				c0.31,0.1,0.61,0.21,0.91,0.33c1.59,0.61-1.09-0.53-0.07-0.04c1.35,0.65,2.65,1.34,3.89,2.2c0.26,0.18,0.51,0.38,0.77,0.56
				c-1.77-1.17-0.51-0.38-0.1-0.03c0.55,0.48,1.08,0.99,1.58,1.53c0.21,0.23,0.42,0.46,0.62,0.7c0.97,1.14-0.39-0.6-0.15-0.22
				c0.42,0.66,0.88,1.29,1.27,1.97c1.69,2.97,5.99,4.24,8.93,2.34c3-1.93,4.15-5.76,2.34-8.93c-8.06-14.11-28.31-18.84-42.11-10.61
				c-2.93,1.75-4.26,5.95-2.34,8.93C446.84,564.8,450.73,566.07,453.86,564.2L453.86,564.2z"/>
		</g>
	</g>
	<g>
		<g>
			<path class="st2" d="M381.66,610.87c1.16-0.45,2.33-0.77,3.54-1.02c1.28-0.26-1.38,0.13-0.49,0.05c0.3-0.03,0.59-0.06,0.89-0.08
				c0.71-0.05,1.42-0.05,2.14-0.01c0.24,0.01,0.47,0.03,0.71,0.05c0.64,0.05,1.42,0.45-0.32-0.06c0.51,0.15,1.07,0.19,1.58,0.31
				c1.25,0.29,2.42,0.75,3.64,1.15c-2-0.66-0.03,0,0.47,0.25c0.56,0.28,1.11,0.57,1.66,0.88c1.22,0.7,2.37,1.49,3.51,2.3
				c0.45,0.32,0.41,0.64-0.4-0.32c0.2,0.23,0.52,0.41,0.75,0.61c0.45,0.37,0.89,0.75,1.32,1.14c1.06,0.96,2.06,1.97,3.02,3.02
				c0.43,0.48,0.86,0.96,1.27,1.46c0.16,0.2,0.32,0.4,0.49,0.6c0.9,1.07-0.91-1.23-0.08-0.11c0.78,1.06,1.53,2.13,2.22,3.25
				c1.37,2.21,2.61,4.5,3.82,6.8c2.43,4.61,4.72,9.32,7.5,13.73c3.58,5.69,7.88,10.64,13.37,14.54c2.79,1.98,7.38,0.59,8.93-2.34
				c1.77-3.36,0.64-6.81-2.34-8.93c-0.3-0.21-0.61-0.51-0.93-0.68c1.2,0.63,0.82,0.65,0.42,0.31c-0.53-0.45-1.06-0.89-1.57-1.36
				c-0.97-0.89-1.88-1.83-2.75-2.82c-0.41-0.47-0.8-0.95-1.2-1.43c-0.88-1.05,0.92,1.25,0.1,0.14c-0.18-0.25-0.37-0.5-0.56-0.75
				c-0.77-1.07-1.5-2.16-2.2-3.28c-2.85-4.53-5.18-9.35-7.68-14.07c-5.39-10.18-12.69-19.98-23.59-24.69
				c-6.54-2.83-13.89-3.9-20.71-1.25c-1.63,0.64-2.98,1.43-3.9,3c-0.82,1.4-1.17,3.46-0.66,5.03
				C374.63,609.4,378.25,612.2,381.66,610.87L381.66,610.87z"/>
		</g>
	</g>
	<g>
		<g>
			<path class="st2" d="M170.86,564.24c-17.35,0-34.71,0-52.06,0c-4.9,0-9.8,0-14.7,0c-3.41,0-6.68,3-6.53,6.53
				c0.16,3.54,2.87,6.53,6.53,6.53c17.35,0,34.71,0,52.06,0c4.9,0,9.8,0,14.7,0c3.41,0,6.68-3,6.53-6.53
				C177.22,567.23,174.51,564.24,170.86,564.24L170.86,564.24z"/>
		</g>
	</g>
	<g>
		<g>
			<path class="st2" d="M114.53,534.96c1.1,8.55,1.56,17.17,1.35,25.79c-0.11,4.35-0.39,8.69-0.83,13.01
				c-0.11,1.02-0.22,2.04-0.34,3.06c-0.06,0.47-0.12,0.94-0.18,1.41c-0.09,0.76,0.07-0.55,0.08-0.56c-0.08,0.38-0.11,0.79-0.17,1.17
				c-0.31,2.11-0.65,4.22-1.04,6.32c-0.89,4.83-2,9.62-3.3,14.36c-0.9,3.29,1.12,7.25,4.56,8.03c3.45,0.79,7.06-1.04,8.03-4.56
				c4.74-17.24,6.88-35.3,6.17-53.16c-0.2-4.98-0.63-9.94-1.27-14.88c-0.23-1.8-0.57-3.28-1.91-4.62c-1.13-1.13-2.99-1.98-4.62-1.91
				c-1.69,0.08-3.44,0.63-4.62,1.91C115.35,531.53,114.31,533.29,114.53,534.96L114.53,534.96z"/>
		</g>
	</g>
	<g>
		<g>
			<path class="st2" d="M152.44,584.57c1.2,17.17,1.12,34.43-0.26,51.59c-0.4,4.9-0.9,9.8-1.5,14.68c-0.19,1.54,0.87,3.57,1.91,4.62
				c1.13,1.13,2.99,1.98,4.62,1.91c1.69-0.08,3.44-0.63,4.62-1.91c1.25-1.36,1.69-2.8,1.91-4.62c2.11-17.09,2.95-34.33,2.48-51.54
				c-0.13-4.92-0.38-9.83-0.72-14.74c-0.24-3.4-2.83-6.69-6.53-6.53C155.64,578.19,152.19,580.92,152.44,584.57L152.44,584.57z"/>
		</g>
	</g>
	<g>
		<g>
			<path class="st2" d="M104.13,635.72c28.26-1.49,56.6-1.58,84.87-0.24c14.09,0.67,28.16,1.68,42.2,3.05
				c3.36,0.33,6.72,0.67,10.08,1.05c1.46,0.16,2.92,0.33,4.37,0.51c0.7,0.08,1.39,0.17,2.09,0.26c0.35,0.04,0.7,0.09,1.04,0.14
				c1.7,0.22-1.2-0.17,0.14,0.02c5.97,0.84,11.92,1.82,17.8,3.17c6.46,1.48,12.8,3.4,18.94,5.9c0.55,0.22,0.5,0.51-0.43-0.18
				c0.35,0.26,0.91,0.4,1.31,0.57c0.74,0.33,1.48,0.68,2.22,1.03c1.47,0.71,2.91,1.46,4.33,2.25c2.91,1.62,5.7,3.44,8.36,5.43
				c1.27,0.95,3.58,1.06,5.03,0.66c1.51-0.42,3.15-1.59,3.9-3c0.8-1.51,1.2-3.35,0.66-5.03c-0.56-1.72-1.56-2.83-3-3.9
				c-20.11-15.06-46.16-18.72-70.46-21.28c-28.39-2.99-56.92-4.54-85.47-4.64c-16.01-0.06-32.01,0.34-48,1.18
				c-3.4,0.18-6.69,2.87-6.53,6.53C97.75,632.57,100.48,635.91,104.13,635.72L104.13,635.72z"/>
		</g>
	</g>
	<g>
		<g>
			<path class="st2" d="M237.61,662.8c25.59,0,51.17,0,76.76,0c7.31,0,14.62,0,21.93,0c3.41,0,6.68-3,6.53-6.53
				c-0.16-3.54-2.87-6.53-6.53-6.53c-25.59,0-51.17,0-76.76,0c-7.31,0-14.62,0-21.93,0c-3.41,0-6.68,3-6.53,6.53
				C231.25,659.8,233.96,662.8,237.61,662.8L237.61,662.8z"/>
		</g>
	</g>
	<g>
		<g>
			<path class="st2" d="M341.39,644.28c25.55-10.17,49.95-23.05,72.52-38.77c6.56-4.57,12.95-9.37,19.2-14.35
				c1.22-0.97,1.91-3.13,1.91-4.62c0-1.6-0.71-3.51-1.91-4.62c-1.24-1.14-2.88-1.99-4.62-1.91c-1.84,0.08-3.19,0.77-4.62,1.91
				c-1.26,1.01-2.51,2.05-3.82,3c1.44-1.06,0.2-0.15-0.08,0.06c-0.29,0.22-0.58,0.45-0.88,0.67c-0.76,0.58-1.53,1.16-2.29,1.73
				c-2.6,1.94-5.22,3.85-7.87,5.71c-5.43,3.83-10.97,7.5-16.61,11.01c-11.2,6.97-22.8,13.3-34.71,18.97
				c-3.36,1.6-6.74,3.14-10.14,4.63c-0.95,0.42-1.91,0.83-2.87,1.24c-0.27,0.12-0.55,0.25-0.82,0.35c1.79-0.66-0.14,0.06-0.5,0.21
				c-1.79,0.74-3.58,1.47-5.38,2.19c-1.64,0.65-2.98,1.42-3.9,3c-0.82,1.4-1.17,3.46-0.66,5.03
				C334.35,642.78,338,645.63,341.39,644.28L341.39,644.28z"/>
		</g>
	</g>
	<g>
		<g>
			<path class="st2" d="M456.87,567.78c0.34,0.12,0.68,0.28,1.03,0.39c-0.44-0.14-1.34-0.59-0.39-0.15c0.6,0.28,1.19,0.59,1.77,0.92
				c0.58,0.33,1.14,0.68,1.69,1.06c0.25,0.17,0.49,0.35,0.74,0.52c1.09,0.76-1.19-1-0.18-0.14c1,0.86,1.96,1.75,2.84,2.73
				c0.2,0.22,0.39,0.45,0.59,0.68c0.92,1.1-0.52-0.74-0.13-0.2c0.38,0.53,0.76,1.06,1.12,1.61c0.71,1.1,1.2,2.3,1.85,3.43
				c-0.21-0.36-0.57-1.42-0.18-0.42c0.11,0.27,0.21,0.55,0.3,0.83c0.23,0.66,0.43,1.34,0.6,2.02c0.14,0.57,0.27,1.14,0.36,1.71
				c0.11,0.64-0.06,1.42-0.03-0.35c0,0.29,0.06,0.58,0.08,0.87c0.1,1.34,0.06,2.68-0.08,4.01c-0.17,1.56,0.85,3.55,1.91,4.62
				c1.13,1.13,2.99,1.98,4.62,1.91c3.85-0.17,6.14-2.88,6.53-6.53c0.69-6.53-1.28-13.52-4.88-18.97
				c-4.05-6.14-9.76-10.61-16.67-13.12c-3.21-1.17-7.29,1.31-8.03,4.56C451.47,563.43,453.43,566.53,456.87,567.78L456.87,567.78z"
				/>
		</g>
	</g>
	<g>
		<g>
			<path class="st2" d="M141.83,539.41c-14.51,0-29.03,0-43.54,0c-3.41,0-6.68,3-6.53,6.53c0.16,3.54,2.87,6.53,6.53,6.53
				c14.51,0,29.03,0,43.54,0c3.41,0,6.68-3,6.53-6.53C148.2,542.4,145.49,539.41,141.83,539.41L141.83,539.41z"/>
		</g>
	</g>
	<g>
		<g>
			<path class="st2" d="M196.24,597.61c-18.35,9.26-36.7,18.51-55.05,27.77c-3.05,1.54-4.17,6.09-2.34,8.93
				c2.01,3.12,5.66,3.99,8.93,2.34c18.35-9.26,36.7-18.51,55.05-27.77c3.05-1.54,4.17-6.09,2.34-8.93
				C203.16,596.83,199.51,595.96,196.24,597.61L196.24,597.61z"/>
		</g>
	</g>
	<g>
		<g>
			<path class="st2" d="M382.74,657.28c17.42,0,34.83,0,52.25,0c3.41,0,6.68-3,6.53-6.53c-0.16-3.54-2.87-6.53-6.53-6.53
				c-17.42,0-34.83,0-52.25,0c-3.41,0-6.68,3-6.53,6.53C376.37,654.29,379.08,657.28,382.74,657.28L382.74,657.28z"/>
		</g>
	</g>
	<g>
		<g>
			<path class="st2" d="M462.91,526.72c0.64-1.2,1.32-2.37,2.06-3.5c0.34-0.52,0.69-1.03,1.05-1.53c0.18-0.25,0.37-0.5,0.55-0.75
				c0.47-0.65-0.94,1.17-0.23,0.29c1.68-2.09,3.51-4.04,5.52-5.82c0.47-0.42,0.95-0.82,1.43-1.22c0.24-0.2,0.51-0.37,0.73-0.59
				c-1.28,1.23-0.52,0.41-0.12,0.11c1.07-0.78,2.16-1.52,3.29-2.21c1.13-0.69,2.29-1.34,3.48-1.94c0.57-0.28,1.14-0.56,1.72-0.82
				c0.45-0.21,1.58-0.48-0.16,0.05c0.36-0.11,0.71-0.29,1.06-0.42c1.63-0.64,2.98-1.43,3.9-3c0.82-1.4,1.17-3.46,0.66-5.03
				c-1-3.08-4.62-5.89-8.03-4.56c-11.87,4.63-22.15,12.99-28.18,24.34c-1.6,3.01-0.86,7.24,2.34,8.93
				C457,530.66,461.19,529.94,462.91,526.72L462.91,526.72z"/>
		</g>
	</g>
</g>
</svg>
