<?xml version="1.0" encoding="utf-8"?>
<!-- Generator: Adobe Illustrator 24.2.1, SVG Export Plug-In . SVG Version: 6.00 Build 0)  -->
<svg version="1.1" id="Layer_1" xmlns="http://www.w3.org/2000/svg" xmlns:xlink="http://www.w3.org/1999/xlink" x="0px" y="0px"
	 viewBox="0 0 841.89 595.28" style="enable-background:new 0 0 841.89 595.28;" xml:space="preserve">
<style type="text/css">
	.st0{fill:#F6DE39;stroke:#000000;stroke-width:0.1239;stroke-miterlimit:10;}
	.st1{fill:#F16E23;stroke:#000000;stroke-width:0.0931;stroke-miterlimit:10;}
	.st2{fill:#FFFFFF;stroke:#000000;stroke-width:0.1239;stroke-miterlimit:10;}
	.st3{fill:#ED1C24;stroke:#000000;stroke-width:0.1239;stroke-miterlimit:10;}
	.st4{fill:#F16E23;stroke:#000000;stroke-width:0.1239;stroke-miterlimit:10;}
	.st5{fill:none;stroke:#000000;stroke-width:0.1239;stroke-miterlimit:10;}
	.st6{fill:#F6DE39;stroke:#000000;stroke-width:0.0931;stroke-miterlimit:10;}
	.st7{fill:#FEE3CD;}
	.st8{fill:#F6DE39;stroke:#000000;stroke-width:0.1367;stroke-miterlimit:10;}
	.st9{fill:#F0E6F1;stroke:#000000;stroke-width:0.1027;stroke-miterlimit:10;}
	.st10{fill:#FFFFFF;stroke:#000000;stroke-width:0.1367;stroke-miterlimit:10;}
	.st11{fill:#ED1C24;stroke:#000000;stroke-width:0.1367;stroke-miterlimit:10;}
	.st12{fill:#F0E6F1;stroke:#000000;stroke-width:0.1367;stroke-miterlimit:10;}
	.st13{fill:none;stroke:#000000;stroke-width:0.1367;stroke-miterlimit:10;}
	.st14{fill:#F6DE39;stroke:#000000;stroke-width:0.1027;stroke-miterlimit:10;}
	.st15{fill:#E6E63A;}
	.st16{fill:#FEE3CD;stroke:#000000;stroke-width:0.0633;stroke-miterlimit:10;}
</style>
<g>
	<path d="M217.67,185.27c1.15-4.32,3.1,1.22,2.88-4.82c-0.07-2.38-0.07-7.42-1.15-9.5c-0.94-1.87,0.25-2.24-2.81-1.87
		c-0.72,0.09-2.94-3.67,0.14-3.67c0.43-0.22,0.86-0.36,1.3-0.5c1.51-0.72,1.58-4.18,1.58-5.69s-0.36-2.95-0.5-4.39
		c-0.43-5.18,0.07-3.82,0.43-8.57c0.07-1.22,2.81-2.23,3.89-2.23c2.95,0,2.59,0.79,2.59,3.24c0,1.58,2.09,1.51,3.1,1.51
		c2.3,0,4.61-0.22,6.84-0.22c0.94,0,6.19,0.29,6.19,1.3c0,2.3,1.84,8.64-6.48,4.1c-1.96-1.07-3.53-0.22-5.54-0.22
		c-0.94,0-2.23,0.43-3.17,0.58c-1.51,1.51-1.73-0.29-1.73,2.45c0,1.66,0.36,3.24,0.36,4.82c0,0.58-0.22,1.22-0.22,1.8
		c0,0.72,0.58,1.3,1.3,1.3c2.59,0,5.04-1.08,7.63-1.08c1.15,0,3.46,0.22,3.67,1.66c4.22,10.15-8.78,4.18-11.59,5.47
		c-0.43,0.43-0.86,1.15-0.86,1.8c0,1.73,0.58,7.85,1.22,9.5c0.36,0.43,0.72,1.15,1.44,1.15c3.6,0,6.62-2.59,10.15-2.59
		c1.15,0,2.9,1.45,2.74,2.81c-1.08,8.81-8.93,4.1-11.38,4.75c-4.54,1.22-6.87,3.21-11.23,1.51
		C215.15,188.37,216.95,186.35,217.67,185.27z"/>
	<path d="M254.82,155.1c0-0.29,0.14-0.58,0.22-0.94c1.15-1.37,3.17-0.65,4.32-1.37c2.3-1.37,1.94-4.82,3.46-6.91
		c0.86-1.15,2.38-1.15,3.67-1.15c0.86,0,1.44,0.79,1.44,1.58c0,1.44-2.88,4.39-2.88,7.34c0,2.45,2.02,3.17,2.88,5.11l0.43,1.58v0.5
		c0,1.08-0.72,2.45-1.15,3.46c-1.01,2.3-3.53,3.53-5.76,4.32c-0.58,0.22-1.08,0.65-1.08,1.3c0,0.86,0.94,1.22,1.66,1.22
		c0.58,0,1.15-0.22,1.8-0.22h0.36c0.65,0.29,1.22,0.79,1.73,1.22c2.74,2.23,7.18,5.18,7.18,8.78c0,5.62-5.09,15.93-10.21,16.87
		c-0.43,0.07-7.27-1.32-7.71-1.32c-2.52,0-4.54-7.48-5.9-9.64c-0.5-0.79,0.31-1.7-0.05-2.57c-0.29-0.65-0.12-2.62-0.12-3.34
		c0-0.94-0.05-1.9-0.05-2.77c0-1.08,0.86-1.84,1.22-2.78c0.72-1.66,4.18-2.02,5.62-3.02c-0.72-1.87-1.58-3.74-3.1-5.11
		c-0.43-0.36-0.86-0.58-1.22-0.86c-0.43-0.36-0.72-1.15-0.94-1.66c-0.5-1.01-1.37-2.23-1.37-3.46
		C249.28,158.92,253.24,156.61,254.82,155.1z M262.89,160.72c0-0.14,0-0.36-0.07-0.58c-0.07-0.43-1.08-1.66-1.58-1.66
		c-0.43,0-0.72,0.5-1.15,0.5c-1.73,0-4.9,0.43-4.9,2.81c0,1.87,2.52,3.6,4.25,3.6C261.59,165.4,262.89,162.59,262.89,160.72z
		 M259.04,188.79c0.22,0.14,1.93,0,2.14,0c1.01,0,3.15-1.14,3.72-1.93c0.58-0.72,0-4.54,0-5.47c0-2.23-1.08-4.9-3.24-5.83
		c-0.22-0.07-0.5-0.14-0.86-0.14c-1.73,0-3.31,1.94-3.46,3.6c-0.07,0.58-0.14,1.15-0.14,1.73C257.2,182.97,256.73,188,259.04,188.79
		z"/>
	<path d="M284.78,155.1c0-0.29,0.14-0.58,0.22-0.94c1.15-1.37,3.17-0.65,4.32-1.37c2.3-1.37,1.94-4.82,3.46-6.91
		c0.86-1.15,2.38-1.15,3.67-1.15c0.86,0,1.44,0.79,1.44,1.58c0,1.44-2.88,4.39-2.88,7.34c0,2.45,2.02,3.17,2.88,5.11l0.43,1.58v0.5
		c0,1.08-0.72,2.45-1.15,3.46c-1.01,2.3-3.53,3.53-5.76,4.32c-0.58,0.22-1.08,0.65-1.08,1.3c0,0.86,0.94,1.22,1.66,1.22
		c0.58,0,1.15-0.22,1.8-0.22h0.36c0.65,0.29,1.22,0.79,1.73,1.22c2.74,2.23,5.83,8.84,5.83,12.45c0,5.62-3.74,12.24-8.85,13.17
		c-0.43,0.07-5.69,0-5.69,0c-2.52,0-5.3-5.53-6.67-7.69c-0.5-0.79-0.89-4.62-1.25-5.48c-0.29-0.65-0.02-1.53-0.02-2.25
		c0-0.94,1.89-2.71,1.89-3.57c0-1.08,0.5-1.37,0.86-2.3c0.72-1.66,2.45-3.1,3.89-4.1c-0.72-1.87-1.58-3.74-3.1-5.11
		c-0.43-0.36-0.86-0.58-1.22-0.86c-0.43-0.36-0.72-1.15-0.94-1.66c-0.5-1.01-1.37-2.23-1.37-3.46
		C279.23,158.92,283.19,156.61,284.78,155.1z M292.84,160.72c0-0.14,0-0.36-0.07-0.58c-0.07-0.43-1.08-1.66-1.58-1.66
		c-0.43,0-0.72,0.5-1.15,0.5c-1.73,0-4.9,0.43-4.9,2.81c0,1.87,2.52,3.6,4.25,3.6C291.54,165.4,292.84,162.59,292.84,160.72z
		 M288.99,188.85c0.22,0.14,1.93,0,2.14,0c1.01,0,3.15-1.57,3.72-2.36c0.58-0.72,0-4.18,0-5.11c0-2.23-1.08-4.9-3.24-5.83
		c-0.22-0.07-0.5-0.14-0.86-0.14c-1.73,0-3.31,1.94-3.46,3.6c-0.07,0.58-0.14,1.15-0.14,1.73
		C287.15,182.97,286.68,188.06,288.99,188.85z"/>
	<path d="M364.62,184.98c0,2.46,0.34,4.99-2.73,5.11c-2.11,0.08-3.86-1.67-3.89-3.78c-0.04-2.67,0.65-5.42,0.65-8.1
		c0-3.6-0.36-8.35-1.58-11.74c-0.22-0.65-0.94-0.79-1.58-0.79c-4.54,0-4.1,4.82-4.1,8.14c0,3.24,0.29,6.41,0.29,9.65
		c0,1.66-0.29,2.16-2.09,2.16c-3.17,0-4.03-1.22-4.03-4.25c0-3.6,0.43-7.13,0.43-10.66c0-1.37-0.43-2.66-1.37-3.74
		c-1.44,0.36-2.88,0.72-4.46,0.72c-2.16,0-4.32-1.08-4.32-3.53c0-1.94,1.94-3.02,3.67-3.02c1.37,0,2.38,0.94,3.74,0.94
		c2.45,0,2.45-1.73,2.45-3.6c0-1.22,0.29-2.45,0.29-3.67c0-1.44-0.07-2.88-0.07-4.25c0-2.23,0-5.54,3.02-5.54
		c2.81,0,3.17,2.09,3.17,4.39c0,2.45-0.43,4.82-0.43,7.27c0,1.87-0.07,4.9,2.52,4.9c4.54,0,3.1-7.27,3.1-10.22
		c0-2.66,0.43-7.34,3.89-7.34c2.66,0,3.31,1.37,3.31,3.74c0,2.95-0.86,5.9-0.86,8.93c0,5.4,10.69,1.8,5.26,6.7
		c-1.02,0.92-1.8,1.22-2.66,1.37c-2.67,0.36-2.74,2.09-2.74,4.32C363.47,174.33,364.62,179.66,364.62,184.98z"/>
	<path d="M379.31,160.57c0-2.38-0.29-6.84,3.17-6.84c1.44,0,2.45,1.01,2.45,2.38c0,1.15-0.29,2.23-0.29,3.31
		c0,3.24-0.29,6.41-0.29,9.65c0,3.6,0.29,7.42,1.58,10.8c0.72,1.73,2.74,2.66,4.46,2.66c0.43,0,0.86-0.07,1.22-0.22
		c3.75-1.08,4.46-10.44,4.46-13.68c0-4.39-0.86-8.35-2.45-12.38c-0.07-0.29-0.14-0.65-0.14-0.94c0-1.58,1.8-2.38,3.1-2.38
		c3.89,0,4.03,6.05,4.54,8.78c0.29,1.37,0.36,2.81,0.36,4.25c0,2.02-0.14,4.03-0.14,5.98c0,0.5,0.07,1.01,0.07,1.51
		c0,0.29-0.72,0.5-0.72,0.72c0,0.36,0.07,0.72,0.07,1.01c0,1.58-0.43,3.02-0.94,4.39c-1.44,3.74-2.75,12.84-6.57,13.7
		c-0.58,0.14-4.57,6.16-10.28,1.66c-3.75-2.95-2.86-8.75-2.25-4.63c-1.08-0.5-0.34-6.42-0.63-7.79c-0.72-2.74-0.86-5.9-0.86-8.78
		c0-2.38,0.22-4.75,0.22-7.2C379.45,164.61,379.31,162.59,379.31,160.57z"/>
	<path d="M418.91,153.59c0,0.86-0.36,1.73-0.36,2.59c2.09-0.14,4.1-0.72,6.12-0.72c1.58,0,2.95,0.43,3.96,1.73
		c3.24,4.1,4.68,7.99,4.68,13.18c0,3.17-0.36,6.26-0.36,9.43c0,1.22,0,2.38,0.07,3.6c0.14,1.3,0.58,2.52,0.58,3.82
		c0,1.87-1.44,2.88-3.17,2.88c-3.67,0-3.02-4.32-3.02-6.84c0-3.31,0.36-6.7,0.36-10.01c0-3.96-0.79-7.06-2.3-10.66
		c-0.43-1.08-0.86-2.45-2.23-2.45c-1.3,0-4.46,0.65-4.68,2.16c-0.36,2.3-0.43,4.75-0.43,7.06c0,4.03,0.5,8.06,0.5,12.1
		c0,1.66,0,4.25-0.29,5.83c-0.22,1.08-1.73,1.51-2.59,1.51c-1.44,0-2.52-1.01-2.59-2.45c-0.22-3.67,0-7.34,0-11.02
		c0-2.88,0-2.59-0.29-5.18c0.14,1.51-0.79-7.49-0.29-10.66c0.07-0.86,0.22-2.09,0.22-2.95c0-0.72-0.14-1.44-0.14-2.16
		c0-2.09,1.66-2.81,3.53-2.81C417.54,151.57,418.91,152.08,418.91,153.59z"/>
	<path d="M454.7,153.73c0.07-0.43,0-0.86,0-1.3c0-0.72,0.07-1.37,0.58-1.87c0.72-0.72,1.8-1.22,2.81-1.22
		c2.02,0,2.74,1.44,2.74,3.24c0,1.37-0.07,2.74-0.07,4.03c0,2.52,0.14,5.11,0.36,7.56c0,0.43,0.43,1.01,0.86,1.15
		c0.86,0.36,2.16,0.36,3.1,0.43c2.81,0.29,5.91,0.22,8.5,1.3c0.65,0.29,1.22,1.15,1.22,1.87c0,0.14,0,0.36-0.07,0.5
		c-0.72,1.8-2.74,2.45-4.46,2.45c-2.66,0-5.18-1.08-7.78-1.08c-0.29,0-0.5,0-0.79,0.07c-0.65,1.44-0.72,3.38-0.72,4.9
		c0,3.1,0.43,6.19,0.43,9.29c0,2.88-0.07,5.04-3.6,5.04c-2.09,0-3.1-0.5-3.1-2.74v-16.2c0-0.36-0.5-0.79-0.86-0.86
		c-0.22-0.07-0.58-0.07-0.86-0.07c-2.45,0-4.68,1.3-7.13,1.3c-1.44,0-3.46-1.01-3.46-2.59c0-1.01,0.79-2.23,1.58-2.74
		c3.24-2.02,7.63,0,11.02-2.3c0.36,0,0.43-1.01,0.43-1.22c0-1.22-1.01-3.02-1.01-4.82C454.41,156.47,454.62,155.1,454.7,153.73z"/>
	<g>
		<polygon class="st0" points="422.2,151.4 422.63,154.96 424.93,155.39 424.93,155.76 422.73,155.49 421.53,156.83 420.97,156.56 
			422.04,155.76 420.6,156.29 420.27,155.97 421.77,155.49 420.04,155.6 420.04,155.12 422.04,154.85 421.56,151.54 		"/>
		<path class="st1" d="M432.25,139.43c0,0,1.93,12.38-11.08,10.14c0,0-11.29-1.55-10.11-9.87l-3.8-1.39l3.8-2.46
			c0,0-1.02-3.79,0.21-3.47c0,0,0.75-0.11,0.8,1.44c0,0-0.32-2.4,0.43-2.13c0,0,0.96-0.48,0.91,1.65c0,0-0.43-2.46,0.54-2.13
			c0,0,0.86-0.27,0.86,1.92c0,0,2.41,0.16,2.51,2.67l10.43,0.37c0,0,0.48-5.44,2.19-4.11c1.71,1.33,0.11,3.1,0.11,3.1
			s2.3-4.59,3.42-2.88c1.12,1.71-1.66,3.79-1.66,3.79s3.8-4.32,4.49-2.99c0.7,1.33-2.19,3.74-2.19,3.74s3.8,1.23,2.3,2.46
			S432.25,139.43,432.25,139.43z"/>
		<ellipse class="st2" cx="413.38" cy="136.64" rx="1.46" ry="1.46"/>
		<path class="st3" d="M413.38,140.17c0,0,2.29,2.51,0.52,2.88s-1.66-2.08-1.66-2.08s0.82,3.19-0.63,2.82
			c-1.45-0.37-0.62-2.62-0.62-2.62s-0.4,2.73-1.2,1.98s1.23-2.99,1.23-2.99H413.38z"/>
		<path class="st4" d="M425.51,149.76c0,0,1.5,1.41,0.97,1.89c-0.54,0.48-0.97-0.32-0.97-0.32s0.32,0.73-0.37,0.47
			s-0.32-0.58-0.32-0.58s0.05,1.06-0.7,0.64c-0.75-0.42-0.43-1-0.43-1l0.27-1.02"/>
		<path class="st4" d="M422.07,149.46c0,0,1.5,1.41,0.97,1.89c-0.54,0.48-0.97-0.32-0.97-0.32s0.32,0.73-0.37,0.47
			c-0.7-0.26-0.32-0.58-0.32-0.58s0.05,1.06-0.7,0.64c-0.75-0.42-0.43-1-0.43-1l0.27-1.02"/>
		<path class="st5" d="M418.08,141.56c0,0-0.24,4.59,3.95,4.43s5.52-0.1,5.79-2.21c0,0,2.73,0.67,2.46-1.04
			c-0.27-1.71-2.3-0.73-2.3-0.73s2.94-0.44,1.77-1.83c-1.18-1.39-2.51,0.64-2.51,0.64s1.71-1.39,0.86-1.97
			c-0.86-0.59-2.14,0.96-2.14,0.96"/>
		<polygon class="st0" points="425.78,151.66 426.21,155.22 428.51,155.65 428.51,156.02 426.32,155.76 425.11,157.09 
			424.55,156.83 425.62,156.02 424.18,156.56 423.85,156.24 425.35,155.76 423.63,155.86 423.63,155.38 425.62,155.12 425.14,151.8 
					"/>
		<g>
			<g>
				<path d="M412.82,137.13c0.02-0.02,0.01-0.01-0.02,0.01c-0.04,0.02-0.04,0.02-0.02,0.01c-0.01,0-0.02,0-0.03,0.01
					c0.02,0,0.02,0-0.01,0c0-0.02,0.06,0.03,0.01,0c0.01,0,0.02,0.01,0.03,0.01c-0.02-0.01-0.02-0.01-0.01-0.01
					c0.01,0.01,0.04,0.05,0.01,0.01c0.01,0.01,0.02,0.05,0.01,0c0,0.01,0.01,0.05,0.01,0.02c0,0.01,0,0.02,0,0.03
					c0.01-0.02,0.01-0.02,0,0c0,0.01,0,0.01-0.01,0.02c0.01-0.02,0.01-0.02,0,0c0.04-0.06,0,0.02-0.01,0.01
					c0.03-0.02,0.03-0.02,0.01-0.01c0.03-0.01,0.03-0.01,0.02-0.01c-0.01,0-0.02,0.01-0.03,0.01c0.02-0.01,0.02-0.01,0,0
					c0.01,0,0.01,0,0.02,0c-0.01,0-0.03,0-0.04,0c-0.02,0-0.03,0-0.01,0c-0.01,0-0.01,0-0.02-0.01c-0.05-0.02-0.07-0.03-0.1-0.05
					c-0.01-0.01-0.03-0.02-0.04-0.04c0.02,0.03-0.01-0.02-0.02-0.03c-0.01-0.01-0.01-0.01,0,0.01c0-0.01-0.01-0.02-0.01-0.03
					c0,0.02,0,0.02,0,0.01c0-0.01,0-0.01,0,0.01c-0.01,0.02-0.09,0.07-0.04,0.05c-0.03,0.01-0.04,0.02-0.02,0.01
					c-0.03,0.01-0.04,0.01-0.01,0c0.04,0-0.04-0.01,0,0c0.02,0,0.04,0.02,0.01,0c0.01,0.01,0.03,0.02,0.05,0.02
					c0.01,0.01,0.01,0-0.01-0.01c0.01,0.01,0.02,0.01,0.02,0.02c0.01,0.01,0.02,0.02,0.03,0.03c0.03,0.03-0.01-0.02,0.01,0.01
					c0.01,0.02,0.02,0.03,0.03,0.05c-0.01-0.03,0-0.01,0,0.01c0,0.02,0,0.04,0,0.01c0,0.01,0,0.02,0,0.03
					c0.01-0.03,0.01-0.03,0-0.01c0.08-0.06,0.15-0.11,0.23-0.17c-0.04,0.01-0.09,0.01-0.13,0.01c-0.01,0-0.06,0-0.04,0
					c0.01,0-0.04,0-0.05-0.01c-0.01,0-0.01,0,0,0c-0.01,0-0.01,0-0.02-0.01c0,0-0.06-0.03-0.02-0.01c-0.01-0.01-0.03-0.02-0.04-0.03
					c-0.03-0.02,0,0.01-0.01-0.01c-0.01-0.01-0.02-0.02-0.02-0.04c0.02,0.03,0-0.01,0-0.02c0,0.02,0,0.02,0,0.01
					c0-0.01,0-0.01-0.01,0.01c0.03-0.03-0.02,0.02-0.02,0.02c0.03-0.03-0.03,0.01,0,0c0.04-0.02,0.01-0.02,0,0
					c0.01-0.01,0.04-0.01,0.05-0.02c-0.05,0.02,0,0,0.01,0c0.01,0,0.03,0,0.04-0.01c0.01,0,0.06,0,0.03,0c-0.03,0,0.02,0,0.03,0
					c0.01,0,0.06,0.01,0.02,0c0.01,0,0.05,0.02,0.02,0c0,0,0.04,0.03,0.02,0.01c-0.02-0.02,0.02,0.04,0.01,0.02
					c-0.01-0.02,0.01,0.03,0.01,0.03c0.03,0.18,0.04,0.37,0.06,0.55c0.08-0.09,0.16-0.18,0.24-0.27c0.04,0-0.03,0-0.04,0
					c-0.02,0-0.05,0-0.07-0.01c-0.03,0-0.05-0.01-0.08-0.01c0,0-0.03-0.01-0.02,0c0.02,0-0.03-0.01-0.03-0.01
					c-0.02-0.01-0.05-0.02-0.07-0.03c-0.01,0-0.06-0.03-0.04-0.02c-0.04-0.03-0.09-0.06-0.12-0.1c0.02,0.02-0.02-0.02-0.02-0.03
					c-0.01-0.02-0.02-0.04-0.03-0.06c-0.01-0.01-0.01-0.02-0.02-0.03c0,0,0.01,0.02,0,0c-0.01-0.02-0.01-0.05-0.02-0.07
					c0,0,0-0.04,0-0.02c0,0.02,0-0.01,0-0.01c0-0.01,0.01-0.08,0-0.04c0-0.01,0.02-0.06,0.01-0.04c-0.01,0.03,0.04-0.05,0.01-0.02
					c-0.02,0.03,0.02-0.03,0.03-0.03c0,0-0.04,0.03-0.01,0.01c0.01,0,0.02-0.01,0.02-0.01c0.02-0.02-0.04,0.01-0.01,0.01
					c0.01,0,0.02-0.01,0.02-0.01c0.04-0.02-0.01,0-0.01,0c0,0,0.06-0.01,0.02,0c-0.03,0,0,0,0,0c0.01,0,0.02,0,0.03,0.01
					c-0.05-0.01,0.02,0.01,0.01,0c-0.01-0.01,0.03,0.02,0.03,0.02c0.01,0.01,0.02,0.01,0.02,0.02c-0.01-0.01-0.01-0.01,0,0
					c0.02,0.04,0.04,0.07,0.06,0.11c0.01,0.02,0,0,0,0c0,0.01,0.01,0.02,0.01,0.03c0.01,0.02,0.01,0.05,0.02,0.07
					c0.03,0.1,0.04,0.21,0.06,0.32c0.01,0.06,0.02,0.12,0.03,0.17c0,0.01,0,0.01,0,0.02c0,0,0,0,0,0c0-0.01,0.01-0.02,0.01-0.03
					c0.01-0.04,0.03-0.06,0.07-0.08c-0.01,0,0.1-0.03,0.07-0.03c-0.02,0,0.05,0.01,0,0c-0.01,0-0.02,0-0.02,0c-0.02,0,0.02,0.01,0,0
					c-0.01-0.01-0.04-0.01-0.05-0.02c-0.04-0.02-0.09-0.05-0.13-0.07c0,0-0.03-0.02-0.01-0.01c0.02,0.01-0.02-0.01-0.02-0.01
					c-0.02-0.01-0.04-0.02-0.06-0.04c-0.04-0.03-0.08-0.05-0.12-0.08c-0.04-0.03-0.07-0.06-0.11-0.1c-0.02-0.02,0,0.01-0.02-0.02
					c-0.02-0.02-0.03-0.04-0.05-0.07c-0.01-0.02-0.02-0.04-0.03-0.06c-0.01-0.01-0.01-0.02-0.01-0.03c0,0,0.01,0.03,0,0.01
					c0-0.02-0.01-0.03-0.01-0.05c0-0.01,0-0.02-0.01-0.03c0-0.01-0.01-0.05,0-0.02c0,0.02,0-0.03,0-0.04c0-0.02,0-0.04,0.01-0.05
					c0-0.02,0.02-0.05,0-0.02c0.01-0.02,0.01-0.04,0.02-0.06c0,0,0.01-0.02,0.01-0.03c0,0-0.03,0.04,0,0.01
					c0-0.01,0.01-0.01,0.01-0.02c0.01-0.02,0.02-0.02,0-0.01c-0.02,0.01-0.01,0.01,0,0c0.01-0.01,0.01-0.01,0.02-0.02
					c0-0.01,0.03-0.02,0,0c-0.03,0.03,0,0,0.01,0c0.03-0.02-0.05,0.02,0,0c0.03-0.01-0.05,0.01-0.02,0c0.01,0,0.01,0,0.02,0
					c-0.03,0.01-0.01,0,0,0c0.01,0,0.03,0,0.04,0.01c0,0-0.02-0.01,0,0c0.02,0.01,0.03,0.01,0.05,0.02c0.01,0,0.02,0.01,0.03,0.01
					c0.01,0.01,0.01,0.01,0,0c0.01,0,0.01,0.01,0.02,0.01c0.02,0.02,0.04,0.03,0.06,0.05c0.02,0.02,0.04,0.04,0.07,0.06
					c0.01,0.01,0.01,0.01,0.02,0.02c0.04,0.05-0.01-0.01,0.01,0.02c0.07,0.09,0.13,0.18,0.18,0.28c0.02,0.05,0.03,0.07,0.05,0.13
					c0.02,0.05,0.03,0.11,0.04,0.17c0,0.03,0.01,0.05,0.01,0.08c0,0.01,0,0.03,0,0.04c0,0.01,0,0.03,0,0.01c0,0.06,0,0.12-0.01,0.18
					c-0.01,0.11,0.1,0.18,0.2,0.17c0.11-0.02,0.23-0.1,0.24-0.22c0.03-0.28-0.02-0.55-0.14-0.8c-0.11-0.24-0.3-0.49-0.55-0.59
					c-0.27-0.11-0.59,0-0.73,0.26c-0.12,0.21-0.14,0.47-0.02,0.69c0.13,0.23,0.36,0.38,0.59,0.51c0.11,0.06,0.23,0.12,0.37,0.1
					c0.2-0.02,0.36-0.19,0.33-0.4c-0.02-0.15-0.05-0.3-0.08-0.44c-0.02-0.12-0.06-0.24-0.12-0.34c-0.16-0.26-0.49-0.3-0.74-0.14
					c-0.29,0.18-0.39,0.55-0.21,0.84c0.18,0.3,0.54,0.38,0.86,0.38c0.13,0,0.25-0.14,0.24-0.27c-0.01-0.13-0.03-0.26-0.04-0.4
					c-0.01-0.11-0.02-0.23-0.09-0.32c-0.15-0.19-0.46-0.18-0.66-0.1c-0.25,0.09-0.45,0.36-0.29,0.62c0.15,0.23,0.44,0.23,0.68,0.2
					c0.09-0.01,0.2-0.08,0.23-0.17c0.07-0.23-0.05-0.46-0.26-0.56c-0.26-0.12-0.65,0.03-0.67,0.34c-0.02,0.28,0.29,0.47,0.54,0.48
					c0.3,0,0.62-0.23,0.58-0.56c-0.04-0.33-0.49-0.38-0.69-0.17c-0.07,0.07-0.12,0.2-0.02,0.28
					C412.59,137.24,412.74,137.21,412.82,137.13L412.82,137.13z"/>
			</g>
		</g>
		<path class="st3" d="M414.81,133.13c0,0,0.27-2.08-0.86-1.92s-0.54,2.13-0.54,2.13s-0.05-2.03-0.91-1.65s-0.43,2.13-0.43,2.13
			s-0.32-1.65-0.8-1.44s-1.07,0.53-0.21,3.47L414.81,133.13z"/>
		<polygon class="st3" points="411.07,139.69 411.07,138.09 411.07,135.85 		"/>
		<polygon class="st6" points="411.07,139.69 411.07,135.85 407.27,138.31 		"/>
	</g>
	<g>
		<path class="st7" d="M265.66,180.1c-0.42-0.34-0.92-0.57-1.46-0.68c-0.31,0.76-0.62,1.53-0.92,2.29
			c-0.82-1.06-1.73-2.05-2.74-2.96c-0.22,0.97-0.52,1.92-0.89,2.85c-0.72-0.67-1.48-1.3-2.27-1.89c-0.09-0.07-0.2-0.14-0.31-0.09
			c-0.09,0.04-0.12,0.13-0.15,0.22c-0.25,0.8-0.49,1.61-0.74,2.41c-0.5-0.76-1.51-1.6-1.51-2.46c0.01-0.76,0.77-1.81,1.23-2.39
			c0.99-1.25,2.48-2.14,4.16-2.14c3.16,0,5.72,3.06,5.72,6.84c0,3.78-2.56,6.84-5.72,6.84s-5.72-3.06-5.72-6.84
			c0-0.66,0.08-1.29,0.22-1.89"/>
		<g>
			<path d="M265.77,180.06c-0.45-0.34-0.92-0.56-1.47-0.69c-0.06-0.01-0.19,0-0.21,0.07c-0.31,0.76-0.62,1.53-0.92,2.29
				c0.08-0.02,0.15-0.04,0.23-0.06c-0.83-1.06-1.74-2.05-2.74-2.96c-0.04-0.04-0.21,0-0.23,0.06c-0.23,0.97-0.52,1.92-0.89,2.85
				c0.08-0.02,0.15-0.04,0.23-0.06c-0.54-0.5-1.1-0.98-1.68-1.44c-0.25-0.19-0.62-0.65-0.99-0.56c-0.21,0.05-0.26,0.22-0.32,0.41
				c-0.26,0.75-0.47,1.53-0.7,2.29c0.08-0.02,0.15-0.04,0.23-0.06c-0.4-0.58-0.93-1.06-1.27-1.68c-0.35-0.64-0.21-1.22,0.12-1.84
				c0.69-1.31,1.8-2.5,3.2-3.05c2.75-1.08,5.49,0.73,6.63,3.21c1.09,2.37,0.92,5.33-0.53,7.51c-1.54,2.31-4.48,3.29-6.93,1.75
				c-2.6-1.64-3.46-5.05-2.82-7.92c0.02-0.07-0.22-0.03-0.23,0.04c-0.67,2.97,0.27,6.52,3.05,8.1c2.1,1.2,4.68,0.69,6.35-1
				c2.17-2.19,2.61-5.78,1.34-8.54c-1.09-2.37-3.55-4.07-6.21-3.45c-1.59,0.37-2.82,1.45-3.71,2.78c-0.39,0.58-0.86,1.32-0.67,2.05
				c0.22,0.83,1,1.45,1.47,2.13c0.04,0.05,0.21-0.01,0.23-0.06c0.15-0.48,0.29-0.96,0.44-1.45c0.11-0.37,0.17-1.12,0.62-0.95
				c0.36,0.13,0.77,0.59,1.06,0.84c0.38,0.31,0.75,0.64,1.11,0.97c0.05,0.04,0.2,0,0.23-0.06c0.37-0.93,0.66-1.88,0.89-2.85
				c-0.08,0.02-0.15,0.04-0.23,0.06c1,0.91,1.91,1.89,2.74,2.96c0.04,0.05,0.21-0.01,0.23-0.06c0.31-0.76,0.62-1.53,0.92-2.29
				c-0.07,0.02-0.14,0.05-0.21,0.07c0.53,0.12,1,0.34,1.44,0.67C265.61,180.18,265.82,180.09,265.77,180.06L265.77,180.06z"/>
		</g>
	</g>
	<g>
		<path class="st7" d="M295.57,180.42c-0.42-0.34-0.92-0.57-1.46-0.68c-0.31,0.76-0.62,1.53-0.92,2.29
			c-0.82-1.06-1.73-2.05-2.74-2.96c-0.22,0.97-0.52,1.92-0.89,2.85c-0.72-0.67-1.48-1.3-2.27-1.89c-0.09-0.07-0.2-0.14-0.31-0.09
			c-0.09,0.04-0.12,0.13-0.15,0.22c-0.25,0.8-0.49,1.61-0.74,2.41c-0.5-0.76-1.51-1.6-1.51-2.46c0.01-0.76,0.77-1.81,1.23-2.39
			c0.99-1.25,2.48-2.14,4.16-2.14c3.16,0,5.72,3.06,5.72,6.84c0,3.78-2.56,6.84-5.72,6.84s-5.72-3.06-5.72-6.84
			c0-0.66,0.08-1.29,0.22-1.89"/>
		<g>
			<path d="M295.68,180.38c-0.45-0.34-0.92-0.56-1.47-0.69c-0.06-0.01-0.19,0-0.21,0.07c-0.31,0.76-0.62,1.53-0.92,2.29
				c0.08-0.02,0.15-0.04,0.23-0.06c-0.83-1.06-1.74-2.05-2.74-2.96c-0.04-0.04-0.21,0-0.23,0.06c-0.23,0.97-0.52,1.92-0.89,2.85
				c0.08-0.02,0.15-0.04,0.23-0.06c-0.54-0.5-1.1-0.98-1.68-1.44c-0.25-0.19-0.62-0.65-0.99-0.56c-0.21,0.05-0.26,0.22-0.32,0.41
				c-0.26,0.75-0.47,1.53-0.7,2.29c0.08-0.02,0.15-0.04,0.23-0.06c-0.4-0.58-0.93-1.06-1.27-1.68c-0.35-0.64-0.21-1.22,0.12-1.84
				c0.69-1.31,1.8-2.5,3.2-3.05c2.75-1.08,5.49,0.73,6.63,3.21c1.09,2.37,0.92,5.33-0.53,7.51c-1.54,2.31-4.48,3.29-6.93,1.75
				c-2.6-1.64-3.46-5.05-2.82-7.92c0.02-0.07-0.22-0.03-0.23,0.04c-0.67,2.97,0.27,6.52,3.05,8.1c2.1,1.2,4.68,0.69,6.35-1
				c2.17-2.19,2.61-5.78,1.34-8.54c-1.09-2.37-3.55-4.07-6.21-3.45c-1.59,0.37-2.82,1.45-3.71,2.78c-0.39,0.58-0.86,1.32-0.67,2.05
				c0.22,0.83,1,1.45,1.47,2.13c0.04,0.05,0.21-0.01,0.23-0.06c0.15-0.48,0.29-0.96,0.44-1.45c0.11-0.37,0.17-1.12,0.62-0.95
				c0.36,0.13,0.77,0.59,1.06,0.84c0.38,0.31,0.75,0.64,1.11,0.97c0.05,0.04,0.2,0,0.23-0.06c0.37-0.93,0.66-1.88,0.89-2.85
				c-0.08,0.02-0.15,0.04-0.23,0.06c1,0.91,1.91,1.89,2.74,2.96c0.04,0.05,0.21-0.01,0.23-0.06c0.31-0.76,0.62-1.53,0.92-2.29
				c-0.07,0.02-0.14,0.05-0.21,0.07c0.53,0.12,1,0.34,1.44,0.67C295.51,180.51,295.73,180.41,295.68,180.38L295.68,180.38z"/>
		</g>
	</g>
	<g>
		<polygon class="st8" points="236.05,143.03 235.58,146.94 233.02,147.4 233.02,147.81 235.46,147.52 236.81,148.98 237.43,148.69 
			236.24,147.81 237.83,148.4 238.2,148.05 236.53,147.52 238.45,147.64 238.45,147.11 236.24,146.82 236.77,143.19 		"/>
		<path class="st9" d="M224.88,129.92c0,0-2.14,13.57,12.31,11.11c0,0,12.55-1.7,11.24-10.82l4.22-1.52l-4.22-2.69
			c0,0,1.13-4.15-0.24-3.8c0,0-0.83-0.12-0.89,1.58c0,0,0.36-2.63-0.48-2.34c0,0-1.07-0.53-1.01,1.81c0,0,0.48-2.69-0.59-2.34
			c0,0-0.95-0.29-0.95,2.1c0,0-2.68,0.18-2.8,2.92l-11.6,0.41c0,0-0.54-5.96-2.44-4.5c-1.9,1.46-0.12,3.39-0.12,3.39
			s-2.56-5.03-3.81-3.16c-1.25,1.87,1.84,4.15,1.84,4.15s-4.22-4.74-5-3.27c-0.77,1.46,2.44,4.09,2.44,4.09s-4.23,1.34-2.56,2.69
			S224.88,129.92,224.88,129.92z"/>
		<ellipse class="st10" cx="245.86" cy="126.86" rx="1.62" ry="1.6"/>
		<path class="st11" d="M245.86,130.74c0,0-2.54,2.75-0.58,3.16c1.96,0.41,1.84-2.28,1.84-2.28s-0.91,3.5,0.7,3.09
			c1.62-0.41,0.69-2.87,0.69-2.87s0.45,2.99,1.34,2.17c0.89-0.82-1.37-3.27-1.37-3.27H245.86z"/>
		<path class="st12" d="M232.37,141.24c0,0-1.67,1.54-1.07,2.07c0.59,0.53,1.07-0.35,1.07-0.35s-0.36,0.8,0.41,0.52
			c0.77-0.29,0.36-0.64,0.36-0.64s-0.06,1.16,0.77,0.7s0.48-1.09,0.48-1.09l-0.3-1.12"/>
		<path class="st12" d="M236.2,140.91c0,0-1.67,1.54-1.07,2.07c0.59,0.53,1.07-0.35,1.07-0.35s-0.36,0.8,0.41,0.52
			c0.77-0.29,0.36-0.64,0.36-0.64s-0.06,1.16,0.77,0.7s0.48-1.09,0.48-1.09l-0.3-1.12"/>
		<path class="st13" d="M240.64,132.26c0,0,0.26,5.03-4.39,4.85c-4.65-0.18-6.14-0.11-6.44-2.42c0,0-3.03,0.73-2.74-1.14
			c0.3-1.87,2.56-0.8,2.56-0.8s-3.27-0.48-1.96-2s2.8,0.7,2.8,0.7s-1.9-1.52-0.95-2.16c0.95-0.64,2.38,1.05,2.38,1.05"/>
		<polygon class="st8" points="232.07,143.32 231.6,147.22 229.04,147.69 229.04,148.1 231.48,147.81 232.82,149.27 233.44,148.98 
			232.25,148.1 233.85,148.69 234.22,148.34 232.55,147.81 234.47,147.93 234.47,147.4 232.25,147.11 232.79,143.48 		"/>
		<g>
			<g>
				<path d="M246.83,127.1c-0.09-0.09-0.24-0.12-0.36-0.09c-0.17,0.03-0.32,0.14-0.4,0.3c-0.14,0.29,0.11,0.59,0.4,0.63
					c0.3,0.04,0.7-0.16,0.79-0.47c0.05-0.17,0-0.32-0.16-0.41c-0.13-0.07-0.28-0.08-0.42-0.03c-0.27,0.08-0.55,0.39-0.45,0.69
					c0.02,0.08,0.08,0.12,0.16,0.13c0.31,0.04,0.65,0.01,0.84-0.27c0.08-0.13,0.11-0.28,0.05-0.42c-0.05-0.1-0.16-0.18-0.27-0.21
					c-0.27-0.08-0.61-0.07-0.8,0.17c-0.09,0.12-0.1,0.27-0.12,0.41c-0.02,0.14-0.03,0.29-0.05,0.43c-0.01,0.09,0.07,0.19,0.16,0.19
					c0.35,0,0.72-0.08,0.96-0.36c0.2-0.23,0.3-0.59,0.09-0.85c-0.22-0.28-0.61-0.3-0.88-0.08c-0.24,0.2-0.29,0.52-0.34,0.81
					c-0.03,0.16-0.12,0.39,0.03,0.52c0.12,0.11,0.31,0.09,0.45,0.03c0.14-0.05,0.27-0.14,0.4-0.22c0.13-0.09,0.25-0.18,0.36-0.3
					c0.18-0.21,0.28-0.49,0.19-0.77c-0.09-0.28-0.32-0.46-0.62-0.43c-0.37,0.03-0.68,0.37-0.84,0.68c-0.17,0.31-0.24,0.65-0.2,1.01
					c0.01,0.13,0.18,0.16,0.28,0.12c0.12-0.05,0.21-0.15,0.2-0.28c-0.02-0.18,0.01-0.4,0.08-0.57c0.02-0.05,0.04-0.09,0.06-0.14
					c-0.02,0.04,0.01-0.02,0.02-0.03c0.01-0.03,0.03-0.05,0.05-0.07c0.01-0.02,0.03-0.04,0.04-0.06c0.01-0.01,0.02-0.02,0.03-0.03
					c0,0,0.03-0.03,0.01-0.01c-0.02,0.02,0.03-0.03,0.04-0.04c0.02-0.02,0.05-0.04,0.07-0.07c0.02-0.02-0.01,0-0.01,0.01
					c0.01-0.01,0.02-0.02,0.04-0.03c0.01-0.01,0.02-0.01,0.03-0.02c0.01,0,0.05-0.02,0.02-0.01c-0.03,0.01,0.07-0.02,0.01-0.01
					c0.01,0,0.03,0,0.04-0.01c0.02,0,0.03,0,0,0c0.01,0,0.02,0,0.03,0c-0.01,0-0.05-0.02-0.01,0c0.01,0.01,0.03,0.01,0.04,0.02
					c0.03,0.01,0,0-0.01,0c0.01,0.01,0.02,0.01,0.02,0.02c0.02,0.01,0.03,0.03,0.04,0.04c-0.03-0.03,0,0,0.01,0.02
					c0.01,0.02,0.02,0.03,0.03,0.05c0,0.01,0.01,0.02,0.01,0.03c0,0-0.01-0.03-0.01-0.01c0,0.02,0.01,0.05,0.02,0.07
					c0,0.02,0,0.04,0.01,0.06c0.01,0.02,0-0.01,0-0.01c0,0.01,0,0.02,0,0.03c0,0.02,0,0.04,0,0.06c0,0.01,0,0.02,0,0.02
					c-0.01,0.05,0.01-0.02,0,0c-0.01,0.02-0.01,0.04-0.02,0.05c0,0.01-0.01,0.02-0.02,0.03c0-0.01,0.02-0.04,0,0
					c-0.01,0.02-0.02,0.03-0.03,0.05c-0.01,0.01-0.02,0.02-0.03,0.03c0.02-0.03,0.01-0.01-0.01,0.01c-0.03,0.04-0.07,0.07-0.11,0.1
					c-0.01,0.01-0.04,0.03-0.01,0.01c0.03-0.02,0,0-0.01,0c-0.02,0.02-0.05,0.03-0.07,0.05c-0.05,0.03-0.09,0.06-0.14,0.08
					c-0.02,0.01-0.04,0.02-0.07,0.04c-0.02,0.01-0.06,0.04-0.08,0.04c0,0,0.06-0.02,0.02-0.01c-0.01,0-0.02,0.01-0.02,0.01
					c-0.06,0.02,0.03,0-0.01,0c-0.04,0,0.01,0,0.01,0c-0.02,0-0.03-0.01,0.01,0c0.01,0.01,0.02,0.02,0.03,0.02
					c0.01,0.01,0.01,0.01,0,0c-0.01-0.02-0.01-0.01,0.01,0.04c0.01,0,0.03-0.17,0.03-0.18c0.01-0.07,0.03-0.14,0.04-0.2
					c0.01-0.05,0.02-0.11,0.03-0.16c-0.01,0.04,0.01-0.02,0.01-0.03c0.01-0.02,0.02-0.05,0.02-0.07c0.01-0.02,0.02-0.04,0.03-0.06
					c-0.02,0.04,0,0,0.01-0.02c0.01-0.01,0.02-0.02,0.02-0.03c0.02-0.03-0.01,0.02-0.01,0.01c0,0,0.02-0.03,0.03-0.02
					c-0.01,0.01-0.02,0.01-0.03,0.02c0.01-0.01,0.02-0.01,0.02-0.01c0.03-0.01-0.02,0.01-0.02,0.01c0,0,0.04-0.01,0.03-0.01
					c-0.01,0-0.04,0.02-0.02,0.01c0.01,0,0.05,0,0.01,0c-0.03,0,0.03,0.01,0.04,0.01c-0.05-0.01,0.01,0.01,0.03,0.02
					c0.03,0.01,0.01,0,0,0c0.01,0.01,0.02,0.01,0.03,0.02c0.01,0.01,0.02,0.02,0.03,0.02c0,0,0.04,0.04,0.02,0.02
					c-0.02-0.02,0,0.01,0,0.01c0.01,0.01,0.02,0.03,0.02,0.04c0,0.01,0.02,0.04,0.01,0.02c-0.01-0.02,0.01,0.03,0.01,0.03
					c0,0.01,0,0.02,0.01,0.03c0,0.01,0,0.05,0,0.02c0,0.03,0,0.05-0.01,0.08c0.01-0.04-0.01,0.03-0.01,0.04
					c-0.01,0.01-0.01,0.03-0.02,0.04c0.01-0.03,0-0.01-0.01,0.01c-0.01,0.01-0.01,0.02-0.02,0.03c0,0.01-0.04,0.05-0.02,0.02
					c0.02-0.02,0,0-0.01,0.01c-0.01,0.01-0.03,0.02-0.04,0.03c-0.03,0.03,0.04-0.02,0,0c-0.02,0.01-0.03,0.02-0.05,0.03
					c-0.01,0.01-0.02,0.01-0.03,0.02c-0.03,0.01,0.04-0.01-0.01,0c-0.03,0.01-0.06,0.02-0.09,0.03c-0.01,0-0.05,0.01,0,0
					c-0.02,0-0.03,0.01-0.05,0.01c-0.03,0.01-0.07,0.01-0.1,0.01c-0.01,0-0.02,0-0.03,0c0,0-0.07,0-0.03,0
					c0.05,0.06,0.11,0.12,0.16,0.19c0.02-0.19,0.04-0.39,0.07-0.58c0.01-0.06-0.01,0.03,0.01-0.03c0.02-0.04,0,0.01-0.02,0.02
					c-0.01,0.01-0.02,0.01-0.03,0.02c0.02-0.01,0.02-0.01,0,0c-0.02,0.01-0.02,0.01,0,0c-0.01,0-0.02,0-0.03,0.01
					c0.02,0,0.04-0.01,0.06-0.01c0.06-0.01-0.04-0.01,0.02,0c0.03,0,0.07,0.01,0.1,0.01c0.02,0,0.04,0.01,0.01,0
					c0.02,0.01,0.04,0.01,0.05,0.02c0.01,0,0.05,0.03,0.02,0.01c-0.03-0.02,0.04,0.04,0.01,0.01c-0.02-0.02,0.01,0.02,0.01,0.02
					c-0.02-0.03,0,0,0,0.02c0-0.01,0-0.01,0-0.02c0,0.02,0,0.02,0,0c0,0.01,0,0.01-0.01,0.02c0.01-0.02,0.02-0.03,0.01-0.01
					c-0.02,0.02-0.02,0.02,0,0c-0.01,0.01-0.06,0.05,0,0.01c-0.04,0.03,0.05-0.01-0.01,0.01c-0.04,0.01,0.01,0-0.02,0
					c-0.02,0-0.04,0-0.06,0.01c0.03,0-0.04,0-0.04,0c-0.05,0-0.1-0.01-0.15-0.02c0.05,0.04,0.1,0.09,0.16,0.13
					c0-0.01-0.01-0.08-0.01-0.03c0-0.02,0-0.03,0-0.05c0,0.04,0,0.02,0-0.01c0.01-0.04-0.02,0.04,0.01-0.01
					c0.03-0.05-0.03,0.02,0.01-0.01c0,0,0.01-0.01,0.01-0.01c0.02-0.02,0.02-0.01-0.02,0.01c0,0,0.04-0.02,0.04-0.03
					c-0.04,0.02-0.04,0.02-0.02,0.01c0.01,0,0.02-0.01,0.03-0.01c-0.01,0-0.02,0.01-0.03,0.01c0.01,0,0.02,0,0.03,0
					c-0.03,0-0.04,0-0.02,0c0.01,0,0.02,0,0.02,0c-0.07-0.01,0.02,0.01,0,0c-0.01-0.01-0.01-0.01,0.01,0.01
					c-0.01-0.01-0.01-0.01,0.01,0.01c0-0.01,0-0.01-0.01-0.02c0,0.02,0,0.02,0,0c0,0.02,0,0.02,0,0c0,0.01,0,0.01-0.01,0.02
					c0.01-0.02,0.01-0.03,0,0c-0.02,0.02-0.02,0.02,0,0c-0.01,0.01-0.06,0.05-0.01,0.01c-0.02,0.01-0.04,0.02-0.06,0.04
					c0.05-0.03-0.02,0-0.03,0.01c-0.02,0-0.01,0,0.01,0c-0.01,0-0.03,0-0.04,0.01c-0.06,0.01,0.03,0.01-0.03,0
					c-0.05-0.01,0.01,0.01-0.03-0.01c-0.02-0.01-0.02-0.01,0,0c-0.01-0.01-0.02-0.01-0.03-0.02c-0.01-0.01-0.04-0.05-0.02-0.02
					c-0.01-0.02-0.02-0.03-0.03-0.05c0.02,0.04,0-0.02,0-0.03c0-0.01,0-0.01,0,0.01c0-0.02,0-0.02,0,0c0.01-0.02,0.01-0.02,0,0
					c-0.01,0.02-0.01,0.02,0,0c-0.03,0.03-0.03,0.03-0.01,0.02c-0.01,0.01-0.02,0.02-0.03,0.02c0.02-0.01,0.02-0.01-0.02,0.01
					c0.03-0.01,0.02-0.01-0.02,0c0.01,0,0.01,0,0.02,0c0.03,0,0.02,0-0.01,0c0.05,0-0.05-0.01,0,0c0.02,0.01,0.02,0.01-0.01-0.01
					c0.01,0.01,0.02,0.01,0.02,0.02c0.09,0.09,0.27,0.03,0.34-0.04C246.89,127.31,246.92,127.19,246.83,127.1L246.83,127.1z"/>
			</g>
		</g>
		<path class="st11" d="M244.27,123.02c0,0-0.3-2.28,0.95-2.1c1.25,0.18,0.59,2.34,0.59,2.34s0.06-2.22,1.01-1.81
			c0.95,0.41,0.48,2.34,0.48,2.34s0.36-1.81,0.89-1.58c0.54,0.23,1.19,0.58,0.24,3.8L244.27,123.02z"/>
		<polygon class="st11" points="248.43,130.21 248.43,128.46 248.43,126 		"/>
		<polygon class="st14" points="248.43,130.21 248.43,126 252.66,128.69 		"/>
	</g>
	<g>
		<g>
			<path class="st15" d="M388.79,185.6c0.15-0.27,0.31-0.53,0.49-0.78c-0.11,0.16-0.23,0.32-0.34,0.48
				c0.47-0.66,1.02-1.24,1.64-1.75c-0.15,0.12-0.31,0.25-0.46,0.37c0.45-0.36,0.93-0.68,1.44-0.94c0.49-0.26,0.89-0.88,0.99-1.42
				c0.1-0.56-0.08-1.24-0.45-1.67c-0.42-0.48-0.99-0.85-1.63-0.94c-0.22-0.01-0.45-0.02-0.67-0.04c-0.43,0.03-0.82,0.15-1.18,0.37
				c-1.84,0.97-3.36,2.52-4.37,4.32c-0.28,0.5-0.27,1.21-0.04,1.72c0.23,0.53,0.76,1.05,1.3,1.26c0.6,0.24,1.31,0.34,1.94,0.11
				C388.01,186.5,388.48,186.15,388.79,185.6L388.79,185.6z"/>
		</g>
	</g>
	<g>
		<g>
			<path class="st15" d="M384.86,179.65c1.13-0.07,2.25-0.01,3.37,0.16c-0.16-0.03-0.33-0.05-0.49-0.08
				c0.71,0.11,1.41,0.28,2.09,0.48c0.4,0.12,0.95,0.11,1.28-0.19c0.33-0.3,0.38-0.86,0.29-1.27c-0.27-1.17-1.25-2.24-2.41-2.59
				c-1.92-0.58-3.95-0.84-5.95-0.72c-0.44,0.03-0.84,0.18-1.03,0.61c-0.19,0.43-0.07,1.05,0.12,1.46c0.27,0.58,0.68,1.14,1.2,1.52
				C383.76,179.33,384.31,179.68,384.86,179.65L384.86,179.65z"/>
		</g>
	</g>
	<g>
		<g>
			<path class="st15" d="M394.07,169.96c0.01,0.3-0.01,0.6-0.06,0.89c0.01-0.04,0.01-0.08,0.02-0.11c-0.41,2.15-2.37,3.63-4.05,4.82
				c-0.12,0.08,0.18,0.75,0.18,0.74c0.22,0.54,0.49,1.08,0.77,1.59c0.1,0.17,1.22,2.22,1.44,2.07c1.94-1.37,4.25-3.19,4.13-5.82
				c-0.01-0.33-0.28-0.81-0.4-1.09c-0.27-0.58-0.57-1.16-0.9-1.71c-0.25-0.42-0.5-0.88-0.82-1.25
				C394.32,170.02,394.06,169.68,394.07,169.96L394.07,169.96z"/>
		</g>
	</g>
	<g>
		<g>
			<path class="st15" d="M393.57,182.4c1.84,1.55,4.01,2.68,6.33,3.32c0.11,0.03-0.24-0.88-0.19-0.74c-0.22-0.54-0.51-1.07-0.8-1.58
				c-0.29-0.51-0.59-1.03-0.94-1.5c-0.14-0.19-0.3-0.47-0.53-0.54c-0.48-0.13-0.95-0.28-1.41-0.46c0.04,0.01,0.07,0.03,0.11,0.04
				c-1.75-0.66-3.38-1.62-4.81-2.82c-0.24-0.21-0.06,0.35-0.07,0.33c0.14,0.46,0.4,0.94,0.62,1.37c0.3,0.57,0.61,1.13,0.97,1.66
				C393.07,181.79,393.28,182.15,393.57,182.4L393.57,182.4z"/>
		</g>
	</g>
	<g>
		<g>
			<path class="st15" d="M394.29,179.56c2.71,0.39,5.6,0.13,8.17-0.86c0.2-0.08,0.72-0.29,0.7-0.61c-0.01-0.31-0.55-0.48-0.76-0.54
				c-0.57-0.15-1.19-0.19-1.78-0.15c-0.59,0.04-1.2,0.11-1.75,0.32c-0.19,0.07-0.38,0.14-0.57,0.2c-0.42,0.14,0.45-0.12,0.1-0.03
				c-0.09,0.02-0.18,0.05-0.27,0.07c-0.22,0.05-0.91,0.16-0.05,0.03c-0.2,0.03-0.4,0.07-0.6,0.09c-0.47,0.06,0.57-0.04,0.29-0.02
				c-0.11,0.01-0.22,0.02-0.33,0.02c-0.09,0-0.19,0.01-0.28,0.01c-0.39,0.01,0.7,0.01,0.29,0c-0.19,0-0.37-0.01-0.56-0.02
				c-0.39-0.02,0.59,0.07,0.23,0.02c-0.12-0.02-0.25-0.03-0.37-0.05c-0.63-0.09-1.3-0.08-1.93,0.01c-0.43,0.06-1.1,0.17-1.47,0.44
				c-0.2,0.15-0.46,0.38-0.22,0.64C393.4,179.43,393.93,179.51,394.29,179.56L394.29,179.56z"/>
		</g>
	</g>
	<g>
		<g>
			<path class="st15" d="M383.97,169.62c0.97,1.3,2.15,2.42,3.42,3.43c1.05,0.83,2.2,1.51,3.43,2.03c0.13,0.08,0.25,0.09,0.37,0.03
				c0.11-0.01,0.15-0.08,0.12-0.21c-0.04-0.16-0.11-0.31-0.21-0.44c-0.12-0.21-0.27-0.4-0.43-0.57c-0.76-0.84-1.68-1.63-2.73-2.08
				c-0.06-0.03-0.26-0.11,0.02,0.01c0.26,0.12,0.1,0.05,0.05,0.02c-0.08-0.04-0.17-0.08-0.25-0.12c-0.17-0.08-0.33-0.18-0.49-0.27
				c-0.03-0.01,0.49,0.3,0.28,0.17c-0.04-0.03-0.09-0.05-0.13-0.08c-0.08-0.05-0.16-0.1-0.23-0.15c-0.03-0.02-0.07-0.05-0.1-0.07
				c-0.02-0.01,0.58,0.42,0.31,0.22c-0.07-0.05-0.15-0.11-0.22-0.17c-0.03-0.03-0.06-0.05-0.1-0.08c-0.06-0.05,0.6,0.49,0.37,0.3
				c-0.07-0.06-0.14-0.12-0.21-0.18c-0.27-0.24,0.36,0.33,0.33,0.3c-0.03-0.03-0.06-0.06-0.09-0.08c-0.07-0.06-0.13-0.13-0.2-0.2
				c-0.23-0.24,0.28,0.29,0.26,0.28c-0.03-0.03-0.06-0.06-0.08-0.09c-0.06-0.07-0.12-0.14-0.18-0.21c-0.03-0.04-0.07-0.08-0.1-0.12
				c-0.16-0.19,0.23,0.28,0.21,0.26c-0.06-0.08-0.13-0.16-0.19-0.25c-0.35-0.47-0.78-0.9-1.23-1.28c-0.43-0.37-0.94-0.78-1.45-1.02
				c-0.15-0.07-0.7-0.39-0.83-0.16C383.55,169.07,383.85,169.45,383.97,169.62L383.97,169.62z"/>
		</g>
	</g>
	<g>
		<g>
			<path class="st15" d="M389.89,182.21c0.04,0.09,0.08,0.17,0.11,0.26c-0.06-0.19-0.13-0.37-0.19-0.56
				c0.08,0.24,0.12,0.48,0.14,0.73c-0.01-0.19-0.02-0.39-0.04-0.58c0.03,0.6-0.08,1.2-0.14,1.79c-0.07,0.63-0.06,1.3,0.08,1.92
				c0.4,1.75,1.73,3.26,3.58,3.49c0.6,0.07,1.26-0.03,1.76-0.38c0.46-0.31,0.85-0.91,0.87-1.48c0.05-1.29-1-2.42-2.27-2.58
				c-0.07-0.01-0.13-0.02-0.2-0.04c0.22,0.06,0.43,0.12,0.65,0.18c-0.1-0.03-0.2-0.07-0.3-0.12c0.2,0.11,0.39,0.22,0.59,0.32
				c-0.09-0.06-0.17-0.12-0.25-0.19c0.16,0.14,0.31,0.29,0.47,0.43c-0.09-0.09-0.18-0.19-0.25-0.3c0.11,0.17,0.23,0.34,0.34,0.51
				c-0.1-0.16-0.18-0.32-0.24-0.5c0.06,0.19,0.13,0.37,0.19,0.56c-0.1-0.3-0.16-0.6-0.18-0.92c0.01,0.19,0.02,0.39,0.04,0.58
				c-0.03-0.62,0.11-1.23,0.16-1.84c0.09-0.99-0.03-1.96-0.46-2.86c-0.27-0.56-0.83-1.03-1.4-1.26c-0.55-0.22-1.32-0.29-1.88-0.07
				c-0.54,0.22-1.06,0.59-1.26,1.17C389.6,181.06,389.63,181.65,389.89,182.21L389.89,182.21z"/>
		</g>
	</g>
	<ellipse class="st16" cx="387.48" cy="175.57" rx="3.41" ry="4.29"/>
	<ellipse class="st16" cx="392.96" cy="174.43" rx="3.41" ry="4.29"/>
	<ellipse class="st16" cx="389.56" cy="167.17" rx="3.41" ry="4.29"/>
</g>
</svg>
