<?xml version="1.0" encoding="utf-8"?>
<!-- Generator: Adobe Illustrator 24.2.1, SVG Export Plug-In . SVG Version: 6.00 Build 0)  -->
<svg version="1.1" id="Layer_1" xmlns="http://www.w3.org/2000/svg" xmlns:xlink="http://www.w3.org/1999/xlink" x="0px" y="0px"
	 viewBox="0 0 841.89 595.28" style="enable-background:new 0 0 841.89 595.28;" xml:space="preserve">
<style type="text/css">
	.st0{fill:none;}
	.st1{fill:#F9ED32;stroke:#000000;stroke-width:0.6377;stroke-miterlimit:10;}
	.st2{stroke:#000000;stroke-width:0.479;stroke-miterlimit:10;}
	.st3{fill:#FFFFFF;stroke:#000000;stroke-width:0.6377;stroke-miterlimit:10;}
	.st4{fill:#ED1C24;stroke:#000000;stroke-width:0.6377;stroke-miterlimit:10;}
	.st5{stroke:#000000;stroke-width:0.6377;stroke-miterlimit:10;}
	.st6{fill:none;stroke:#000000;stroke-width:0.6377;stroke-miterlimit:10;}
	.st7{fill:#F9ED32;stroke:#000000;stroke-width:0.479;stroke-miterlimit:10;}
	.st8{fill:#F6DE39;stroke:#000000;stroke-width:0.6168;stroke-miterlimit:10;}
	.st9{fill:#F0E6F1;stroke:#000000;stroke-width:0.4633;stroke-miterlimit:10;}
	.st10{fill:#FFFFFF;stroke:#000000;stroke-width:0.6168;stroke-miterlimit:10;}
	.st11{fill:#ED1C24;stroke:#000000;stroke-width:0.6168;stroke-miterlimit:10;}
	.st12{fill:#F0E6F1;stroke:#000000;stroke-width:0.6168;stroke-miterlimit:10;}
	.st13{fill:none;stroke:#000000;stroke-width:0.6168;stroke-miterlimit:10;}
	.st14{fill:#F6DE39;stroke:#000000;stroke-width:0.4633;stroke-miterlimit:10;}
	.st15{fill:#F6DE39;stroke:#000000;stroke-width:0.6624;stroke-miterlimit:10;}
	.st16{fill:#F16E23;stroke:#000000;stroke-width:0.4976;stroke-miterlimit:10;}
	.st17{fill:#FFFFFF;stroke:#000000;stroke-width:0.6624;stroke-miterlimit:10;}
	.st18{fill:#ED1C24;stroke:#000000;stroke-width:0.6624;stroke-miterlimit:10;}
	.st19{fill:#F16E23;stroke:#000000;stroke-width:0.6624;stroke-miterlimit:10;}
	.st20{fill:none;stroke:#000000;stroke-width:0.6624;stroke-miterlimit:10;}
	.st21{fill:#F6DE39;stroke:#000000;stroke-width:0.4976;stroke-miterlimit:10;}
	.st22{fill:url(#New_Pattern_Swatch_2);stroke:#000000;stroke-width:1.0342;stroke-miterlimit:10;}
</style>
<pattern  width="474.79" height="140.61" patternUnits="userSpaceOnUse" id="New_Pattern_Swatch_2" viewBox="5.64 -140.61 474.79 140.61" style="overflow:visible;">
	<g>
		<rect x="5.64" y="-140.61" class="st0" width="474.79" height="140.61"/>
		<g>
			<polygon class="st1" points="80.43,-35.64 78.26,-17.19 66.49,-14.97 66.49,-13.04 77.71,-14.42 83.89,-7.51 86.74,-8.89 
				81.27,-13.04 88.62,-10.27 90.3,-11.93 82.64,-14.42 91.47,-13.87 91.47,-16.36 81.27,-17.74 83.73,-34.91 			"/>
			<path class="st2" d="M29.02-97.65c0,0-9.85,64.14,56.64,52.53c0,0,57.74-8.02,51.72-51.14l19.43-7.19l-19.43-12.72
				c0,0,5.2-19.63-1.09-17.97c0,0-3.83-0.55-4.1,7.46c0,0,1.64-12.44-2.19-11.06c0,0-4.93-2.49-4.65,8.57c0,0,2.19-12.72-2.74-11.06
				c0,0-4.38-1.38-4.38,9.95c0,0-12.31,0.83-12.86,13.82L52-114.51c0,0-2.46-28.2-11.22-21.29c-8.76,6.91-0.55,16.03-0.55,16.03
				s-11.77-23.78-17.51-14.93s8.48,19.63,8.48,19.63s-19.43-22.39-22.99-15.48c-3.56,6.91,11.22,19.35,11.22,19.35
				S0-104.84,7.67-98.48C15.33-92.12,29.02-97.65,29.02-97.65z"/>
			<ellipse class="st3" cx="125.53" cy="-112.11" rx="7.47" ry="7.54"/>
			<path class="st4" d="M125.53-93.78c0,0-11.69,12.99-2.66,14.93c9.03,1.94,8.48-10.78,8.48-10.78S127.16-73.08,134.6-75
				c7.43-1.92,3.19-13.57,3.19-13.57s2.05,14.15,6.16,10.28c4.1-3.87-6.29-15.48-6.29-15.48H125.53z"/>
			<path class="st5" d="M63.51-44.12c0,0-7.67,7.29-4.94,9.78S63.51-36,63.51-36s-1.65,3.8,1.9,2.45c3.56-1.35,1.64-3.01,1.64-3.01
				s-0.27,5.49,3.56,3.3s2.19-5.17,2.19-5.17l-1.37-5.29"/>
			<path class="st5" d="M81.12-45.65c0,0-7.67,7.29-4.94,9.78s4.94-1.66,4.94-1.66s-1.65,3.8,1.9,2.45s1.64-3.01,1.64-3.01
				s-0.27,5.49,3.56,3.3c3.83-2.19,2.19-5.17,2.19-5.17l-1.37-5.29"/>
			<path class="st6" d="M101.53-86.59c0,0,1.21,23.78-20.19,22.95S53.1-64.18,51.73-75.11c0,0-13.96,3.45-12.59-5.4
				s11.77-3.8,11.77-3.8s-15.05-2.28-9.03-9.47c6.02-7.19,12.86,3.32,12.86,3.32s-8.76-7.19-4.38-10.23
				c4.38-3.04,10.95,4.98,10.95,4.98"/>
			<polygon class="st1" points="62.11,-34.27 59.94,-15.82 48.17,-13.61 48.17,-11.67 59.39,-13.05 65.56,-6.14 68.42,-7.52 
				62.95,-11.67 70.29,-8.91 71.98,-10.57 64.31,-13.05 73.15,-12.5 73.15,-14.99 62.95,-16.37 65.41,-33.55 			"/>
			<g>
				<g>
					<path d="M130.02-110.96c-0.48-0.51-1.26-0.54-1.89-0.38c-0.7,0.18-1.32,0.68-1.62,1.34c-0.61,1.35,0.44,2.72,1.79,2.95
						c1.43,0.25,3.18-0.72,3.66-2.1c0.25-0.73,0.08-1.52-0.59-1.95c-0.62-0.39-1.33-0.43-2.02-0.23c-1.28,0.38-2.54,1.83-2.1,3.23
						c0.11,0.36,0.36,0.57,0.73,0.62c1.42,0.19,2.95,0.06,3.84-1.22c0.41-0.59,0.56-1.35,0.25-2.01c-0.24-0.51-0.76-0.85-1.28-1.01
						c-1.25-0.37-2.83-0.3-3.66,0.85c-0.41,0.56-0.45,1.25-0.52,1.92c-0.07,0.68-0.15,1.37-0.22,2.05c-0.05,0.42,0.3,0.87,0.75,0.87
						c1.58,0.02,3.25-0.36,4.34-1.58c0.95-1.07,1.53-2.82,0.57-4.08c-1.01-1.33-2.84-1.47-4.11-0.41c-1.1,0.92-1.31,2.42-1.56,3.74
						c-0.14,0.76-0.53,1.78,0.06,2.44c0.52,0.58,1.43,0.51,2.11,0.27c0.63-0.23,1.24-0.62,1.8-0.98c0.66-0.43,1.25-0.91,1.76-1.51
						c0.82-0.96,1.25-2.26,0.89-3.51c-0.36-1.28-1.4-2.19-2.78-2.1c-1.76,0.11-3.17,1.69-3.95,3.14c-0.8,1.49-1.14,3.13-0.96,4.81
						c0.06,0.59,0.86,0.72,1.31,0.55c0.56-0.21,0.99-0.7,0.92-1.32c-0.03-0.29-0.03-0.3-0.03-0.58c0-0.26,0.02-0.52,0.05-0.78
						c0.02-0.12,0.03-0.24,0.05-0.36c0.01-0.07,0.03-0.14,0.04-0.21c0-0.02,0.04-0.19,0.01-0.05c0.06-0.25,0.14-0.5,0.24-0.75
						c0.09-0.23,0.18-0.45,0.29-0.67c0.06-0.11,0,0-0.01,0.02c0.03-0.06,0.07-0.12,0.1-0.18c0.07-0.12,0.14-0.24,0.22-0.35
						c0.07-0.1,0.14-0.2,0.21-0.3c0.04-0.05,0.24-0.3,0.1-0.14c0.17-0.2,0.38-0.37,0.57-0.56c0.13-0.13-0.15,0.09,0-0.01
						c0.05-0.03,0.09-0.06,0.13-0.09c0.06-0.04,0.13-0.07,0.18-0.11c-0.02,0.01-0.18,0.07-0.05,0.02c0.07-0.02,0.13-0.04,0.2-0.07
						c0.12-0.05-0.01,0.01-0.04,0.01c0.07-0.01,0.14-0.02,0.21-0.02c-0.09,0-0.07-0.01,0,0.01c0.18,0.05-0.16-0.08,0.06,0.01
						c0.1,0.04,0.22,0.12,0.07,0.01c0.08,0.05,0.16,0.11,0.23,0.17c0.02,0.02,0.05,0.06,0.08,0.07c0.08,0.05-0.11-0.16,0,0
						c0.1,0.15,0.19,0.29,0.26,0.45c0.07,0.15-0.03-0.14,0.03,0.09c0.03,0.1,0.05,0.2,0.07,0.3c0.02,0.09,0.02,0.18,0.04,0.27
						c-0.03-0.18,0,0.01,0,0.1c0,0.09-0.01,0.18-0.02,0.27c-0.01,0.04-0.02,0.08-0.02,0.12c0,0.12,0.06-0.17,0,0.01
						c-0.03,0.08-0.06,0.17-0.09,0.25c-0.01,0.03-0.1,0.2-0.04,0.09c0.06-0.1-0.03,0.04-0.03,0.05c-0.06,0.1-0.12,0.19-0.19,0.29
						c-0.04,0.05-0.08,0.1-0.12,0.16c-0.1,0.13,0.13-0.12,0-0.01c-0.17,0.16-0.33,0.33-0.51,0.47c-0.03,0.02-0.2,0.16-0.07,0.06
						c0.12-0.09-0.02,0.01-0.03,0.02c-0.11,0.08-0.22,0.16-0.34,0.23c-0.21,0.14-0.43,0.27-0.65,0.4c-0.1,0.06-0.21,0.12-0.31,0.17
						c-0.07,0.04-0.26,0.19-0.33,0.18c-0.02,0,0.25-0.08,0.11-0.06c-0.05,0.01-0.11,0.03-0.15,0.05c-0.13,0.06,0.11-0.04,0.1-0.02
						c0-0.01-0.14,0.03-0.15,0.02c0,0,0.22,0.01,0.1-0.01c-0.12-0.01,0.11,0.04,0.15,0.06c0.06,0.04,0.09,0.07,0.13,0.13
						c-0.05-0.09-0.05-0.08-0.01,0.04c0.02,0.12,0.03,0.13,0.03,0.04c0.06-0.11,0.05-0.31,0.07-0.43c0.03-0.15,0.06-0.3,0.08-0.45
						c0.06-0.32,0.12-0.64,0.18-0.96c0.04-0.23,0.09-0.47,0.14-0.7c-0.04,0.19,0.03-0.09,0.04-0.14c0.04-0.13,0.08-0.26,0.13-0.39
						c0.03-0.08,0.07-0.17,0.1-0.25c0.08-0.19,0.01-0.02-0.01,0.02c0.03-0.05,0.06-0.1,0.09-0.15c0.02-0.03,0.06-0.07,0.07-0.1
						c0.06-0.13-0.06,0.08-0.06,0.07c0,0.01,0.11-0.12,0.12-0.12c-0.04,0.03-0.08,0.06-0.12,0.09c0.03-0.02,0.07-0.05,0.11-0.07
						c0.12-0.03-0.09,0.02-0.1,0.04c0,0,0.14-0.06,0.16-0.06c-0.05-0.01-0.16,0.08-0.09,0.03c0.04-0.03,0.22,0.01,0.07-0.01
						c-0.17-0.02,0.27,0.07,0.02,0c0.11,0.03,0.22,0.08,0.32,0.13c-0.16-0.08,0.09,0.07,0.14,0.11c0.06,0.05,0.24,0.26,0.14,0.12
						c0.07,0.1,0.13,0.19,0.19,0.3c0.09,0.15,0.02,0.05,0.01,0.01c0.02,0.07,0.04,0.15,0.06,0.22c0.01,0.05,0.02,0.09,0.02,0.14
						c0.04,0.27,0.01-0.08,0,0.08c-0.01,0.13-0.02,0.25-0.04,0.38c-0.03,0.16,0.05-0.13-0.01,0.02c-0.02,0.06-0.04,0.12-0.07,0.18
						c-0.01,0.03-0.09,0.21-0.04,0.09c0.06-0.12-0.08,0.13-0.08,0.13c-0.04,0.07-0.27,0.33-0.1,0.15c-0.09,0.09-0.19,0.18-0.28,0.27
						c0.01-0.01,0.17-0.11,0.05-0.04c-0.07,0.05-0.15,0.1-0.22,0.14c-0.06,0.04-0.12,0.07-0.18,0.1c0.1-0.05,0.12-0.05,0-0.01
						c-0.13,0.05-0.26,0.09-0.4,0.14c-0.21,0.07-0.06,0.02-0.01,0.01c-0.09,0.02-0.17,0.03-0.26,0.05
						c-0.14,0.02-0.28,0.04-0.42,0.05c-0.05,0-0.11,0.01-0.16,0.01c-0.01,0-0.34,0-0.14,0c0.25,0.29,0.5,0.58,0.75,0.87
						c0.1-0.92,0.23-1.84,0.3-2.76c0.01-0.17-0.02,0,0.01-0.09c0.01-0.05,0.03-0.09,0.05-0.14c-0.01,0.03-0.02,0.05-0.03,0.08
						c-0.03,0.03-0.32,0.24-0.13,0.14c-0.04,0.02-0.09,0.04-0.13,0.06c0.1-0.03,0.11-0.04,0.02-0.02c-0.15,0.06,0.07-0.01,0.12-0.01
						c0.05-0.01,0.31,0.01,0.08-0.01c0.16,0.01,0.33,0.02,0.49,0.05c0.08,0.01,0.2,0.04,0.05,0c0.09,0.02,0.17,0.05,0.26,0.09
						c0.02,0.01,0.23,0.12,0.13,0.05c-0.1-0.07,0.08,0.07,0.1,0.09c-0.13-0.11,0,0.01,0.04,0.08c-0.08-0.14,0,0.07,0-0.02
						c-0.01-0.12-0.01,0.11-0.01,0.14c0.03-0.2-0.1,0.1,0.03-0.09c-0.02,0.03-0.18,0.21-0.07,0.11c0.06-0.07,0.05-0.06-0.03,0.02
						c0.04-0.03,0.07-0.05,0.11-0.08c-0.22,0.15,0.21-0.06-0.06,0.04c-0.28,0.1,0.16,0-0.14,0.03c-0.02,0-0.29,0.03-0.19,0.02
						c0.1,0-0.17-0.01-0.2-0.01c-0.23-0.01-0.45-0.05-0.68-0.08c0.24,0.21,0.49,0.41,0.73,0.62c-0.01-0.03-0.07-0.31-0.05-0.18
						c0.01,0.13,0.02-0.15,0.02-0.18c-0.01,0.2-0.01,0.06,0.02-0.03c0.07-0.21-0.12,0.14,0.02-0.02c0.03-0.04,0.06-0.09,0.09-0.13
						c-0.11,0.13-0.12,0.14-0.04,0.05c0.02-0.02,0.04-0.04,0.06-0.05c0.1-0.09,0.08-0.07-0.07,0.05c-0.01-0.01,0.2-0.12,0.2-0.12
						c-0.17,0.08-0.2,0.09-0.07,0.05c0.02-0.01,0.05-0.02,0.07-0.02c-0.17,0.04-0.19,0.04-0.07,0.02c0.12-0.01,0.1-0.01-0.06-0.01
						c0.04-0.04,0.31,0.11,0.04-0.01c0.03,0.01,0.25,0.07,0.08,0.02c0.07,0.02,0.09,0.03,0.11,0.1c-0.04-0.1-0.04-0.1-0.02,0.01
						c0-0.11-0.01-0.11-0.02,0c0.01-0.03,0.01-0.06,0.02-0.09c-0.05,0.11-0.04,0.11,0.02,0c-0.03,0.05-0.21,0.26-0.03,0.07
						c-0.03,0.03-0.28,0.23-0.16,0.15c0.07-0.06,0.06-0.05-0.04,0.02c-0.06,0.04-0.12,0.07-0.18,0.1c0.19-0.09-0.01-0.02-0.09,0.02
						c0.2-0.08-0.04,0-0.11,0.01c-0.13,0.01-0.13,0.01-0.02,0c-0.05,0-0.1-0.01-0.15-0.02c-0.07-0.01-0.07-0.01,0.01,0
						c-0.06-0.02-0.11-0.04-0.16-0.07c0.15,0.07-0.04-0.04-0.08-0.07c-0.15-0.1,0.02,0.08-0.08-0.08c-0.02-0.03-0.15-0.28-0.12-0.2
						c0.03,0.08-0.04-0.18-0.04-0.22c0,0.03,0.01,0.05,0.01,0.08c0.02-0.12,0.01-0.12-0.01,0c0.04-0.11,0.03-0.09-0.04,0.05
						c0.01-0.02,0.03-0.04,0.04-0.06c-0.12,0.13-0.14,0.16-0.05,0.07c-0.15,0.11-0.19,0.14-0.11,0.09c0.08-0.05,0.04-0.03-0.13,0.05
						c0.04-0.02,0.09-0.03,0.14-0.05c-0.05,0.01-0.1,0.03-0.15,0.04c0.12-0.01,0.09-0.01-0.07-0.01c0.22,0.01-0.18-0.06,0.01,0
						c-0.12-0.08-0.13-0.09-0.04-0.02c0.04,0.03,0.07,0.06,0.1,0.1c0.17,0.18,0.54,0.22,0.76,0.19c0.29-0.03,0.63-0.19,0.84-0.4
						C130.31-109.97,130.43-110.51,130.02-110.96L130.02-110.96z"/>
				</g>
			</g>
			<path class="st4" d="M118.22-130.27c0,0-1.37-10.78,4.38-9.95c5.75,0.83,2.74,11.06,2.74,11.06s0.27-10.51,4.65-8.57
				c4.38,1.94,2.19,11.06,2.19,11.06s1.64-8.56,4.1-7.46c2.46,1.1,5.47,2.76,1.09,17.97L118.22-130.27z"/>
			<polygon class="st4" points="137.37,-96.27 137.37,-104.56 137.37,-116.17 			"/>
			<polygon class="st7" points="137.37,-96.27 137.37,-116.17 156.8,-103.45 			"/>
		</g>
		<g>
			<polygon class="st8" points="239.82,-37.52 237.71,-19.76 226.27,-17.63 226.27,-15.77 237.18,-17.1 243.18,-10.44 
				245.96,-11.77 240.64,-15.77 247.78,-13.1 249.41,-14.7 241.97,-17.1 250.55,-16.56 250.55,-18.96 240.64,-20.29 243.03,-36.82 
							"/>
			<path class="st9" d="M189.83-97.19c0,0-9.58,61.72,55.07,50.55c0,0,56.13-7.72,50.28-49.22l18.89-6.92l-18.89-12.24
				c0,0,5.05-18.89-1.06-17.29c0,0-3.72-0.53-3.99,7.18c0,0,1.6-11.97-2.13-10.64c0,0-4.79-2.39-4.52,8.25
				c0,0,2.13-12.24-2.66-10.64c0,0-4.26-1.33-4.26,9.58c0,0-11.97,0.8-12.5,13.3l-51.88,1.86c0,0-2.39-27.14-10.91-20.48
				c-8.51,6.65-0.53,15.43-0.53,15.43s-11.44-22.88-17.03-14.37s8.25,18.89,8.25,18.89s-18.89-21.55-22.35-14.9
				c-3.46,6.65,10.91,18.62,10.91,18.62s-18.9,6.12-11.44,12.24C176.53-91.87,189.83-97.19,189.83-97.19z"/>
			<circle class="st10" cx="283.67" cy="-111.1" r="7.26"/>
			<path class="st11" d="M283.67-93.46c0,0-11.36,12.5-2.58,14.37c8.78,1.86,8.25-10.38,8.25-10.38s-4.07,15.92,3.15,14.08
				s3.1-13.06,3.1-13.06s2,13.61,5.99,9.89s-6.11-14.9-6.11-14.9H283.67z"/>
			<path class="st12" d="M223.36-45.67c0,0-7.46,7.02-4.8,9.41c2.66,2.39,4.8-1.6,4.8-1.6s-1.61,3.66,1.85,2.36s1.6-2.89,1.6-2.89
				s-0.27,5.28,3.46,3.17c3.72-2.11,2.13-4.98,2.13-4.98l-1.33-5.09"/>
			<path class="st12" d="M240.49-47.15c0,0-7.46,7.02-4.8,9.41c2.66,2.39,4.8-1.6,4.8-1.6s-1.61,3.66,1.85,2.36
				c3.46-1.3,1.6-2.89,1.6-2.89s-0.27,5.28,3.46,3.17c3.72-2.11,2.13-4.98,2.13-4.98l-1.33-5.09"/>
			<path class="st13" d="M260.33-86.55c0,0,1.18,22.88-19.63,22.08c-20.81-0.8-27.46-0.51-28.79-11.03c0,0-13.57,3.32-12.24-5.2
				c1.33-8.51,11.44-3.66,11.44-3.66s-14.63-2.19-8.78-9.11s12.5,3.19,12.5,3.19s-8.51-6.92-4.26-9.84
				c4.26-2.93,10.64,4.79,10.64,4.79"/>
			<polygon class="st8" points="222,-36.2 219.89,-18.44 208.45,-16.31 208.45,-14.45 219.36,-15.78 225.36,-9.13 228.14,-10.46 
				222.82,-14.45 229.96,-11.79 231.6,-13.39 224.15,-15.78 232.74,-15.25 232.74,-17.64 222.82,-18.97 225.21,-35.5 			"/>
			<g>
				<g>
					<path d="M288.02-110c-0.46-0.5-1.22-0.52-1.83-0.36c-0.68,0.17-1.27,0.66-1.57,1.3c-0.62,1.31,0.48,2.67,1.78,2.86
						c1.37,0.19,3.14-0.73,3.53-2.12c0.22-0.76-0.01-1.46-0.7-1.86c-0.57-0.33-1.24-0.34-1.87-0.15c-1.23,0.37-2.45,1.76-2.03,3.11
						c0.11,0.34,0.35,0.55,0.71,0.6c1.38,0.18,2.86,0.06,3.73-1.18c0.4-0.57,0.55-1.3,0.24-1.94c-0.23-0.49-0.74-0.82-1.25-0.97
						c-1.21-0.36-2.74-0.28-3.55,0.82c-0.4,0.54-0.44,1.2-0.51,1.85c-0.07,0.66-0.14,1.31-0.22,1.97c-0.04,0.41,0.29,0.84,0.72,0.84
						c1.53,0.02,3.15-0.34,4.21-1.52c0.94-1.04,1.48-2.73,0.53-3.95c-0.95-1.23-2.63-1.4-3.85-0.47c-1.18,0.89-1.39,2.4-1.65,3.76
						c-0.14,0.76-0.52,1.77,0.15,2.38c0.54,0.49,1.41,0.38,2.03,0.14c0.6-0.24,1.19-0.6,1.73-0.95c0.62-0.41,1.19-0.87,1.67-1.44
						c0.78-0.92,1.19-2.17,0.85-3.36c-0.36-1.25-1.35-2.09-2.68-2.02c-1.69,0.09-3.1,1.63-3.85,3.02c-0.77,1.44-1.11,3.01-0.93,4.63
						c0.06,0.57,0.83,0.7,1.27,0.53c0.54-0.21,0.96-0.68,0.89-1.28c-0.01-0.08-0.03-0.28-0.03-0.28c0,0,0-0.21,0-0.28
						c0-0.27,0.02-0.54,0.06-0.8c0.02-0.12,0.03-0.23,0.06-0.35c0.01-0.04,0.07-0.34,0.04-0.19c0.06-0.24,0.14-0.48,0.23-0.72
						c0.09-0.23,0.19-0.47,0.31-0.69c-0.08,0.15,0.04-0.07,0.07-0.11c0.08-0.13,0.16-0.26,0.24-0.38c0.07-0.1,0.14-0.19,0.21-0.28
						c0.04-0.05,0.08-0.1,0.13-0.16c-0.01,0.02-0.11,0.12-0.03,0.03c0.17-0.18,0.35-0.36,0.54-0.52c0.17-0.15,0.03-0.02-0.01,0
						c0.04-0.03,0.08-0.06,0.13-0.08c0.06-0.04,0.12-0.06,0.17-0.1c0.11-0.07-0.04,0.02-0.06,0.03c0.06-0.02,0.12-0.04,0.18-0.07
						c0.07-0.03,0.17,0,0,0c0.05,0,0.1-0.01,0.14-0.01c0.11-0.01-0.1-0.04,0.04,0.01c0.17,0.06-0.17-0.08,0.06,0.01
						c0.08,0.03,0.23,0.11,0.07,0.01c0.07,0.04,0.13,0.09,0.19,0.14c0.03,0.03,0.06,0.07,0.1,0.09c0.09,0.06-0.08-0.12-0.02-0.03
						c0.1,0.15,0.2,0.3,0.28,0.46c0.07,0.14-0.03-0.14,0.03,0.09c0.03,0.1,0.05,0.19,0.07,0.29c0.02,0.09,0.02,0.17,0.04,0.26
						c-0.02-0.19,0,0.02,0,0.1c0,0.09-0.01,0.18-0.02,0.26c-0.01,0.05-0.02,0.1-0.03,0.15c0.01-0.07,0.04-0.14,0-0.03
						c-0.03,0.09-0.07,0.19-0.11,0.28c-0.01,0.01-0.08,0.15-0.02,0.05c0.06-0.11-0.04,0.06-0.05,0.08
						c-0.06,0.09-0.12,0.18-0.19,0.27c-0.03,0.04-0.06,0.07-0.09,0.11c-0.08,0.1,0.13-0.12-0.03,0.02c-0.16,0.15-0.32,0.3-0.49,0.44
						c-0.04,0.04-0.18,0.14,0.02-0.01c-0.04,0.03-0.08,0.06-0.12,0.08c-0.12,0.08-0.24,0.16-0.36,0.24c-0.39,0.25-0.8,0.46-1.2,0.69
						c-0.11,0.06,0.11-0.06,0.11-0.05c0,0-0.13,0.05-0.15,0.05c-0.17,0.07,0.06-0.02,0.06-0.01c0,0.01-0.1,0.01-0.11,0.01
						c-0.15,0,0.2,0.01,0.06,0c-0.11-0.01,0.09,0.02,0.09,0.02c0.08,0.04,0.13,0.09,0.18,0.16c-0.1-0.16,0.04,0.13,0.01,0.13
						c0.05-0.02,0.14-0.81,0.16-0.9c0.06-0.31,0.12-0.62,0.17-0.93c0.04-0.22,0.08-0.45,0.13-0.67c-0.04,0.19,0.03-0.09,0.04-0.14
						c0.04-0.13,0.08-0.25,0.13-0.38c0.04-0.09,0.08-0.18,0.12-0.28c0.05-0.11-0.02,0.04-0.03,0.06c0.03-0.04,0.06-0.1,0.09-0.14
						c0.02-0.03,0.05-0.07,0.07-0.1c0.08-0.14-0.13,0.15-0.03,0.04c0.01-0.01,0.08-0.09,0.09-0.08c-0.13,0.09-0.16,0.11-0.08,0.06
						c0.02-0.02,0.05-0.03,0.07-0.04c0.15-0.06-0.2,0.09-0.06,0.02c0.02-0.01,0.1-0.05,0.12-0.04c-0.04,0.01-0.08,0.02-0.13,0.03
						c0.03,0,0.05-0.01,0.08-0.01c0.02,0,0.17,0.01,0.02,0c-0.14-0.01,0.14,0.03,0.18,0.04c-0.2-0.04-0.06-0.01-0.02,0.01
						c0.06,0.03,0.13,0.05,0.19,0.08c0.1,0.05-0.02-0.01-0.03-0.02c0.06,0.04,0.11,0.08,0.17,0.12c0.03,0.03,0.06,0.05,0.09,0.08
						c0,0,0.16,0.18,0.09,0.09c-0.07-0.09,0.03,0.05,0.04,0.07c0.03,0.06,0.07,0.12,0.1,0.18c0.01,0.01,0.06,0.14,0.02,0.04
						c-0.04-0.11,0.03,0.11,0.03,0.13c0.01,0.06,0.03,0.36,0.03,0.21c0,0.12-0.02,0.24-0.04,0.36c0.02-0.16,0.01-0.02,0,0.02
						c-0.02,0.06-0.04,0.12-0.06,0.17c-0.02,0.06-0.05,0.11-0.07,0.17c0.06-0.14,0.02-0.03-0.03,0.04
						c-0.02,0.04-0.05,0.08-0.08,0.12c0,0-0.18,0.22-0.08,0.11c0.1-0.11-0.04,0.04-0.06,0.06c-0.04,0.04-0.09,0.08-0.14,0.13
						c-0.12,0.12,0.17-0.1,0.01-0.01c-0.07,0.04-0.14,0.09-0.22,0.14c-0.04,0.03-0.09,0.05-0.13,0.07
						c-0.11,0.07,0.17-0.05-0.04,0.02c-0.13,0.04-0.26,0.09-0.39,0.13c-0.04,0.01-0.21,0.05-0.02,0.01
						c-0.07,0.01-0.14,0.03-0.2,0.04c-0.15,0.03-0.31,0.04-0.46,0.05c-0.05,0-0.1,0.01-0.16,0.01c-0.01,0-0.33,0-0.14,0
						c0.24,0.28,0.48,0.56,0.72,0.84c0.1-0.89,0.22-1.77,0.3-2.66c0.01-0.17-0.02,0.01,0.01-0.08c0.01-0.05,0.03-0.09,0.05-0.14
						c-0.01,0.03-0.02,0.05-0.03,0.08c-0.03,0.03-0.31,0.23-0.13,0.14c-0.04,0.02-0.09,0.04-0.13,0.06c0.1-0.03,0.11-0.03,0.02-0.01
						c-0.15,0.05,0.07-0.01,0.11-0.01c0.05,0,0.31,0.01,0.08-0.01c0.16,0.01,0.32,0.02,0.48,0.05c0.07,0.01,0.15,0.02,0.22,0.04
						c-0.2-0.05,0.07,0.03,0.09,0.04c0.02,0.01,0.22,0.12,0.12,0.05c-0.1-0.06,0.08,0.07,0.1,0.08c-0.12-0.1,0,0,0.04,0.07
						c-0.08-0.14,0,0.07,0-0.02c-0.01-0.11-0.01,0.1-0.01,0.13c0.03-0.19-0.1,0.09,0.03-0.09c-0.02,0.03-0.18,0.2-0.07,0.1
						c0.06-0.07,0.04-0.06-0.03,0.02c0.03-0.03,0.07-0.05,0.1-0.08c-0.21,0.14,0.2-0.05-0.06,0.03c-0.28,0.1,0.16,0-0.14,0.03
						c-0.02,0-0.28,0.02-0.19,0.02c0.09,0-0.17-0.01-0.19-0.01c-0.22-0.01-0.44-0.04-0.66-0.07c0.24,0.2,0.47,0.4,0.71,0.6
						c-0.02-0.06-0.06-0.36-0.05-0.12c0-0.07,0.02-0.14,0.02-0.21c0,0.17-0.01,0.08,0.02-0.03c0.05-0.19-0.12,0.17,0.03-0.05
						c0.16-0.23-0.14,0.1,0.03-0.04c0.02-0.02,0.04-0.03,0.05-0.05c0.1-0.08,0.07-0.07-0.07,0.05c0,0,0.19-0.11,0.19-0.12
						c-0.17,0.08-0.2,0.09-0.08,0.04c0.05-0.02,0.09-0.03,0.14-0.04c-0.05,0.01-0.09,0.02-0.14,0.04c0.05-0.01,0.1-0.01,0.14-0.01
						c-0.14,0-0.17,0-0.09,0.01c0.04,0,0.07,0.01,0.11,0.02c-0.3-0.04,0.08,0.06,0,0.01c-0.06-0.04-0.04-0.02,0.05,0.04
						c-0.04-0.06-0.03-0.05,0.02,0.03c-0.01-0.02-0.02-0.05-0.03-0.07c0.02,0.11,0.02,0.11,0.01,0c-0.02,0.11-0.01,0.11,0.01,0
						c-0.01,0.03-0.02,0.05-0.03,0.08c0.06-0.11,0.06-0.11,0-0.01c-0.08,0.1-0.07,0.1,0.02-0.01c-0.05,0.05-0.26,0.22-0.03,0.05
						c-0.08,0.06-0.17,0.11-0.25,0.16c0.22-0.14-0.08,0.02-0.13,0.05c-0.08,0.02-0.06,0.02,0.04,0c-0.06,0.01-0.13,0.02-0.2,0.03
						c-0.25,0.03,0.13,0.04-0.12-0.01c-0.21-0.04,0.04,0.04-0.12-0.04c-0.1-0.05-0.1-0.05-0.02,0c-0.05-0.03-0.09-0.07-0.14-0.11
						c-0.14-0.09,0.02,0.08-0.08-0.07c-0.05-0.07-0.09-0.14-0.13-0.22c0.08,0.16-0.01-0.09-0.02-0.14c-0.01-0.07-0.01-0.06,0,0.04
						c0.02-0.11,0.01-0.11-0.01,0c0.04-0.09,0.03-0.09-0.01-0.01c-0.04,0.08-0.04,0.08,0.01,0c-0.12,0.13-0.13,0.15-0.05,0.07
						c-0.04,0.03-0.09,0.07-0.13,0.1c0.11-0.06,0.08-0.05-0.09,0.03c0.04-0.02,0.09-0.03,0.13-0.04c-0.05,0.01-0.1,0.03-0.15,0.04
						c0.11-0.01,0.09-0.01-0.07-0.01c0.24,0.02-0.22-0.03,0.01,0c0.09,0.04,0.08,0.04-0.04-0.02c0.04,0.03,0.07,0.06,0.1,0.1
						c0.39,0.41,1.21,0.14,1.55-0.2C288.3-109.04,288.43-109.57,288.02-110L288.02-110z"/>
				</g>
			</g>
			<path class="st11" d="M276.56-128.58c0,0-1.33-10.38,4.26-9.58c5.59,0.8,2.66,10.64,2.66,10.64s0.27-10.11,4.52-8.25
				s2.13,10.64,2.13,10.64s1.6-8.24,3.99-7.18c2.4,1.06,5.32,2.66,1.06,17.29L276.56-128.58z"/>
			<polygon class="st11" points="295.18,-95.86 295.18,-103.84 295.18,-115.01 			"/>
			<polygon class="st14" points="295.18,-95.86 295.18,-115.01 314.07,-102.77 			"/>
		</g>
		<g>
			<polygon class="st15" points="398.97,-30.46 396.67,-11.65 384.21,-9.4 384.21,-7.43 396.09,-8.84 402.63,-1.8 405.66,-3.2 
				399.86,-7.43 407.64,-4.61 409.42,-6.3 401.31,-8.84 410.66,-8.27 410.66,-10.81 399.86,-12.22 402.47,-29.71 			"/>
			<path class="st16" d="M344.52-93.63c0,0-10.43,65.34,59.99,53.51c0,0,61.15-8.17,54.77-52.11l20.58-7.32l-20.58-12.96
				c0,0,5.51-20-1.16-18.31c0,0-4.06-0.56-4.35,7.6c0,0,1.74-12.67-2.32-11.27c0,0-5.22-2.53-4.93,8.73c0,0,2.32-12.96-2.9-11.27
				c0,0-4.64-1.41-4.64,10.14c0,0-13.04,0.84-13.62,14.08l-56.51,1.97c0,0-2.61-28.73-11.88-21.69c-9.27,7.04-0.58,16.34-0.58,16.34
				s-12.46-24.22-18.55-15.21s8.98,20,8.98,20s-20.58-22.81-24.34-15.77c-3.77,7.04,11.88,19.72,11.88,19.72
				s-20.59,6.48-12.47,12.96S344.52-93.63,344.52-93.63z"/>
			<ellipse class="st17" cx="446.73" cy="-108.36" rx="7.91" ry="7.69"/>
			<path class="st18" d="M446.73-89.69c0,0-12.38,13.24-2.81,15.21s8.98-10.98,8.98-10.98s-4.44,16.86,3.43,14.91
				s3.38-13.83,3.38-13.83s2.17,14.41,6.52,10.47c4.35-3.94-6.66-15.77-6.66-15.77H446.73z"/>
			<path class="st19" d="M381.05-39.09c0,0-8.13,7.43-5.23,9.96s5.23-1.69,5.23-1.69s-1.75,3.87,2.02,2.5
				c3.77-1.37,1.74-3.06,1.74-3.06s-0.29,5.59,3.77,3.36s2.32-5.27,2.32-5.27l-1.45-5.39"/>
			<path class="st19" d="M399.7-40.65c0,0-8.13,7.43-5.23,9.96s5.23-1.69,5.23-1.69s-1.75,3.87,2.02,2.5s1.74-3.06,1.74-3.06
				s-0.29,5.59,3.77,3.36s2.32-5.27,2.32-5.27l-1.45-5.39"/>
			<path class="st20" d="M421.32-82.36c0,0,1.29,24.22-21.38,23.38s-29.91-0.54-31.36-11.68c0,0-14.78,3.51-13.33-5.5
				c1.45-9.01,12.46-3.87,12.46-3.87s-15.94-2.32-9.56-9.64c6.38-7.32,13.62,3.38,13.62,3.38s-9.27-7.32-4.64-10.42
				c4.64-3.1,11.59,5.07,11.59,5.07"/>
			<polygon class="st15" points="379.56,-29.06 377.27,-10.26 364.8,-8.01 364.8,-6.04 376.69,-7.44 383.22,-0.4 386.25,-1.81 
				380.45,-6.04 388.24,-3.22 390.02,-4.91 381.9,-7.44 391.26,-6.88 391.26,-9.41 380.45,-10.82 383.06,-28.32 			"/>
			<g>
				<g>
					<path d="M451.47-107.21c-0.43-0.45-1.16-0.56-1.75-0.44c-0.82,0.17-1.61,0.67-1.94,1.47c-0.6,1.41,0.53,2.8,1.93,3
						c1.49,0.21,3.28-0.73,3.81-2.17c0.28-0.76,0.07-1.57-0.62-2c-0.64-0.41-1.37-0.43-2.09-0.24c-1.33,0.35-2.7,1.87-2.23,3.33
						c0.12,0.37,0.37,0.59,0.76,0.64c1.49,0.19,3.15,0.07,4.07-1.3c0.4-0.6,0.56-1.36,0.23-2.03c-0.24-0.51-0.77-0.86-1.29-1.02
						c-1.31-0.4-2.97-0.34-3.88,0.83c-0.45,0.58-0.5,1.3-0.58,2c-0.08,0.7-0.16,1.39-0.24,2.09c-0.05,0.44,0.32,0.9,0.77,0.91
						c1.65,0.02,3.41-0.35,4.57-1.62c0.99-1.08,1.6-2.87,0.61-4.16c-1.02-1.32-2.86-1.55-4.19-0.54c-1.23,0.93-1.49,2.44-1.77,3.87
						c-0.14,0.74-0.55,1.79-0.04,2.46c0.54,0.7,1.54,0.64,2.29,0.38c0.67-0.23,1.32-0.64,1.92-1.01c0.62-0.39,1.23-0.84,1.72-1.39
						c0.9-1.03,1.47-2.36,1.06-3.73c-0.4-1.37-1.52-2.24-2.96-2.15c-1.8,0.11-3.32,1.74-4.13,3.22c-0.83,1.51-1.19,3.18-1,4.9
						c0.07,0.61,0.89,0.75,1.36,0.57c0.58-0.22,1.03-0.73,0.96-1.37c-0.05-0.45-0.05-0.85,0.02-1.41c0.02-0.12,0.04-0.24,0.06-0.36
						c0.01-0.04,0.08-0.35,0.04-0.19c0.07-0.27,0.16-0.54,0.26-0.8c0.09-0.23,0.19-0.46,0.3-0.67c-0.1,0.18,0.07-0.1,0.1-0.15
						c0.08-0.14,0.17-0.27,0.26-0.4c0.07-0.1,0.14-0.2,0.22-0.3c0.03-0.04,0.07-0.08,0.1-0.12c-0.14,0.18-0.03,0.03,0,0
						c0.2-0.21,0.4-0.4,0.62-0.59c-0.18,0.16,0.05-0.03,0.13-0.08c0.05-0.03,0.09-0.05,0.14-0.08c0.21-0.12,0.03-0.01-0.01,0.01
						c0.05-0.02,0.11-0.03,0.15-0.05c0.15-0.08-0.17,0.01,0-0.01c0.05-0.01,0.1-0.02,0.16-0.02c0.3-0.03-0.07-0.02,0.06,0
						c0.05,0.01,0.1,0.02,0.16,0.02c0.11,0.01-0.07-0.01-0.08-0.02c0.08,0.05,0.19,0.08,0.28,0.12c-0.17-0.08-0.04-0.02,0.05,0.05
						c0.05,0.04,0.23,0.23,0.15,0.14c-0.09-0.11,0.07,0.11,0.1,0.15c0.06,0.09,0.1,0.18,0.15,0.27c0.08,0.15-0.03-0.15,0.03,0.09
						c0.03,0.1,0.06,0.2,0.08,0.31c0.02,0.09,0.03,0.19,0.04,0.28c-0.03-0.2,0,0.01,0,0.1c0,0.09-0.01,0.19-0.03,0.28
						c-0.01,0.05-0.02,0.1-0.03,0.16c0.02-0.13,0.04-0.12-0.01,0c-0.03,0.09-0.07,0.17-0.1,0.26c0.08-0.19-0.04,0.07-0.08,0.13
						c-0.06,0.1-0.13,0.19-0.2,0.28c-0.13,0.18-0.02,0.03,0.01-0.01c-0.06,0.06-0.11,0.12-0.17,0.18c-0.08,0.08-0.17,0.16-0.26,0.24
						c-0.04,0.03-0.31,0.26-0.18,0.16c0.12-0.1-0.01,0.01-0.03,0.02c-0.06,0.04-0.11,0.08-0.17,0.12c-0.11,0.08-0.23,0.15-0.35,0.23
						c-0.22,0.14-0.45,0.27-0.68,0.39c-0.11,0.06-0.21,0.12-0.32,0.17c-0.06,0.03-0.12,0.06-0.18,0.1
						c-0.21,0.12,0.06-0.03,0.06-0.02c0,0-0.29,0.12-0.32,0.11c0,0,0.23-0.06,0.1-0.03c-0.01,0-0.11,0.02-0.12,0.01
						c0.01,0.01,0.23,0.02,0.06-0.01c0.1,0.02,0.16,0.04,0.24,0.1c0.01,0.01,0.11,0.17,0.06,0.07c-0.05-0.09-0.04-0.03,0.03,0.18
						c0-0.04,0.01-0.08,0.01-0.12c0.11-0.27,0.12-0.62,0.17-0.9c0.07-0.35,0.13-0.7,0.2-1.05c0.02-0.12,0.04-0.23,0.07-0.35
						c0.01-0.07,0.08-0.32,0.03-0.13c0.07-0.23,0.13-0.47,0.22-0.69c0.02-0.05,0.16-0.32,0.08-0.19c-0.07,0.12,0.08-0.12,0.11-0.17
						c0.08-0.14-0.03-0.04-0.04,0.04c0-0.02,0.07-0.07,0.09-0.09c0.05-0.05,0.18-0.1,0.03-0.04c-0.22,0.1,0.11-0.02,0.08-0.04
						c-0.02-0.01-0.21,0.12-0.1,0.05c0.05-0.03,0.22-0.04,0.06-0.02c-0.18,0.01,0.28,0.04-0.02,0c0.06,0.01,0.31,0.06,0.21,0.02
						c-0.13-0.04,0.04,0.02,0.07,0.03c0.05,0.02,0.11,0.05,0.16,0.07c0.14,0.06-0.12-0.09,0,0c0.06,0.04,0.12,0.08,0.18,0.13
						c0.05,0.04,0.26,0.27,0.14,0.12c0.07,0.09,0.13,0.2,0.19,0.29c0.09,0.14,0.03,0.05,0.01,0c0.02,0.07,0.04,0.15,0.06,0.23
						c0.01,0.05,0.02,0.1,0.02,0.14c0.05,0.28,0.01-0.08,0,0.07c0,0.06-0.01,0.13-0.02,0.19c0,0.04-0.05,0.25,0,0.06
						c-0.03,0.13-0.09,0.25-0.13,0.37c-0.02,0.05-0.11,0.17,0,0.01c-0.04,0.06-0.07,0.11-0.11,0.17c-0.04,0.06-0.08,0.11-0.12,0.16
						c0.06-0.09,0.1-0.1,0.01-0.01c-0.05,0.05-0.09,0.1-0.14,0.14c-0.03,0.03-0.25,0.19-0.1,0.09c0.13-0.09-0.02,0.01-0.04,0.02
						c-0.08,0.05-0.15,0.09-0.23,0.14c-0.04,0.02-0.24,0.11-0.09,0.05c0.16-0.07-0.15,0.05-0.15,0.05
						c-0.13,0.05-0.27,0.09-0.41,0.13c0.05-0.01,0.22-0.04-0.01,0c-0.07,0.01-0.14,0.03-0.21,0.04c-0.16,0.02-0.32,0.04-0.49,0.05
						c-0.05,0-0.11,0.01-0.16,0.01c-0.01,0-0.36,0-0.14,0c0.26,0.3,0.52,0.6,0.77,0.91c0.11-0.94,0.22-1.88,0.32-2.82
						c0.03-0.27-0.07,0.12,0.03-0.13c0.08-0.21-0.03,0.04-0.08,0.09c-0.04,0.03-0.08,0.06-0.13,0.09c0.1-0.06,0.1-0.06,0.01-0.01
						c-0.1,0.04-0.09,0.05,0.02,0.01c-0.04,0.01-0.08,0.02-0.12,0.03c0.09-0.02,0.19-0.02,0.28-0.03c0.3-0.03-0.2-0.02,0.09,0
						c0.17,0.02,0.34,0.03,0.5,0.06c0.09,0.02,0.19,0.05,0.04,0c0.09,0.03,0.17,0.05,0.26,0.09c0.03,0.01,0.23,0.13,0.12,0.05
						c-0.15-0.1,0.19,0.18,0.06,0.05c-0.09-0.09,0.05,0.07,0.06,0.1c-0.09-0.14,0-0.01,0.01,0.09c0-0.03-0.01-0.06-0.01-0.09
						c-0.02,0.12-0.01,0.11,0.01-0.02c-0.01,0.03-0.02,0.05-0.03,0.08c0.07-0.11,0.08-0.13,0.03-0.06c-0.09,0.12-0.1,0.11,0.01,0.01
						c-0.05,0.04-0.29,0.24-0.02,0.03c-0.19,0.14,0.25-0.04-0.06,0.03c-0.04,0.01-0.07,0.02-0.11,0.03c0.1-0.02,0.1-0.03,0.02-0.01
						c-0.1,0-0.2,0.02-0.29,0.03c0.16-0.01-0.18-0.01-0.18-0.01c-0.24-0.02-0.48-0.05-0.72-0.08c0.25,0.21,0.51,0.43,0.76,0.64
						c-0.02-0.06-0.06-0.38-0.06-0.12c0-0.08,0.01-0.15,0.02-0.23c-0.02,0.25,0,0.06,0.02-0.02c0.05-0.11,0.04-0.09-0.03,0.05
						c0.03-0.05,0.06-0.09,0.09-0.13c0.12-0.19-0.18,0.15,0.01,0c0.04-0.04,0.08-0.07,0.12-0.11c-0.15,0.11-0.18,0.14-0.1,0.08
						c0.03-0.02,0.07-0.04,0.1-0.06c0.12-0.06,0.09-0.05-0.08,0.04c0.04-0.02,0.07-0.03,0.11-0.04c0.09-0.03,0.05-0.02-0.11,0.02
						c0.01-0.06,0.36,0.02,0.17-0.03c-0.23-0.05,0.32,0.13-0.03-0.01c0.05,0.02,0.24,0.05,0.09,0.02c0.09,0.08,0.11,0.09,0.07,0.02
						c0.05,0.09,0.06,0.1,0.03,0.04c-0.02-0.07-0.02-0.05,0,0.04c0-0.12-0.01-0.12-0.02,0c0.03-0.11,0.03-0.13,0-0.05
						c-0.03,0.07-0.02,0.06,0.03-0.05c-0.03,0.06-0.07,0.11-0.11,0.16c0.09-0.1,0.1-0.12,0.04-0.06c-0.26,0.2,0.16-0.06-0.08,0.07
						c-0.1,0.05-0.27,0.15-0.06,0.06c-0.13,0.06-0.26,0.1-0.39,0.14c0.2-0.05-0.01-0.01-0.1,0c0.22-0.02-0.06-0.01-0.11-0.01
						c-0.12-0.02-0.13-0.02-0.03,0c-0.06-0.02-0.11-0.04-0.17-0.07c0.15,0.06-0.02-0.01-0.08-0.06c-0.05-0.04-0.19-0.2-0.08-0.06
						c-0.07-0.09-0.14-0.19-0.18-0.3c0.07,0.16,0.01-0.01,0-0.09c0.05,0.19,0,0,0.01-0.08c-0.03,0.12-0.03,0.13,0,0.03
						c-0.08,0.15-0.09,0.17-0.02,0.07c-0.12,0.13-0.14,0.16-0.08,0.1c0.07-0.06,0.04-0.04-0.11,0.09c0.12-0.07,0.09-0.05-0.1,0.04
						c0.1-0.03,0.1-0.03-0.01-0.01c-0.1,0.02-0.1,0.02,0,0c0.12-0.01,0.1-0.01-0.07-0.01c0.24,0.02-0.21-0.08,0.02,0
						c0.1,0.05,0.09,0.04-0.04-0.03c0.04,0.03,0.08,0.06,0.11,0.1c0.42,0.44,1.3,0.16,1.66-0.21
						C451.76-106.17,451.91-106.75,451.47-107.21L451.47-107.21z"/>
				</g>
			</g>
			<path class="st18" d="M438.99-126.87c0,0-1.45-10.98,4.64-10.14c6.09,0.84,2.9,11.27,2.9,11.27s0.29-10.7,4.93-8.73
				c4.64,1.97,2.32,11.27,2.32,11.27s1.74-8.72,4.35-7.6s5.8,2.82,1.16,18.31L438.99-126.87z"/>
			<polygon class="st18" points="459.28,-92.22 459.28,-100.67 459.28,-112.5 			"/>
			<polygon class="st21" points="459.28,-92.22 459.28,-112.5 479.86,-99.54 			"/>
		</g>
	</g>
</pattern>
<path class="st22" d="M829.89,595.28H12c-6.6,0-12-5.4-12-12V12C0,5.4,5.4,0,12,0h817.89c6.6,0,12,5.4,12,12v571.28
	C841.89,589.88,836.49,595.28,829.89,595.28z"/>
</svg>
