<?xml version="1.0" encoding="utf-8"?>
<!-- Generator: Adobe Illustrator 24.2.1, SVG Export Plug-In . SVG Version: 6.00 Build 0)  -->
<svg version="1.1" id="Layer_1" xmlns="http://www.w3.org/2000/svg" xmlns:xlink="http://www.w3.org/1999/xlink" x="0px" y="0px"
	 viewBox="0 0 640 480" style="enable-background:new 0 0 640 480;" xml:space="preserve">
<style type="text/css">
	.st0{fill:#F6DE39;stroke:#000000;stroke-width:0.2621;stroke-miterlimit:10;}
	.st1{fill:#F16E23;stroke:#000000;stroke-width:0.197;stroke-miterlimit:10;}
	.st2{fill:#FFFFFF;stroke:#000000;stroke-width:0.2621;stroke-miterlimit:10;}
	.st3{fill:#ED1C24;stroke:#000000;stroke-width:0.2621;stroke-miterlimit:10;}
	.st4{fill:#F16E23;stroke:#000000;stroke-width:0.2621;stroke-miterlimit:10;}
	.st5{fill:none;stroke:#000000;stroke-width:0.2621;stroke-miterlimit:10;}
	.st6{fill:#F6DE39;stroke:#000000;stroke-width:0.197;stroke-miterlimit:10;}
	.st7{fill:#FEE3CD;}
	.st8{fill:#F6DE39;stroke:#000000;stroke-width:0.2892;stroke-miterlimit:10;}
	.st9{fill:#F0E6F1;stroke:#000000;stroke-width:0.2173;stroke-miterlimit:10;}
	.st10{fill:#FFFFFF;stroke:#000000;stroke-width:0.2892;stroke-miterlimit:10;}
	.st11{fill:#ED1C24;stroke:#000000;stroke-width:0.2892;stroke-miterlimit:10;}
	.st12{fill:#F0E6F1;stroke:#000000;stroke-width:0.2892;stroke-miterlimit:10;}
	.st13{fill:none;stroke:#000000;stroke-width:0.2892;stroke-miterlimit:10;}
	.st14{fill:#F6DE39;stroke:#000000;stroke-width:0.2173;stroke-miterlimit:10;}
	.st15{fill:#E6E63A;}
	.st16{fill:#FEE3CD;stroke:#000000;stroke-width:0.1339;stroke-miterlimit:10;}
</style>
<g>
	<path d="M45.36,259.39c2.44-9.13,6.57,2.58,6.1-10.19c-0.15-5.03-0.15-15.68-2.44-20.08c-1.99-3.95,0.53-4.73-5.95-3.95
		c-1.53,0.19-6.23-7.76,0.3-7.76c0.91-0.46,1.82-0.76,2.75-1.06c3.2-1.52,3.35-8.83,3.35-12.03s-0.76-6.23-1.06-9.28
		c-0.91-10.95,0.15-8.07,0.91-18.11c0.15-2.58,5.95-4.71,8.24-4.71c6.25,0,5.49,1.67,5.49,6.85c0,3.34,4.43,3.19,6.57,3.19
		c4.87,0,9.76-0.46,14.49-0.46c1.99,0,13.11,0.61,13.11,2.75c0,4.86,3.9,18.26-13.73,8.66c-4.15-2.26-7.48-0.46-11.73-0.46
		c-1.99,0-4.72,0.91-6.71,1.23c-3.2,3.19-3.66-0.61-3.66,5.18c0,3.51,0.76,6.85,0.76,10.19c0,1.23-0.47,2.58-0.47,3.8
		c0,1.52,1.23,2.75,2.75,2.75c5.49,0,10.68-2.28,16.16-2.28c2.44,0,7.33,0.46,7.77,3.51c8.94,21.45-18.6,8.83-24.55,11.56
		c-0.91,0.91-1.82,2.43-1.82,3.8c0,3.66,1.23,16.59,2.58,20.08c0.76,0.91,1.53,2.43,3.05,2.43c7.63,0,14.02-5.47,21.5-5.47
		c2.44,0,6.14,3.06,5.8,5.94c-2.29,18.62-18.92,8.66-24.1,10.04c-9.62,2.58-14.55,6.78-23.79,3.19
		C40.02,265.94,43.83,261.67,45.36,259.39z"/>
	<path d="M124.05,195.63c0-0.61,0.3-1.23,0.47-1.99c2.44-2.9,6.71-1.37,9.15-2.9c4.87-2.9,4.11-10.19,7.33-14.6
		c1.82-2.43,5.04-2.43,7.77-2.43c1.82,0,3.05,1.67,3.05,3.34c0,3.04-6.1,9.28-6.1,15.51c0,5.18,4.28,6.7,6.1,10.8l0.91,3.34v1.06
		c0,2.28-1.53,5.18-2.44,7.31c-2.14,4.86-7.48,7.46-12.2,9.13c-1.23,0.46-2.29,1.37-2.29,2.75c0,1.82,1.99,2.58,3.52,2.58
		c1.23,0,2.44-0.46,3.81-0.46h0.76c1.38,0.61,2.58,1.67,3.66,2.58c5.8,4.71,15.21,10.95,15.21,18.56
		c0,11.88-10.78,33.67-21.63,35.65c-0.91,0.15-15.4-2.79-16.33-2.79c-5.34,0-9.62-15.81-12.5-20.37c-1.06-1.67,0.66-3.59-0.11-5.43
		c-0.61-1.37-0.25-5.54-0.25-7.06c0-1.99-0.11-4.02-0.11-5.85c0-2.28,1.82-3.89,2.58-5.88c1.53-3.51,8.85-4.27,11.9-6.38
		c-1.53-3.95-3.35-7.9-6.57-10.8c-0.91-0.76-1.82-1.23-2.58-1.82c-0.91-0.76-1.53-2.43-1.99-3.51c-1.06-2.13-2.9-4.71-2.9-7.31
		C112.31,203.7,120.7,198.82,124.05,195.63z M141.14,207.5c0-0.3,0-0.76-0.15-1.23c-0.15-0.91-2.29-3.51-3.35-3.51
		c-0.91,0-1.53,1.06-2.44,1.06c-3.66,0-10.38,0.91-10.38,5.94c0,3.95,5.34,7.61,9,7.61C138.39,217.39,141.14,211.46,141.14,207.5z
		 M132.98,266.83c0.47,0.3,4.09,0,4.53,0c2.14,0,6.67-2.41,7.88-4.08c1.23-1.52,0-9.59,0-11.56c0-4.71-2.29-10.36-6.86-12.32
		c-0.47-0.15-1.06-0.3-1.82-0.3c-3.66,0-7.01,4.1-7.33,7.61c-0.15,1.23-0.3,2.43-0.3,3.66
		C129.09,254.53,128.09,265.16,132.98,266.83z"/>
	<path d="M187.51,195.63c0-0.61,0.3-1.23,0.47-1.99c2.44-2.9,6.71-1.37,9.15-2.9c4.87-2.9,4.11-10.19,7.33-14.6
		c1.82-2.43,5.04-2.43,7.77-2.43c1.82,0,3.05,1.67,3.05,3.34c0,3.04-6.1,9.28-6.1,15.51c0,5.18,4.28,6.7,6.1,10.8l0.91,3.34v1.06
		c0,2.28-1.53,5.18-2.44,7.31c-2.14,4.86-7.48,7.46-12.2,9.13c-1.23,0.46-2.29,1.37-2.29,2.75c0,1.82,1.99,2.58,3.52,2.58
		c1.23,0,2.44-0.46,3.81-0.46h0.76c1.38,0.61,2.58,1.67,3.66,2.58c5.8,4.71,12.35,18.68,12.35,26.31c0,11.88-7.92,25.87-18.75,27.83
		c-0.91,0.15-12.05,0-12.05,0c-5.34,0-11.23-11.69-14.13-16.25c-1.06-1.67-1.89-9.76-2.65-11.58c-0.61-1.37-0.04-3.23-0.04-4.76
		c0-1.99,4-5.73,4-7.54c0-2.28,1.06-2.9,1.82-4.86c1.53-3.51,5.19-6.55,8.24-8.66c-1.53-3.95-3.35-7.9-6.57-10.8
		c-0.91-0.76-1.82-1.23-2.58-1.82c-0.91-0.76-1.53-2.43-1.99-3.51c-1.06-2.13-2.9-4.71-2.9-7.31
		C175.75,203.7,184.14,198.82,187.51,195.63z M204.58,207.5c0-0.3,0-0.76-0.15-1.23c-0.15-0.91-2.29-3.51-3.35-3.51
		c-0.91,0-1.53,1.06-2.44,1.06c-3.66,0-10.38,0.91-10.38,5.94c0,3.95,5.34,7.61,9,7.61C201.83,217.39,204.58,211.46,204.58,207.5z
		 M196.42,266.95c0.47,0.3,4.09,0,4.53,0c2.14,0,6.67-3.32,7.88-4.99c1.23-1.52,0-8.83,0-10.8c0-4.71-2.29-10.36-6.86-12.32
		c-0.47-0.15-1.06-0.3-1.82-0.3c-3.66,0-7.01,4.1-7.33,7.61c-0.15,1.23-0.3,2.43-0.3,3.66
		C192.53,254.53,191.53,265.28,196.42,266.95z"/>
	<path d="M356.62,258.77c0,5.2,0.72,10.55-5.78,10.8c-4.47,0.17-8.18-3.53-8.24-7.99c-0.08-5.64,1.38-11.45,1.38-17.12
		c0-7.61-0.76-17.65-3.35-24.81c-0.47-1.37-1.99-1.67-3.35-1.67c-9.62,0-8.68,10.19-8.68,17.2c0,6.85,0.61,13.55,0.61,20.39
		c0,3.51-0.61,4.56-4.43,4.56c-6.71,0-8.54-2.58-8.54-8.98c0-7.61,0.91-15.07,0.91-22.53c0-2.9-0.91-5.62-2.9-7.9
		c-3.05,0.76-6.1,1.52-9.45,1.52c-4.58,0-9.15-2.28-9.15-7.46c0-4.1,4.11-6.38,7.77-6.38c2.9,0,5.04,1.99,7.92,1.99
		c5.19,0,5.19-3.66,5.19-7.61c0-2.58,0.61-5.18,0.61-7.76c0-3.04-0.15-6.09-0.15-8.98c0-4.71,0-11.71,6.4-11.71
		c5.95,0,6.71,4.42,6.71,9.28c0,5.18-0.91,10.19-0.91,15.36c0,3.95-0.15,10.36,5.34,10.36c9.62,0,6.57-15.36,6.57-21.6
		c0-5.62,0.91-15.51,8.24-15.51c5.63,0,7.01,2.9,7.01,7.9c0,6.23-1.82,12.47-1.82,18.87c0,11.41,22.64,3.8,11.14,14.16
		c-2.16,1.94-3.81,2.58-5.63,2.9c-5.66,0.76-5.8,4.42-5.8,9.13C354.18,236.27,356.62,247.53,356.62,258.77z"/>
	<path d="M387.74,207.19c0-5.03-0.61-14.46,6.71-14.46c3.05,0,5.19,2.13,5.19,5.03c0,2.43-0.61,4.71-0.61,7
		c0,6.85-0.61,13.55-0.61,20.39c0,7.61,0.61,15.68,3.35,22.82c1.53,3.66,5.8,5.62,9.45,5.62c0.91,0,1.82-0.15,2.58-0.46
		c7.94-2.28,9.45-22.06,9.45-28.91c0-9.28-1.82-17.65-5.19-26.16c-0.15-0.61-0.3-1.37-0.3-1.99c0-3.34,3.81-5.03,6.57-5.03
		c8.24,0,8.54,12.79,9.62,18.56c0.61,2.9,0.76,5.94,0.76,8.98c0,4.27-0.3,8.52-0.3,12.64c0,1.06,0.15,2.13,0.15,3.19
		c0,0.61-1.53,1.06-1.53,1.52c0,0.76,0.15,1.52,0.15,2.13c0,3.34-0.91,6.38-1.99,9.28c-3.05,7.9-5.82,27.14-13.92,28.95
		c-1.23,0.3-9.68,13.02-21.77,3.51c-7.94-6.23-6.06-18.49-4.77-9.78c-2.29-1.06-0.72-13.57-1.33-16.46
		c-1.53-5.79-1.82-12.47-1.82-18.56c0-5.03,0.47-10.04,0.47-15.22C388.03,215.73,387.74,211.46,387.74,207.19z"/>
	<path d="M471.62,192.44c0,1.82-0.76,3.66-0.76,5.47c4.43-0.3,8.68-1.52,12.96-1.52c3.35,0,6.25,0.91,8.39,3.66
		c6.86,8.66,9.91,16.89,9.91,27.85c0,6.7-0.76,13.23-0.76,19.93c0,2.58,0,5.03,0.15,7.61c0.3,2.75,1.23,5.33,1.23,8.07
		c0,3.95-3.05,6.09-6.71,6.09c-7.77,0-6.4-9.13-6.4-14.46c0-7,0.76-14.16,0.76-21.15c0-8.37-1.67-14.92-4.87-22.53
		c-0.91-2.28-1.82-5.18-4.72-5.18c-2.75,0-9.45,1.37-9.91,4.56c-0.76,4.86-0.91,10.04-0.91,14.92c0,8.52,1.06,17.03,1.06,25.57
		c0,3.51,0,8.98-0.61,12.32c-0.47,2.28-3.66,3.19-5.49,3.19c-3.05,0-5.34-2.13-5.49-5.18c-0.47-7.76,0-15.51,0-23.29
		c0-6.09,0-5.47-0.61-10.95c0.3,3.19-1.67-15.83-0.61-22.53c0.15-1.82,0.47-4.42,0.47-6.23c0-1.52-0.3-3.04-0.3-4.56
		c0-4.42,3.52-5.94,7.48-5.94C468.71,188.17,471.62,189.24,471.62,192.44z"/>
	<path d="M547.42,192.73c0.15-0.91,0-1.82,0-2.75c0-1.52,0.15-2.9,1.23-3.95c1.53-1.52,3.81-2.58,5.95-2.58
		c4.28,0,5.8,3.04,5.8,6.85c0,2.9-0.15,5.79-0.15,8.52c0,5.33,0.3,10.8,0.76,15.98c0,0.91,0.91,2.13,1.82,2.43
		c1.82,0.76,4.58,0.76,6.57,0.91c5.95,0.61,12.52,0.46,18,2.75c1.38,0.61,2.58,2.43,2.58,3.95c0,0.3,0,0.76-0.15,1.06
		c-1.53,3.8-5.8,5.18-9.45,5.18c-5.63,0-10.97-2.28-16.48-2.28c-0.61,0-1.06,0-1.67,0.15c-1.38,3.04-1.53,7.14-1.53,10.36
		c0,6.55,0.91,13.08,0.91,19.63c0,6.09-0.15,10.65-7.63,10.65c-4.43,0-6.57-1.06-6.57-5.79v-34.24c0-0.76-1.06-1.67-1.82-1.82
		c-0.47-0.15-1.23-0.15-1.82-0.15c-5.19,0-9.91,2.75-15.1,2.75c-3.05,0-7.33-2.13-7.33-5.47c0-2.13,1.67-4.71,3.35-5.79
		c6.86-4.27,16.16,0,23.34-4.86c0.76,0,0.91-2.13,0.91-2.58c0-2.58-2.14-6.38-2.14-10.19C546.81,198.52,547.26,195.63,547.42,192.73
		z"/>
	<g>
		<polygon class="st0" points="478.58,187.81 479.5,195.33 484.37,196.24 484.37,197.02 479.71,196.45 477.17,199.28 475.98,198.71 
			478.25,197.02 475.2,198.14 474.5,197.47 477.67,196.45 474.01,196.68 474.01,195.67 478.25,195.1 477.23,188.1 		"/>
		<path class="st1" d="M499.87,162.51c0,0,4.09,26.16-23.47,21.43c0,0-23.91-3.28-21.41-20.86l-8.05-2.94l8.05-5.2
			c0,0-2.16-8.01,0.44-7.33c0,0,1.59-0.23,1.69,3.04c0,0-0.68-5.07,0.91-4.5c0,0,2.03-1.01,1.93,3.49c0,0-0.91-5.2,1.14-4.5
			c0,0,1.82-0.57,1.82,4.06c0,0,5.1,0.34,5.32,5.64l22.09,0.78c0,0,1.02-11.5,4.64-8.69s0.23,6.55,0.23,6.55s4.87-9.7,7.24-6.09
			s-3.52,8.01-3.52,8.01s8.05-9.13,9.51-6.32c1.48,2.81-4.64,7.9-4.64,7.9s8.05,2.6,4.87,5.2S499.87,162.51,499.87,162.51z"/>
		<ellipse class="st2" cx="459.9" cy="156.61" rx="3.09" ry="3.09"/>
		<path class="st3" d="M459.9,164.07c0,0,4.85,5.3,1.1,6.09c-3.75,0.78-3.52-4.4-3.52-4.4s1.74,6.74-1.33,5.96
			c-3.07-0.78-1.31-5.54-1.31-5.54s-0.85,5.77-2.54,4.18c-1.69-1.59,2.61-6.32,2.61-6.32h5v0.03H459.9z"/>
		<path class="st4" d="M485.6,184.34c0,0,3.18,2.98,2.05,3.99c-1.14,1.01-2.05-0.68-2.05-0.68s0.68,1.54-0.78,0.99
			s-0.68-1.23-0.68-1.23s0.11,2.24-1.48,1.35s-0.91-2.11-0.91-2.11l0.57-2.16"/>
		<path class="st4" d="M478.31,183.71c0,0,3.18,2.98,2.05,3.99c-1.14,1.01-2.05-0.68-2.05-0.68s0.68,1.54-0.78,0.99
			c-1.48-0.55-0.68-1.23-0.68-1.23s0.11,2.24-1.48,1.35s-0.91-2.11-0.91-2.11l0.57-2.16"/>
		<path class="st5" d="M469.86,167.01c0,0-0.51,9.7,8.37,9.36s11.69-0.21,12.26-4.67c0,0,5.78,1.42,5.21-2.2
			c-0.57-3.61-4.87-1.54-4.87-1.54s6.23-0.93,3.75-3.87c-2.5-2.94-5.32,1.35-5.32,1.35s3.62-2.94,1.82-4.16
			c-1.82-1.25-4.53,2.03-4.53,2.03"/>
		<polygon class="st0" points="486.17,188.36 487.08,195.88 491.95,196.79 491.95,197.57 487.31,197.02 484.75,199.83 
			483.56,199.28 485.83,197.57 482.78,198.71 482.08,198.04 485.26,197.02 481.61,197.23 481.61,196.22 485.83,195.67 
			484.81,188.65 		"/>
		<g>
			<g>
				<path d="M458.72,157.65c0.04-0.04,0.02-0.02-0.04,0.02c-0.08,0.04-0.08,0.04-0.04,0.02c-0.02,0-0.04,0-0.06,0.02
					c0.04,0,0.04,0-0.02,0c0-0.04,0.13,0.06,0.02,0c0.02,0,0.04,0.02,0.06,0.02c-0.04-0.02-0.04-0.02-0.02-0.02
					c0.02,0.02,0.08,0.11,0.02,0.02c0.02,0.02,0.04,0.11,0.02,0c0,0.02,0.02,0.11,0.02,0.04c0,0.02,0,0.04,0,0.06
					c0.02-0.04,0.02-0.04,0,0c0,0.02,0,0.02-0.02,0.04c0.02-0.04,0.02-0.04,0,0c0.08-0.13,0,0.04-0.02,0.02
					c0.06-0.04,0.06-0.04,0.02-0.02c0.06-0.02,0.06-0.02,0.04-0.02s-0.04,0.02-0.06,0.02c0.04-0.02,0.04-0.02,0,0
					c0.02,0,0.02,0,0.04,0c-0.02,0-0.06,0-0.08,0c-0.04,0-0.06,0-0.02,0c-0.02,0-0.02,0-0.04-0.02c-0.11-0.04-0.15-0.06-0.21-0.11
					c-0.02-0.02-0.06-0.04-0.08-0.08c0.04,0.06-0.02-0.04-0.04-0.06c-0.02-0.02-0.02-0.02,0,0.02c0-0.02-0.02-0.04-0.02-0.06
					c0,0.04,0,0.04,0,0.02c0-0.02,0-0.02,0,0.02c-0.02,0.04-0.19,0.15-0.08,0.11c-0.06,0.02-0.08,0.04-0.04,0.02
					c-0.06,0.02-0.08,0.02-0.02,0c0.08,0-0.08-0.02,0,0c0.04,0,0.08,0.04,0.02,0c0.02,0.02,0.06,0.04,0.11,0.04
					c0.02,0.02,0.02,0-0.02-0.02c0.02,0.02,0.04,0.02,0.04,0.04c0.02,0.02,0.04,0.04,0.06,0.06c0.06,0.06-0.02-0.04,0.02,0.02
					c0.02,0.04,0.04,0.06,0.06,0.11c-0.02-0.06,0-0.02,0,0.02c0,0.04,0,0.08,0,0.02c0,0.02,0,0.04,0,0.06
					c0.02-0.06,0.02-0.06,0-0.02c0.17-0.13,0.32-0.23,0.49-0.36c-0.08,0.02-0.19,0.02-0.28,0.02c-0.02,0-0.13,0-0.08,0
					c0.02,0-0.08,0-0.11-0.02c-0.02,0-0.02,0,0,0c-0.02,0-0.02,0-0.04-0.02c0,0-0.13-0.06-0.04-0.02c-0.02-0.02-0.06-0.04-0.08-0.06
					c-0.06-0.04,0,0.02-0.02-0.02c-0.02-0.02-0.04-0.04-0.04-0.08c0.04,0.06,0-0.02,0-0.04c0,0.04,0,0.04,0,0.02
					c0-0.02,0-0.02-0.02,0.02c0.06-0.06-0.04,0.04-0.04,0.04c0.06-0.06-0.06,0.02,0,0c0.08-0.04,0.02-0.04,0,0
					c0.02-0.02,0.08-0.02,0.11-0.04c-0.11,0.04,0,0,0.02,0s0.06,0,0.08-0.02c0.02,0,0.13,0,0.06,0s0.04,0,0.06,0s0.13,0.02,0.04,0
					c0.02,0,0.11,0.04,0.04,0c0,0,0.08,0.06,0.04,0.02c-0.04-0.04,0.04,0.08,0.02,0.04c-0.02-0.04,0.02,0.06,0.02,0.06
					c0.06,0.38,0.08,0.78,0.13,1.16c0.17-0.19,0.34-0.38,0.51-0.57c0.08,0-0.06,0-0.08,0c-0.04,0-0.11,0-0.15-0.02
					c-0.06,0-0.11-0.02-0.17-0.02c0,0-0.06-0.02-0.04,0c0.04,0-0.06-0.02-0.06-0.02c-0.04-0.02-0.11-0.04-0.15-0.06
					c-0.02,0-0.13-0.06-0.08-0.04c-0.08-0.06-0.19-0.13-0.25-0.21c0.04,0.04-0.04-0.04-0.04-0.06c-0.02-0.04-0.04-0.08-0.06-0.13
					c-0.02-0.02-0.02-0.04-0.04-0.06c0,0,0.02,0.04,0,0s-0.02-0.11-0.04-0.15c0,0,0-0.08,0-0.04c0,0.04,0-0.02,0-0.02
					c0-0.02,0.02-0.17,0-0.08c0-0.02,0.04-0.13,0.02-0.08c-0.02,0.06,0.08-0.11,0.02-0.04c-0.04,0.06,0.04-0.06,0.06-0.06
					c0,0-0.08,0.06-0.02,0.02c0.02,0,0.04-0.02,0.04-0.02c0.04-0.04-0.08,0.02-0.02,0.02c0.02,0,0.04-0.02,0.04-0.02
					c0.08-0.04-0.02,0-0.02,0s0.13-0.02,0.04,0c-0.06,0,0,0,0,0c0.02,0,0.04,0,0.06,0.02c-0.11-0.02,0.04,0.02,0.02,0
					c-0.02-0.02,0.06,0.04,0.06,0.04c0.02,0.02,0.04,0.02,0.04,0.04c-0.02-0.02-0.02-0.02,0,0c0.04,0.08,0.08,0.15,0.13,0.23
					c0.02,0.04,0,0,0,0c0,0.02,0.02,0.04,0.02,0.06c0.02,0.04,0.02,0.11,0.04,0.15c0.06,0.21,0.08,0.44,0.13,0.68
					c0.02,0.13,0.04,0.25,0.06,0.36c0,0.02,0,0.02,0,0.04l0,0c0-0.02,0.02-0.04,0.02-0.06c0.02-0.08,0.06-0.13,0.15-0.17
					c-0.02,0,0.21-0.06,0.15-0.06c-0.04,0,0.11,0.02,0,0c-0.02,0-0.04,0-0.04,0c-0.04,0,0.04,0.02,0,0
					c-0.02-0.02-0.08-0.02-0.11-0.04c-0.08-0.04-0.19-0.11-0.28-0.15c0,0-0.06-0.04-0.02-0.02c0.04,0.02-0.04-0.02-0.04-0.02
					c-0.04-0.02-0.08-0.04-0.13-0.08c-0.08-0.06-0.17-0.11-0.25-0.17s-0.15-0.13-0.23-0.21c-0.04-0.04,0,0.02-0.04-0.04
					c-0.04-0.04-0.06-0.08-0.11-0.15c-0.02-0.04-0.04-0.08-0.06-0.13c-0.02-0.02-0.02-0.04-0.02-0.06c0,0,0.02,0.06,0,0.02
					c0-0.04-0.02-0.06-0.02-0.11c0-0.02,0-0.04-0.02-0.06c0-0.02-0.02-0.11,0-0.04c0,0.04,0-0.06,0-0.08c0-0.04,0-0.08,0.02-0.11
					c0-0.04,0.04-0.11,0-0.04c0.02-0.04,0.02-0.08,0.04-0.13c0,0,0.02-0.04,0.02-0.06c0,0-0.06,0.08,0,0.02
					c0-0.02,0.02-0.02,0.02-0.04c0.02-0.04,0.04-0.04,0-0.02c-0.04,0.02-0.02,0.02,0,0s0.02-0.02,0.04-0.04c0-0.02,0.06-0.04,0,0
					c-0.06,0.06,0,0,0.02,0c0.06-0.04-0.11,0.04,0,0c0.06-0.02-0.11,0.02-0.04,0c0.02,0,0.02,0,0.04,0c-0.06,0.02-0.02,0,0,0
					s0.06,0,0.08,0.02c0,0-0.04-0.02,0,0s0.06,0.02,0.11,0.04c0.02,0,0.04,0.02,0.06,0.02c0.02,0.02,0.02,0.02,0,0
					c0.02,0,0.02,0.02,0.04,0.02c0.04,0.04,0.08,0.06,0.13,0.11c0.04,0.04,0.08,0.08,0.15,0.13c0.02,0.02,0.02,0.02,0.04,0.04
					c0.08,0.11-0.02-0.02,0.02,0.04c0.15,0.19,0.28,0.38,0.38,0.59c0.04,0.11,0.06,0.15,0.11,0.27c0.04,0.11,0.06,0.23,0.08,0.36
					c0,0.06,0.02,0.11,0.02,0.17c0,0.02,0,0.06,0,0.08s0,0.06,0,0.02c0,0.13,0,0.25-0.02,0.38c-0.02,0.23,0.21,0.38,0.42,0.36
					c0.23-0.04,0.49-0.21,0.51-0.46c0.06-0.59-0.04-1.16-0.3-1.69c-0.23-0.51-0.64-1.04-1.16-1.25c-0.57-0.23-1.25,0-1.55,0.55
					c-0.25,0.44-0.3,0.99-0.04,1.46c0.28,0.49,0.76,0.8,1.25,1.08c0.23,0.13,0.49,0.25,0.78,0.21c0.42-0.04,0.76-0.4,0.7-0.85
					c-0.04-0.32-0.11-0.63-0.17-0.93c-0.04-0.25-0.13-0.51-0.25-0.72c-0.34-0.55-1.04-0.63-1.57-0.3c-0.61,0.38-0.83,1.16-0.44,1.78
					c0.38,0.63,1.14,0.8,1.82,0.8c0.28,0,0.53-0.3,0.51-0.57s-0.06-0.55-0.08-0.85c-0.02-0.23-0.04-0.49-0.19-0.68
					c-0.32-0.4-0.97-0.38-1.4-0.21c-0.53,0.19-0.95,0.76-0.61,1.31c0.32,0.49,0.93,0.49,1.44,0.42c0.19-0.02,0.42-0.17,0.49-0.36
					c0.15-0.49-0.11-0.97-0.55-1.18c-0.55-0.25-1.38,0.06-1.42,0.72c-0.04,0.59,0.61,0.99,1.14,1.01c0.64,0,1.31-0.49,1.23-1.18
					c-0.08-0.7-1.04-0.8-1.46-0.36c-0.15,0.15-0.25,0.42-0.04,0.59C458.23,157.88,458.55,157.82,458.72,157.65L458.72,157.65z"/>
			</g>
		</g>
		<path class="st3" d="M462.93,149.2c0,0,0.57-4.4-1.82-4.06s-1.14,4.5-1.14,4.5s-0.11-4.29-1.93-3.49c-1.82,0.8-0.91,4.5-0.91,4.5
			s-0.68-3.49-1.69-3.04c-1.02,0.44-2.27,1.12-0.44,7.33L462.93,149.2z"/>
		<polygon class="st3" points="455.01,163.06 455.01,159.68 455.01,154.94 		"/>
		<polygon class="st6" points="455.01,163.06 455.01,154.94 446.96,160.14 		"/>
	</g>
	<g>
		<path class="st7" d="M147.01,248.46c-0.89-0.72-1.95-1.2-3.09-1.44c-0.66,1.61-1.31,3.23-1.95,4.84c-1.74-2.24-3.66-4.33-5.8-6.26
			c-0.47,2.05-1.1,4.06-1.89,6.02c-1.53-1.42-3.13-2.75-4.81-3.99c-0.19-0.15-0.42-0.3-0.66-0.19c-0.19,0.08-0.25,0.27-0.32,0.46
			c-0.53,1.69-1.04,3.4-1.57,5.09c-1.06-1.61-3.2-3.38-3.2-5.2c0.02-1.61,1.63-3.83,2.61-5.05c2.1-2.64,5.25-4.52,8.81-4.52
			c6.69,0,12.12,6.47,12.12,14.46s-5.42,14.46-12.12,14.46c-6.69,0-12.12-6.47-12.12-14.46c0-1.39,0.17-2.73,0.47-3.99"/>
		<g>
			<path d="M147.24,248.38c-0.95-0.72-1.95-1.18-3.11-1.46c-0.13-0.02-0.4,0-0.44,0.15c-0.66,1.61-1.31,3.23-1.95,4.84
				c0.17-0.04,0.32-0.08,0.49-0.13c-1.76-2.24-3.69-4.33-5.8-6.26c-0.08-0.08-0.44,0-0.49,0.13c-0.49,2.05-1.1,4.06-1.89,6.02
				c0.17-0.04,0.32-0.08,0.49-0.13c-1.14-1.06-2.33-2.07-3.56-3.04c-0.53-0.4-1.31-1.37-2.1-1.18c-0.44,0.11-0.55,0.46-0.68,0.87
				c-0.55,1.59-1,3.23-1.48,4.84c0.17-0.04,0.32-0.08,0.49-0.13c-0.85-1.23-1.97-2.24-2.69-3.55c-0.74-1.35-0.44-2.58,0.25-3.89
				c1.46-2.77,3.81-5.28,6.78-6.45c5.82-2.28,11.63,1.54,14.04,6.78c2.31,5.01,1.95,11.26-1.12,15.87
				c-3.26,4.88-9.49,6.95-14.68,3.7c-5.51-3.47-7.33-10.67-5.97-16.74c0.04-0.15-0.47-0.06-0.49,0.08
				c-1.42,6.28,0.57,13.78,6.46,17.12c4.45,2.54,9.91,1.46,13.45-2.11c4.6-4.63,5.53-12.22,2.84-18.05
				c-2.31-5.01-7.52-8.6-13.15-7.29c-3.37,0.78-5.97,3.06-7.86,5.88c-0.83,1.23-1.82,2.79-1.42,4.33c0.47,1.75,2.12,3.06,3.11,4.5
				c0.08,0.11,0.44-0.02,0.49-0.13c0.32-1.01,0.61-2.03,0.93-3.06c0.23-0.78,0.36-2.37,1.31-2.01c0.76,0.27,1.63,1.25,2.25,1.78
				c0.8,0.66,1.59,1.35,2.35,2.05c0.11,0.08,0.42,0,0.49-0.13c0.78-1.97,1.4-3.97,1.89-6.02c-0.17,0.04-0.32,0.08-0.49,0.13
				c2.12,1.92,4.05,3.99,5.8,6.26c0.08,0.11,0.44-0.02,0.49-0.13c0.66-1.61,1.31-3.23,1.95-4.84c-0.15,0.04-0.3,0.11-0.44,0.15
				c1.12,0.25,2.12,0.72,3.05,1.42C146.9,248.63,147.35,248.44,147.24,248.38L147.24,248.38z"/>
		</g>
	</g>
	<g>
		<path class="st7" d="M210.36,249.14c-0.89-0.72-1.95-1.2-3.09-1.44c-0.66,1.61-1.31,3.23-1.95,4.84c-1.74-2.24-3.66-4.33-5.8-6.26
			c-0.47,2.05-1.1,4.06-1.89,6.02c-1.53-1.42-3.13-2.75-4.81-3.99c-0.19-0.15-0.42-0.3-0.66-0.19c-0.19,0.08-0.25,0.27-0.32,0.46
			c-0.53,1.69-1.04,3.4-1.57,5.09c-1.06-1.61-3.2-3.38-3.2-5.2c0.02-1.61,1.63-3.83,2.61-5.05c2.1-2.64,5.25-4.52,8.81-4.52
			c6.69,0,12.12,6.47,12.12,14.46s-5.42,14.46-12.12,14.46s-12.12-6.47-12.12-14.46c0-1.39,0.17-2.73,0.47-3.99"/>
		<g>
			<path d="M210.59,249.05c-0.95-0.72-1.95-1.18-3.11-1.46c-0.13-0.02-0.4,0-0.44,0.15c-0.66,1.61-1.31,3.23-1.95,4.84
				c0.17-0.04,0.32-0.08,0.49-0.13c-1.76-2.24-3.69-4.33-5.8-6.26c-0.08-0.08-0.44,0-0.49,0.13c-0.49,2.05-1.1,4.06-1.89,6.02
				c0.17-0.04,0.32-0.08,0.49-0.13c-1.14-1.06-2.33-2.07-3.56-3.04c-0.53-0.4-1.31-1.37-2.1-1.18c-0.44,0.11-0.55,0.46-0.68,0.87
				c-0.55,1.59-1,3.23-1.48,4.84c0.17-0.04,0.32-0.08,0.49-0.13c-0.85-1.23-1.97-2.24-2.69-3.55c-0.74-1.35-0.44-2.58,0.25-3.89
				c1.46-2.77,3.81-5.28,6.78-6.45c5.82-2.28,11.63,1.54,14.04,6.78c2.31,5.01,1.95,11.26-1.12,15.87
				c-3.26,4.88-9.49,6.95-14.68,3.7c-5.51-3.47-7.33-10.67-5.97-16.74c0.04-0.15-0.47-0.06-0.49,0.08
				c-1.42,6.28,0.57,13.78,6.46,17.12c4.45,2.54,9.91,1.46,13.45-2.11c4.6-4.63,5.53-12.22,2.84-18.05
				c-2.31-5.01-7.52-8.6-13.15-7.29c-3.37,0.78-5.97,3.06-7.86,5.88c-0.83,1.23-1.82,2.79-1.42,4.33c0.47,1.75,2.12,3.06,3.11,4.5
				c0.08,0.11,0.44-0.02,0.49-0.13c0.32-1.01,0.61-2.03,0.93-3.06c0.23-0.78,0.36-2.37,1.31-2.01c0.76,0.27,1.63,1.25,2.25,1.78
				c0.8,0.66,1.59,1.35,2.35,2.05c0.11,0.08,0.42,0,0.49-0.13c0.78-1.97,1.4-3.97,1.89-6.02c-0.17,0.04-0.32,0.08-0.49,0.13
				c2.12,1.92,4.05,3.99,5.8,6.26c0.08,0.11,0.44-0.02,0.49-0.13c0.66-1.61,1.31-3.23,1.95-4.84c-0.15,0.04-0.3,0.11-0.44,0.15
				c1.12,0.25,2.12,0.72,3.05,1.42C210.23,249.33,210.7,249.12,210.59,249.05L210.59,249.05z"/>
		</g>
	</g>
	<g>
		<polygon class="st8" points="84.29,170.12 83.29,178.38 77.87,179.35 77.87,180.22 83.04,179.61 85.9,182.69 87.21,182.08 
			84.69,180.22 88.06,181.47 88.84,180.73 85.3,179.61 89.37,179.86 89.37,178.74 84.69,178.13 85.81,170.46 		"/>
		<path class="st9" d="M60.63,142.41c0,0-4.53,28.68,26.07,23.48c0,0,26.58-3.59,23.81-22.87l8.94-3.21l-8.94-5.68
			c0,0,2.39-8.77-0.51-8.03c0,0-1.76-0.25-1.89,3.34c0,0,0.76-5.56-1.02-4.95c0,0-2.27-1.12-2.14,3.83c0,0,1.02-5.68-1.25-4.95
			c0,0-2.01-0.61-2.01,4.44c0,0-5.68,0.38-5.93,6.17l-24.57,0.87c0,0-1.14-12.6-5.17-9.51c-4.02,3.09-0.25,7.16-0.25,7.16
			s-5.42-10.63-8.07-6.68c-2.65,3.95,3.9,8.77,3.9,8.77s-8.94-10.02-10.59-6.91c-1.63,3.09,5.17,8.64,5.17,8.64
			s-8.96,2.83-5.42,5.68C54.29,144.86,60.63,142.41,60.63,142.41z"/>
		<ellipse class="st10" cx="105.07" cy="135.95" rx="3.43" ry="3.38"/>
		<path class="st11" d="M105.07,144.15c0,0-5.38,5.81-1.23,6.68c4.15,0.87,3.9-4.82,3.9-4.82s-1.93,7.4,1.48,6.53
			c3.43-0.87,1.46-6.07,1.46-6.07s0.95,6.32,2.84,4.59c1.89-1.73-2.9-6.91-2.9-6.91L105.07,144.15L105.07,144.15z"/>
		<path class="st12" d="M76.49,166.34c0,0-3.54,3.25-2.27,4.37c1.25,1.12,2.27-0.74,2.27-0.74s-0.76,1.69,0.87,1.1
			c1.63-0.61,0.76-1.35,0.76-1.35s-0.13,2.45,1.63,1.48s1.02-2.3,1.02-2.3l-0.64-2.37"/>
		<path class="st12" d="M84.61,165.64c0,0-3.54,3.25-2.27,4.37c1.25,1.12,2.27-0.74,2.27-0.74s-0.76,1.69,0.87,1.1
			c1.63-0.61,0.76-1.35,0.76-1.35s-0.13,2.45,1.63,1.48c1.76-0.97,1.02-2.3,1.02-2.3l-0.64-2.37"/>
		<path class="st13" d="M94.01,147.36c0,0,0.55,10.63-9.3,10.25s-13.01-0.23-13.64-5.11c0,0-6.42,1.54-5.8-2.41
			c0.64-3.95,5.42-1.69,5.42-1.69s-6.93-1.01-4.15-4.23c2.77-3.21,5.93,1.48,5.93,1.48s-4.02-3.21-2.01-4.56
			c2.01-1.35,5.04,2.22,5.04,2.22"/>
		<polygon class="st8" points="75.86,170.73 74.86,178.97 69.44,179.97 69.44,180.83 74.61,180.22 77.45,183.31 78.76,182.69 
			76.24,180.83 79.63,182.08 80.41,181.34 76.87,180.22 80.94,180.47 80.94,179.35 76.24,178.74 77.38,171.07 		"/>
		<g>
			<g>
				<path d="M107.12,136.45c-0.19-0.19-0.51-0.25-0.76-0.19c-0.36,0.06-0.68,0.3-0.85,0.63c-0.3,0.61,0.23,1.25,0.85,1.33
					c0.64,0.08,1.48-0.34,1.67-0.99c0.11-0.36,0-0.68-0.34-0.87c-0.28-0.15-0.59-0.17-0.89-0.06c-0.57,0.17-1.17,0.82-0.95,1.46
					c0.04,0.17,0.17,0.25,0.34,0.27c0.66,0.08,1.38,0.02,1.78-0.57c0.17-0.27,0.23-0.59,0.11-0.89c-0.11-0.21-0.34-0.38-0.57-0.44
					c-0.57-0.17-1.29-0.15-1.69,0.36c-0.19,0.25-0.21,0.57-0.25,0.87c-0.04,0.3-0.06,0.61-0.11,0.91c-0.02,0.19,0.15,0.4,0.34,0.4
					c0.74,0,1.53-0.17,2.03-0.76c0.42-0.49,0.64-1.25,0.19-1.8c-0.47-0.59-1.29-0.63-1.86-0.17c-0.51,0.42-0.61,1.1-0.72,1.71
					c-0.06,0.34-0.25,0.82,0.06,1.1c0.25,0.23,0.66,0.19,0.95,0.06c0.3-0.11,0.57-0.3,0.85-0.46c0.28-0.19,0.53-0.38,0.76-0.63
					c0.38-0.44,0.59-1.04,0.4-1.63c-0.19-0.59-0.68-0.97-1.31-0.91c-0.78,0.06-1.44,0.78-1.78,1.44c-0.36,0.66-0.51,1.37-0.42,2.13
					c0.02,0.27,0.38,0.34,0.59,0.25c0.25-0.11,0.44-0.32,0.42-0.59c-0.04-0.38,0.02-0.85,0.17-1.2c0.04-0.11,0.08-0.19,0.13-0.3
					c-0.04,0.08,0.02-0.04,0.04-0.06c0.02-0.06,0.06-0.11,0.11-0.15c0.02-0.04,0.06-0.08,0.08-0.13c0.02-0.02,0.04-0.04,0.06-0.06
					c0,0,0.06-0.06,0.02-0.02s0.06-0.06,0.08-0.08c0.04-0.04,0.11-0.08,0.15-0.15c0.04-0.04-0.02,0-0.02,0.02
					c0.02-0.02,0.04-0.04,0.08-0.06c0.02-0.02,0.04-0.02,0.06-0.04c0.02,0,0.11-0.04,0.04-0.02c-0.06,0.02,0.15-0.04,0.02-0.02
					c0.02,0,0.06,0,0.08-0.02c0.04,0,0.06,0,0,0c0.02,0,0.04,0,0.06,0c-0.02,0-0.11-0.04-0.02,0c0.02,0.02,0.06,0.02,0.08,0.04
					c0.06,0.02,0,0-0.02,0c0.02,0.02,0.04,0.02,0.04,0.04c0.04,0.02,0.06,0.06,0.08,0.08c-0.06-0.06,0,0,0.02,0.04
					s0.04,0.06,0.06,0.11c0,0.02,0.02,0.04,0.02,0.06c0,0-0.02-0.06-0.02-0.02s0.02,0.11,0.04,0.15c0,0.04,0,0.08,0.02,0.13
					c0.02,0.04,0-0.02,0-0.02c0,0.02,0,0.04,0,0.06c0,0.04,0,0.08,0,0.13c0,0.02,0,0.04,0,0.04c-0.02,0.11,0.02-0.04,0,0
					s-0.02,0.08-0.04,0.11c0,0.02-0.02,0.04-0.04,0.06c0-0.02,0.04-0.08,0,0c-0.02,0.04-0.04,0.06-0.06,0.11
					c-0.02,0.02-0.04,0.04-0.06,0.06c0.04-0.06,0.02-0.02-0.02,0.02c-0.06,0.08-0.15,0.15-0.23,0.21c-0.02,0.02-0.08,0.06-0.02,0.02
					c0.06-0.04,0,0-0.02,0c-0.04,0.04-0.11,0.06-0.15,0.11c-0.11,0.06-0.19,0.13-0.3,0.17c-0.04,0.02-0.08,0.04-0.15,0.08
					c-0.04,0.02-0.13,0.08-0.17,0.08c0,0,0.13-0.04,0.04-0.02c-0.02,0-0.04,0.02-0.04,0.02c-0.13,0.04,0.06,0-0.02,0
					c-0.08,0,0.02,0,0.02,0c-0.04,0-0.06-0.02,0.02,0c0.02,0.02,0.04,0.04,0.06,0.04c0.02,0.02,0.02,0.02,0,0
					c-0.02-0.04-0.02-0.02,0.02,0.08c0.02,0,0.06-0.36,0.06-0.38c0.02-0.15,0.06-0.3,0.08-0.42c0.02-0.11,0.04-0.23,0.06-0.34
					c-0.02,0.08,0.02-0.04,0.02-0.06c0.02-0.04,0.04-0.11,0.04-0.15c0.02-0.04,0.04-0.08,0.06-0.13c-0.04,0.08,0,0,0.02-0.04
					c0.02-0.02,0.04-0.04,0.04-0.06c0.04-0.06-0.02,0.04-0.02,0.02c0,0,0.04-0.06,0.06-0.04c-0.02,0.02-0.04,0.02-0.06,0.04
					c0.02-0.02,0.04-0.02,0.04-0.02c0.06-0.02-0.04,0.02-0.04,0.02s0.08-0.02,0.06-0.02c-0.02,0-0.08,0.04-0.04,0.02
					c0.02,0,0.11,0,0.02,0c-0.06,0,0.06,0.02,0.08,0.02c-0.11-0.02,0.02,0.02,0.06,0.04c0.06,0.02,0.02,0,0,0
					c0.02,0.02,0.04,0.02,0.06,0.04c0.02,0.02,0.04,0.04,0.06,0.04c0,0,0.08,0.08,0.04,0.04c-0.04-0.04,0,0.02,0,0.02
					c0.02,0.02,0.04,0.06,0.04,0.08s0.04,0.08,0.02,0.04c-0.02-0.04,0.02,0.06,0.02,0.06c0,0.02,0,0.04,0.02,0.06
					c0,0.02,0,0.11,0,0.04c0,0.06,0,0.11-0.02,0.17c0.02-0.08-0.02,0.06-0.02,0.08c-0.02,0.02-0.02,0.06-0.04,0.08
					c0.02-0.06,0-0.02-0.02,0.02c-0.02,0.02-0.02,0.04-0.04,0.06c0,0.02-0.08,0.11-0.04,0.04c0.04-0.04,0,0-0.02,0.02
					s-0.06,0.04-0.08,0.06c-0.06,0.06,0.08-0.04,0,0c-0.04,0.02-0.06,0.04-0.11,0.06c-0.02,0.02-0.04,0.02-0.06,0.04
					c-0.06,0.02,0.08-0.02-0.02,0c-0.06,0.02-0.13,0.04-0.19,0.06c-0.02,0-0.11,0.02,0,0c-0.04,0-0.06,0.02-0.11,0.02
					c-0.06,0.02-0.15,0.02-0.21,0.02c-0.02,0-0.04,0-0.06,0c0,0-0.15,0-0.06,0c0.11,0.13,0.23,0.25,0.34,0.4
					c0.04-0.4,0.08-0.82,0.15-1.23c0.02-0.13-0.02,0.06,0.02-0.06c0.04-0.08,0,0.02-0.04,0.04c-0.02,0.02-0.04,0.02-0.06,0.04
					c0.04-0.02,0.04-0.02,0,0s-0.04,0.02,0,0c-0.02,0-0.04,0-0.06,0.02c0.04,0,0.08-0.02,0.13-0.02c0.13-0.02-0.08-0.02,0.04,0
					c0.06,0,0.15,0.02,0.21,0.02c0.04,0,0.08,0.02,0.02,0c0.04,0.02,0.08,0.02,0.11,0.04c0.02,0,0.11,0.06,0.04,0.02
					c-0.06-0.04,0.08,0.08,0.02,0.02c-0.04-0.04,0.02,0.04,0.02,0.04c-0.04-0.06,0,0,0,0.04c0-0.02,0-0.02,0-0.04c0,0.04,0,0.04,0,0
					c0,0.02,0,0.02-0.02,0.04c0.02-0.04,0.04-0.06,0.02-0.02c-0.04,0.04-0.04,0.04,0,0c-0.02,0.02-0.13,0.11,0,0.02
					c-0.08,0.06,0.11-0.02-0.02,0.02c-0.08,0.02,0.02,0-0.04,0c-0.04,0-0.08,0-0.13,0.02c0.06,0-0.08,0-0.08,0
					c-0.11,0-0.21-0.02-0.32-0.04c0.11,0.08,0.21,0.19,0.34,0.27c0-0.02-0.02-0.17-0.02-0.06c0-0.04,0-0.06,0-0.11
					c0,0.08,0,0.04,0-0.02c0.02-0.08-0.04,0.08,0.02-0.02c0.06-0.11-0.06,0.04,0.02-0.02l0.02-0.02c0.04-0.04,0.04-0.02-0.04,0.02
					c0,0,0.08-0.04,0.08-0.06c-0.08,0.04-0.08,0.04-0.04,0.02c0.02,0,0.04-0.02,0.06-0.02c-0.02,0-0.04,0.02-0.06,0.02
					c0.02,0,0.04,0,0.06,0c-0.06,0-0.08,0-0.04,0c0.02,0,0.04,0,0.04,0c-0.15-0.02,0.04,0.02,0,0c-0.02-0.02-0.02-0.02,0.02,0.02
					c-0.02-0.02-0.02-0.02,0.02,0.02c0-0.02,0-0.02-0.02-0.04c0,0.04,0,0.04,0,0c0,0.04,0,0.04,0,0c0,0.02,0,0.02-0.02,0.04
					c0.02-0.04,0.02-0.06,0,0c-0.04,0.04-0.04,0.04,0,0c-0.02,0.02-0.13,0.11-0.02,0.02c-0.04,0.02-0.08,0.04-0.13,0.08
					c0.11-0.06-0.04,0-0.06,0.02c-0.04,0-0.02,0,0.02,0c-0.02,0-0.06,0-0.08,0.02c-0.13,0.02,0.06,0.02-0.06,0
					c-0.11-0.02,0.02,0.02-0.06-0.02c-0.04-0.02-0.04-0.02,0,0c-0.02-0.02-0.04-0.02-0.06-0.04c-0.02-0.02-0.08-0.11-0.04-0.04
					c-0.02-0.04-0.04-0.06-0.06-0.11c0.04,0.08,0-0.04,0-0.06s0-0.02,0,0.02c0-0.04,0-0.04,0,0c0.02-0.04,0.02-0.04,0,0
					s-0.02,0.04,0,0c-0.06,0.06-0.06,0.06-0.02,0.04c-0.02,0.02-0.04,0.04-0.06,0.04c0.04-0.02,0.04-0.02-0.04,0.02
					c0.06-0.02,0.04-0.02-0.04,0c0.02,0,0.02,0,0.04,0c0.06,0,0.04,0-0.02,0c0.11,0-0.11-0.02,0,0c0.04,0.02,0.04,0.02-0.02-0.02
					c0.02,0.02,0.04,0.02,0.04,0.04c0.19,0.19,0.57,0.06,0.72-0.08C107.25,136.9,107.31,136.64,107.12,136.45L107.12,136.45z"/>
			</g>
		</g>
		<path class="st11" d="M101.7,127.83c0,0-0.64-4.82,2.01-4.44s1.25,4.95,1.25,4.95s0.13-4.69,2.14-3.83
			c2.01,0.87,1.02,4.95,1.02,4.95s0.76-3.83,1.89-3.34c1.14,0.49,2.52,1.23,0.51,8.03L101.7,127.83z"/>
		<polygon class="st11" points="110.51,143.03 110.51,139.33 110.51,134.13 		"/>
		<polygon class="st14" points="110.51,143.03 110.51,134.13 119.47,139.81 		"/>
	</g>
	<g>
		<g>
			<path class="st15" d="M407.82,260.09c0.32-0.57,0.66-1.12,1.04-1.65c-0.23,0.34-0.49,0.68-0.72,1.01c1-1.39,2.16-2.62,3.47-3.7
				c-0.32,0.25-0.66,0.53-0.97,0.78c0.95-0.76,1.97-1.44,3.05-1.99c1.04-0.55,1.89-1.86,2.1-3c0.21-1.18-0.17-2.62-0.95-3.53
				c-0.89-1.01-2.1-1.8-3.45-1.99c-0.47-0.02-0.95-0.04-1.42-0.08c-0.91,0.06-1.74,0.32-2.5,0.78c-3.9,2.05-7.12,5.33-9.26,9.13
				c-0.59,1.06-0.57,2.56-0.08,3.64c0.49,1.12,1.61,2.22,2.75,2.66c1.27,0.51,2.77,0.72,4.11,0.23
				C406.16,261.99,407.16,261.25,407.82,260.09L407.82,260.09z"/>
		</g>
	</g>
	<g>
		<g>
			<path class="st15" d="M399.49,247.51c2.39-0.15,4.77-0.02,7.14,0.34c-0.34-0.06-0.7-0.11-1.04-0.17c1.5,0.23,2.99,0.59,4.43,1.01
				c0.85,0.25,2.01,0.23,2.71-0.4c0.7-0.63,0.8-1.82,0.61-2.68c-0.57-2.47-2.65-4.73-5.1-5.47c-4.07-1.23-8.37-1.78-12.6-1.52
				c-0.93,0.06-1.78,0.38-2.18,1.29c-0.4,0.91-0.15,2.22,0.25,3.09c0.57,1.23,1.44,2.41,2.54,3.21
				C397.16,246.83,398.33,247.57,399.49,247.51L399.49,247.51z"/>
		</g>
	</g>
	<g>
		<g>
			<path class="st15" d="M419,227.03c0.02,0.63-0.02,1.27-0.13,1.88c0.02-0.08,0.02-0.17,0.04-0.23c-0.87,4.54-5.02,7.67-8.58,10.19
				c-0.25,0.17,0.38,1.59,0.38,1.56c0.47,1.14,1.04,2.28,1.63,3.36c0.21,0.36,2.58,4.69,3.05,4.37c4.11-2.9,9-6.74,8.75-12.3
				c-0.02-0.7-0.59-1.71-0.85-2.3c-0.57-1.23-1.21-2.45-1.91-3.61c-0.53-0.89-1.06-1.86-1.74-2.64
				C419.53,227.16,418.98,226.44,419,227.03L419,227.03z"/>
		</g>
	</g>
	<g>
		<g>
			<path class="st15" d="M417.94,253.32c3.9,3.28,8.49,5.66,13.41,7.02c0.23,0.06-0.51-1.86-0.4-1.56
				c-0.47-1.14-1.08-2.26-1.69-3.34c-0.61-1.08-1.25-2.18-1.99-3.17c-0.3-0.4-0.64-0.99-1.12-1.14c-1.02-0.27-2.01-0.59-2.99-0.97
				c0.08,0.02,0.15,0.06,0.23,0.08c-3.71-1.39-7.16-3.42-10.19-5.96c-0.51-0.44-0.13,0.74-0.15,0.7c0.3,0.97,0.85,1.99,1.31,2.9
				c0.64,1.2,1.29,2.39,2.05,3.51C416.88,252.03,417.33,252.79,417.94,253.32L417.94,253.32z"/>
		</g>
	</g>
	<g>
		<g>
			<path class="st15" d="M419.47,247.32c5.74,0.82,11.86,0.27,17.31-1.82c0.42-0.17,1.53-0.61,1.48-1.29
				c-0.02-0.66-1.16-1.01-1.61-1.14c-1.21-0.32-2.52-0.4-3.77-0.32c-1.25,0.08-2.54,0.23-3.71,0.68c-0.4,0.15-0.8,0.3-1.21,0.42
				c-0.89,0.3,0.95-0.25,0.21-0.06c-0.19,0.04-0.38,0.11-0.57,0.15c-0.47,0.11-1.93,0.34-0.11,0.06c-0.42,0.06-0.85,0.15-1.27,0.19
				c-1,0.13,1.21-0.08,0.61-0.04c-0.23,0.02-0.47,0.04-0.7,0.04c-0.19,0-0.4,0.02-0.59,0.02c-0.83,0.02,1.48,0.02,0.61,0
				c-0.4,0-0.78-0.02-1.19-0.04c-0.83-0.04,1.25,0.15,0.49,0.04c-0.25-0.04-0.53-0.06-0.78-0.11c-1.33-0.19-2.75-0.17-4.09,0.02
				c-0.91,0.13-2.33,0.36-3.11,0.93c-0.42,0.32-0.97,0.8-0.47,1.35C417.58,247.05,418.7,247.21,419.47,247.32L419.47,247.32z"/>
		</g>
	</g>
	<g>
		<g>
			<path class="st15" d="M397.61,226.31c2.05,2.75,4.55,5.11,7.24,7.25c2.22,1.75,4.66,3.19,7.27,4.29
				c0.28,0.17,0.53,0.19,0.78,0.06c0.23-0.02,0.32-0.17,0.25-0.44c-0.08-0.34-0.23-0.66-0.44-0.93c-0.25-0.44-0.57-0.85-0.91-1.2
				c-1.61-1.78-3.56-3.44-5.78-4.4c-0.13-0.06-0.55-0.23,0.04,0.02c0.55,0.25,0.21,0.11,0.11,0.04c-0.17-0.08-0.36-0.17-0.53-0.25
				c-0.36-0.17-0.7-0.38-1.04-0.57c-0.06-0.02,1.04,0.63,0.59,0.36c-0.08-0.06-0.19-0.11-0.28-0.17c-0.17-0.11-0.34-0.21-0.49-0.32
				c-0.06-0.04-0.15-0.11-0.21-0.15c-0.04-0.02,1.23,0.89,0.66,0.46c-0.15-0.11-0.32-0.23-0.47-0.36c-0.06-0.06-0.13-0.11-0.21-0.17
				c-0.13-0.11,1.27,1.04,0.78,0.63c-0.15-0.13-0.3-0.25-0.44-0.38c-0.57-0.51,0.76,0.7,0.7,0.63c-0.06-0.06-0.13-0.13-0.19-0.17
				c-0.15-0.13-0.28-0.27-0.42-0.42c-0.49-0.51,0.59,0.61,0.55,0.59c-0.06-0.06-0.13-0.13-0.17-0.19c-0.13-0.15-0.25-0.3-0.38-0.44
				c-0.06-0.08-0.15-0.17-0.21-0.25c-0.34-0.4,0.49,0.59,0.44,0.55c-0.13-0.17-0.28-0.34-0.4-0.53c-0.74-0.99-1.65-1.9-2.61-2.71
				c-0.91-0.78-1.99-1.65-3.07-2.16c-0.32-0.15-1.48-0.82-1.76-0.34C396.72,225.15,397.35,225.95,397.61,226.31L397.61,226.31z"/>
		</g>
	</g>
	<g>
		<g>
			<path class="st15" d="M410.15,252.92c0.08,0.19,0.17,0.36,0.23,0.55c-0.13-0.4-0.28-0.78-0.4-1.18c0.17,0.51,0.25,1.01,0.3,1.54
				c-0.02-0.4-0.04-0.82-0.08-1.23c0.06,1.27-0.17,2.54-0.3,3.78c-0.15,1.33-0.13,2.75,0.17,4.06c0.85,3.7,3.66,6.89,7.58,7.38
				c1.27,0.15,2.67-0.06,3.73-0.8c0.97-0.66,1.8-1.92,1.84-3.13c0.11-2.73-2.12-5.11-4.81-5.45c-0.15-0.02-0.28-0.04-0.42-0.08
				c0.47,0.13,0.91,0.25,1.38,0.38c-0.21-0.06-0.42-0.15-0.64-0.25c0.42,0.23,0.83,0.46,1.25,0.68c-0.19-0.13-0.36-0.25-0.53-0.4
				c0.34,0.3,0.66,0.61,1,0.91c-0.19-0.19-0.38-0.4-0.53-0.63c0.23,0.36,0.49,0.72,0.72,1.08c-0.21-0.34-0.38-0.68-0.51-1.06
				c0.13,0.4,0.28,0.78,0.4,1.18c-0.21-0.63-0.34-1.27-0.38-1.94c0.02,0.4,0.04,0.82,0.08,1.23c-0.06-1.31,0.23-2.6,0.34-3.89
				c0.19-2.09-0.06-4.14-0.97-6.04c-0.57-1.18-1.76-2.18-2.97-2.66c-1.16-0.46-2.8-0.61-3.98-0.15c-1.14,0.46-2.25,1.25-2.67,2.47
				C409.53,250.49,409.6,251.74,410.15,252.92L410.15,252.92z"/>
		</g>
	</g>
	<ellipse class="st16" cx="405.04" cy="238.89" rx="7.22" ry="9.07"/>
	<ellipse class="st16" cx="416.65" cy="236.48" rx="7.22" ry="9.07"/>
	<ellipse class="st16" cx="409.45" cy="221.14" rx="7.22" ry="9.07"/>
</g>
</svg>
